<svg xmlns="http://www.w3.org/2000/svg" viewBox="0 0 360 440" width="360" height="440" fill="none">
  <g shape-rendering="geometricPrecision" text-rendering="geometricPrecision">
    
    <g
      stroke="#111111"
      stroke-opacity="0.8"
      stroke-width="1.65"
      stroke-linecap="round"
      stroke-linejoin="round"
    >
      <path d="M 146.88 189.89 L 147.94 189.8" /><path d="M 147.94 189.8 L 148.12 189.8 L 148.38 189.71 L 148.56 189.62" /><path d="M 147.94 189.8 L 148.21 189.8 L 148.47 189.71 L 148.56 189.62" /><path d="M 148.56 189.62 L 148.65 189.45 L 148.74 189.27 L 148.83 189.09 L 148.83 188.92 L 148.92 188.74 L 149.09 188.65 L 149.18 188.65 L 149.36 188.56 L 149.71 188.47 L 149.98 188.56 L 151.4 188.65 L 152.19 188.83 L 152.55 188.83 L 153.25 188.92 L 153.61 189 L 153.96 189 L 154.14 189.09 L 154.49 189.18 L 154.85 189.36" /><path d="M 154.85 189.36 L 155.11 189.45" /><path d="M 154.85 189.36 L 154.94 189.36 L 155.11 189.45" /><path d="M 155.11 189.45 L 155.2 189.54 L 155.38 189.62 L 155.56 189.89 L 155.82 190.07 L 156 190.24 L 156.09 190.42 L 156.09 190.6 L 156.18 190.78 L 156.18 191.22 L 156.18 191.75 L 156.35 193.96 L 156.27 195.73 L 155.91 201.23 L 155.82 203 L 155.82 203.26 L 155.82 203.53 L 155.91 203.88 L 156 204.32 L 156.09 204.5 L 156.18 204.59 L 156.35 204.77 L 156.44 204.86 L 156.44 205.03 L 156.44 205.21 L 156.44 205.56 L 156.35 206.01 L 156.35 206.27 L 156.27 206.54 L 156.35 206.72" /><path d="M 156.35 206.72 L 156.35 206.8 L 157.51 207.42" /><path d="M 156.35 206.72 L 156.44 206.8 L 157.51 207.42" /><path d="M 157.51 207.42 L 158.21 208.49 L 158.48 209.02 L 158.57 209.11 L 158.66 209.2 L 158.83 209.37 L 159.99 210.08 L 160.43 210.52 L 160.78 210.79 L 162.29 212.56 L 162.47 212.74 L 162.82 213.09 L 163.35 213.71 L 163.53 213.89 L 163.7 214.07 L 163.88 214.07 L 164.15 214.16 L 164.68 214.16 L 165.21 214.24 L 166.01 214.33 L 167.25 214.51 L 169.28 214.77 L 169.55 214.86 L 169.9 214.86 L 170.61 215.13 L 171.23 215.13 L 172.12 215.31 L 172.47 215.31 L 172.65 215.31 L 173 215.39 L 173.62 215.48 L 173.89 215.48 L 174.6 215.57 L 174.95 215.66" /><path d="M 174.95 215.66 L 175.13 215.66 L 175.31 215.75" /><path d="M 174.95 215.66 L 175.13 215.75 L 175.31 215.75" /><path d="M 175.31 215.75 L 175.48 215.75 L 175.66 215.75" /><path d="M 175.66 215.75 L 175.75 215.84 L 175.93 215.84" /><path d="M 175.66 215.75 L 175.84 215.84 L 175.93 215.84" /><path d="M 175.93 215.84 L 176.1 215.93 L 176.19 216.01 L 176.37 216.1 L 177.34 217.52 L 177.79 218.05 L 177.87 218.23 L 178.05 218.32 L 178.49 218.76 L 178.67 218.94 L 178.85 219.03 L 179.03 219.29 L 179.11 219.38 L 179.29 219.47 L 179.91 220.09 L 180 220.18 L 181.24 221.42 L 181.33 221.59 L 181.59 221.77 L 181.77 221.95" /><path d="M 181.77 221.95 L 182.04 222.13 L 183.01 222.83" /><path d="M 181.77 221.95 L 182.04 222.21 L 183.01 222.83" /><path d="M 183.01 222.83 L 183.1 223.01 L 183.19 223.19" /><path d="M 183.01 222.83 L 183.19 223.01 L 183.19 223.19" /><path d="M 183.19 223.19 L 183.28 223.45 L 183.28 223.63 L 183.28 223.81" /><path d="M 183.28 223.81 L 183.28 223.99 L 183.19 224.25" /><path d="M 183.28 223.81 L 183.19 224.07 L 183.19 224.25" /><path d="M 183.19 224.25 L 183.1 224.43 L 181.33 229.03 L 181.33 229.56 L 181.42 238.95 L 181.33 239.04 L 181.06 240.01" /><path d="M 181.06 240.01 L 180.97 240.46 L 180.97 240.63 L 180.97 240.9" /><path d="M 181.06 240.01 L 180.97 240.55 L 180.97 240.72 L 180.97 240.9" /><path d="M 180.97 240.9 L 181.06 241.08 L 181.15 241.25" /><path d="M 181.15 241.25 L 181.42 241.7 L 181.68 241.96" /><path d="M 181.15 241.25 L 181.51 241.79 L 181.68 241.96" /><path d="M 181.68 241.96 L 181.95 242.32 L 182.04 242.41" /><path d="M 182.04 242.41 L 182.3 242.85 L 182.57 243.11 L 182.75 243.38 L 182.83 243.56 L 182.83 243.65 L 183.01 243.91 L 183.01 244.18 L 183.1 244.44 L 183.19 244.97" /><path d="M 182.04 242.41 L 182.48 243.11 L 182.57 243.29" /><path d="M 183.19 244.97 L 183.19 245.15 L 183.19 245.33 L 183.28 245.68" /><path d="M 183.19 244.97 L 183.19 245.24 L 183.19 245.42 L 183.28 245.68" /><path d="M 183.28 245.68 L 183.28 245.86 L 183.28 246.21" /><path d="M 183.28 246.21 L 183.28 246.3 L 183.37 246.92" /><path d="M 183.28 246.21 L 183.28 246.48 L 183.37 246.92" /><path d="M 183.37 246.92 L 183.37 247.72 L 183.37 247.98 L 183.37 248.69 L 183.45 249.84 L 183.37 250.29 L 183.37 250.55 L 183.28 251" /><path d="M 183.28 251 L 183.1 251.79 L 183.01 252.41 L 182.66 253.74" /><path d="M 183.28 251 L 183.28 250.73 L 183.28 250.38 L 183.37 249.93 L 183.37 249.76 L 183.28 249.22 L 183.28 248.78 L 183.28 248.25 L 183.28 247.81 L 183.28 247.54 L 183.28 247.28 L 183.28 247.1 L 183.19 246.83 L 183.19 246.57" /><path d="M 183.28 251 L 183.19 251.35 L 183.01 252.06 L 183.01 252.24 L 182.83 252.68 L 182.83 252.86 L 182.75 253.21 L 182.66 253.48 L 182.66 253.74" /><path d="M 182.66 253.74 L 182.57 254.27 L 182.48 254.98" /><path d="M 182.66 253.74 L 182.57 254.01 L 182.48 254.27 L 182.48 254.45 L 182.39 254.63 L 182.39 254.98 L 182.3 255.25" /><path d="M 182.48 254.98 L 182.04 257.9 L 181.95 258.44" /><path d="M 182.48 254.98 L 182.04 257.99 L 181.95 258.44" /><path d="M 181.95 258.44 L 181.95 258.79 L 181.95 259.05 L 181.95 259.32 L 181.95 259.67 L 181.95 259.94 L 182.04 260.12 L 182.04 260.38 L 182.13 260.65 L 182.3 261 L 182.39 261.27 L 183.1 262.42 L 183.54 263.13 L 183.9 263.75 L 184.87 265.34 L 185.23 265.87 L 185.67 266.58 L 186.64 268.18 L 186.73 268.35 L 186.82 268.44 L 186.91 268.62 L 187.26 269.24 L 187.44 269.51 L 187.62 269.68" /><path d="M 187.62 269.68 L 187.7 269.95 L 188.24 270.83" /><path d="M 187.62 269.68 L 187.79 270.04 L 188.24 270.83" /><path d="M 188.24 270.83 L 188.5 271.19 L 188.68 271.45 L 189.03 272.07 L 189.48 272.78 L 189.92 273.49 L 190.18 273.93 L 190.36 274.29 L 190.45 274.38" /><path d="M 190.45 274.38 L 190.63 274.64 L 190.8 275.08" /><path d="M 190.45 274.38 L 190.63 274.73 L 190.8 275.08" /><path d="M 190.8 275.08 L 190.89 275.26 L 191.07 275.53 L 191.16 275.79 L 191.16 275.97 L 191.25 276.32 L 191.34 277.03 L 191.42 277.3 L 191.51 277.48 L 191.51 277.65 L 191.6 277.83 L 191.69 278.01 L 191.78 278.27 L 192.04 278.8 L 192.22 278.98 L 192.4 279.42 L 192.58 279.69 L 193.11 280.58 L 193.37 281.11 L 194.35 282.7 L 194.97 283.94 L 195.76 285.09 L 195.94 285.36" /><path d="M 195.94 285.36 L 196.21 285.89 L 196.47 286.24 L 196.56 286.51" /><path d="M 195.94 285.36 L 196.3 285.98 L 196.47 286.33 L 196.56 286.51" /><path d="M 196.56 286.51 L 196.65 286.6 L 196.83 287.04" /><path d="M 196.56 286.51 L 196.65 286.69 L 196.83 287.04" /><path d="M 196.83 287.04 L 197.36 288.01 L 198.6 290.05 L 198.95 290.67 L 199.13 291.03 L 199.22 291.11 L 199.66 291.91 L 200.01 292.62 L 200.1 292.71" /><path d="M 200.1 292.71 L 200.55 293.5 L 200.63 293.68 L 201.61 295.36" /><path d="M 200.1 292.71 L 200.63 293.59 L 200.72 293.68 L 201.61 295.36" /><path d="M 201.61 295.36 L 201.79 295.54 L 201.87 295.72 L 201.96 295.98 L 202.05 296.16 L 202.23 296.69 L 202.41 297.05 L 202.41 297.22 L 202.49 297.49 L 202.49 297.58 L 202.67 298.02 L 202.76 298.29 L 202.85 298.55" /><path d="M 202.85 298.55 L 202.85 298.73 L 202.94 298.82 L 202.94 299" /><path d="M 202.85 298.55 L 202.85 298.82 L 202.94 299" /><path d="M 202.94 299 L 203.03 299.35" /><path d="M 202.94 299 L 202.94 299.08 L 203.03 299.35" /><path d="M 203.03 299.35 L 203.03 299.53 L 203.03 299.7 L 203.03 299.97 L 202.94 300.32 L 202.94 300.68 L 202.85 301.21 L 202.76 302.18 L 202.67 302.63" /><path d="M 202.67 302.63 L 202.67 302.72 L 202.58 303.16" /><path d="M 202.67 302.63 L 202.67 302.8 L 202.58 303.16" /><path d="M 202.58 303.16 L 202.41 304.4 L 202.41 304.57 L 202.41 304.93" /><path d="M 202.58 303.16 L 202.41 304.49 L 202.41 304.66 L 202.41 304.93" /><path d="M 202.41 304.93 L 202.23 305.99 L 201.96 308.12 L 201.87 308.65 L 201.79 309.09 L 201.79 309.45 L 201.7 309.62" /><path d="M 201.7 309.62 L 201.7 309.98 L 201.61 310.51" /><path d="M 201.7 309.62 L 201.7 310.07 L 201.61 310.51" /><path d="M 201.61 310.51 L 201.61 310.77 L 201.61 311.04 L 201.61 311.22 L 201.61 311.39 L 201.52 311.57 L 201.52 311.84 L 201.61 312.1 L 201.61 312.28 L 201.61 312.55 L 201.7 312.72 L 201.7 312.99 L 201.79 313.25 L 201.87 313.61 L 202.05 314.32 L 202.14 314.67 L 202.32 315.02" /><path d="M 202.32 315.02 L 202.41 315.2 L 202.49 315.56" /><path d="M 202.32 315.02 L 202.41 315.29 L 202.49 315.56" /><path d="M 202.49 315.56 L 202.58 315.64 L 202.58 315.82 L 202.67 316 L 203.03 317.06 L 203.2 317.5 L 203.29 317.86" /><path d="M 203.29 317.86 L 203.65 318.74 L 204 319.63" /><path d="M 203.29 317.86 L 203.73 318.83 L 204 319.63" /><path d="M 204 319.63 L 204.09 319.9 L 204.18 320.16 L 204.18 320.43 L 204.27 320.6 L 204.27 320.96 L 204.35 321.14 L 204.35 321.4" /><path d="M 204.35 321.4 L 204.35 321.58 L 204.35 321.93" /><path d="M 204.35 321.4 L 204.35 321.67 L 204.35 321.93" /><path d="M 204.35 321.93 L 204.35 322.46 L 204.35 322.64 L 204.27 322.91 L 204.27 323.26 L 204.18 324.06 L 204.18 324.68 L 204.18 324.86 L 204 326.54 L 204 326.98 L 203.91 327.42 L 203.91 327.6 L 203.91 328.13 L 203.82 328.57 L 203.82 328.84 L 203.82 329.11 L 203.73 329.73" /><path d="M 182.57 243.29 L 182.66 243.47 L 182.83 243.73 L 182.92 244.09" /><path d="M 182.57 243.29 L 182.75 243.56 L 182.83 243.91 L 182.92 244.09" /><path d="M 182.92 244.09 L 182.92 244.18 L 183.01 244.53" /><path d="M 182.92 244.09 L 183.01 244.35 L 183.01 244.53" /><path d="M 183.01 244.53 L 183.1 244.8" /><path d="M 183.1 244.8 L 183.1 245.15 L 183.1 245.42" /><path d="M 183.1 244.8 L 183.1 245.24 L 183.1 245.42" /><path d="M 183.1 245.42 L 183.19 245.77" /><path d="M 183.19 245.77 L 183.19 246.21 L 183.19 246.57" /><path d="M 183.19 245.77 L 183.19 246.3 L 183.19 246.57" /><path d="M 182.3 255.25 L 182.3 255.42 L 182.21 255.87" /><path d="M 182.3 255.25 L 182.3 255.51 L 182.21 255.87" /><path d="M 182.21 255.87 L 182.13 257.11 L 181.95 257.73" /><path d="M 181.95 257.73 L 181.95 257.9 L 181.86 258.26" /><path d="M 181.95 257.73 L 181.95 257.99 L 181.86 258.26" /><path d="M 181.86 258.26 L 181.86 258.52 L 181.86 258.79 L 181.86 259.05 L 181.86 259.32 L 181.86 259.67" /><path d="M 181.86 259.67 L 181.86 259.94 L 181.77 260.21 L 181.68 260.38 L 181.42 260.65" /><path d="M 181.86 259.67 L 181.86 260.03 L 181.68 260.29 L 181.59 260.47 L 181.42 260.65" /><path d="M 181.42 260.65 L 181.33 260.74 L 181.15 260.83 L 180.97 260.91 L 180.89 260.91 L 180.53 260.91 L 180.18 260.91" /><path d="M 180.18 260.91 L 180.09 260.91 L 179.91 260.91" /><path d="M 180.18 260.91 L 180 260.91 L 179.91 260.91" /><path d="M 179.91 260.91 L 179.73 261 L 179.56 261.09 L 179.11 261.27" /><path d="M 179.91 260.91 L 179.65 261 L 179.47 261.09 L 179.11 261.27" /><path d="M 179.11 261.27 L 178.76 261.45 L 178.58 261.53" /><path d="M 178.58 261.53 L 178.49 261.62 L 178.23 261.89" /><path d="M 178.58 261.53 L 178.41 261.71 L 178.23 261.89" /><path d="M 178.23 261.89 L 178.14 261.98 L 178.05 262.07 L 177.96 262.24 L 177.87 262.42 L 177.79 262.6 L 177.7 262.77 L 177.61 263.04 L 177.61 263.22 L 177.52 263.48 L 177.52 263.84 L 177.52 264.1 L 177.52 264.55 L 177.7 265.34 L 177.7 265.79 L 177.79 266.23 L 178.05 268.18 L 178.23 270.04 L 178.23 270.21 L 178.32 270.74 L 178.32 270.92 L 178.49 271.63 L 178.49 271.81 L 178.49 271.98" /><path d="M 178.49 271.98 L 178.67 272.69 L 178.67 272.78 L 178.49 271.98" /><path d="M 178.76 272.87 L 178.85 273.05 L 178.94 273.22 L 178.94 273.31 L 179.03 273.58 L 179.11 273.84 L 179.2 274.11 L 179.38 274.64 L 179.56 275 L 179.65 275.35 L 179.73 275.62" /><path d="M 179.73 275.62 L 179.91 276.15 L 180 276.41 L 180.09 276.59" /><path d="M 179.73 275.62 L 180 276.15 L 180.09 276.41 L 180.09 276.59" /><path d="M 180.09 276.59 L 180.18 276.77 L 180.18 277.03" /><path d="M 180.09 276.59 L 180.18 276.86 L 180.18 277.03" /><path d="M 180.18 277.03 L 180.27 277.21" /><path d="M 180.27 277.21 L 180.44 278.18 L 180.53 278.63" /><path d="M 180.27 277.21 L 180.44 278.27 L 180.53 278.63" /><path d="M 180.53 278.63 L 180.62 278.8 L 180.62 279.07" /><path d="M 180.53 278.63 L 180.62 278.98 L 180.62 279.07" /><path d="M 180.62 279.07 L 180.62 279.25 L 180.53 279.42" /><path d="M 180.53 279.42 L 180.53 279.6 L 180.53 279.78 L 180.44 279.96 L 180.27 280.13" /><path d="M 180.53 279.42 L 180.53 279.69 L 180.44 279.87 L 180.35 279.96 L 180.27 280.13" /><path d="M 180.27 280.13 L 180.18 280.31 L 180 280.49 L 179.73 280.75 L 179.56 281.02 L 179.2 281.37 L 179.11 281.55 L 178.85 281.81 L 178.67 282.08 L 178.41 282.35" /><path d="M 178.41 282.35 L 178.32 282.52 L 178.05 282.7" /><path d="M 178.41 282.35 L 178.23 282.52 L 178.05 282.7" /><path d="M 178.05 282.7 L 177.96 282.7 L 177.87 282.79 L 177.79 282.88 L 177.61 282.97 L 177.34 283.05 L 177.25 283.05 L 177.08 283.14 L 176.99 283.14 L 176.9 283.14 L 176.72 283.14 L 176.1 283.14 L 175.84 283.14 L 175.66 283.14 L 175.48 283.14 L 174.95 283.32" /><path d="M 174.95 283.32 L 174.86 283.32 L 174.6 283.32" /><path d="M 174.95 283.32 L 174.77 283.32 L 174.6 283.32" /><path d="M 174.6 283.32 L 174.33 283.41 L 173.98 283.5 L 173.8 283.5 L 173.71 283.59 L 173.54 283.59 L 173.36 283.67 L 173.09 283.85 L 172.92 283.85 L 172.47 284.12 L 172.21 284.21 L 171.94 284.29 L 171.68 284.47 L 171.41 284.56 L 171.32 284.65 L 170.35 285 L 170.17 285.09 L 170.08 285.18 L 169.9 285.27" /><path d="M 169.9 285.27 L 169.82 285.27 L 169.55 285.27 L 169.37 285.27" /><path d="M 169.9 285.27 L 169.73 285.27 L 169.46 285.27 L 169.37 285.27" /><path d="M 169.37 285.27 L 169.2 285.18 L 169.11 285.18 L 169.02 285.09" /><path d="M 169.02 285.09 L 168.84 285.09 L 168.49 284.91" /><path d="M 169.02 285.09 L 168.84 285 L 168.49 284.91" /><path d="M 168.49 284.91 L 168.4 284.91 L 168.22 284.91" /><path d="M 168.49 284.91 L 168.31 284.91 L 168.22 284.91" /><path d="M 168.22 284.91 L 167.96 284.91 L 167.87 284.91 L 167.78 284.91 L 167.6 285 L 167.51 285.09 L 167.16 285.18" /><path d="M 175.75 159.6 L 175.66 160.04 L 175.66 160.58 L 175.57 160.75 L 175.57 160.84 L 175.57 161.55 L 175.48 161.82 L 175.48 162.17 L 175.39 162.52" /><path d="M 175.39 162.52 L 175.22 163.23 L 175.13 163.59" /><path d="M 175.39 162.52 L 175.22 163.32 L 175.13 163.59" /><path d="M 175.13 163.59 L 174.86 164.83 L 174.69 165.8 L 174.6 166.07 L 174.51 166.33" /><path d="M 174.51 166.33 L 174.51 166.69 L 174.33 167.22 L 174.24 167.75" /><path d="M 174.51 166.33 L 174.42 166.78 L 174.33 167.31 L 174.24 167.75" /><path d="M 174.24 167.75 L 173.98 168.81 L 173.8 169.7 L 173.62 170.32 L 173.62 170.67 L 173.54 170.94 L 173.45 171.65 L 173.36 172 L 173.36 172.53 L 173.36 172.97 L 173.27 173.77 L 173.27 173.95 L 173.27 174.3 L 173.36 174.83 L 173.36 175.19 L 173.27 176.07 L 173.27 177.23 L 173.27 178.47 L 173.27 178.82 L 173.27 179.17 L 173.27 180.06 L 173.27 182.27 L 173.27 182.72 L 173.27 183.34 L 173.27 183.78 L 173.27 183.96 L 173.18 184.22 L 173.18 185.02 L 173.18 185.2 L 173.18 185.73 L 173.18 186.44 L 173.18 186.7 L 173.18 186.97 L 173.18 187.5 L 173.18 187.85 L 173.09 188.12 L 173.09 188.65 L 173.09 189.27 L 173.09 191.22 L 173.09 191.93 L 173.18 192.46 L 173.18 192.63 L 173.18 193.43 L 173.18 193.96 L 173.18 194.41 L 173.18 194.76 L 173.27 195.56 L 173.27 195.91 L 173.27 196.35 L 173.27 196.71 L 173.27 197.06 L 173.27 197.24 L 173.27 197.51 L 173.27 197.68" /><path d="M 173.27 197.68 L 173.27 197.95 L 173.27 198.48" /><path d="M 173.27 197.68 L 173.27 198.04 L 173.27 198.48" /><path d="M 173.27 198.48 L 173.27 198.75 L 173.27 199.1 L 173.27 199.54 L 173.27 199.72 L 173.27 199.9 L 173.27 200.52 L 173.27 201.4 L 173.27 201.58 L 173.27 201.85 L 173.36 202.02 L 173.36 202.2 L 173.36 202.29 L 173.54 202.64 L 174.16 204.06 L 174.42 204.5 L 174.6 204.86 L 174.86 205.21 L 175.13 205.48 L 175.48 205.92 L 175.57 206.01 L 175.84 206.18" /><path d="M 175.84 206.18 L 176.19 206.54 L 176.46 206.72" /><path d="M 175.84 206.18 L 176.28 206.54 L 176.46 206.72" /><path d="M 176.46 206.72 L 176.99 207.25 L 177.79 208.31 L 179.91 212.38 L 180.44 213.54 L 180.8 214.07 L 180.89 214.24 L 180.89 214.33 L 180.97 214.42 L 180.97 214.69 L 181.06 216.37" /><path d="M 181.06 216.37 L 181.06 217.43 L 181.06 218.05" /><path d="M 181.06 216.37 L 181.06 217.52" /><path d="M 181.06 218.05 L 180.97 218.23 L 180.62 218.94 L 180.44 219.29 L 180.18 219.65 L 180 219.91 L 179.91 220.18 L 179.73 220.44 L 179.38 221.06 L 179.29 221.15" /><path d="M 181.06 218.05 L 181.06 217.52" /><path d="M 179.29 221.15 L 179.2 221.42 L 179.11 221.68" /><path d="M 179.29 221.15 L 179.2 221.51 L 179.11 221.68" /><path d="M 179.11 221.68 L 179.11 221.77 L 179.11 221.95" /><path d="M 179.11 221.95 L 179.11 222.21 L 179.03 222.92" /><path d="M 179.11 221.95 L 179.11 222.3 L 179.03 222.92" /><path d="M 179.03 222.92 L 178.94 223.37 L 178.94 223.54 L 178.76 223.72 L 178.49 224.16 L 178.49 224.43" /><path d="M 178.49 224.43 L 178.49 224.78 L 177.17 225.93 L 176.99 225.93 L 176.63 225.93" /><path d="M 178.49 224.43 L 178.41 224.78 L 177.08 225.93 L 176.9 225.93 L 176.63 225.93" /><path d="M 176.63 225.93 L 176.46 225.84 L 176.01 225.84 L 175.39 225.84 L 175.13 225.84 L 174.6 225.84 L 174.51 225.84 L 174.33 225.84 L 174.16 225.84 L 173.98 225.93" /><path d="M 173.98 225.93 L 173.8 225.93 L 173.62 226.02 L 173.54 226.11 L 173.36 226.46" /><path d="M 173.98 225.93 L 173.71 226.02 L 173.62 226.11 L 173.45 226.2 L 173.36 226.46" /><path d="M 173.36 226.46 L 173.09 226.82 L 172.83 227.17 L 172.12 228.24 L 172.03 228.41 L 171.76 228.77 L 171.68 228.94 L 171.41 229.39 L 170.97 230.01 L 170.79 230.18 L 170.79 230.36 L 170.61 230.45 L 170.52 230.63 L 170.08 231.25 L 168.84 233.11 L 168.75 233.37 L 168.31 233.9" /><path d="M 168.31 233.9 L 168.22 233.99 L 167.87 234.61 L 166.8 236.3 L 166.27 237.09 L 166.01 237.53" /><path d="M 168.31 233.9 L 168.22 234.08 L 167.78 234.7 L 166.72 236.38 L 166.18 237.18 L 166.01 237.53" /><path d="M 166.01 237.53 L 165.92 237.71 L 165.83 237.89" /><path d="M 166.01 237.53 L 165.83 237.71 L 165.83 237.89" /><path d="M 165.83 237.89 L 165.65 238.07 L 165.39 238.86 L 165.21 239.13 L 165.12 239.39 L 165.12 239.57 L 165.03 239.66 L 165.03 239.84" /><path d="M 165.03 239.84 L 164.94 240.1 L 164.86 240.37" /><path d="M 165.03 239.84 L 164.94 240.19 L 164.86 240.37" /><path d="M 164.86 240.37 L 164.77 240.55 L 164.77 240.72 L 164.68 240.9 L 164.68 241.17 L 164.59 241.43" /><path d="M 164.59 241.43 L 164.59 241.61 L 164.41 242.49 L 164.32 242.67" /><path d="M 164.59 241.43 L 164.5 241.7 L 164.41 242.58 L 164.32 242.67" /><path d="M 164.32 242.67 L 164.06 243.82 L 163.97 244.09 L 163.88 244.27" /><path d="M 163.88 244.27 L 163.79 244.35 L 163.7 244.8" /><path d="M 163.88 244.27 L 163.79 244.44 L 163.7 244.8" /><path d="M 163.7 244.8 L 163.53 245.06 L 163.44 245.42 L 163.17 245.95 L 162.82 246.57 L 162.73 246.92 L 162.55 247.45 L 162.47 247.63 L 162.29 247.98 L 162.2 248.25 L 162.2 248.34 L 162.2 248.52 L 162.02 248.96" /><path d="M 162.02 248.96 L 161.93 249.22 L 161.85 250.02" /><path d="M 162.02 248.96 L 161.93 249.31 L 161.85 250.02" /><path d="M 161.85 250.02 L 161.76 250.2 L 161.67 250.64 L 161.58 250.91 L 161.49 251.53 L 161.4 251.88 L 161.14 252.59" /><path d="M 161.14 252.59 L 160.96 253.12 L 160.87 253.39" /><path d="M 161.14 252.59 L 160.96 253.21 L 160.87 253.39" /><path d="M 160.87 253.39 L 160.78 253.65 L 160.61 254.27 L 160.52 254.45 L 160.43 254.63 L 160.34 254.89 L 160.16 255.51 L 159.81 256.4 L 159.72 256.66 L 159.54 257.2 L 159.37 257.73 L 159.19 257.99 L 159.01 258.61 L 158.83 258.88" /><path d="M 158.83 258.88 L 158.75 259.32 L 158.66 259.5" /><path d="M 158.83 258.88 L 158.66 259.32 L 158.66 259.5" /><path d="M 158.66 259.5 L 158.57 259.67 L 158.3 260.29 L 158.21 260.56" /><path d="M 181.06 217.52 L 181.24 217.52 L 181.42 217.52" /><path d="M 181.06 217.52 L 180.89 217.43" /><path d="M 181.06 217.52 L 181.15 217.52 L 181.42 217.52" /><path d="M 180.35 217.17 L 180.27 217.34 L 180 218.05 L 179.91 218.32 L 179.65 218.76 L 179.56 218.94 L 179.47 219.03 L 179.38 219.2" /><path d="M 180.35 217.17 L 180.44 216.99 L 180.53 216.81 L 180.89 216.01 L 180.97 215.84 L 180.97 215.75 L 180.89 214.77 L 180.89 214.51" /><path d="M 180.35 217.17 L 180.27 217.08" /><path d="M 180.35 217.17 L 180.44 217.25 L 180.53 217.34 L 180.89 217.43" /><path d="M 179.38 219.2 L 179.2 219.38 L 179.03 219.65" /><path d="M 179.38 219.2 L 179.2 219.47 L 179.03 219.65" /><path d="M 179.03 219.65 L 178.94 219.82" /><path d="M 178.94 219.82 L 178.94 219.91 L 178.76 220.18" /><path d="M 178.94 219.82 L 178.85 220 L 178.76 220.18" /><path d="M 178.76 220.18 L 178.67 220.35 L 178.67 220.53 L 178.58 220.71 L 178.49 221.15 L 178.49 221.33 L 178.41 221.42 L 178.32 221.59" /><path d="M 178.32 221.59 L 178.32 221.68 L 178.23 222.13 L 178.05 222.21" /><path d="M 178.32 221.59 L 178.32 221.86 L 178.23 222.21 L 178.05 222.21" /><path d="M 178.05 222.21 L 177.25 222.13 L 176.99 222.21 L 176.72 222.3 L 176.46 222.39" /><path d="M 176.46 222.39 L 175.75 222.75 L 173.09 224.07" /><path d="M 176.46 222.39 L 175.66 222.75 L 173.09 224.07" /><path d="M 173.09 224.07 L 172.92 224.16 L 172.65 224.25 L 172.47 224.34" /><path d="M 172.47 224.34 L 169.9 225.67" /><path d="M 172.47 224.34 L 172.38 224.43 L 172.38 224.96 L 172.21 226.11" /><path d="M 172.47 224.34 L 172.3 224.52 L 172.38 225.05 L 172.21 226.11" /><path d="M 169.9 225.67 L 169.82 225.67 L 169.02 225.58 L 168.84 225.49 L 168.58 225.49" /><path d="M 169.9 225.67 L 169.73 225.67 L 168.93 225.49 L 168.75 225.49 L 168.58 225.49" /><path d="M 168.58 225.49 L 167.25 225.58 L 167.16 225.49 L 167.07 225.4 L 166.89 225.05 L 166.72 224.87 L 166.63 224.87" /><path d="M 166.63 224.87 L 166.36 224.87" /><path d="M 166.63 224.87 L 166.27 224.87" /><path d="M 166.36 224.87 L 165.83 224.87" /><path d="M 166.36 224.87 L 166.01 224.87" /><path d="M 165.83 224.87 L 165.21 224.87 L 165.03 224.87 L 164.59 224.78 L 164.15 224.69 L 163.88 224.69 L 163.7 224.61 L 163.35 224.52 L 162.91 224.43 L 162.38 224.34 L 162.2 224.34 L 161.4 224.16" /><path d="M 165.83 224.87 L 166.27 224.87" /><path d="M 161.4 224.16 L 161.14 224.07 L 160.87 223.99" /><path d="M 161.4 224.16 L 161.23 224.07 L 160.87 223.99" /><path d="M 160.87 223.99 L 160.16 223.81 L 159.63 223.72" /><path d="M 159.63 223.72 L 159.54 223.72 L 159.28 223.63" /><path d="M 159.63 223.72 L 159.45 223.72 L 159.28 223.63" /><path d="M 159.28 223.63 L 159.19 223.63 L 158.75 223.54 L 158.39 223.45" /><path d="M 158.39 223.45 L 157.86 223.37 L 157.42 223.28" /><path d="M 158.39 223.45 L 157.95 223.37 L 157.42 223.28" /><path d="M 157.42 223.28 L 157.06 223.19 L 156.62 223.01 L 156.35 223.01 L 156.27 223.01 L 156.09 222.92" /><path d="M 156.09 222.92 L 155.73 222.92 L 155.11 222.75" /><path d="M 156.09 222.92 L 155.73 222.83 L 155.11 222.75" /><path d="M 155.11 222.75 L 154.67 222.66 L 153.96 222.48 L 153.87 222.57" /><path d="M 153.87 222.57 L 153.79 222.66 L 153.7 222.83" /><path d="M 153.87 222.57 L 153.79 222.75 L 153.7 222.83" /><path d="M 153.7 222.83 L 153.52 223.01 L 153.43 223.1 L 153.34 223.28 L 153.17 223.37 L 153.08 223.45" /><path d="M 153.08 223.45 L 152.99 223.54 L 152.72 223.63" /><path d="M 153.08 223.45 L 152.9 223.54 L 152.72 223.63" /><path d="M 152.72 223.63 L 152.63 223.63 L 152.37 223.72 L 152.1 223.63" /><path d="M 152.72 223.63 L 152.55 223.72 L 152.28 223.63 L 152.1 223.63" /><path d="M 152.1 223.63 L 151.93 223.63 L 151.66 223.63" /><path d="M 152.1 223.63 L 151.75 223.63 L 151.66 223.63" /><path d="M 151.66 223.63 L 151.57 223.63 L 151.22 223.9" /><path d="M 151.66 223.63 L 151.48 223.72 L 151.22 223.9" /><path d="M 151.22 223.9 L 150.95 224.16 L 150.86 224.25 L 150.6 224.43 L 150.33 224.69 L 149.89 225.05 L 149.8 225.14 L 149.62 225.31 L 149.54 225.31 L 149.36 225.4 L 149.27 225.4 L 149.09 225.4 L 149 225.31 L 148.92 225.31 L 148.56 225.05 L 148.3 224.87 L 148.21 224.87 L 148.03 224.87" /><path d="M 148.03 224.87 L 147.94 224.87 L 147.76 224.96 L 147.68 225.14 L 147.59 225.23 L 147.5 225.49" /><path d="M 148.03 224.87 L 147.85 224.87 L 147.68 225.05 L 147.59 225.14 L 147.59 225.31 L 147.5 225.49" /><path d="M 147.5 225.49 L 147.5 225.67 L 147.41 226.2 L 147.41 226.29 L 147.41 226.46 L 147.32 226.82 L 147.14 227.17 L 147.14 227.35 L 147.06 227.53 L 146.88 228.06 L 146.79 228.32 L 146.61 228.68 L 146.52 228.94 L 146.44 229.12 L 146.35 229.3 L 146.35 229.39 L 146.26 229.56 L 146.17 229.65 L 145.99 229.83 L 145.9 229.92 L 145.82 230.01 L 145.64 230.18 L 145.55 230.18 L 145.46 230.27" /><path d="M 145.46 230.27 L 145.2 230.36 L 145.11 230.36" /><path d="M 145.46 230.27 L 145.28 230.36 L 145.11 230.36" /><path d="M 145.11 230.36 L 144.93 230.36 L 144.75 230.36" /><path d="M 144.75 230.36 L 144.58 230.36 L 144.31 230.36" /><path d="M 144.75 230.36 L 144.49 230.36 L 144.31 230.36" /><path d="M 144.31 230.36 L 144.13 230.45 L 144.04 230.45 L 143.96 230.54 L 143.78 230.63 L 143.6 230.72 L 143.42 230.89 L 143.25 231.16" /><path d="M 143.25 231.16 L 143.07 231.34 L 142.98 231.6" /><path d="M 143.25 231.16 L 143.07 231.42 L 142.98 231.6" /><path d="M 142.98 231.6 L 142.89 231.69 L 142.89 231.87 L 142.8 232.04 L 142.72 232.13 L 142.72 232.31" /><path d="M 142.72 232.31 L 142.63 232.49 L 142.54 232.75" /><path d="M 142.72 232.31 L 142.63 232.58 L 142.54 232.75" /><path d="M 142.54 232.75 L 142.45 232.84 L 142.36 232.93 L 142.1 232.93" /><path d="M 142.54 232.75 L 142.45 232.93 L 142.27 232.93 L 142.1 232.93" /><path d="M 142.1 232.93 L 142.01 232.84 L 141.65 232.58" /><path d="M 142.1 232.93 L 141.92 232.75 L 141.65 232.58" /><path d="M 141.65 232.58 L 141.39 232.31 L 141.21 232.22 L 141.03 232.04 L 140.95 232.04 L 140.77 231.87" /><path d="M 140.77 231.87 L 140.59 231.78 L 140.41 231.69" /><path d="M 140.77 231.87 L 140.5 231.78 L 140.41 231.69" /><path d="M 140.41 231.69 L 140.24 231.69 L 139.97 231.6 L 139.79 231.51 L 139.62 231.51 L 139.44 231.42 L 139.09 231.42 L 138.2 231.42 L 137.85 231.42 L 137.67 231.42 L 137.49 231.42 L 137.23 231.51 L 137.14 231.51 L 136.96 231.51 L 136.87 231.42" /><path d="M 166.27 224.87 L 166.01 224.87" /><path d="M 166.01 224.87 L 165.83 224.96 L 165.65 224.96" /><path d="M 165.65 224.96 L 165.21 224.96 L 163.35 225.84" /><path d="M 165.65 224.96 L 165.12 224.96 L 163.35 225.84" /><path d="M 163.35 225.84 L 161.67 226.73 L 161.31 226.91 L 161.14 227 L 160.96 227.08" /><path d="M 163.35 225.84 L 163.26 225.93 L 163.26 226.2" /><path d="M 160.96 227.08 L 160.87 227.17 L 160.34 227.44" /><path d="M 160.96 227.08 L 160.78 227.17 L 160.34 227.44" /><path d="M 160.34 227.44 L 160.25 227.44 L 160.07 227.53 L 159.9 227.62" /><path d="M 159.9 227.62 L 159.45 227.88 L 159.28 227.97" /><path d="M 159.9 227.62 L 159.37 227.88 L 159.28 227.97" /><path d="M 159.28 227.97 L 158.92 228.15 L 158.75 228.24 L 158.21 228.5 L 158.13 228.59 L 157.68 228.77 L 157.33 228.94" /><path d="M 157.33 228.94 L 157.24 229.03 L 157.06 229.03 L 156.89 229.12" /><path d="M 157.33 228.94 L 157.15 229.03 L 156.89 229.12" /><path d="M 156.89 229.12 L 156.18 229.56 L 155.91 229.65 L 155.82 229.74 L 155.56 229.83 L 155.47 229.83 L 155.29 229.92 L 155.11 230.01 L 154.58 230.27 L 154.23 230.45 L 154.05 230.45" /><path d="M 154.05 230.45 L 153.79 230.63 L 153.61 230.72 L 153.43 230.72" /><path d="M 154.05 230.45 L 153.7 230.63 L 153.43 230.72" /><path d="M 153.43 230.72 L 153.25 230.89 L 153.17 230.98 L 152.9 231.07 L 152.63 231.34" /><path d="M 153.43 230.72 L 153.17 230.89 L 153.08 230.98 L 152.81 231.16 L 152.63 231.34" /><path d="M 152.63 231.34 L 152.46 231.42 L 152.28 231.42" /><path d="M 152.28 231.42 L 152.19 231.51 L 151.84 231.6" /><path d="M 152.28 231.42 L 152.02 231.6 L 151.84 231.6" /><path d="M 151.84 231.6 L 151.66 231.69 L 151.48 231.78" /><path d="M 151.48 231.78 L 151.4 231.78 L 151.22 231.78" /><path d="M 151.48 231.78 L 151.22 231.78" /><path d="M 151.22 231.78 L 150.95 231.78 L 150.6 231.78 L 150.42 231.78 L 150.24 231.78 L 150.16 231.78 L 149.89 231.87 L 149.8 231.87" /><path d="M 149.8 231.87 L 149.71 231.96 L 149.54 232.04" /><path d="M 149.8 231.87 L 149.62 231.96 L 149.54 232.04" /><path d="M 149.54 232.04 L 149.45 232.13 L 149.27 232.22 L 148.65 232.49" /><path d="M 148.65 232.49 L 148.3 232.66 L 147.94 232.75" /><path d="M 148.65 232.49 L 148.21 232.66 L 147.94 232.75" /><path d="M 147.94 232.75 L 147.59 232.93 L 147.23 233.11" /><path d="M 147.23 233.11 L 146.97 233.2 L 146.88 233.2 L 146.61 233.28" /><path d="M 147.23 233.11 L 147.06 233.2 L 146.79 233.28 L 146.61 233.28" /><path d="M 146.61 233.28 L 146.26 233.46 L 145.99 233.55 L 145.73 233.64 L 145.64 233.64 L 145.55 233.73 L 144.84 233.99 L 144.49 234.17 L 144.31 234.26 L 144.04 234.35" /><path d="M 166.18 203.97 L 166.72 204.32" /><path d="M 166.72 204.32 L 166.98 204.5 L 167.6 204.77 L 167.78 204.77 L 167.96 204.86 L 169.46 205.12 L 170.61 205.39" /><path d="M 166.72 204.32 L 166.27 203.97" /><path d="M 170.61 205.39 L 170.7 205.39 L 170.88 205.48 L 171.06 205.48 L 171.14 205.56 L 171.32 205.56 L 171.41 205.65 L 171.5 205.74 L 171.59 205.92 L 171.59 206.01" /><path d="M 170.61 205.39 L 171.41 205.56 L 171.59 205.56 L 171.68 205.56 L 171.76 205.65 L 171.85 205.74 L 171.94 205.83 L 172.03 206.01 L 172.03 206.27 L 172.03 206.63 L 172.03 206.72 L 172.12 206.89" /><path d="M 171.59 206.01 L 171.59 206.18 L 171.76 206.54" /><path d="M 171.59 206.01 L 171.59 205.83 L 171.5 205.65 L 171.41 205.48 L 171.32 205.3 L 171.14 205.21" /><path d="M 171.59 206.01 L 171.68 206.27 L 171.76 206.54" /><path d="M 171.76 206.54 L 171.85 206.72 L 172.12 206.89" /><path d="M 172.12 206.89 L 172.92 207.6 L 173.09 207.69 L 173.27 207.78 L 173.36 207.87" /><path d="M 173.36 207.87 L 173.45 207.96 L 173.54 208.13 L 173.62 208.31" /><path d="M 173.36 207.87 L 173.45 208.04 L 173.54 208.22 L 173.62 208.31" /><path d="M 173.62 208.31 L 173.71 208.49 L 173.89 208.84" /><path d="M 173.89 208.84 L 174.16 209.02 L 174.69 209.55" /><path d="M 173.89 208.84 L 174.16 209.11 L 174.69 209.55" /><path d="M 174.69 209.55 L 174.86 209.73 L 175.22 209.99 L 175.57 210.44 L 176.01 210.79" /><path d="M 176.01 210.79 L 176.19 210.97 L 176.55 211.23" /><path d="M 176.01 210.79 L 176.28 210.97 L 176.55 211.23" /><path d="M 176.55 211.23 L 176.81 211.5 L 176.99 211.68 L 177.17 211.85" /><path d="M 176.55 211.23 L 176.9 211.59 L 177.08 211.76 L 177.17 211.85" /><path d="M 177.17 211.85 L 177.25 211.94 L 177.34 212.03 L 177.52 212.03 L 177.7 212.12 L 177.79 212.21 L 177.87 212.21 L 178.14 212.38 L 178.32 212.47 L 178.41 212.47 L 178.58 212.38 L 178.76 212.3 L 179.29 211.85" /><path d="M 179.29 211.85 L 179.38 211.85 L 179.47 211.85 L 179.82 212.38 L 180.44 213.71" /><path d="M 179.29 211.85 L 179.47 211.76 L 179.56 211.85 L 179.91 212.47 L 180.44 213.71" /><path d="M 180.44 213.71 L 180.71 214.07" /><path d="M 180.71 214.07 L 180.8 214.24 L 180.89 214.42 L 180.89 214.51" /><path d="M 180.71 214.07 L 180.8 214.33 L 180.89 214.51" /><path d="M 163.26 226.2 L 163.26 226.38 L 163.17 226.55" /><path d="M 163.26 226.2 L 163.26 226.46 L 163.17 226.55" /><path d="M 163.17 226.55 L 162.82 226.91 L 162.55 227.17 L 162.2 227.53 L 162.11 227.62 L 161.93 227.79 L 161.85 227.88 L 161.4 228.41 L 161.23 228.68 L 160.78 229.12 L 160.34 229.65 L 160.25 229.83 L 160.16 229.92 L 159.99 230.1 L 159.9 230.27 L 159.81 230.45 L 159.72 230.63 L 159.63 230.8 L 159.54 230.98" /><path d="M 159.54 230.98 L 159.54 231.16 L 159.45 231.42" /><path d="M 159.54 230.98 L 159.54 231.25 L 159.45 231.42" /><path d="M 159.45 231.42 L 159.45 231.6 L 159.37 231.87 L 159.37 232.31 L 159.28 232.58 L 159.19 232.84" /><path d="M 159.19 232.84 L 159.1 233.37 L 159.01 233.73" /><path d="M 159.19 232.84 L 159.01 233.46 L 159.01 233.73" /><path d="M 159.01 233.73 L 158.83 234.08 L 158.75 234.52" /><path d="M 158.75 234.52 L 158.66 234.79 L 158.57 235.06 L 158.48 235.32" /><path d="M 158.75 234.52 L 158.57 234.88 L 158.48 235.14 L 158.48 235.32" /><path d="M 158.48 235.32 L 158.39 235.5 L 158.21 235.76 L 158.04 236.03 L 157.95 236.12 L 157.86 236.3 L 157.68 236.38 L 157.59 236.56 L 157.42 236.74 L 157.33 236.74 L 157.24 236.91 L 157.15 237 L 156.89 237.18 L 156.62 237.36 L 156.53 237.45" /><path d="M 156.53 237.45 L 156.44 237.53 L 156.18 237.62" /><path d="M 156.53 237.45 L 156.35 237.62 L 156.18 237.62" /><path d="M 156.18 237.62 L 156.09 237.71 L 155.91 237.8 L 155.73 237.8 L 155.29 237.8 L 154.85 237.8 L 154.58 237.89 L 154.49 237.89 L 154.32 237.89 L 154.14 237.89 L 154.05 237.98 L 153.87 237.98 L 153.7 238.07 L 153.61 238.07 L 153.43 237.98 L 153.17 237.98 L 152.99 237.89 L 152.46 237.8 L 152.02 237.8 L 151.66 237.71" /><path d="M 151.66 237.71 L 151.31 237.62 L 150.86 237.53" /><path d="M 151.66 237.71 L 151.22 237.62 L 150.86 237.53" /><path d="M 150.86 237.53 L 150.78 237.53 L 150.51 237.36 L 150.42 237.36 L 150.33 237.27 L 150.16 237.18 L 149.98 237 L 149.62 236.65 L 149.45 236.38 L 149.27 236.3 L 149 235.94 L 148.3 235.23 L 148.03 234.97 L 147.85 234.88" /><path d="M 147.85 234.88 L 147.68 234.7 L 147.41 234.61" /><path d="M 147.85 234.88 L 147.59 234.7 L 147.41 234.61" /><path d="M 147.41 234.61 L 147.32 234.52" /><path d="M 147.32 234.52 L 147.14 234.52 L 146.88 234.52" /><path d="M 147.32 234.52 L 147.06 234.52 L 146.88 234.52" /><path d="M 146.88 234.52 L 146.7 234.52 L 146.52 234.52 L 146.35 234.52 L 146.26 234.52 L 146.17 234.61 L 146.08 234.61 L 145.9 234.7 L 145.73 234.79 L 145.64 234.79 L 145.02 234.97 L 144.93 235.06" /><path d="M 144.93 235.06 L 144.75 235.06 L 144.58 235.06" /><path d="M 144.93 235.06 L 144.66 235.06 L 144.58 235.06" /><path d="M 144.58 235.06 L 144.49 235.06 L 144.31 235.14 L 144.22 235.14 L 144.04 235.23 L 143.96 235.32 L 143.87 235.32 L 143.69 235.5 L 143.51 235.59 L 143.34 235.76 L 143.25 235.94 L 143.07 236.03 L 142.8 236.38 L 142.01 237.27 L 141.83 237.45 L 141.39 237.98" /><path d="M 141.39 237.98 L 141.12 238.15 L 140.95 238.42" /><path d="M 141.39 237.98 L 141.12 238.24 L 140.95 238.42" /><path d="M 140.95 238.42 L 139.97 239.57 L 139.44 240.1 L 139.17 240.46 L 139.09 240.55 L 138.82 240.81 L 138.64 240.9 L 138.47 240.99 L 138.38 241.08 L 138.2 241.17 L 138.02 241.25 L 137.76 241.34 L 137.49 241.34 L 137.4 241.34 L 137.14 241.34 L 136.96 241.34 L 136.78 241.34 L 136.52 241.25 L 136.16 241.08 L 135.45 240.9 L 135.1 240.72 L 134.83 240.63 L 134.3 240.46 L 133.77 240.28 L 133.51 240.19 L 132.44 239.75 L 132.27 239.75 L 132 239.66 L 131.65 239.48 L 131.38 239.39 L 131.03 239.31 L 130.58 239.13 L 130.41 239.04 L 129.7 238.77 L 129.34 238.69 L 129.08 238.69 L 128.81 238.6 L 128.64 238.6 L 128.46 238.6 L 128.28 238.6 L 128.02 238.69 L 127.66 238.77 L 127.4 238.86 L 127.13 238.95 L 127.04 239.04 L 126.95 239.13 L 126.69 239.31" /><path d="M 126.69 239.31 L 126.51 239.31 L 126.42 239.48" /><path d="M 126.69 239.31 L 126.51 239.39 L 126.42 239.48" /><path d="M 126.42 239.48 L 126.16 239.66 L 126.07 239.75 L 125.89 239.84" /><path d="M 125.89 239.84 L 125.71 240.1 L 125 240.72" /><path d="M 125.89 239.84 L 125.62 240.1 L 125 240.72" /><path d="M 125 240.72 L 124.92 240.81 L 124.83 240.9 L 124.56 241.17 L 124.47 241.25 L 124.38 241.34 L 124.21 241.43 L 124.03 241.61 L 123.85 241.79 L 123.59 242.05 L 123.06 242.49 L 122.61 242.94 L 122.17 243.38 L 121.9 243.65 L 121.73 243.73 L 121.64 243.91 L 121.55 244.09 L 121.37 244.35 L 121.2 244.53 L 121.11 244.8" /><path d="M 121.11 244.8 L 121.02 244.97 L 120.93 245.15" /><path d="M 121.11 244.8 L 121.02 245.06 L 120.93 245.15" /><path d="M 120.93 245.15 L 120.49 245.86 L 120.22 246.3" /><path d="M 120.22 246.3 L 120.04 246.66 L 119.96 246.83" /><path d="M 120.22 246.3 L 120.04 246.75 L 119.96 246.83" /><path d="M 119.96 246.83 L 119.78 247.1 L 119.69 247.28 L 119.6 247.37 L 119.51 247.54 L 119.42 247.63 L 119.34 247.72 L 119.25 247.81 L 119.07 247.9 L 118.89 247.9 L 118.81 247.98 L 118.63 247.98 L 118.45 247.98 L 118.36 247.98" /><path d="M 118.36 247.98 L 118.19 247.98 L 117.92 247.98" /><path d="M 118.36 247.98 L 118.1 247.98 L 117.92 247.98" /><path d="M 117.92 247.98 L 117.74 247.9 L 117.65 247.81 L 117.48 247.72 L 117.39 247.63" /><path d="M 117.39 247.63 L 117.21 247.54 L 116.86 247.19" /><path d="M 117.39 247.63 L 117.21 247.45 L 116.86 247.19" /><path d="M 116.86 247.19 L 116.68 247.01 L 116.06 246.48 L 115.53 246.04 L 115.26 245.77 L 114.55 245.15 L 114.29 244.97 L 113.76 244.53 L 113.4 244.18 L 112.87 243.73 L 112.69 243.56 L 112.43 243.38 L 112.34 243.29 L 112.07 243.03 L 111.81 242.76 L 111.72 242.67 L 111.54 242.58 L 111.45 242.41 L 111.28 242.23" /><path d="M 111.28 242.23 L 111.01 241.96 L 110.83 241.7 L 110.48 241.25" /><path d="M 111.28 242.23 L 111.01 241.87 L 110.83 241.61 L 110.48 241.25" /><path d="M 110.48 241.25 L 110.21 240.9 L 109.95 240.63 L 109.77 240.37 L 109.59 240.19 L 108.71 239.31 L 108.44 239.13 L 107.82 238.51 L 107.65 238.33 L 107.38 238.15 L 107.12 237.89 L 106.58 237.36 L 106.41 237.27 L 106.32 237.18 L 106.23 237.09 L 105.88 236.74 L 105.7 236.65 L 105.52 236.38" /><path d="M 105.52 236.38 L 105.34 236.21 L 105.26 236.12 L 104.99 235.94" /><path d="M 105.52 236.38 L 105.26 236.21 L 105.17 236.12 L 104.99 235.94" /><path d="M 104.99 235.94 L 104.72 235.68 L 104.19 235.23 L 103.75 234.79 L 103.4 234.44" /><path d="M 103.4 234.44 L 103.13 234.26 L 102.86 233.99" /><path d="M 103.4 234.44 L 103.04 234.17 L 102.86 233.99" /><path d="M 102.86 233.99 L 102.6 233.73 L 102.33 233.55 L 102.24 233.46 L 102.51 233.64 L 102.86 233.99" /><path d="M 157.33 181.65 L 157.24 181.48 L 157.15 181.3 L 157.15 181.39 L 157.24 181.56 L 157.33 181.65" /><path d="M 157.33 181.65 L 157.51 182.18 L 157.68 182.72 L 157.95 183.42" /><path d="M 157.95 183.42 L 158.13 183.69 L 158.3 184.13 L 158.39 184.4" /><path d="M 157.95 183.42 L 158.13 183.78 L 158.3 184.22 L 158.39 184.4" /><path d="M 158.39 184.4 L 158.48 184.66 L 158.57 184.84" /><path d="M 158.57 184.84 L 158.66 185.02 L 158.75 185.2" /><path d="M 158.57 184.84 L 158.66 185.11 L 158.75 185.2" /><path d="M 158.75 185.2 L 158.83 185.37 L 158.83 185.46 L 158.92 185.64 L 158.92 185.73 L 159.01 185.99 L 159.1 186.17 L 159.19 186.44 L 159.28 186.61 L 159.37 186.79" /><path d="M 159.37 186.79 L 159.45 186.88 L 159.54 187.14" /><path d="M 159.37 186.79 L 159.45 186.97 L 159.54 187.14" /><path d="M 159.54 187.14 L 159.63 187.32 L 159.72 187.59 L 159.72 187.68 L 159.81 187.94 L 159.9 188.12 L 159.99 188.3 L 160.07 188.38 L 160.07 188.56 L 160.25 188.83 L 160.25 189 L 160.34 189.27 L 160.52 189.62 L 160.61 189.8 L 160.69 189.98" /><path d="M 160.69 189.98 L 160.78 190.16 L 160.87 190.42" /><path d="M 160.69 189.98 L 160.78 190.24 L 160.87 190.42" /><path d="M 160.87 190.42 L 160.96 190.6 L 160.96 190.69 L 161.05 190.86 L 161.14 191.04 L 161.23 191.22 L 161.31 191.48" /><path d="M 161.31 191.48 L 161.4 191.75 L 161.49 192.02" /><path d="M 161.31 191.48 L 161.4 191.84 L 161.49 192.02" /><path d="M 161.49 192.02 L 161.58 192.19 L 161.76 192.46" /><path d="M 161.49 192.02 L 161.58 192.28 L 161.76 192.46" /><path d="M 161.76 192.46 L 161.85 192.72 L 161.93 192.9 L 162.11 193.08 L 162.2 193.17 L 162.38 193.34 L 162.47 193.52 L 162.55 193.7" /><path d="M 162.55 193.7 L 162.73 193.79 L 163.17 194.14" /><path d="M 162.55 193.7 L 162.82 193.87 L 163.17 194.14" /><path d="M 163.17 194.14 L 163.79 194.67 L 163.97 194.85 L 164.24 195.11 L 164.41 195.2 L 164.59 195.38 L 164.77 195.47 L 165.03 195.73 L 165.21 195.91 L 165.48 196.09 L 165.92 196.44 L 166.1 196.62 L 166.36 196.89 L 166.63 197.15 L 166.72 197.33 L 166.8 197.51 L 166.98 197.86 L 167.16 198.04 L 167.25 198.21 L 167.42 198.48 L 167.51 198.83 L 167.69 199.1 L 168.04 199.81 L 168.66 200.96 L 168.93 201.58 L 169.2 202.02 L 169.28 202.11 L 169.46 202.38 L 169.64 202.55 L 170.44 204.06 L 170.52 204.32 L 170.7 204.59 L 170.79 204.77" /><path d="M 170.79 204.77 L 170.88 204.94 L 170.97 205.03 L 171.14 205.21" /><path d="M 170.79 204.77 L 170.97 204.94 L 171.06 205.03 L 171.14 205.21" /><path d="M 172.21 226.11 L 172.21 226.38" /><path d="M 172.21 226.38 L 172.12 226.46 L 171.5 227.35" /><path d="M 172.21 226.38 L 172.03 226.55 L 171.5 227.35" /><path d="M 171.5 227.35 L 171.41 227.44 L 170.17 229.3" /><path d="M 171.5 227.35 L 171.32 227.53 L 170.17 229.3" /><path d="M 170.17 229.3 L 170.08 229.48 L 169.99 229.56 L 169.55 230.18" /><path d="M 169.55 230.18 L 169.37 230.45 L 169.2 230.72 L 169.02 230.8" /><path d="M 169.55 230.18 L 169.28 230.54 L 169.11 230.72 L 169.02 230.8" /><path d="M 169.02 230.8 L 168.84 230.89 L 168.75 230.98" /><path d="M 168.75 230.98 L 168.49 231.25 L 168.22 231.42" /><path d="M 168.75 230.98 L 168.4 231.25 L 168.22 231.42" /><path d="M 168.22 231.42 L 167.78 231.78 L 167.42 231.96" /><path d="M 168.22 231.42 L 167.69 231.78 L 167.42 231.96" /><path d="M 167.42 231.96 L 167.16 232.22 L 166.98 232.31 L 166.89 232.4 L 166.45 232.66 L 166.36 232.75 L 165.92 233.11 L 165.74 233.2 L 165.56 233.37 L 165.03 233.73 L 164.41 234.17 L 164.15 234.35 L 163.88 234.52 L 163.79 234.61 L 163.62 234.7" /><path d="M 163.62 234.7 L 163.44 234.88 L 163 235.14" /><path d="M 163.62 234.7 L 163.35 234.97 L 163 235.14" /><path d="M 163 235.14 L 162.91 235.14" /><path d="M 162.91 235.14 L 162.47 235.5 L 162.2 235.68" /><path d="M 162.91 235.14 L 162.38 235.59 L 162.2 235.68" /><path d="M 162.2 235.68 L 162.11 235.76 L 161.93 235.85 L 161.76 236.03" /><path d="M 162.2 235.68 L 162.02 235.76 L 161.85 235.94 L 161.76 236.03" /><path d="M 161.76 236.03 L 161.58 236.12 L 161.49 236.3" /><path d="M 161.49 236.3 L 161.4 236.38 L 161.23 236.47" /><path d="M 161.49 236.3 L 161.31 236.38 L 161.23 236.47" /><path d="M 161.23 236.47 L 161.05 236.47 L 160.96 236.47 L 160.61 236.47 L 160.52 236.56 L 160.34 236.56 L 160.25 236.56" /><path d="M 160.25 236.56 L 160.16 236.56 L 159.99 236.56" /><path d="M 160.25 236.56 L 160.07 236.56 L 159.99 236.56" /><path d="M 159.99 236.56 L 159.9 236.65 L 159.72 236.74" /><path d="M 159.99 236.56 L 159.81 236.65 L 159.72 236.74" /><path d="M 159.72 236.74 L 159.54 236.83 L 159.45 237" /><path d="M 159.45 237 L 159.37 237.09 L 159.19 237.27 L 159.1 237.45" /><path d="M 159.45 237 L 159.28 237.18 L 159.19 237.36 L 159.1 237.45" /><path d="M 159.1 237.45 L 159.1 237.53 L 159.28 238.33" /><path d="M 159.1 237.45 L 159.1 237.62 L 159.28 238.33" /><path d="M 159.28 238.33 L 159.37 238.77 L 159.45 239.22" /><path d="M 159.28 238.33 L 159.37 238.86 L 159.45 239.22" /><path d="M 159.45 239.22 L 159.54 239.48 L 159.54 239.66" /><path d="M 159.54 239.66 L 159.63 239.75 L 159.81 239.93" /><path d="M 159.54 239.66 L 159.72 239.84 L 159.81 239.93" /><path d="M 159.81 239.93 L 159.81 240.01 L 159.81 240.1 L 159.81 239.93" /><path d="M 207.81 176.87 L 207.63 177.58 L 207.54 177.93 L 207.45 178.38 L 207.45 178.47 L 207.37 179.09 L 207.37 179.35 L 207.37 179.53 L 207.37 179.88 L 207.37 180.06 L 207.37 180.33" /><path d="M 207.37 180.33 L 207.37 180.68 L 207.45 181.12" /><path d="M 207.37 180.33 L 207.37 180.77 L 207.45 181.12" /><path d="M 207.45 181.12 L 207.45 181.3" /><path d="M 207.45 181.3 L 207.45 181.56 L 207.63 182.98" /><path d="M 207.45 181.3 L 207.45 181.74 L 207.63 182.98" /><path d="M 207.63 182.98 L 207.63 183.42 L 207.72 184.49 L 207.81 185.64 L 207.9 186.52 L 207.9 186.79 L 207.9 186.97 L 207.9 187.14 L 207.9 187.41 L 207.81 187.68 L 207.81 187.94 L 207.72 188.21 L 207.63 188.47 L 207.54 188.74 L 207.45 188.92 L 207.28 189.45 L 207.1 190.07 L 206.92 190.6 L 206.57 191.4 L 206.48 191.66 L 206.39 192.02 L 206.04 192.9 L 205.86 193.34 L 205.77 193.7" /><path d="M 205.77 193.7 L 205.59 193.96 L 205.51 194.23" /><path d="M 205.77 193.7 L 205.59 194.05 L 205.51 194.23" /><path d="M 205.51 194.23 L 205.42 194.32 L 205.33 194.49" /><path d="M 205.51 194.23 L 205.42 194.41 L 205.33 194.49" /><path d="M 205.33 194.49 L 205.06 194.85 L 204.97 194.94 L 204.8 195.2 L 204.53 195.47 L 204.44 195.56 L 204.27 195.65 L 204.18 195.73 L 204.09 195.82 L 203.56 196.09 L 203.47 196.18 L 203.11 196.35 L 203.03 196.44 L 202.85 196.53 L 202.76 196.62 L 202.41 196.8 L 202.14 196.97" /><path d="M 202.14 196.97 L 202.05 197.06 L 201.87 197.15" /><path d="M 202.14 196.97 L 201.96 197.06 L 201.87 197.15" /><path d="M 201.87 197.15 L 201.7 197.24 L 200.99 197.68 L 200.28 198.13 L 200.1 198.3 L 200.01 198.39 L 199.48 199.01" /><path d="M 199.48 199.01 L 198.33 200.61 L 198.07 201.05" /><path d="M 199.48 199.01 L 198.33 200.69 L 198.07 201.05" /><path d="M 198.07 201.05 L 197.98 201.14 L 197.8 201.31 L 197.62 201.49" /><path d="M 198.07 201.05 L 197.89 201.23 L 197.71 201.31 L 197.62 201.49" /><path d="M 197.62 201.49 L 197.53 201.49 L 197.36 201.58 L 197.18 201.67 L 197 201.67 L 196.91 201.67 L 196.12 201.67 L 195.94 201.67 L 195.85 201.76 L 195.76 201.76" /><path d="M 195.76 201.76 L 195.59 201.85 L 195.41 201.93" /><path d="M 195.76 201.76 L 195.5 201.85 L 195.41 201.93" /><path d="M 195.41 201.93 L 195.32 202.02 L 195.14 202.11 L 194.88 202.29 L 194.52 202.55" /><path d="M 194.52 202.55 L 194.44 202.64 L 194.26 202.73 L 194.17 202.91 L 193.99 203.17" /><path d="M 194.52 202.55 L 194.35 202.73 L 194.26 202.82 L 194.17 203 L 193.99 203.17" /><path d="M 193.99 203.17 L 193.73 203.62 L 193.55 203.88 L 193.46 203.97 L 193.28 204.15 L 193.11 204.32 L 193.02 204.5 L 192.93 204.68 L 192.84 204.77 L 192.75 204.94 L 192.66 205.12 L 192.58 205.39 L 192.49 205.56 L 192.4 205.74 L 192.22 205.92" /><path d="M 192.22 205.92 L 192.13 206.1 L 191.96 206.45" /><path d="M 192.22 205.92 L 192.13 206.18 L 191.96 206.45" /><path d="M 191.96 206.45 L 191.51 207.16" /><path d="M 191.51 207.16 L 191.42 207.25 L 191.25 207.42" /><path d="M 191.51 207.16 L 191.34 207.34 L 191.25 207.42" /><path d="M 191.25 207.42 L 191.07 207.51 L 190.98 207.51 L 189.92 207.51 L 189.83 207.6 L 189.74 207.69 L 189.56 208.04 L 189.3 208.4 L 189.12 208.58 L 189.03 208.84 L 188.68 209.28 L 188.41 209.9 L 188.32 210.17 L 187.35 212.03 L 185.05 216.55 L 183.99 216.72 L 183.81 216.81 L 183.72 216.9" /><path d="M 183.72 216.9 L 183.54 216.99 L 183.28 217.08" /><path d="M 183.72 216.9 L 183.45 216.99 L 183.28 217.08" /><path d="M 183.28 217.08 L 181.68 217.43 L 181.42 217.52" /><path d="M 180.89 217.43 L 180.62 217.34 L 180.44 217.34 L 180.35 217.25 L 180.27 217.08" /><path d="M 180.27 217.08 L 180.18 216.9" /><path d="M 180.18 216.9 L 180.09 216.63 L 180 216.46 L 180 216.37" /><path d="M 180.18 216.9 L 180 216.55 L 180 216.37" /><path d="M 180 216.37 L 179.82 216.19 L 179.47 215.93" /><path d="M 180 216.37 L 179.91 216.19 L 179.82 216.1 L 179.47 215.93" /><path d="M 179.47 215.93 L 179.38 215.84 L 179.29 215.84 L 179.11 215.75" />
    </g>
  </g>
</svg>