<svg xmlns="http://www.w3.org/2000/svg" viewBox="0 0 360 440" width="360" height="440" fill="none">
  <g shape-rendering="geometricPrecision" text-rendering="geometricPrecision">
    
    <g
      stroke="#111111"
      stroke-opacity="0.8"
      stroke-width="1.65"
      stroke-linecap="round"
      stroke-linejoin="round"
    >
      <path d="M 170.35 172.44 L 170.35 172.35 L 170.35 172.09 L 170.35 171.82 L 170.35 171.56 L 170.35 171.38 L 170.35 171.11 L 170.35 170.49 L 170.26 169.34 L 170.26 168.99 L 170.26 168.37 L 170.26 166.6 L 170.26 166.24 L 170.26 165.62 L 170.26 165.27 L 170.26 164.83 L 170.26 164.65 L 170.26 164.47 L 170.17 164.38 L 169.99 164.3 L 169.73 164.3 L 169.46 164.3 L 169.28 164.3 L 169.2 164.3 L 169.11 164.12 L 169.02 164.03 L 169.02 163.85 L 169.02 163.5 L 168.93 161.99 L 168.93 160.75 L 168.93 158.36 L 168.66 156.77 L 168.66 156.59 L 168.49 155.44 L 168.4 155.17 L 168.4 154.91 L 168.31 154.82 L 168.31 154.64 L 168.31 154.2 L 168.31 153.58 L 168.31 152.96 L 168.31 151.45 L 168.31 149.77 L 168.22 148.53 L 168.22 146.5 L 168.22 145.26 L 168.22 144.55 L 168.13 143.66 L 168.13 142.42 L 168.13 141.62 L 168.13 139.41 L 168.04 138.52 L 168.04 137.46 L 168.04 137.02 L 168.04 135.87 L 168.04 134.89 L 168.04 134.19 L 168.04 133.57 L 168.04 132.95 L 167.96 132.33 L 167.96 132.06 L 167.96 131.71 L 167.96 131.53 L 167.96 131.35 L 167.96 131.09 L 167.87 131 L 167.87 130.82 L 167.87 130.64 L 167.78 130.47 L 167.69 130.29 L 167.69 130.2 L 167.6 130.02 L 167.51 129.93 L 167.51 129.85 L 167.42 129.67 L 167.34 129.58 L 167.25 129.49 L 167.07 129.23 L 166.98 129.14 L 166.8 128.87 L 166.54 128.61 L 166.27 128.34 L 166.01 127.99 L 165.83 127.63 L 165.74 127.45 L 165.65 127.19 L 165.56 126.83 L 165.39 126.39 L 165.39 125.95 L 165.3 125.68 L 165.3 125.15 L 165.3 124.09 L 165.21 122.41 L 165.21 121.52 L 165.21 121.17 L 165.21 120.99 L 165.12 120.64 L 164.94 120.28 L 164.86 120.02 L 164.77 119.75 L 164.5 119.4 L 163.97 118.51 L 163.62 117.98 L 163.44 117.71 L 163.26 117.45 L 163 117.09 L 162.91 116.83 L 162.64 116.56 L 162.47 116.21 L 162.2 115.85 L 162.02 115.59" /><path d="M 170.35 172.44 L 170.35 172.71" /><path d="M 170.35 172.44 L 170.26 172.27 L 170.17 172.09 L 170.17 171.91 L 169.99 171.73 L 169.9 171.65 L 169.73 171.56" /><path d="M 170.35 172.71 L 170.35 172.8" /><path d="M 170.35 172.71 L 170.35 172.53 L 170.26 172.35 L 170.26 172.18 L 170.17 172 L 170.08 171.82 L 169.99 171.65 L 169.82 171.56 L 169.73 171.56" /><path d="M 170.35 172.8 L 170.35 173.06 L 170.35 173.33 L 170.35 173.86" /><path d="M 170.35 172.8 L 170.35 174.66" /><path d="M 170.35 173.86 L 170.35 174.48 L 170.35 174.92" /><path d="M 170.35 173.86 L 170.35 174.66" /><path d="M 170.35 174.92 L 170.35 175.19 L 170.35 175.45 L 170.44 176.16 L 170.44 176.52 L 170.44 177.23 L 170.44 177.4 L 170.44 177.85 L 170.44 178.2 L 170.44 178.55 L 170.52 179.53 L 170.52 179.79 L 170.52 180.24 L 170.52 180.68 L 170.52 181.12 L 170.52 181.56 L 170.52 182.18 L 170.52 182.72 L 170.52 182.98 L 170.52 183.51 L 170.61 183.87 L 170.61 184.75 L 170.61 185.2 L 170.61 185.46 L 170.61 186.61 L 170.61 187.94 L 170.61 188.3" /><path d="M 170.35 174.92 L 170.35 174.66" /><path d="M 170.61 188.3 L 170.7 190.51 L 170.7 190.86" /><path d="M 170.61 188.3 L 170.7 190.6 L 170.7 190.86" /><path d="M 170.7 190.86 L 170.7 191.22 L 170.7 192.37 L 170.7 193.52" /><path d="M 170.7 193.52 L 170.7 194.14 L 170.79 194.23 L 171.14 194.85" /><path d="M 170.7 193.52 L 170.7 194.23 L 170.79 194.41 L 171.14 194.85" /><path d="M 170.7 193.52 L 170.79 193.79 L 170.88 193.96 L 171.06 194.14" /><path d="M 170.7 193.52 L 170.79 193.87 L 170.88 194.05 L 171.06 194.14" /><path d="M 171.14 194.85 L 171.5 195.2 L 172.12 196 L 172.65 196.71 L 173.54 197.95 L 175.57 200.52 L 175.84 200.87" /><path d="M 175.84 200.87 L 175.93 200.96 L 176.1 201.14" /><path d="M 175.84 200.87 L 176.01 201.05 L 176.1 201.14" /><path d="M 176.1 201.14 L 176.28 201.14 L 177.08 201.05" /><path d="M 177.08 201.05 L 178.05 201.05 L 179.38 200.96" /><path d="M 177.08 201.05 L 176.99 199.9" /><path d="M 177.08 201.05 L 177.08 201.4" /><path d="M 179.38 200.96 L 180.27 200.96 L 180.44 201.05" /><path d="M 179.38 200.96 L 180.35 200.96 L 180.44 201.05" /><path d="M 180.44 201.05 L 180.44 201.23 L 180.44 201.58 L 180.62 202.29 L 180.62 203.7 L 180.62 204.5 L 180.62 206.36 L 180.71 207.07 L 180.71 208.22 L 180.71 209.55 L 180.71 209.99 L 180.71 210.7 L 180.71 211.5 L 180.8 212.83 L 180.8 214.24 L 180.8 214.33" /><path d="M 180.8 214.33 L 180.8 215.04 L 180.8 216.19 L 180.89 218.05 L 180.89 219.91 L 180.89 220.89" /><path d="M 180.8 214.33 L 180.35 214.33 L 180.09 214.33" /><path d="M 180.8 214.33 L 181.24 214.33" /><path d="M 180.89 220.89 L 180.89 221.59 L 180.97 222.48 L 180.97 223.01 L 180.97 223.72 L 180.97 224.61 L 180.97 225.4 L 180.97 226.55 L 180.97 227.88 L 180.97 229.03 L 180.97 230.36 L 180.97 230.63 L 180.89 230.8 L 180.8 230.98 L 180.71 231.16 L 180.53 231.34 L 180.18 231.78 L 179.82 232.31 L 179.65 232.66" /><path d="M 180.89 220.89 L 181.42 220.8 L 181.51 220.8" /><path d="M 180.89 220.89 L 180.62 220.89 L 180.18 220.89" /><path d="M 180.89 220.89 L 181.33 220.8 L 181.51 220.8" /><path d="M 179.65 232.66 L 179.56 233.02 L 179.47 233.2 L 179.38 233.46" /><path d="M 179.65 232.66 L 179.47 233.11 L 179.47 233.37 L 179.38 233.46" /><path d="M 179.38 233.46 L 179.38 233.64 L 179.38 233.9 L 179.29 234.08 L 179.29 234.26 L 179.38 235.14 L 179.38 236.47 L 179.38 237.36 L 179.47 237.8 L 179.47 238.07 L 179.56 238.33 L 179.56 238.51 L 179.56 238.69 L 179.56 238.86 L 179.65 239.31 L 179.65 239.84 L 179.65 240.99 L 179.65 241.43 L 179.56 241.87 L 179.47 242.49 L 179.47 242.76" /><path d="M 179.47 242.76 L 179.47 242.94 L 179.47 243.29" /><path d="M 179.47 242.76 L 179.47 243.11 L 179.47 243.29" /><path d="M 179.47 243.29 L 179.38 243.73 L 179.38 244 L 179.38 244.62 L 179.47 245.95 L 179.47 246.66 L 179.56 247.72 L 179.56 248.34 L 179.56 250.02 L 179.65 251.7 L 179.65 254.45 L 179.65 257.2 L 179.73 258.88 L 179.73 260.74 L 179.82 264.37 L 179.82 265.34 L 179.82 266.23 L 179.82 267.47 L 179.82 268 L 179.82 268.27 L 179.82 268.53 L 179.82 268.71" /><path d="M 179.82 268.71 L 179.73 268.97 L 179.65 269.24" /><path d="M 179.82 268.71 L 179.73 269.06 L 179.65 269.24" /><path d="M 179.65 269.24 L 179.47 269.77 L 179.38 270.21 L 179.29 270.48" /><path d="M 179.29 270.48 L 179.29 270.57 L 179.2 270.83" /><path d="M 179.29 270.48 L 179.29 270.66 L 179.2 270.83" /><path d="M 179.2 270.83 L 179.2 271.01 L 179.2 271.28" /><path d="M 179.2 270.83 L 179.2 271.1 L 179.2 271.28" /><path d="M 179.2 271.28 L 179.2 271.45 L 179.2 271.81 L 179.2 272.34 L 179.29 273.49 L 179.29 275.17 L 179.38 276.06 L 179.38 276.77 L 179.38 279.07 L 179.47 280.75 L 179.47 281.9 L 179.47 283.5 L 179.47 286.42 L 179.47 286.77 L 179.47 288.01 L 179.47 289.61 L 179.47 290.14 L 179.47 291.73 L 179.56 292.26 L 179.56 292.53 L 179.56 292.88 L 179.65 293.06 L 179.65 293.24 L 179.73 293.42 L 179.82 293.68 L 179.91 293.95 L 180 294.12 L 180.09 294.3 L 180.18 294.48 L 180.35 294.74 L 180.53 294.83 L 180.97 295.45 L 181.06 295.63 L 181.15 295.81 L 181.24 296.07 L 181.24 296.16" /><path d="M 181.24 296.16 L 181.33 296.43 L 181.42 296.52 L 181.51 296.87 L 181.51 297.31" /><path d="M 181.24 296.16 L 181.33 296.52 L 181.42 296.6 L 181.51 296.96 L 181.51 297.31" /><path d="M 181.51 297.31 L 181.59 297.58 L 181.59 297.84 L 181.59 298.11 L 181.59 299.35 L 181.59 300.68 L 181.68 302.8 L 181.68 304.66 L 181.68 308.12 L 181.77 309.71 L 181.77 310.33 L 181.77 311.31 L 181.86 311.84 L 181.86 312.19 L 181.86 312.72 L 181.86 313.17 L 181.86 313.79 L 181.95 318.12 L 181.95 319.28 L 182.04 321.84 L 182.04 324.32 L 182.04 324.86 L 182.04 325.47 L 182.13 327.25 L 182.13 329.55 L 182.13 330.26 L 182.21 334.42" /><path d="M 155.11 76.27 L 155.29 76.89 L 155.47 77.42 L 155.65 77.77 L 155.73 78.13 L 155.91 78.57 L 156.09 79.1 L 156.18 79.54 L 156.27 79.9 L 156.53 80.87 L 156.71 81.49 L 156.89 81.93 L 157.06 82.47 L 157.15 82.91 L 157.24 83.09 L 157.51 83.97 L 157.86 84.95 L 157.95 85.39" /><path d="M 157.95 85.39 L 158.04 85.48 L 158.04 85.65" /><path d="M 157.95 85.39 L 158.04 85.65" /><path d="M 158.04 85.65 L 158.13 86.01" /><path d="M 158.04 85.65 L 158.04 85.83 L 158.13 86.01" /><path d="M 158.13 86.01 L 158.13 86.27 L 158.13 86.45 L 158.13 86.72 L 158.13 87.07 L 158.13 87.25 L 158.13 87.51 L 158.13 87.96 L 158.13 88.31 L 158.13 89.11 L 158.13 89.46 L 158.13 89.99 L 158.04 90.35 L 158.13 91.15" /><path d="M 158.13 91.15 L 158.13 91.68 L 158.13 92.12" /><path d="M 158.13 91.15 L 158.13 91.77 L 158.13 92.12" /><path d="M 158.13 92.12 L 158.13 94.16 L 158.13 94.51 L 158.13 95.04" /><path d="M 158.13 95.04 L 158.04 95.48 L 158.13 95.75" /><path d="M 158.13 95.04 L 158.04 95.57 L 158.13 95.75" /><path d="M 158.13 95.75 L 158.21 96.02 L 158.3 96.46 L 158.39 96.9 L 158.57 97.43 L 158.66 97.88 L 158.75 98.76 L 158.83 99.56 L 158.92 99.74 L 158.92 100 L 159.01 100.36 L 159.19 102.04 L 159.37 103.72 L 159.54 105.05 L 159.63 105.23 L 159.72 105.4 L 159.72 105.58 L 159.81 106.55 L 159.99 107.71 L 160.07 108.95 L 160.25 109.92 L 160.34 110.98 L 160.43 112.31 L 160.52 113.11 L 160.61 113.46 L 160.61 113.73 L 160.69 113.82 L 160.78 114.08 L 161.23 114.53 L 161.93 115.5 L 162.02 115.59" /><path d="M 162.02 115.59 L 161.76 115.32 L 161.67 115.23 L 161.49 115.06 L 161.31 114.88 L 161.23 114.79 L 161.05 114.61 L 160.87 114.61 L 160.78 114.53 L 160.69 114.44 L 160.52 114.44 L 160.43 114.35 L 160.25 114.35 L 160.07 114.26 L 159.9 114.26 L 159.72 114.26 L 158.66 114.26 L 157.59 114.26 L 157.15 114.26 L 157.06 114.26 L 156.44 114.26 L 156.27 114.26 L 155.91 114.17 L 155.73 114.17 L 155.65 114.17 L 155.47 114.08 L 155.29 114.08 L 155.03 113.99 L 154.94 113.99 L 154.76 113.91 L 154.67 113.91 L 154.41 113.82 L 154.05 113.82 L 153.7 113.82 L 153.43 113.82 L 153.08 113.91 L 152.72 113.91 L 152.55 113.91 L 152.37 113.82 L 151.93 113.82 L 151.57 113.73 L 151.48 113.64 L 151.22 113.64 L 150.95 113.55 L 150.6 113.55 L 150.16 113.55 L 149.71 113.64 L 148.65 113.64 L 148.38 113.64 L 148.12 113.64 L 147.94 113.64 L 147.76 113.64 L 147.41 113.64" /><path d="M 171.06 194.14 L 171.41 194.58 L 171.68 195.03" /><path d="M 171.68 195.03 L 171.85 195.2 L 171.94 195.29 L 172.12 195.38 L 172.21 195.38" /><path d="M 171.68 195.03 L 171.85 195.29 L 172.03 195.38 L 172.21 195.38" /><path d="M 172.21 195.38 L 172.65 195.38" /><path d="M 172.21 195.38 L 172.3 195.38 L 172.65 195.38" /><path d="M 172.65 195.38 L 172.74 195.47" /><path d="M 172.74 195.47 L 172.83 195.65 L 172.83 195.73" /><path d="M 172.74 195.47 L 172.83 195.73" /><path d="M 172.83 195.73 L 172.83 196 L 172.83 196.18 L 173 196.27 L 173.09 196.27" /><path d="M 172.83 195.73 L 172.83 195.91 L 172.83 196.09 L 172.92 196.27 L 173.09 196.27" /><path d="M 173.09 196.27 L 173.45 196.27" /><path d="M 173.09 196.27 L 173.18 196.27 L 173.45 196.27" /><path d="M 173.45 196.27 L 173.71 196.27 L 174.42 196.27 L 174.77 196.27 L 175.39 196.27 L 175.66 196.27 L 175.93 196.27 L 176.1 196.27" /><path d="M 176.1 196.27 L 176.63 196.18 L 176.72 196.27 L 176.81 196.35 L 176.9 196.44 L 176.99 196.62 L 176.99 196.89" /><path d="M 176.1 196.27 L 176.63 196.27 L 176.81 196.27 L 176.9 196.35 L 176.9 196.53 L 176.99 196.71 L 176.99 196.89" /><path d="M 176.99 196.89 L 176.99 197.42 L 176.99 198.3 L 176.99 199.45 L 176.99 199.9" /><path d="M 176.99 199.9 L 177.08 201.14 L 177.08 201.4" /><path d="M 177.08 201.4 L 177.08 201.58 L 177.17 201.76 L 177.25 201.93 L 177.25 202.11 L 177.25 202.29 L 177.25 202.38 L 177.25 202.55" /><path d="M 177.25 202.55 L 177.17 202.73 L 177.17 202.91 L 177.17 203.7" /><path d="M 177.25 202.55 L 177.17 202.82 L 177.17 203 L 177.17 203.7" /><path d="M 177.17 203.7 L 177.17 203.79 L 177.25 204.06 L 177.25 204.68 L 177.25 204.86 L 177.25 205.65 L 177.25 205.83 L 177.34 206.01 L 177.34 206.1 L 177.52 206.27 L 177.61 206.45 L 177.61 206.63 L 177.61 207.25 L 177.61 208.04 L 177.61 208.84 L 177.61 209.28 L 177.7 210.17 L 177.7 210.88 L 177.7 211.06 L 177.79 211.14 L 177.87 211.23 L 177.96 211.32 L 178.05 211.32 L 178.14 211.41 L 178.23 211.5 L 178.32 211.68 L 178.32 212.03 L 178.32 213.36 L 178.32 214.42" /><path d="M 178.32 214.42 L 178.76 214.42 L 179.11 214.42 L 179.56 214.33" /><path d="M 178.32 214.42 L 178.32 215.39 L 178.32 216.63 L 178.32 217.52 L 178.41 218.49 L 178.41 219.56 L 178.41 220.62 L 178.41 220.8" /><path d="M 178.32 214.42 L 177.43 214.42 L 176.63 214.42 L 176.1 214.42 L 175.93 214.42 L 175.84 214.33 L 175.57 213.98 L 175.48 213.8 L 175.39 213.62 L 175.04 213.27 L 174.77 212.83 L 174.51 212.47 L 174.07 211.94 L 173.8 211.59 L 173.54 211.23 L 173.09 210.79 L 172.74 210.35 L 172.3 209.9 L 172.03 209.46 L 171.59 209.02 L 170.97 208.31 L 170.61 207.87 L 170.17 207.42 L 169.82 206.89 L 169.64 206.8 L 169.37 206.54 L 169.02 206.01 L 168.58 205.48 L 168.22 205.03 L 167.78 204.59 L 167.34 204.06 L 166.98 203.7 L 166.63 203.26 L 166.18 202.82 L 166.01 202.55 L 165.56 202.02 L 165.3 201.67 L 165.03 201.4 L 164.32 200.61 L 163.97 200.43 L 163.53 200.07 L 163.35 199.9 L 163.17 199.72 L 162.11 198.57 L 161.31 197.59 L 160.61 196.71 L 159.81 195.82 L 159.1 195.03 L 158.66 194.49 L 157.95 193.7 L 157.42 192.99 L 156.53 192.02 L 155.91 191.31 L 155.03 190.33 L 153.79 189 L 152.63 187.76 L 152.1 187.14 L 151.4 186.35 L 150.51 185.46 L 149.8 184.58 L 149.62 184.31 L 149.45 184.13 L 149.36 183.96 L 149.18 183.78 L 149.09 183.6 L 148.92 183.34 L 148.74 183.07 L 148.56 182.8 L 148.38 182.54 L 147.85 182.01 L 147.14 181.21 L 146.61 180.59 L 146.52 180.5 L 146.44 180.41 L 146.44 180.15 L 146.44 180.06 L 146.35 178.47 L 146.35 176.78 L 146.35 175.81 L 146.35 175.01 L 146.35 174.3 L 146.26 174.13 L 146.26 173.95 L 146.17 173.77 L 146.08 173.59 L 145.99 173.51 L 145.82 173.42 L 145.73 173.33 L 145.55 173.15 L 145.46 173.06 L 145.37 172.97 L 145.28 172.89 L 145.11 172.71 L 145.02 172.53 L 144.84 172.35 L 144.75 172.27 L 144.66 172.09 L 144.66 171.91 L 144.58 171.82 L 144.49 171.65 L 144.4 171.38 L 144.31 171.11 L 144.22 170.76 L 144.13 170.49 L 144.04 170.23 L 143.96 169.96 L 143.87 169.7 L 143.87 169.52 L 143.78 169.34 L 143.69 169.17 L 143.6 168.99 L 143.51 168.9 L 143.42 168.81 L 143.34 168.64" /><path d="M 178.32 214.42 L 177.79 214.42 L 176.99 214.42 L 176.28 214.42 L 175.13 214.42 L 174.69 214.42 L 174.24 214.42 L 173.8 214.42 L 173.27 214.42 L 172.83 214.42 L 172.38 214.42 L 171.85 214.42 L 171.41 214.51 L 170.97 214.51 L 170.88 214.51 L 170.52 214.51 L 169.46 214.51 L 169.02 214.51 L 168.4 214.6 L 167.07 214.6 L 166.45 214.6 L 166.01 214.6 L 165.56 214.69 L 164.86 214.69 L 163.79 214.77" /><path d="M 179.56 214.33 L 179.82 214.33 L 179.91 214.33" /><path d="M 179.56 214.33 L 179.91 214.33" /><path d="M 179.91 214.33 L 180.09 214.33" /><path d="M 179.91 214.33 L 180.09 214.42 L 180.09 214.51 L 180.18 214.69 L 180.18 216.28" /><path d="M 179.91 214.33 L 180 214.33 L 180.09 214.33" /><path d="M 181.24 214.33 L 181.33 214.42 L 181.42 214.42" /><path d="M 181.24 214.33 L 181.42 214.42" /><path d="M 181.42 214.42 L 181.42 214.69" /><path d="M 181.42 214.42 L 181.42 214.51 L 181.42 214.69" /><path d="M 181.42 214.69 L 181.42 215.31 L 181.51 216.19 L 181.51 217.08 L 181.51 218.94 L 181.51 219.82 L 181.51 220.8" /><path d="M 181.51 220.8 L 181.59 221.77 L 181.51 222.04" /><path d="M 180.18 220.89 L 179.2 220.89 L 178.85 220.89" /><path d="M 180.18 220.89 L 180.27 221.15 L 180.27 221.33" /><path d="M 180.18 220.89 L 180.18 219.91 L 180.18 219.56 L 180.18 219.29 L 180.18 218.94 L 180.18 218.05 L 180.18 217.61" /><path d="M 178.85 220.89 L 178.58 220.89 L 178.41 220.8" /><path d="M 178.85 220.89 L 178.49 220.89 L 178.41 220.8" /><path d="M 147.41 113.64 L 147.23 113.64 L 146.97 113.64" /><path d="M 147.41 113.64 L 147.14 113.64 L 146.97 113.64" /><path d="M 146.97 113.64 L 146.79 113.64 L 146.52 113.64 L 146.17 113.55 L 145.73 113.55 L 145.46 113.55 L 145.28 113.55 L 145.11 113.55 L 144.84 113.55 L 144.49 113.55 L 144.04 113.55 L 143.96 113.55 L 143.78 113.55 L 143.6 113.55 L 143.34 113.64 L 143.16 113.64 L 143.07 113.64 L 142.89 113.64 L 142.72 113.73 L 142.45 113.73" /><path d="M 142.45 113.73 L 142.36 113.73 L 142.1 113.73" /><path d="M 142.45 113.73 L 142.18 113.73 L 142.1 113.73" /><path d="M 142.1 113.73 L 141.83 113.82 L 139.88 113.82 L 138.82 113.82 L 135.9 113.82 L 134.83 113.82 L 134.57 113.73 L 134.21 113.73 L 134.13 113.64 L 133.95 113.55 L 133.77 113.46 L 133.59 113.37 L 133.51 113.29 L 133.33 113.2 L 133.24 113.11 L 133.06 112.93 L 132.97 112.75 L 132.8 112.67 L 132.71 112.49 L 132.62 112.31 L 132.53 112.13 L 132.44 111.96 L 132.35 111.78 L 132.27 111.51 L 132.18 111.34 L 132.18 111.16 L 132.09 110.89 L 132.09 110.72 L 132 110.45 L 132 110.1 L 131.91 109.74 L 131.91 109.57 L 131.82 109.21 L 131.56 107.62 L 131.56 107.44 L 131.38 106.64" /><path d="M 131.38 106.64 L 131.29 106.29 L 131.2 105.93" /><path d="M 131.38 106.64 L 131.29 106.2 L 131.2 105.93" /><path d="M 131.2 105.93 L 131.2 105.67 L 131.11 105.23" /><path d="M 131.2 105.93 L 131.2 105.58 L 131.11 105.23" /><path d="M 131.11 105.23 L 130.94 104.61" /><path d="M 130.94 104.61 L 130.85 104.16 L 130.67 103.46" /><path d="M 130.94 104.61 L 130.85 104.07 L 130.67 103.46" /><path d="M 130.67 103.46 L 130.49 102.84 L 130.49 102.66 L 130.32 102.13 L 130.23 101.51" /><path d="M 103.57 222.83 L 104.1 222.92 L 104.28 222.92" /><path d="M 104.28 222.92 L 104.37 222.92 L 104.55 223.01 L 104.72 223.19" /><path d="M 104.28 222.92 L 104.46 223.01 L 104.64 223.1 L 104.72 223.19" /><path d="M 104.72 223.19 L 104.81 223.28 L 104.99 223.28 L 105.08 223.28 L 105.26 223.28 L 105.43 223.28 L 105.52 223.28 L 105.61 223.19 L 105.79 223.19 L 105.88 223.19" /><path d="M 105.88 223.19 L 105.96 223.19 L 106.23 223.1" /><path d="M 105.88 223.19 L 106.05 223.1 L 106.23 223.1" /><path d="M 106.23 223.1 L 106.32 223.1 L 106.94 223.28 L 107.74 223.37 L 108.27 223.45 L 108.8 223.54 L 109.95 223.81 L 112.07 224.07 L 113.49 224.34 L 114.02 224.43 L 115.79 224.69 L 117.03 224.87 L 117.74 224.96 L 119.42 225.23 L 120.04 225.31 L 121.02 225.4 L 121.2 225.4 L 121.82 225.49 L 122.79 225.58 L 123.5 225.67 L 123.85 225.76 L 124.92 225.84 L 125.18 225.93 L 125.36 225.93 L 125.45 225.93 L 125.54 225.93 L 125.71 225.84 L 125.8 225.84 L 125.98 225.76 L 126.07 225.76 L 126.16 225.67 L 126.24 225.58 L 126.42 225.49 L 126.51 225.31 L 126.69 225.23 L 126.86 225.14 L 126.95 225.05 L 127.13 224.96 L 127.31 224.87 L 127.57 224.87 L 127.84 224.87 L 128.19 224.87 L 128.64 224.87 L 129.61 224.87 L 131.03 224.78 L 132.97 224.78 L 133.06 224.78 L 133.51 224.78 L 134.48 224.69 L 134.75 224.69 L 135.01 224.69 L 135.19 224.69 L 135.28 224.61 L 135.54 224.52 L 135.63 224.52 L 135.81 224.43 L 135.9 224.34 L 136.07 224.25 L 136.25 224.16 L 136.61 223.81 L 136.78 223.72 L 137.05 223.45 L 137.23 223.37 L 137.4 223.28 L 137.58 223.28 L 137.85 223.19 L 138.02 223.19 L 139 223.1 L 140.33 223.1 L 140.95 223.1 L 141.12 223.1 L 141.48 223.1 L 143.34 223.01 L 145.02 223.01 L 145.55 223.01 L 146.26 222.92 L 146.97 222.92 L 147.5 222.92 L 148.03 222.92 L 148.21 222.92 L 148.3 222.83 L 148.47 222.83 L 148.65 222.75" /><path d="M 148.65 222.75 L 148.83 222.75 L 149.8 222.48" /><path d="M 148.65 222.75 L 148.92 222.66 L 149.8 222.48" /><path d="M 149.8 222.48 L 150.78 222.21 L 151.04 222.13 L 151.22 222.13 L 151.4 222.13 L 151.57 222.04 L 151.75 222.04 L 151.84 222.04 L 152.1 222.04 L 152.28 221.95 L 152.72 221.95 L 152.99 221.95 L 154.49 221.95 L 154.85 221.95 L 155.03 221.95 L 156.09 221.86 L 156.62 221.86 L 157.06 221.86 L 159.45 221.86 L 160.96 221.86 L 162.02 221.77 L 162.2 221.77 L 162.47 221.77 L 164.06 221.77 L 164.59 221.68 L 165.03 221.68 L 165.65 221.68 L 167.6 221.59" /><path d="M 167.6 221.59 L 167.87 221.59 L 168.13 221.59" /><path d="M 167.6 221.59 L 167.96 221.59 L 168.13 221.59" /><path d="M 168.13 221.59 L 168.22 221.59 L 168.4 221.59 L 168.58 221.59 L 168.75 221.59" /><path d="M 168.75 221.59 L 168.93 221.68 L 169.37 221.68" /><path d="M 168.75 221.59 L 169.02 221.68 L 169.37 221.68" /><path d="M 169.37 221.68 L 170.26 221.86 L 171.06 221.95 L 171.59 221.95 L 171.94 221.86 L 172.92 221.86 L 175.04 221.86 L 175.39 221.86 L 176.9 221.86 L 178.41 221.86 L 179.2 221.86" /><path d="M 179.2 221.86 L 180 221.86 L 180.18 221.77" /><path d="M 179.2 221.86 L 180.09 221.77 L 180.18 221.77" /><path d="M 180.18 221.77 L 180.27 221.68 L 180.27 221.33" /><path d="M 180.18 221.77 L 180.27 221.59 L 180.27 221.33" /><path d="M 180.18 217.61 L 180.18 217.17 L 180.18 216.28" /><path d="M 180.18 217.61 L 180.18 216.99 L 180.18 216.28" /><path d="M 143.34 168.64 L 143.25 168.55 L 143.07 168.37" /><path d="M 143.34 168.64 L 143.16 168.55 L 143.07 168.37" /><path d="M 143.07 168.37 L 142.89 168.28 L 142.8 168.19 L 142.72 168.19 L 142.63 168.02 L 142.45 167.93 L 142.27 167.75 L 142.01 167.48 L 141.74 167.22 L 140.95 166.42 L 140.68 166.07 L 139.97 165.45 L 139.44 164.92 L 139 164.38 L 138.02 163.41 L 137.31 162.7 L 136.69 162.17 L 136.16 161.64 L 134.75 160.13 L 134.57 159.96 L 134.39 159.69 L 134.21 159.51 L 134.04 159.34 L 133.95 159.16 L 133.86 158.98 L 133.77 158.81 L 133.68 158.72 L 133.59 158.63 L 133.51 158.45 L 133.42 158.36 L 133.33 158.19 L 133.24 158.1 L 133.15 158.01 L 132.97 157.92 L 132.89 157.83 L 132.8 157.74 L 132.71 157.65 L 132.53 157.57 L 132.35 157.48 L 132.18 157.39 L 132 157.21 L 131.82 157.12 L 131.65 157.03 L 131.47 156.95 L 131.38 156.86 L 131.29 156.77 L 131.2 156.68 L 131.11 156.59 L 131.03 156.5 L 130.67 156.24 L 130.32 155.79 L 130.05 155.53 L 129.88 155.26 L 129.61 155 L 129.34 154.64 L 129.08 154.38 L 128.81 154.11 L 128.55 153.93 L 128.37 153.67 L 127.93 153.23 L 127.48 152.78 L 127.22 152.52 L 127.04 152.25 L 126.86 152.16 L 126.69 151.99 L 126.51 151.9 L 126.33 151.72 L 126.07 151.54 L 125.8 151.45 L 125.62 151.37 L 125.36 151.28 L 125.18 151.19 L 125 151.01 L 124.83 150.92 L 124.74 150.83 L 124.56 150.75 L 124.38 150.57 L 123.94 150.13 L 123.68 149.86 L 123.06 149.24 L 122.08 148.18 L 121.28 147.47 L 120.66 146.85 L 119.96 146.05 L 119.42 145.52 L 118.81 144.9 L 118.45 144.46 L 118.01 144.1 L 117.74 143.75 L 117.48 143.57 L 117.3 143.4 L 117.03 143.31 L 116.86 143.22 L 116.68 143.22 L 116.5 143.13 L 116.33 143.13 L 116.06 143.13 L 115.88 143.13 L 115.53 143.13 L 114.38 143.13 L 113.05 143.22 L 111.1 143.22 L 110.13 143.22 L 109.33 143.22 L 108.09 143.22 L 107.65 143.22 L 106.94 143.31 L 106.58 143.31 L 106.05 143.31 L 105.52 143.31 L 105.26 143.31 L 105.08 143.22 L 104.81 143.13 L 104.64 143.13 L 104.37 143.04 L 104.1 142.86 L 103.75 142.69 L 103.4 142.6 L 103.04 142.42 L 102.69 142.33 L 102.16 142.24 L 101.71 142.16 L 101.18 141.98 L 100.83 141.89 L 100.3 141.8 L 99.68 141.71 L 99.06 141.62 L 98.52 141.62 L 97.9 141.62 L 97.2 141.62 L 96.67 141.71 L 96.05 141.71 L 95.6 141.8 L 95.07 141.8 L 94.19 141.89 L 93.57 141.98 L 92.86 141.98 L 92.33 142.07 L 91.97 142.07 L 91 142.16 L 89.93 142.16 L 89.23 142.16 L 88.69 142.24 L 87.45 142.33 L 86.39 142.42 L 85.6 142.42 L 84.53 142.51 L 83.56 142.51 L 82.58 142.6 L 81.88 142.6 L 81.7 142.6 L 81.52 142.6 L 81.26 142.6 L 81.08 142.69 L 80.9 142.69 L 80.72 142.69 L 80.55 142.78 L 80.37 142.86 L 80.28 142.95 L 80.19 143.04 L 79.75 143.31 L 78.51 144.28 L 75.76 146.32 L 74.97 146.85 L 74.88 146.94 L 74.79 147.03 L 74.7 147.03 L 74.53 147.12 L 74.44 147.12 L 74.26 147.2 L 74.17 147.2 L 74.08 147.2 L 73.91 147.12 L 73.73 147.12 L 73.64 147.03 L 73.46 146.94 L 73.37 146.85 L 73.29 146.76 L 73.2 146.58 L 72.75 145.96 L 72.31 145.26" /><path d="M 72.31 145.26 L 71.6 144.1 L 71.43 143.93" /><path d="M 72.31 145.26 L 71.51 144.02 L 71.43 143.93" /><path d="M 71.43 143.93 L 71.34 143.84 L 71.25 143.75 L 70.98 143.66 L 70.72 143.66 L 70.45 143.66 L 70.19 143.66 L 69.83 143.75 L 69.57 144.02 L 69.39 144.37 L 69.3 144.64 L 69.21 144.81 L 69.12 144.99 L 69.03 145.17 L 68.86 145.43 L 68.06 146.67" /><path d="M 128.28 239.39 L 130.14 239.31 L 131.29 239.31 L 132.89 239.22 L 134.04 239.22 L 135.1 239.22 L 135.45 239.13" /><path d="M 135.45 239.13 L 135.9 239.13 L 136.07 239.13" /><path d="M 135.45 239.13 L 135.99 239.13 L 136.07 239.13" /><path d="M 136.07 239.13 L 136.16 239.13 L 136.34 238.95 L 136.43 238.77" /><path d="M 136.07 239.13 L 136.25 239.04 L 136.34 238.86 L 136.43 238.77" /><path d="M 136.43 238.77 L 136.61 238.42" /><path d="M 136.61 238.42 L 136.69 238.24 L 136.78 238.07 L 136.96 237.98 L 137.05 237.98" /><path d="M 136.61 238.42 L 136.78 238.15 L 136.87 238.07 L 137.05 237.98" /><path d="M 137.05 237.98 L 137.23 237.89" /><path d="M 137.05 237.98 L 137.14 237.89 L 137.23 237.89" /><path d="M 137.23 237.89 L 137.85 237.89 L 139.17 237.89 L 140.24 237.8 L 140.77 237.8 L 141.48 237.8 L 142.01 237.8 L 143.16 237.8 L 144.58 237.8 L 145.28 237.71 L 147.41 237.71 L 149.18 237.62 L 149.62 237.62 L 150.42 237.62 L 150.86 237.53 L 152.1 237.53 L 153.52 237.53 L 156.09 237.45 L 157.42 237.45 L 158.21 237.45 L 158.3 237.36 L 158.57 237.36 L 161.14 237.36 L 161.76 237.36 L 162.11 237.27 L 163.62 237.27 L 163.7 237.27 L 163.79 237.18 L 163.88 237 L 163.97 236.91 L 163.97 236.74 L 163.97 234.88 L 163.88 233.28 L 163.88 232.58 L 163.88 231.25 L 163.88 229.74 L 163.88 228.32 L 163.79 227.35 L 163.79 226.55 L 163.79 226.11 L 163.79 224.78 L 163.79 222.13 L 163.7 221.95 L 163.7 221.68 L 163.7 220.89 L 163.7 220.44" /><path d="M 163.7 220.44 L 163.7 220.27 L 163.7 220.09" /><path d="M 163.7 220.44 L 163.7 220.18 L 163.7 220.09" /><path d="M 163.7 220.09 L 163.62 219.91 L 163.62 219.82 L 163.62 219.65 L 163.62 219.38 L 163.53 218.14 L 163.53 216.55 L 163.53 216.37 L 163.53 216.1 L 163.53 215.66 L 163.53 215.39 L 163.53 215.13" /><path d="M 163.53 215.13 L 163.62 215.04 L 163.62 214.86 L 163.79 214.77" /><path d="M 163.53 215.13 L 163.62 214.95 L 163.7 214.86 L 163.79 214.77" /><path d="M 163.79 214.77 L 163.26 214.77 L 162.73 214.77 L 162.38 214.86 L 161.85 214.86 L 161.23 214.95" /><path d="M 109.33 213.54 L 109.77 213.54 L 110.04 213.54 L 110.3 213.54 L 110.66 213.54 L 111.19 213.54 L 111.45 213.54 L 111.72 213.54 L 112.07 213.45 L 112.43 213.45 L 112.87 213.45 L 113.14 213.45 L 113.67 213.45 L 114.2 213.45 L 114.82 213.45 L 115.26 213.36 L 115.53 213.36 L 116.24 213.36 L 116.95 213.36 L 117.21 213.36 L 117.74 213.27 L 118.36 213.27 L 118.81 213.27 L 119.34 213.27 L 119.78 213.27 L 120.31 213.27 L 120.75 213.27 L 121.11 213.27 L 121.55 213.18 L 122.08 213.18 L 122.79 213.18 L 123.23 213.18 L 123.59 213.18 L 123.85 213.18 L 124.3 213.18 L 124.56 213.18 L 124.83 213.18 L 125.27 213.18 L 125.8 213.09 L 126.6 213.09 L 127.57 213.09 L 127.84 213.09 L 127.93 213.09 L 128.02 213.09 L 128.1 213.09 L 128.19 213.18 L 128.37 213.18 L 128.46 213.18 L 128.64 213.27 L 128.81 213.36 L 128.99 213.36 L 129.61 213.45 L 130.32 213.45 L 130.85 213.54 L 131.47 213.62 L 132.44 213.71 L 132.8 213.71 L 133.15 213.8 L 133.86 213.89 L 134.57 213.98 L 134.83 213.98 L 135.81 214.07 L 136.87 214.16 L 137.4 214.24 L 137.58 214.24 L 137.85 214.33 L 138.29 214.33 L 138.64 214.33 L 139.17 214.42 L 139.44 214.42 L 140.5 214.6 L 140.68 214.6 L 140.86 214.6 L 141.03 214.6 L 141.3 214.69 L 142.01 214.69 L 142.18 214.77 L 142.54 214.77 L 142.89 214.77 L 143.25 214.86 L 144.49 214.95 L 144.66 214.95 L 144.84 215.04 L 145.11 215.04 L 145.46 215.04 L 145.64 215.13 L 146.17 215.13 L 146.44 215.13 L 146.88 215.22 L 147.59 215.31 L 147.85 215.31 L 148.3 215.39 L 148.65 215.39" /><path d="M 148.65 215.39 L 148.83 215.39 L 149.09 215.39 L 149.62 215.48" /><path d="M 148.65 215.39 L 148.92 215.39 L 149.09 215.48 L 149.62 215.48" /><path d="M 149.62 215.48 L 149.89 215.48 L 150.24 215.57" /><path d="M 150.24 215.57 L 150.86 215.66 L 151.13 215.66" /><path d="M 150.24 215.57 L 150.95 215.66 L 151.13 215.66" /><path d="M 151.13 215.66 L 151.31 215.57 L 151.57 215.57 L 151.84 215.57 L 152.28 215.57 L 152.9 215.48" /><path d="M 152.9 215.48 L 160.78 214.95 L 161.23 214.95" /><path d="M 152.9 215.48 L 160.87 214.95 L 161.23 214.95" /><path d="M 181.51 222.04 L 181.51 222.21 L 181.42 222.39" /><path d="M 181.51 222.04 L 181.51 222.3 L 181.42 222.39" /><path d="M 181.42 222.39 L 181.42 222.48 L 181.33 222.66 L 181.24 222.83 L 181.24 223.01 L 181.24 223.19 L 181.24 225.93" /><path d="M 181.42 222.39 L 181.33 222.57 L 181.24 222.75 L 181.24 222.92 L 181.24 223.1 L 181.24 223.28 L 181.24 225.93" /><path d="M 181.24 225.93 L 181.33 227.88 L 181.33 229.12 L 181.33 231.96 L 181.33 233.2 L 181.42 234.26" /><path d="M 181.42 234.26 L 181.33 234.52 L 181.33 234.7" /><path d="M 181.42 234.26 L 181.33 234.61 L 181.33 234.7" /><path d="M 181.33 234.7 L 181.33 235.94 L 181.33 236.74 L 181.42 238.24 L 181.42 238.33 L 181.59 254.1 L 181.59 254.63 L 181.59 256.93 L 181.68 259.23 L 181.68 260.91" /><path d="M 181.33 234.7 L 181.24 234.88 L 181.06 234.97 L 180.97 234.97 L 180.8 234.97 L 179.65 235.06 L 179.38 235.06 L 179.29 235.14 L 179.11 235.14 L 178.85 235.32 L 178.67 235.41 L 178.49 235.68 L 178.32 235.85 L 177.79 236.56 L 177.52 237 L 177.25 237.45 L 176.63 238.69 L 176.28 239.39 L 175.75 240.46 L 175.75 240.55 L 175.57 240.72 L 175.31 240.99 L 174.69 241.52 L 174.42 241.7 L 174.07 241.87 L 173.71 241.96 L 173.45 242.14 L 173.18 242.41 L 172.56 242.94 L 172.03 243.38 L 171.76 243.65 L 171.5 243.73 L 171.14 243.91 L 170.88 244.09 L 170.7 244.18 L 170.52 244.27 L 170.26 244.35 L 169.99 244.62 L 168.58 245.86 L 168.22 246.13 L 166.72 247.45 L 165.48 248.52 L 165.12 248.78 L 164.86 249.14 L 164.5 249.58 L 163.97 250.2 L 163.26 251.08 L 162.29 252.32 L 161.67 253.03 L 160.34 254.54 L 159.28 255.69 L 158.83 256.22 L 157.77 257.37 L 157.59 257.55 L 157.42 257.73 L 157.33 257.82 L 157.24 257.9 L 157.15 258.08 L 157.06 258.26 L 157.06 258.35 L 156.97 258.61 L 156.97 258.88" /><path d="M 181.68 260.91 L 181.68 261.09 L 181.77 261.27" /><path d="M 181.68 260.91 L 181.77 261.27" /><path d="M 181.77 261.27 L 181.86 261.36" /><path d="M 181.86 261.36 L 182.04 261.45" /><path d="M 181.86 261.36 L 181.95 261.45 L 182.04 261.45" /><path d="M 182.04 261.45 L 182.21 261.45 L 182.57 261.36 L 183.37 261.36 L 183.99 261.36 L 184.07 261.36 L 184.25 261.45 L 184.25 261.53 L 184.34 261.71 L 184.34 261.89 L 184.34 261.98 L 184.34 263.66 L 184.43 265.34 L 184.43 266.58 L 184.43 268.09 L 184.43 269.59 L 184.52 270.66 L 184.52 272.43" /><path d="M 184.52 272.43 L 184.52 272.6 L 184.52 272.87 L 184.61 273.14" /><path d="M 184.52 272.43 L 184.52 272.69 L 184.52 272.96 L 184.61 273.14" /><path d="M 184.61 273.14 L 184.61 274.55 L 184.61 275.88 L 184.61 276.24 L 184.61 277.92 L 184.69 279.6 L 184.69 280.58 L 184.69 280.93 L 184.69 282.35 L 184.69 283.59 L 184.78 285.27 L 184.69 285.53 L 184.78 286.6" /><path d="M 184.78 286.6 L 184.78 288.63 L 184.78 289.34 L 184.87 291.03 L 184.87 291.82 L 184.87 292 L 185.05 292.09 L 185.23 292 L 185.84 292 L 187.17 292 L 188.24 291.91 L 189.74 291.91" /><path d="M 184.78 286.6 L 184.69 286.77" /><path d="M 184.69 286.77 L 184.69 286.86 L 184.61 286.95" /><path d="M 184.69 286.77 L 184.61 286.95" /><path d="M 184.61 286.95 L 183.72 287.04" /><path d="M 184.61 286.95 L 184.52 286.95 L 183.72 287.04" /><path d="M 183.72 287.04 L 182.83 287.04 L 182.3 287.04 L 182.04 287.04 L 181.68 287.04 L 180.8 287.04 L 180.18 287.13 L 179.65 287.13 L 179.56 287.13 L 179.38 287.13 L 179.29 287.22 L 179.2 287.31 L 179.11 287.48 L 179.11 287.57 L 179.11 287.93 L 179.11 289.43 L 179.11 289.7 L 179.11 290.67 L 179.11 290.94 L 179.11 291.56 L 179.11 291.73 L 179.11 291.82 L 179.03 292 L 178.94 292.09 L 178.76 292.35 L 178.67 292.44 L 178.58 292.62 L 178.41 292.62 L 178.23 292.62 L 177.96 292.71 L 177.61 292.71 L 176.9 292.71 L 176.01 292.8 L 174.16 292.8 L 173.8 292.8 L 173.62 292.8 L 173.54 292.8 L 173.36 292.71 L 173.27 292.71 L 171.94 292.71 L 170.7 292.71 L 168.84 292.8 L 167.07 292.8 L 166.1 292.88" /><path d="M 135.9 287.22 L 135.81 283.05 L 135.81 282.79 L 135.81 282.61" /><path d="M 135.81 282.61 L 135.81 282.35 L 135.99 281.99" /><path d="M 135.81 282.61 L 135.9 282.26 L 135.99 281.99" /><path d="M 135.99 281.99 L 136.07 281.81 L 136.16 281.64 L 136.34 281.46 L 136.43 281.19 L 136.61 281.02 L 136.78 280.84 L 136.96 280.66 L 137.23 280.49 L 137.49 280.22 L 139.88 278.54 L 141.39 277.48 L 142.89 276.32 L 143.96 275.53 L 144.58 275.08 L 144.93 274.82 L 145.2 274.64 L 145.37 274.55 L 145.64 274.46 L 145.82 274.38 L 145.99 274.38 L 146.26 274.29 L 146.61 274.29 L 147.41 274.29 L 148.65 274.2 L 149.62 274.2 L 152.1 274.11 L 153.7 274.11 L 155.03 274.02 L 156.71 274.02 L 157.86 273.93 L 158.3 273.93 L 158.57 273.93 L 158.66 273.93 L 158.83 273.93 L 159.01 273.84 L 159.1 273.76 L 159.28 273.67 L 159.37 273.49 L 159.45 273.31 L 159.54 273.22 L 159.63 273.05 L 159.63 272.87 L 159.72 272.69 L 159.72 272.52 L 159.72 272.34 L 159.72 271.01 L 159.72 269.42 L 159.63 268.71 L 159.63 266.94 L 159.63 266.67 L 159.63 266.49 L 159.54 266.23 L 159.54 265.87 L 159.45 265.61 L 159.37 265.25 L 158.83 263.75 L 158.3 262.24 L 157.51 260.38 L 157.24 259.59 L 157.06 259.32" /><path d="M 157.06 259.32 L 157.06 259.14 L 156.97 258.88" /><path d="M 157.06 259.32 L 157.06 259.05 L 156.97 258.88" /><path d="M 145.99 153.85 L 145.99 154.82 L 145.99 155 L 146.08 155.17 L 146.17 155.26 L 146.26 155.26 L 146.44 155.26 L 146.61 155.26 L 146.88 155.26 L 147.14 155.26 L 147.76 155.26 L 148.3 155.17 L 148.74 155.17 L 149.71 155.17 L 150.24 155.17 L 150.69 155.17 L 151.04 155.17 L 151.57 155.17 L 151.93 155.17 L 152.19 155.17 L 152.72 155.17 L 153.43 155.17 L 153.79 155.17 L 154.85 155.09 L 155.38 155.09 L 155.65 155.09 L 156.09 155.09 L 156.62 155.09 L 157.33 155.09 L 157.86 155.09 L 158.39 155 L 158.83 155 L 159.37 155 L 160.07 155 L 160.52 155" /><path d="M 160.52 155 L 160.61 155 L 160.78 155" /><path d="M 160.52 155 L 160.69 155 L 160.78 155" /><path d="M 160.78 155 L 160.87 155.09 L 160.96 155.09 L 161.14 155.17 L 161.23 155.35" /><path d="M 161.23 155.35 L 161.31 155.44 L 161.4 155.71 L 161.4 155.88 L 161.49 156.06 L 161.49 156.33" /><path d="M 161.23 155.35 L 161.31 155.53 L 161.4 155.79 L 161.49 155.97 L 161.49 156.24 L 161.49 156.33" /><path d="M 161.49 156.33 L 161.49 156.5 L 161.49 156.95 L 161.49 158.45 L 161.49 159.16 L 161.58 161.2 L 161.58 162.17 L 161.58 163.32 L 161.58 163.76 L 161.58 164.21 L 161.58 164.83 L 161.67 165.62 L 161.67 166.33 L 161.67 167.4 L 161.67 168.1 L 161.67 169.26 L 161.67 170.05 L 161.67 170.67 L 161.76 170.76 L 161.76 170.94 L 161.76 171.11" /><path d="M 161.76 171.11 L 161.85 171.2 L 161.93 171.38 L 162.02 171.56 L 162.2 171.65" /><path d="M 161.76 171.11 L 161.85 171.29 L 161.93 171.47 L 162.11 171.56 L 162.2 171.65" /><path d="M 162.2 171.65 L 162.38 171.73 L 162.55 171.73" /><path d="M 162.2 171.65 L 162.47 171.73 L 162.55 171.73" /><path d="M 162.55 171.73 L 162.64 171.73 L 163 171.73 L 163.26 171.73 L 163.88 171.73 L 164.59 171.65 L 165.3 171.65 L 165.65 171.65 L 166.18 171.65 L 168.04 171.56 L 168.66 171.56 L 169.28 171.56 L 169.55 171.56" /><path d="M 169.55 171.56 L 169.64 171.56 L 169.73 171.56" /><path d="M 169.55 171.56 L 169.73 171.56" />
    </g>
  </g>
</svg>