<svg xmlns="http://www.w3.org/2000/svg" viewBox="0 0 636 579" width="636" height="579" fill="none">
  <g shape-rendering="geometricPrecision" text-rendering="geometricPrecision">
    
    <g
      stroke="#111111"
      stroke-opacity="0.94"
      stroke-width="1.65"
      stroke-linecap="round"
      stroke-linejoin="round"
    >
      <path d="M 310.65 371.33 L 310.65 370.44 L 310.65 370.09 L 310.65 369.29 L 310.65 368.94" /><path d="M 310.65 368.94 L 310.65 367.79 L 310.65 366.9" /><path d="M 310.65 368.94 L 310.65 367.61 L 310.65 366.9" /><path d="M 310.65 366.9 L 310.65 366.37 L 310.65 365.66 L 310.65 365.13 L 310.65 364.07 L 310.65 363.45 L 310.65 363.18 L 310.65 362.12 L 310.65 357.69 L 310.65 357.25 L 310.65 354.86" /><path d="M 310.65 354.86 L 310.65 354.33 L 310.65 352.82" /><path d="M 310.65 354.86 L 310.65 354.24 L 310.65 352.82" /><path d="M 310.65 352.82 L 310.65 352.2 L 310.65 351.85 L 310.65 351.05 L 310.65 350.69 L 310.65 350.52 L 310.65 350.25 L 310.65 349.72 L 310.74 349.37 L 310.74 349.1 L 310.74 348.84 L 310.65 348.48 L 310.65 348.3 L 310.56 347.33 L 310.56 346.89 L 310.56 346.44 L 310.47 346" /><path d="M 310.47 346 L 310.56 345.12 L 310.56 345.47" /><path d="M 310.47 346 L 310.56 345.47" /><path d="M 310.56 345.47 L 310.56 344.05" /><path d="M 310.56 344.05 L 310.56 342.9 L 310.56 341.57" /><path d="M 310.56 344.05 L 310.56 342.72 L 310.56 341.57" /><path d="M 310.56 341.57 L 310.56 340.6 L 310.56 340.07 L 310.56 339.36 L 310.56 338.39 L 310.56 337.77 L 310.56 337.41 L 310.56 336.61 L 310.56 336.08" /><path d="M 310.56 336.08 L 310.56 335.73 L 310.47 335.37" /><path d="M 310.56 336.08 L 310.56 335.55 L 310.47 335.37" /><path d="M 310.47 335.37 L 310.47 335.02" /><path d="M 310.47 335.02 L 310.38 334.93 L 310.3 334.67" /><path d="M 310.47 335.02 L 310.38 334.75 L 310.3 334.67" /><path d="M 310.3 334.67 L 310.21 334.49 L 310.12 334.4 L 310.03 334.31 L 309.94 334.13 L 309.85 334.13 L 309.76 334.05 L 309.59 334.05 L 309.41 334.05 L 309.23 333.96 L 308.88 333.96" /><path d="M 308.88 333.96 L 308.61 333.96 L 307.73 333.87" /><path d="M 308.88 333.96 L 308.52 333.96 L 307.73 333.87" /><path d="M 307.73 333.87 L 307.46 333.78" /><path d="M 307.46 333.78 L 307.37 333.78 L 307.2 333.69" /><path d="M 307.46 333.78 L 307.28 333.69 L 307.2 333.69" /><path d="M 307.2 333.69 L 307.11 333.51 L 306.93 333.34" /><path d="M 306.93 333.34 L 306.84 333.16 L 306.75 332.81" /><path d="M 306.93 333.34 L 306.84 333.07 L 306.75 332.81" /><path d="M 306.75 332.81 L 306.75 332.63 L 306.75 332.45 L 306.75 332.27 L 306.75 331.57 L 306.75 329.88" /><path d="M 306.75 329.88 L 306.75 329.26 L 306.75 329" /><path d="M 306.75 329.88 L 306.75 329.62 L 306.75 329" /><path d="M 306.75 329 L 306.75 328.55 L 306.66 328.2 L 306.66 327.49 L 306.66 327.05" /><path d="M 306.66 327.05 L 306.75 326.87 L 306.75 326.52 L 306.75 326.34 L 306.84 326.08 L 307.02 325.81" /><path d="M 306.66 327.05 L 306.75 326.7 L 306.75 326.43 L 306.84 326.25 L 306.93 325.99 L 307.02 325.81" /><path d="M 307.02 325.81 L 307.11 325.63 L 307.28 325.37" /><path d="M 307.28 325.37 L 307.37 325.1 L 307.46 324.92 L 307.55 324.57 L 307.64 324.39 L 307.64 324.13 L 307.64 323.95 L 307.55 323.51" /><path d="M 307.28 325.37 L 307.46 325.01 L 307.55 324.75 L 307.55 324.48 L 307.64 324.22 L 307.64 324.04 L 307.64 323.77 L 307.55 323.51" /><path d="M 307.55 323.51 L 307.55 323.24 L 307.46 322.98 L 307.46 322.62" /><path d="M 307.55 323.51 L 307.46 323.06 L 307.46 322.8 L 307.46 322.62" /><path d="M 307.46 322.62 L 307.46 322.09" /><path d="M 307.46 322.09 L 307.46 319.96 L 307.46 319.61" /><path d="M 307.46 322.09 L 307.46 320.67 L 307.46 320.05 L 307.46 319.61" /><path d="M 307.46 319.61 L 307.46 319.17 L 307.46 317.93 L 307.46 317.13" /><path d="M 307.46 317.13 L 307.46 316.69 L 307.55 316.07" /><path d="M 307.46 317.13 L 307.46 316.6 L 307.55 316.07" /><path d="M 307.55 316.07 L 307.55 315.45 L 307.55 315.18 L 307.55 315.01" /><path d="M 307.55 315.01 L 307.55 314.65" /><path d="M 307.55 315.01 L 307.55 315.36" /><path d="M 307.55 315.01 L 307.55 314.39 L 307.55 313.23" /><path d="M 307.55 314.65 L 307.55 313.23" /><path d="M 307.55 314.65 L 307.55 313.85 L 307.55 313.59" /><path d="M 307.55 314.65 L 307.55 314.3 L 307.55 313.23" /><path d="M 307.55 313.23 L 307.55 312.97" /><path d="M 307.55 313.23 L 307.55 313.59" /><path d="M 307.55 312.97 L 307.55 311.73 L 307.55 311.37 L 307.55 311.2 L 307.55 311.02 L 307.64 310.84 L 307.64 310.67 L 307.73 310.4 L 307.73 310.31 L 307.82 310.05 L 307.9 309.87 L 307.99 309.78 L 308.08 309.6 L 308.26 309.51 L 308.44 309.34" /><path d="M 307.55 312.97 L 307.55 313.59" /><path d="M 308.44 309.34 L 308.7 308.98 L 309.06 308.72" /><path d="M 308.44 309.34 L 308.97 308.89 L 309.06 308.72" /><path d="M 309.06 308.72 L 309.32 308.54 L 309.59 308.27 L 309.76 308.1 L 309.94 307.92 L 310.03 307.83" /><path d="M 310.03 307.83 L 310.21 307.74 L 310.47 307.3" /><path d="M 310.03 307.83 L 310.21 307.65 L 310.47 307.3" /><path d="M 310.47 307.3 L 310.92 306.86 L 311.18 306.41" /><path d="M 310.47 307.3 L 310.92 306.77 L 311.18 306.41" /><path d="M 311.18 306.41 L 311.45 306.06 L 311.54 305.88 L 311.62 305.62 L 311.71 305.44 L 311.8 305.18 L 311.89 304.82 L 312.42 302.08 L 312.51 301.81 L 312.6 301.46 L 312.6 301.1 L 312.6 300.75 L 312.6 299.86 L 312.6 299.15" /><path d="M 312.6 299.15 L 312.69 298.53 L 312.6 298.09" /><path d="M 312.6 299.15 L 312.6 298.62 L 312.6 298.09" /><path d="M 312.6 298.09 L 312.6 297.82 L 312.6 297.38" /><path d="M 312.6 298.09 L 312.6 297.74 L 312.6 297.38" /><path d="M 312.6 297.38 L 312.6 296.85 L 312.6 296.41 L 312.69 296.23 L 312.69 296.05 L 312.77 295.7 L 312.86 295.43 L 313.13 294.9 L 313.22 294.64 L 313.31 294.55 L 313.48 294.46 L 313.57 294.37" /><path d="M 313.57 294.37 L 314.46 294.28 L 317.65 294.28 L 316.49 294.28 L 316.85 294.28 L 316.94 294.28 L 317.38 294.28 L 317.91 294.28 L 318.09 294.28 L 318.27 294.19 L 318.53 294.19 L 318.71 294.11" /><path d="M 313.57 294.37 L 313.66 294.28 L 313.84 294.28 L 313.93 294.28 L 314.1 294.28 L 314.55 294.28 L 314.72 294.28 L 314.99 294.28 L 315.61 294.28 L 316.23 294.28 L 316.58 294.28 L 318.62 294.19 L 318.71 294.11" /><path d="M 318.71 294.11 L 318.97 294.11" /><path d="M 318.97 294.11 L 319.06 294.02 L 319.33 293.84" /><path d="M 318.97 294.11 L 319.15 294.02 L 319.33 293.84" /><path d="M 319.33 293.84 L 319.42 293.75 L 319.51 293.57 L 319.51 293.4 L 319.59 293.22 L 319.59 293.04 L 319.59 292.78" /><path d="M 319.59 292.78 L 319.59 292.51 L 319.59 291.89" /><path d="M 319.59 292.78 L 319.59 292.42 L 319.59 291.89" /><path d="M 319.59 291.89 L 319.59 291.63 L 319.51 290.65" /><path d="M 319.59 291.89 L 319.51 291.18 L 319.51 290.65" /><path d="M 319.51 290.65 L 319.51 290.39 L 319.51 290.21 L 319.51 290.03 L 319.59 289.77 L 319.59 289.5 L 319.68 289.41 L 320.04 288.7 L 320.66 287.29 L 320.75 287.2 L 320.83 287.02 L 321.01 286.84 L 321.28 286.58 L 321.45 286.4 L 321.63 286.13 L 321.81 285.87" /><path d="M 319.51 290.65 L 319.42 289.77 L 319.42 289.5 L 319.33 289.23 L 319.33 289.06 L 319.24 288.88 L 319.24 288.7 L 319.15 288.53 L 319.06 288.35" /><path d="M 321.81 285.87 L 321.9 285.6 L 322.16 285.07" /><path d="M 321.81 285.87 L 321.99 285.51 L 322.16 285.07" /><path d="M 322.16 285.07 L 323.05 282.86 L 324.2 280.02 L 325.26 277.46 L 325.35 277.19 L 325.44 276.92" /><path d="M 325.44 276.92 L 325.62 276.57 L 325.7 276.3" /><path d="M 325.44 276.92 L 325.7 276.3" /><path d="M 325.7 276.3 L 325.79 276.04" /><path d="M 325.79 276.04 L 325.97 275.68 L 326.59 274" /><path d="M 325.79 276.04 L 325.97 275.6 L 326.59 274" /><path d="M 326.59 274 L 327.03 273.03 L 327.74 271.35 L 328.18 270.02 L 328.63 269.13 L 328.8 268.6 L 328.89 268.33 L 329.07 267.98 L 329.34 267.45" /><path d="M 329.34 267.45 L 329.6 266.65 L 329.69 266.47" /><path d="M 329.34 267.45 L 329.51 266.92 L 329.69 266.47" /><path d="M 329.69 266.47 L 329.87 265.94 L 330.13 265.41 L 330.49 264.44 L 330.93 263.46 L 331.37 262.31 L 331.46 262.05 L 331.55 261.87 L 331.64 261.6 L 331.82 261.16 L 331.99 260.98 L 332.08 260.72 L 332.26 260.28 L 332.52 259.83 L 332.7 259.57" /><path d="M 332.7 259.57 L 334.56 256.29" /><path d="M 332.7 259.57 L 332.97 259.04 L 334.56 256.29" /><path d="M 334.56 256.29 L 334.65 256.02 L 334.83 255.85 L 334.91 255.67 L 335 255.49 L 335.09 255.4 L 335.27 255.23 L 335.45 255.05 L 335.62 254.78 L 335.8 254.52 L 335.89 254.34 L 335.98 254.08 L 336.42 253.28 L 336.6 253.01 L 336.86 252.39 L 336.95 252.22 L 337.04 251.95 L 337.22 251.6 L 337.48 251.24 L 337.57 250.98" /><path d="M 337.57 250.98 L 337.84 250.53 L 338.1 250.09" /><path d="M 337.57 250.98 L 337.75 250.71 L 338.1 250.09" /><path d="M 338.1 250.09 L 338.63 249.12 L 339.43 247.7 L 340.49 245.84 L 341.03 244.78" /><path d="M 341.03 244.78 L 341.47 243.98" /><path d="M 341.03 244.78 L 341.29 244.25 L 341.47 243.98" /><path d="M 341.47 243.98 L 342 243.09 L 342.53 242.12 L 343.68 240.08 L 344.13 239.38 L 344.66 238.49 L 344.75 238.31" /><path d="M 319.06 288.35 L 318.97 288.26 L 318.8 288.08" /><path d="M 319.06 288.35 L 318.89 288.17 L 318.8 288.08" /><path d="M 318.8 288.08 L 318.62 288.08" /><path d="M 318.62 288.08 L 318.53 287.99 L 318.35 287.99" /><path d="M 318.62 288.08 L 318.44 287.99 L 318.35 287.99" /><path d="M 318.35 287.99 L 318.18 288.08 L 318.09 288.08" /><path d="M 318.35 287.99 L 318.09 288.08" /><path d="M 318.09 288.08 L 317.82 288.08" /><path d="M 318.09 288.08 L 318 288.08 L 317.82 288.08" /><path d="M 317.82 288.08 L 317.11 288.08 L 317.03 288.08 L 316.85 288.08 L 316.76 288.08" /><path d="M 316.76 288.08 L 316.23 287.91 L 316.58 287.99" /><path d="M 316.76 288.08 L 316.58 287.99" /><path d="M 316.58 287.99 L 316.05 287.91" /><path d="M 316.05 287.91 L 315.96 287.91 L 315.87 287.82" /><path d="M 316.05 287.91 L 315.87 287.82" /><path d="M 315.87 287.82 L 315.79 287.64 L 315.7 287.55" /><path d="M 315.87 287.82 L 315.79 287.73 L 315.7 287.55" /><path d="M 315.7 287.55 L 315.61 287.29 L 315.61 287.11 L 315.61 286.05" /><path d="M 315.7 287.55 L 315.7 287.46 L 315.61 287.2 L 315.61 287.02 L 315.61 286.05" /><path d="M 315.61 286.05 L 315.61 284.63" /><path d="M 315.61 284.63 L 315.61 284.01 L 315.61 283.74 L 315.7 283.48 L 315.79 283.21 L 315.96 282.86 L 316.05 282.68 L 316.14 282.5 L 316.23 282.24 L 316.23 281.97 L 316.23 280.38 L 316.23 280.11 L 316.23 279.94 L 316.14 279.76 L 316.14 279.58 L 316.05 279.4 L 315.96 279.23" /><path d="M 315.61 284.63 L 315.61 283.83 L 315.7 283.57 L 315.7 283.3 L 315.79 283.12 L 316.05 282.77 L 316.14 282.59 L 316.23 282.33 L 316.23 282.06 L 316.23 281.88 L 316.23 280.2 L 316.23 280.02 L 316.23 279.85 L 316.14 279.67 L 316.05 279.49 L 315.96 279.32 L 315.96 279.23" /><path d="M 315.96 279.23 L 315.7 278.78 L 315.34 278.34" /><path d="M 315.96 279.23 L 315.61 278.78 L 315.34 278.34" /><path d="M 315.34 278.34 L 315.25 278.16 L 315.17 277.9 L 315.08 277.72 L 315.08 277.46 L 315.08 277.28 L 315.08 276.57 L 315.08 276.3 L 315.08 276.13 L 315.08 275.95 L 314.99 275.68" /><path d="M 314.99 275.68 L 314.99 275.42 L 314.99 275.15 L 314.99 274.8" /><path d="M 314.99 275.68 L 314.99 275.24 L 314.99 274.98 L 314.99 274.8" /><path d="M 314.99 274.8 L 314.99 274.53 L 314.99 272.76 L 314.99 272.5 L 314.99 272.23 L 314.99 272.05 L 314.99 271.88 L 314.9 271.7 L 314.81 271.43 L 314.72 271.26 L 314.63 271.26 L 314.55 271.17 L 314.37 271.17 L 314.01 271.17 L 313.84 271.17 L 313.48 271.08 L 313.39 270.99 L 313.22 270.73 L 312.86 269.93" /><path d="M 317.47 292.25 L 318.18 292.16 L 318.35 292.07 L 319.06 291.98 L 319.33 291.89 L 319.51 291.89" /><path d="M 319.51 291.89 L 319.68 291.89 L 319.77 291.8" /><path d="M 319.51 291.89 L 319.77 291.8" /><path d="M 319.77 291.8 L 319.95 291.8 L 320.3 291.54" /><path d="M 319.77 291.8 L 319.86 291.8 L 319.95 291.71 L 320.3 291.54" /><path d="M 320.3 291.54 L 320.39 291.45 L 321.1 291.09" /><path d="M 321.1 291.09 L 321.54 290.92" /><path d="M 321.1 291.09 L 321.37 290.92 L 321.54 290.92" /><path d="M 321.54 290.92 L 321.72 290.83" /><path d="M 321.72 290.83 L 322.52 290.47 L 322.61 290.39" /><path d="M 321.72 290.83 L 322.61 290.39" /><path d="M 322.61 290.39 L 322.78 290.47 L 322.87 290.65 L 322.96 290.83 L 323.4 292.69" /><path d="M 322.61 290.39 L 322.69 290.47 L 322.87 290.56 L 322.96 290.74 L 322.96 290.92 L 323.4 292.69" /><path d="M 323.4 292.69 L 323.4 293.04 L 323.4 293.31 L 323.4 293.49 L 323.4 293.66" /><path d="M 323.4 293.66 L 323.4 296.5 L 323.4 296.76 L 323.4 297.03 L 323.31 297.2 L 323.31 297.38 L 323.23 297.47" /><path d="M 323.4 293.66 L 323.4 296.67 L 323.4 296.85 L 323.4 297.12 L 323.31 297.29 L 323.23 297.47" /><path d="M 323.23 297.47 L 323.14 297.65 L 322.78 298.18" /><path d="M 323.23 297.47 L 323.23 297.56 L 323.05 297.74 L 322.78 298.18" /><path d="M 322.78 298.18 L 322.52 298.62 L 322.34 298.89 L 322.25 298.98 L 322.16 299.15 L 322.16 299.42" /><path d="M 322.16 299.42 L 322.07 300.39 L 322.07 300.66 L 322.16 300.92 L 322.25 301.19 L 322.34 301.37 L 322.52 301.46 L 323.4 301.46" /><path d="M 322.16 299.42 L 322.07 300.57 L 322.07 300.84 L 322.16 301.01 L 322.34 301.28 L 322.43 301.46 L 322.61 301.46 L 323.4 301.46" /><path d="M 323.4 301.46 L 323.58 301.46 L 323.67 301.46 L 323.84 301.54 L 324.02 301.54 L 324.2 301.63" /><path d="M 324.2 301.63 L 324.29 301.72 L 324.46 301.81 L 324.64 301.99" /><path d="M 324.2 301.63 L 324.38 301.72 L 324.55 301.9 L 324.64 301.99" /><path d="M 324.64 301.99 L 324.73 302.08 L 324.91 302.16 L 325.08 302.34 L 325.26 302.61 L 325.35 302.7 L 325.44 302.7 L 325.62 302.78 L 327.83 302.78 L 328.27 302.78" /><path d="M 328.27 302.78 L 328.36 302.78 L 328.54 302.7" /><path d="M 328.27 302.78 L 328.54 302.7" /><path d="M 328.54 302.7 L 328.72 302.7 L 328.8 302.7" /><path d="M 328.54 302.7 L 328.8 302.7" /><path d="M 328.8 302.7 L 329.6 302.7 L 329.78 302.7 L 329.87 302.87 L 329.87 303.05 L 329.87 303.23 L 329.87 303.49 L 329.87 303.76 L 329.87 303.94 L 329.87 305.53" /><path d="M 328.8 302.7 L 328.89 302.7 L 329.69 302.7 L 329.78 302.78 L 329.87 302.96 L 329.87 303.14 L 329.87 303.32 L 329.87 303.58 L 329.87 303.85 L 329.87 304.02 L 329.87 305.53" /><path d="M 329.87 305.53 L 329.87 306.24 L 329.87 306.59 L 329.87 307.3 L 329.87 307.74 L 329.87 307.92" /><path d="M 329.87 307.92 L 329.87 308.1 L 329.87 308.36 L 329.87 308.63 L 329.96 308.89 L 330.04 309.16 L 330.4 310.13 L 330.49 310.31 L 330.49 310.58 L 330.49 310.84 L 330.49 311.02 L 330.49 311.29 L 330.49 313.68" /><path d="M 329.87 307.92 L 329.87 308.19 L 329.87 308.54 L 329.96 308.72 L 330.04 308.98 L 330.13 309.34 L 330.4 310.22 L 330.49 310.49 L 330.49 310.67 L 330.49 310.93 L 330.49 311.2 L 330.49 311.46 L 330.49 313.68" /><path d="M 330.49 313.68 L 330.49 314.47 L 330.49 314.74 L 330.49 314.92 L 330.49 315.18" /><path d="M 330.49 315.18 L 330.58 315.54 L 330.58 315.71 L 330.58 315.98 L 330.58 322.44" /><path d="M 330.49 315.18 L 330.58 315.63 L 330.58 315.89 L 330.58 316.07 L 330.58 322.44" /><path d="M 330.58 322.44 L 330.58 323.15 L 330.58 323.51 L 330.58 324.22 L 330.58 326.87 L 330.66 327.14 L 330.66 327.32 L 330.66 327.49 L 330.75 327.67 L 330.75 327.94 L 330.93 328.11" /><path d="M 330.93 328.11 L 331.99 330.24 L 332.17 330.41 L 332.26 330.59 L 332.44 330.68 L 332.52 330.77 L 332.7 330.77 L 333.23 330.59" /><path d="M 330.93 328.11 L 332.08 330.33 L 332.17 330.5 L 332.35 330.68 L 332.52 330.68 L 332.61 330.77 L 332.79 330.68 L 333.23 330.59" /><path d="M 333.23 330.59 L 333.32 330.59 L 333.5 330.68 L 333.59 330.77 L 333.68 330.95 L 334.03 331.74" /><path d="M 334.03 331.74 L 334.3 332.45 L 334.65 333.25" /><path d="M 334.03 331.74 L 334.3 332.54 L 334.65 333.25" /><path d="M 334.65 333.25 L 334.74 333.43 L 334.74 333.69 L 334.74 333.96 L 334.74 334.31 L 334.74 334.58 L 334.74 334.75 L 334.74 336.44 L 334.74 339.98 L 334.74 340.78 L 334.74 341.57 L 334.74 341.75" /><path d="M 334.74 341.75 L 334.83 344.76 L 334.83 345.12" /><path d="M 334.74 341.75 L 334.83 344.85 L 334.83 345.12" /><path d="M 334.83 345.12 L 334.83 345.29 L 334.74 345.91 L 334.74 346.44 L 334.74 346.71 L 334.74 346.89 L 334.74 347.42 L 334.74 347.68 L 334.74 348.13 L 334.74 349.63 L 334.74 349.99 L 334.74 350.34 L 334.74 350.61" /><path d="M 334.74 350.61 L 334.74 350.87 L 334.83 351.14" /><path d="M 334.74 350.61 L 334.83 350.96 L 334.83 351.14" /><path d="M 334.83 351.14 L 334.91 351.31 L 334.91 351.58 L 335 351.85 L 335.09 352.02 L 335.18 352.2 L 335.45 352.82 L 335.53 353 L 335.62 353.17 L 335.62 353.35 L 335.71 353.53 L 335.71 353.71 L 335.8 353.97 L 335.8 354.24" /><path d="M 335.8 354.24 L 335.8 354.41 L 335.89 355.3" /><path d="M 335.8 354.24 L 335.8 354.59 L 335.89 355.3" /><path d="M 335.89 355.3 L 335.89 355.57 L 335.89 355.74 L 335.89 356.45 L 335.89 356.72 L 335.89 356.89 L 335.89 357.07 L 335.98 357.87 L 335.98 358.13 L 335.98 358.31 L 336.07 358.49 L 336.07 358.67 L 337.13 365.4 L 337.22 365.66 L 337.22 365.93 L 337.31 366.1 L 337.31 366.28 L 337.31 366.46 L 337.31 366.64 L 337.39 366.99 L 337.39 367.26 L 337.39 367.52 L 337.39 367.96 L 337.48 368.14 L 337.48 368.5 L 337.48 368.76 L 337.48 369.03 L 337.48 369.38" /><path d="M 337.48 369.38 L 337.48 369.91 L 337.48 370.18 L 337.57 370.36" /><path d="M 337.48 369.38 L 337.48 370 L 337.48 370.27 L 337.57 370.36" /><path d="M 337.57 370.36 L 337.66 370.44 L 338.28 370.36" /><path d="M 337.57 370.36 L 337.75 370.44 L 338.28 370.36" /><path d="M 338.28 370.36 L 338.37 370.36" /><path d="M 338.37 370.36 L 338.81 370.18" /><path d="M 338.37 370.36 L 338.55 370.27" /><path d="M 12.2 13.02 L 12.29 13.02 L 12.47 13.02 L 12.73 13.02 L 13 13.02 L 13.18 13.02 L 13.27 13.02 L 13.71 13.02 L 14.15 13.02 L 14.59 13.02 L 14.77 13.02 L 15.04 13.02 L 15.21 13.02 L 15.66 13.02 L 15.83 13.02 L 15.92 13.02 L 16.28 13.02 L 16.36 13.02 L 16.81 13.02 L 16.9 13.02 L 17.52 13.02 L 17.69 13.02 L 18.14 13.02 L 18.22 13.02" /><path d="M 18.22 12.22 L 18.05 12.22 L 17.87 12.22 L 17.52 12.22 L 16.98 12.22 L 16.81 12.22 L 16.36 12.22 L 16.19 12.22 L 16.1 12.22 L 15.83 12.22 L 15.48 12.22 L 15.21 12.22 L 14.95 12.22 L 14.77 12.22 L 14.59 12.22 L 14.15 12.22 L 13.71 12.22 L 13.44 12.22 L 13.09 12.22 L 12.73 12.22 L 12.56 12.22 L 12.29 12.22 L 12.2 12.22" />
    </g>
  </g>
</svg>