<svg xmlns="http://www.w3.org/2000/svg" viewBox="0 0 600 440" width="600" height="440" fill="none">
  <g shape-rendering="geometricPrecision" text-rendering="geometricPrecision">
    
    <g
      stroke="#111111"
      stroke-opacity="0.7"
      stroke-width="1.65"
      stroke-linecap="round"
      stroke-linejoin="round"
    >
      <path d="M 229.24 145.26 L 235.44 154.55 L 238.36 164.65" /><path d="M 238.36 164.65 L 239.87 171.47 L 242.35 180.5 L 249.43 187.85 L 255.63 194.58" /><path d="M 238.36 164.65 L 235.44 154.47 L 229.42 145.34 L 221.71 136.13 L 217.82 130.11 L 211.97 113.46 L 212.33 98.41 L 209.93 91.94 L 208.34 82.38" /><path d="M 238.36 164.65 L 239.87 171.38 L 242.44 180.41 L 249.43 187.68 L 255.63 194.58" /><path d="M 255.63 194.58 L 260.24 198.13 L 266.79 199.63" /><path d="M 255.63 194.58 L 260.15 197.95" /><path d="M 266.79 199.63 L 273.79 196.44 L 277.33 195.73 L 280.16 200.34 L 280.87 206.01 L 283.62 211.94" /><path d="M 266.79 199.63 L 260.15 197.95" /><path d="M 266.79 199.63 L 273.61 196.62 L 277.95 193.7 L 282.55 190.07 L 297.87 201.76" /><path d="M 283.62 211.94 L 285.48 208.66 L 287.87 206.89 L 289.9 206.36" /><path d="M 283.62 211.94 L 286.27 209.02" /><path d="M 283.62 211.94 L 279.45 215.66 L 276.62 218.49" /><path d="M 289.9 206.36 L 293.54 206.01 L 295.13 213.09" /><path d="M 289.9 206.36 L 294.33 205.56 L 297.17 203.97 L 301.51 199.54" /><path d="M 289.9 206.36 L 286.27 209.02" /><path d="M 289.9 206.36 L 292.47 213.89" /><path d="M 289.9 206.36 L 284.24 196.09 L 283.88 188.03 L 282.2 185.28" /><path d="M 289.9 206.36 L 282.2 185.28" /><path d="M 295.13 213.09 L 297.87 217.7" /><path d="M 295.13 213.09 L 299.03 212.03" /><path d="M 295.13 213.09 L 292.47 213.89" /><path d="M 295.13 213.09 L 296.37 204.59" /><path d="M 295.13 213.09 L 294.86 220.44" /><path d="M 297.87 217.7 L 300.09 220" /><path d="M 297.87 217.7 L 299.73 216.46" /><path d="M 297.87 217.7 L 294.86 220.44" /><path d="M 300.09 220 L 301.68 220.27" /><path d="M 300.09 220 L 299.73 216.46" /><path d="M 301.68 220.27 L 304.34 223.63" /><path d="M 301.68 220.27 L 300.97 225.31" /><path d="M 301.68 220.27 L 304.52 216.81 L 308.15 216.28 L 311.42 215.84 L 312.66 216.37 L 314.17 217.08 L 317.45 217.7" /><path d="M 304.34 223.63 L 305.23 227.53 L 309.21 231.34" /><path d="M 304.34 223.63 L 307.62 222.75 L 313.2 221.51" /><path d="M 304.34 223.63 L 300.97 225.31" /><path d="M 304.34 223.63 L 307.35 236.74" /><path d="M 304.34 223.63 L 313.55 215.75" /><path d="M 309.21 231.34 L 311.69 225.49 L 313.2 221.51" /><path d="M 309.21 231.34 L 307.35 236.74" /><path d="M 382.27 55.72 L 378.64 75.12 L 372.09 98.41 L 362.43 101.86 L 359.42 114.97 L 355.08 132.33" /><path d="M 355.08 132.33 L 352.78 145.61 L 350.83 155.44 L 346.32 166.33" /><path d="M 355.08 132.33 L 358.36 123.29 L 369.08 122.67 L 374.92 126.66 L 375.36 135.25 L 374.48 142.33 L 373.68 151.01 L 374.21 159.87 L 366.07 159.07 L 358.98 159.34 L 353.22 160.04 L 346.32 166.33" /><path d="M 346.32 166.33 L 341.62 176.69 L 342.33 189.71" /><path d="M 342.33 189.71 L 332.06 204.41" /><path d="M 342.33 189.71 L 345.25 201.76" /><path d="M 332.06 204.41 L 324.62 202.55 L 315.14 211.23" /><path d="M 332.06 204.41 L 334.89 202.82 L 339.59 204.68 L 345.25 201.76" /><path d="M 332.06 204.41 L 327.63 207.25 L 323.03 209.37 L 318.86 213.27" /><path d="M 315.14 211.23 L 313.55 215.75" /><path d="M 315.14 211.23 L 317.71 213.98 L 317.45 217.7" /><path d="M 315.14 211.23 L 313.37 210.52" /><path d="M 315.14 211.23 L 318.86 213.27" /><path d="M 313.55 215.75 L 310.27 213.36 L 305.49 210.44 L 302.39 211.06" /><path d="M 313.55 215.75 L 313.37 210.52" /><path d="M 313.55 215.75 L 313.2 221.51" /><path d="M 302.39 211.06 L 299.03 212.03" /><path d="M 302.39 211.06 L 301.15 206.18 L 301.51 199.54" /><path d="M 302.39 211.06 L 301.06 214.95 L 299.73 216.46" /><path d="M 299.03 212.03 L 297.7 208.4 L 296.37 204.59" /><path d="M 299.03 212.03 L 299.73 216.46" /><path d="M 292.47 213.89 L 289.28 214.69 L 283.7 216.19 L 279.72 217.43 L 276.62 218.49" /><path d="M 292.47 213.89 L 294.86 220.44" /><path d="M 276.62 218.49 L 273.34 220.27 L 268.92 222.66 L 267.06 216.01 L 259.17 211.85 L 254.92 205.83" /><path d="M 276.62 218.49 L 277.77 225.58" /><path d="M 254.92 205.83 L 243.68 199.99 L 233.23 194.23 L 225.52 189.18 L 217.82 184.04 L 207.54 176.43 L 203.47 173.06 L 194.26 165.18" /><path d="M 254.92 205.83 L 247.75 210.7 L 240.75 213.27 L 245.27 217.61" /><path d="M 286.27 209.02 L 282.73 210.52 L 279.19 209.73 L 274.94 207.96 L 271.75 211.14 L 269.27 214.69 L 266.97 217.96 L 266.35 221.59 L 266.17 224.78 L 266.79 232.31" /><path d="M 277.77 225.58 L 281.23 231.51" /><path d="M 277.77 225.58 L 277.59 233.46" /><path d="M 281.23 231.51 L 284.15 231.69" /><path d="M 281.23 231.51 L 277.59 233.46" /><path d="M 284.15 231.69 L 290.17 233.28 L 294.69 229.74" /><path d="M 284.15 231.69 L 288.75 225.05 L 291.5 223.81 L 294.86 220.44" /><path d="M 294.69 229.74 L 297.96 226.91 L 300.97 225.31" /><path d="M 294.69 229.74 L 294.86 220.44" /><path d="M 294.69 229.74 L 297.87 236.12 L 301.15 239.04 L 301.68 251" /><path d="M 300.97 225.31 L 294.86 220.44" /><path d="M 317.45 217.7 L 318.86 213.27" /><path d="M 313.37 210.52 L 310.1 208.66 L 307.7 208.66 L 301.51 199.54" /><path d="M 313.37 210.52 L 313.55 203.79 L 307.44 197.77 L 301.51 199.54" /><path d="M 301.51 199.54 L 298.49 201.76" /><path d="M 301.51 199.54 L 303.1 183.78 L 304.87 180.15 L 306.91 174.83 L 307.08 170.05" /><path d="M 301.51 199.54 L 308.24 185.73 L 307.08 170.05" /><path d="M 429.03 174.48 L 423.9 174.92 L 418.23 178.91 L 411.23 182.72 L 400.07 187.68 L 393.79 189.89 L 386.79 191.04 L 378.11 192.72 L 371.11 191.93 L 360.93 192.19 L 355.53 195.38 L 349.42 198.92 L 345.25 201.76" /><path d="M 345.25 201.76 L 346.32 214.6 L 344.99 226.11 L 337.28 223.45 L 326.66 228.32 L 321.7 228.5 L 313.2 221.51" /><path d="M 277.59 233.46 L 273.08 234.88 L 270.78 235.06" /><path d="M 277.59 233.46 L 276.8 237.71 L 276.89 244 L 274.94 248.25 L 272.37 254.45 L 271.57 262.42 L 273.08 274.82 L 275.38 284.03 L 273.08 295.81" /><path d="M 277.59 233.46 L 271.93 228.59" /><path d="M 277.59 233.46 L 270.78 235.06" /><path d="M 270.78 235.06 L 267.23 233.28" /><path d="M 267.23 233.28 L 263.07 231.69 L 259.71 230.98 L 256.69 230.8" /><path d="M 267.23 233.28 L 256.69 230.8" /><path d="M 256.69 230.8 L 252.18 231.25 L 247.93 223.81" /><path d="M 256.69 230.8 L 249.7 233.73 L 246.24 246.66 L 240.75 258.88" /><path d="M 256.69 230.8 L 247.93 223.81" /><path d="M 247.93 223.81 L 245.27 217.61" /><path d="M 247.93 223.81 L 238.72 225.67 L 236.24 227.08 L 232.69 230.36 L 223.4 243.03 L 221.98 250.11 L 218.52 251.79 L 211.71 249.84 L 199.22 255.78" /><path d="M 245.27 217.61 L 245 211.14 L 246.6 202.64 L 241.37 190.78 L 235.88 181.74 L 228.8 176.34 L 223.31 169.34 L 217.02 160.31" /><path d="M 339.14 257.55 L 337.82 253.74 L 335.87 249.22 L 338.88 245.77 L 339.85 242.67 L 340.03 237.27 L 338.44 234.7 L 338.52 230.27 L 338.08 226.46 L 336.22 223.54 L 336.31 222.21" /><path d="M 336.31 222.21 L 336.58 220.35" /><path d="M 336.31 222.21 L 334.36 218.23" /><path d="M 336.58 220.35 L 337.55 219.73" /><path d="M 336.58 220.35 L 334.36 218.23" /><path d="M 337.55 219.73 L 339.05 216.81 L 338.7 213.18 L 337.46 206.54 L 336.4 202.02 L 339.14 196.35 L 342.42 189.71" /><path d="M 337.55 219.73 L 341.09 219.47 L 342.69 218.32 L 346.23 214.07" /><path d="M 337.55 219.73 L 334.36 218.23" /><path d="M 342.42 189.71 L 343.13 192.9 L 344.81 198.39 L 344.99 201.93 L 344.9 208.22 L 346.23 214.07" /><path d="M 342.42 189.71 L 340.21 186.7" /><path d="M 334.36 218.23 L 329.93 215.57 L 324.18 216.19" /><path d="M 324.18 216.19 L 313.28 214.86" /><path d="M 324.18 216.19 L 317.98 217.17" /><path d="M 364.47 213.89 L 367.93 218.67 L 365.27 219.03 L 362.26 218.76 L 359.16 219.11 L 355.17 218.32 L 352.6 217.96 L 349.77 218.32 L 346.23 214.07" /><path d="M 346.23 214.07 L 351.19 223.99 L 354.46 224.61 L 360.13 223.54 L 364.83 224.78 L 367.04 235.32" /><path d="M 191.6 263.22 L 188.5 251.17" /><path d="M 188.5 251.17 L 200.1 223.81" /><path d="M 188.5 251.17 L 176.28 252.86 L 189.3 251.79" /><path d="M 200.1 223.81 L 214.45 221.24 L 228.09 216.1 L 234.38 214.6 L 240.66 213.45 L 252.53 211.41" /><path d="M 200.1 223.81 L 182.48 217.7 L 170.79 219.03 L 158.84 219.38 L 141.83 216.01 L 123.15 205.83 L 111.19 205.74 L 97.11 210.08 L 49.2 248.07 L 12.18 262.77" /><path d="M 252.53 211.41 L 283.09 212.03 L 292.56 214.42 L 299.03 212.74 L 307.7 208.75 L 315.5 210.88 L 322.94 209.37" /><path d="M 252.53 211.41 L 283.44 212.47" /><path d="M 322.94 209.37 L 342.33 189.62" /><path d="M 322.94 209.37 L 337.11 221.06 L 352.6 217.87 L 367.57 233.37 L 384.84 234.26" /><path d="M 342.33 189.62 L 345.52 185.9 L 351.81 182.98 L 359.34 180.33 L 367.22 174.48 L 376.6 170.14 L 381.3 168.81 L 387.5 166.6 L 405.92 160.66" /><path d="M 342.33 189.62 L 315.76 210.7 L 323.2 205.48 L 324 198.39 L 323.82 190.24 L 322.76 183.6" /><path d="M 342.33 189.62 L 334.98 188.3 L 329.05 185.11 L 324.35 185.02 L 317.71 184.13 L 312.04 183.6" /><path d="M 405.92 160.66 L 413.71 154.38 L 423.01 144.81 L 445.59 126.39 L 455.95 111.16" /><path d="M 405.92 160.66 L 418.49 166.07 L 429.03 174.57" /><path d="M 282.2 185.28 L 278.39 185.46 L 273.87 185.02 L 267.94 183.25" /><path d="M 282.2 185.28 L 267.94 183.25" /><path d="M 282.2 185.28 L 248.28 170.85" /><path d="M 267.94 183.25 L 262.01 180.77 L 258.29 179 L 248.28 170.85" /><path d="M 267.94 183.25 L 248.28 170.85" /><path d="M 248.28 170.85 L 248.46 151.81 L 245.89 143.57 L 243.06 131.62 L 240.13 120.9" /><path d="M 248.28 170.85 L 242.88 163.14 L 235.09 157.39 L 228.53 156.77" /><path d="M 260.15 197.95 L 253.86 218.85 L 251.38 226.82 L 249.7 233.82 L 246.33 246.66 L 240.66 258.97" /><path d="M 260.15 197.95 L 268.47 196.09 L 271.84 190.69 L 274.49 186.79 L 278.3 184.75 L 281.05 182.27 L 286.98 177.93 L 292.12 177.76" /><path d="M 260.15 197.95 L 269.27 221.86 L 271.75 228.32 L 276.8 237.89 L 281.14 248.52 L 285.48 257.99 L 296.28 252.68 L 298.32 256.84 L 313.02 254.45 L 319.84 252.86 L 324 249.76 L 327.28 232.49" /><path d="M 136.34 72.99 L 152.37 78.48" /><path d="M 152.37 78.48 L 166.72 90.44 L 182.04 102.92 L 196.12 112.13" /><path d="M 152.37 78.48 L 135.1 45.54" /><path d="M 196.12 112.13 L 199.04 128.69 L 203.91 137.9 L 213.57 144.72 L 219.94 151.81 L 228.53 156.77" /><path d="M 196.12 112.13 L 192.93 96.9 L 201.26 87.78" /><path d="M 228.53 156.77 L 223.04 156.33 L 217.02 160.31" /><path d="M 217.02 160.31 L 208.07 159.16 L 202.76 162.08 L 199.66 163.68 L 192.84 171.91 L 190.19 179.26 L 180.53 185.55" /><path d="M 292.12 177.76 L 293.54 185.55 L 296.19 189.71 L 303.72 188.65 L 308.15 185.9 L 312.04 183.6" /><path d="M 292.12 177.76 L 299.38 170.49 L 303.54 163.76 L 310.01 158.54 L 318.95 155.71 L 329.4 150.21 L 335.34 154.73 L 340.74 165.09 L 346.41 170.58 L 352.43 181.03 L 358.63 183.16 L 371.11 191.75 L 383.07 209.28" /><path d="M 312.04 183.6 L 317.89 185.9 L 317.71 192.46 L 317.71 198.75 L 317.89 205.92 L 323.11 209.37 L 324.09 216.55 L 324.44 222.66 L 325.77 225.76 L 326.57 228.24 L 327.28 232.49" /><path d="M 277.24 93.8 L 282.38 111.43 L 280.25 122.58 L 279.28 130.11 L 277.86 137.64" /><path d="M 277.86 137.64 L 287.25 149.77 L 293.8 158.27 L 297.52 168.9 L 296.28 176.52 L 295.48 182.18 L 294.86 191.93" /><path d="M 277.86 137.64 L 271.93 131.17" /><path d="M 294.86 191.93 L 296.19 196 L 298.49 201.76" /><path d="M 294.86 191.93 L 298.49 201.76" /><path d="M 294.86 191.93 L 291.23 187.68 L 287.34 182.18 L 283 176.96 L 277.33 162.88 L 270.69 158.98 L 266.35 153.14 L 258.29 142.51 L 253.51 135.96 L 249.79 126.39" /><path d="M 298.49 201.76 L 296.37 204.59" /><path d="M 307.35 236.74 L 305.14 242.49 L 301.68 251" /><path d="M 307.35 236.74 L 299.73 244.18 L 295.04 244.18" /><path d="M 301.68 251 L 299.2 257.2 L 296.37 260.12 L 293.18 268.18 L 291.32 276.41 L 289.02 283.05 L 286.1 290.14 L 282.82 298.46 L 278.04 300.94 L 277.06 312.55" /><path d="M 301.68 251 L 304.34 259.41" /><path d="M 292.65 93 L 298.41 96.37 L 299.91 109.92 L 298.14 123.91 L 301.15 132.24 L 306.02 140.65 L 308.41 147.03 L 310.72 164.21 L 307.08 170.05" /><path d="M 307.08 170.05 L 318.77 153.14 L 322.94 148.89 L 329.49 149.95 L 336.75 153.49" /><path d="M 199.22 255.78 L 189.3 251.79" /><path d="M 199.22 255.78 L 191.51 262.95 L 189.3 251.79" /><path d="M 336.75 153.49 L 342.69 150.3 L 343.39 131.09 L 346.85 109.21" /><path d="M 336.75 153.49 L 332.24 155.17 L 324.09 172.27 L 322.76 183.6" /><path d="M 335.34 47.66 L 331.62 56.78 L 327.37 74.32 L 325.59 95.48 L 322.67 116.47" /><path d="M 322.67 116.47 L 320.55 125.51 L 319.31 134.01 L 319.66 143.75 L 317.8 154.02 L 317.36 160.93 L 318.69 169.08 L 320.19 175.01 L 322.76 183.6" /><path d="M 322.67 116.47 L 319.93 101.77 L 316.47 92.56" /><path d="M 308.5 333.36 L 317.89 316.97 L 321.08 303.69 L 322.76 299 L 324.97 290.49" /><path d="M 324.97 290.49 L 325.42 279.87 L 327.98 270.48 L 330.73 257.64 L 329.76 248.43 L 327.28 232.49" /><path d="M 324.97 290.49 L 318.77 298.46" /><path d="M 327.28 232.49 L 332.41 247.28" />
    </g>
  </g>
</svg>