<svg xmlns="http://www.w3.org/2000/svg" viewBox="0 0 360 440" width="360" height="440" fill="none">
  <g shape-rendering="geometricPrecision" text-rendering="geometricPrecision">
    
    <g
      stroke="#111111"
      stroke-opacity="0.8"
      stroke-width="1.65"
      stroke-linecap="round"
      stroke-linejoin="round"
    >
      <path d="M 210.4 229.54 L 205.81 232.08 L 201.95 229.59 L 199.18 227.56 L 195.69 225.64 L 192.09 223.68 L 189.62 221.05 L 186.87 222.03 L 184.02 224.14 L 180.24 223.82 L 177.61 223.78 L 174.77 223.26 L 171.78 223.08 L 168.95 224.18 L 164.48 225.23 L 160.67 226.39 L 157.59 227.17 L 154.76 231.44 L 152.29 237.37 L 145.15 240.39" /><path d="M 175.95 271.44 L 174.01 266.1 L 175.13 261.08 L 175.82 256.48 L 176.55 250.9 L 177.2 246.21 L 177.73 241.82 L 178.23 238.5 L 178.85 233.76 L 179.44 229.69 L 180.03 224.8 L 180.68 220 L 178.19 218.33 L 175.38 217.68 L 172.71 217.04 L 169.31 216.4 L 165.67 214.62 L 162.44 213.23 L 160.36 210.68 L 158.17 208.38 L 155.03 206.01 L 151.68 204.58 L 143.98 205.12 L 137.94 204.99" /><path d="M 158.89 282.85 L 157.59 276.1 L 155.55 269.98 L 158.19 265.78 L 160.7 261.32 L 163.81 255.92 L 166.41 251.17 L 167.58 246.89 L 168.14 241.23 L 168.58 234.58 L 169.67 230.98 L 171.2 227.63 L 171.94 223.3 L 172.5 219.55 L 172.97 217.59 L 173.9 212.94 L 174.9 206.87 L 176.98 198.82 L 180.75 194.55 L 184.01 190.11 L 187.26 183.57" /><path d="M 186.19 236.46 L 185.77 233.04 L 186.64 226.45 L 187.38 221.99 L 187.9 215.86 L 188.94 210.67 L 189.97 205.93 L 191.08 201.47 L 193.12 195.86 L 194.05 190.28" /><path d="M 171.94 180.87 L 174.14 186.75 L 176.25 193.29 L 178.46 198.87 L 181.38 202.4 L 186.87 204.85 L 190.19 206.71 L 194.33 209.24 L 199.22 209.31 L 204.1 213.15 L 203.24 219.3 L 203.82 225.43 L 210.03 230.07" /><path d="M 145.77 177.81 L 147.6 184.05 L 152.62 186.26 L 159.08 186.43 L 164.87 187.68 L 168.84 186.48 L 173.19 186.34 L 179.41 188.06 L 183.84 190.38 L 187.77 191.61 L 194.29 191.13" /><path d="M 145.34 178.55 L 148.33 187.02 L 151.21 193.2 L 150.74 198.79 L 151.44 205.03 L 149.83 212.49 L 150.26 219.55 L 149.76 224.23 L 149.95 232.38 L 152.03 237.02 L 152.4 237.64 L 152.87 244.03 L 152.41 247.75 L 151.87 252.6 L 151.2 261.29" /><path d="M 216.07 270.78 L 210.16 267.77 L 204.45 264.71 L 200.55 263.55 L 196.34 264.65 L 192.33 259.55 L 193.33 254.65 L 192.32 251.53 L 190.9 245.85 L 190.67 244.89 L 190.36 244.02 L 190.05 243.11 L 190.26 241.61 L 190.22 240.27 L 186.11 236.62 L 183.73 235.38 L 178.69 233.97 L 174.46 231.38 L 174.76 227.03 L 175.42 223.13 L 175.89 220.94 L 176.17 217.73 L 176.59 214.92 L 176.98 213.7" /><path d="M 211.34 230.28 L 209.46 233.62 L 208.41 234.61 L 207.98 234.89 L 206.27 234.88 L 204.03 234.43 L 201.61 234.22 L 200.06 233.84 L 198.38 233.64 L 195.68 234.22 L 194.44 234.14 L 193.1 234.11 L 190.51 234.17 L 185.64 233.74 L 178.82 233.99 L 174.25 234.86 L 168.72 235.24 L 161.87 235.59 L 156.62 235.69 L 152.05 237.49" /><path d="M 211.28 230.45 L 212.73 236.58 L 217.96 239.96 L 224.77 244.31 L 230.31 247.87 L 239.87 254.65 L 245.71 259.69 L 250.92 262.27 L 260.83 262.86 L 269.14 267.68" /><path d="M 234.79 160.84 L 233.41 164.45 L 231.76 168.74 L 230.36 172.31 L 227.25 180.29 L 224.86 186.52 L 223.62 189.57 L 220.72 196.81 L 219.19 200.35 L 218.43 202.21 L 217.21 203.3 L 215.37 203.61 L 213.93 204.39 L 213.02 205.15 L 207.91 209.45 L 203.95 212.38 L 200.14 215.42 L 195.38 217.86 L 189.68 220.45 L 187.16 216.61 L 185.15 214.21 L 181.09 213.96 L 176.51 213.74 L 173.21 212.66 L 169.83 212.12" /><path d="M 152.28 253.05 L 156.56 254.26 L 160.48 255.23 L 163.36 256.03 L 167.37 256.08 L 170.64 261.47 L 173.99 261.98 L 185.83 263.64 L 193.88 266.43 L 192.53 274.42 L 195.81 281.18 L 198.85 284.21 L 204.96 285.22 L 210.2 286.83 L 214.78 293.43 L 218.68 295.07 L 224.93 297.33 L 231.23 299.07 L 236.49 300.14 L 241.34 304.64" />
    </g>
  </g>
</svg>