<svg xmlns="http://www.w3.org/2000/svg" viewBox="0 0 360 440" width="360" height="440" fill="none">
  <g shape-rendering="geometricPrecision" text-rendering="geometricPrecision">
    
    <g
      stroke="#111111"
      stroke-opacity="0.94"
      stroke-width="1.65"
      stroke-linecap="round"
      stroke-linejoin="round"
    >
      <path d="M 190.1 316.26 L 190.1 315.91 L 190.1 315.56 L 190.1 316 L 190.1 316.26" /><path d="M 190.1 316.26 L 190.1 316.53 L 190.1 316.8 L 190.27 316.97" /><path d="M 190.1 316.26 L 190.1 316.71 L 190.18 316.97 L 190.27 316.97" /><path d="M 190.27 316.97 L 190.45 316.97 L 190.54 317.06" /><path d="M 190.54 317.06 L 190.63 317.06 L 190.8 317.15" /><path d="M 190.54 317.06 L 190.72 317.06 L 190.8 317.15" /><path d="M 190.8 317.15 L 191.16 317.33 L 191.25 317.33 L 191.42 317.42 L 191.87 317.42 L 191.96 317.42 L 192.13 317.33 L 192.22 317.24" /><path d="M 192.22 317.24 L 192.31 317.15 L 192.4 316.88 L 192.4 316.44" /><path d="M 192.22 317.24 L 192.4 317.06 L 192.4 316.8 L 192.4 316.44" /><path d="M 192.4 316.44 L 192.49 315.47 L 192.49 315.29 L 192.49 315.02 L 192.58 314.85 L 192.66 314.76 L 192.75 314.58 L 193.02 314.32 L 193.11 314.14 L 193.2 314.05 L 193.37 313.87" /><path d="M 192.4 316.44 L 192.49 315.38 L 192.49 315.11 L 192.58 314.94 L 192.66 314.85 L 192.75 314.67 L 192.84 314.49 L 193.11 314.05 L 193.28 313.96 L 193.37 313.87" /><path d="M 193.37 313.87 L 193.64 313.87" /><path d="M 193.64 313.87 L 193.82 313.96 L 194.44 313.96 L 194.7 313.96 L 194.88 313.96 L 195.23 313.96" /><path d="M 193.64 313.87 L 193.73 313.87 L 194.52 313.87 L 194.7 313.87 L 194.88 313.87 L 195.23 313.96" /><path d="M 195.23 313.96 L 195.76 313.96" /><path d="M 195.76 313.96 L 195.94 313.96 L 196.12 313.87 L 196.21 313.7 L 196.21 313.52" /><path d="M 195.76 313.96 L 196.03 313.87 L 196.12 313.79 L 196.21 313.61 L 196.21 313.52" /><path d="M 196.21 313.52 L 196.21 313.25 L 196.21 313.08 L 196.21 312.9" /><path d="M 196.21 312.9 L 196.21 312.19 L 196.21 311.48" /><path d="M 196.21 312.9 L 196.21 312.72 L 196.21 312.01 L 196.21 311.48" /><path d="M 196.21 311.48 L 196.21 311.22 L 196.3 310.07 L 196.3 309.53 L 196.3 309.36 L 196.3 308.91 L 196.3 308.74 L 196.3 308.56 L 196.21 308.29 L 196.21 307.94 L 196.21 307.59" /><path d="M 196.21 307.59 L 196.21 307.14 L 196.21 305.9" /><path d="M 196.21 307.59 L 196.21 307.05 L 196.21 305.9" /><path d="M 196.21 305.9 L 196.21 305.64 L 196.21 304.04" /><path d="M 196.21 304.04 L 196.21 303.07 L 196.21 302.1" /><path d="M 196.21 304.04 L 196.21 303.33 L 196.21 302.1" /><path d="M 196.21 302.1 L 196.21 301.65" /><path d="M 196.21 301.65 L 196.21 301.39 L 196.12 301.03" /><path d="M 196.21 301.65 L 196.21 301.21 L 196.12 301.03" /><path d="M 196.12 301.03 L 196.12 300.86 L 196.03 300.68" /><path d="M 196.03 300.68 L 196.03 300.5 L 195.85 300.24" /><path d="M 196.03 300.68 L 195.94 300.5 L 195.85 300.24" /><path d="M 195.85 300.24 L 195.68 299.7 L 195.59 299.44" /><path d="M 195.85 300.24 L 195.59 299.62 L 195.59 299.44" /><path d="M 195.59 299.44 L 195.59 299.26 L 195.59 299.08 L 195.59 298.82 L 195.68 298.64" /><path d="M 195.68 298.64 L 195.76 298.55 L 195.85 298.38" /><path d="M 195.68 298.64 L 195.76 298.46 L 195.85 298.38" /><path d="M 195.85 298.38 L 196.12 298.2" /><path d="M 196.12 298.2 L 196.21 298.11 L 196.56 297.84" /><path d="M 196.12 298.2 L 196.3 298.02 L 196.56 297.84" /><path d="M 196.56 297.84 L 196.91 297.76 L 197.36 297.67 L 197.8 297.58 L 198.6 297.49 L 199.22 297.4 L 200.01 297.31 L 200.37 297.22" /><path d="M 200.37 297.22 L 200.55 297.22 L 200.72 297.14" /><path d="M 200.37 297.22 L 200.63 297.14 L 200.72 297.14" /><path d="M 200.72 297.14 L 200.99 296.96 L 201.08 296.87 L 201.7 296.43 L 202.41 295.81" /><path d="M 202.41 295.81 L 202.67 295.63 L 202.85 295.45" /><path d="M 202.41 295.81 L 202.67 295.54 L 202.85 295.45" /><path d="M 202.85 295.45 L 203.03 295.36 L 203.29 295.1 L 203.38 295.01 L 203.47 294.83" /><path d="M 202.85 295.45 L 203.03 295.28 L 203.2 295.01 L 203.38 294.92 L 203.47 294.83" /><path d="M 203.47 294.83 L 203.82 294.48 L 204.27 293.86 L 204.53 293.59 L 204.71 293.24 L 204.89 292.8 L 204.97 292.44 L 205.15 291.91 L 205.24 291.65 L 205.33 291.29 L 205.33 290.94 L 205.59 289.87 L 205.68 289.43 L 205.68 288.99 L 205.68 288.63" /><path d="M 205.68 288.63 L 205.77 288.01 L 205.68 287.04" /><path d="M 205.68 288.63 L 205.68 288.1 L 205.68 287.66 L 205.68 287.04" /><path d="M 205.68 287.04 L 205.68 286.69 L 205.77 286.33 L 205.86 285.89" /><path d="M 205.68 287.04 L 205.68 286.86 L 205.68 286.6 L 205.77 286.24 L 205.86 285.89" /><path d="M 205.86 285.89 L 205.86 285.8 L 205.95 285.45" /><path d="M 205.86 285.89 L 205.86 285.71 L 205.95 285.45" /><path d="M 205.95 285.45 L 206.04 285 L 206.13 284.47" /><path d="M 205.95 285.45 L 206.04 284.91 L 206.13 284.47" /><path d="M 206.13 284.47 L 206.13 284.21 L 206.13 284.03 L 206.13 283.41 L 206.04 282.79 L 206.04 282.17" /><path d="M 206.04 282.17 L 206.04 282.08 L 205.95 281.64" /><path d="M 206.04 282.17 L 206.04 281.9 L 205.95 281.64" /><path d="M 205.95 281.64 L 205.86 281.46 L 205.68 281.19 L 205.51 281.02 L 205.33 280.84 L 205.24 280.75 L 205.06 280.66 L 204.97 280.49 L 204.8 280.22 L 204.71 279.96 L 204.71 279.69" /><path d="M 204.71 279.69 L 204.35 278.45 L 204.35 278.27 L 204.27 278.01" /><path d="M 204.71 279.69 L 204.35 278.36 L 204.27 278.01" /><path d="M 204.27 278.01 L 204.18 277.65 L 204.18 277.21" /><path d="M 204.27 278.01 L 204.18 277.56 L 204.18 277.21" /><path d="M 204.18 277.21 L 204.09 276.86 L 204 276.5 L 203.91 276.15 L 203.82 275.97 L 203.47 275.08 L 203.2 274.38 L 203.03 273.93 L 202.94 273.67 L 202.85 273.4 L 202.76 273.14 L 202.67 272.87 L 202.41 272.43 L 202.05 271.9" /><path d="M 202.05 271.9 L 201.52 271.01 L 201.25 270.57" /><path d="M 202.05 271.9 L 201.43 270.92 L 201.25 270.57" /><path d="M 201.25 270.57 L 201.17 270.48 L 201.08 270.3 L 200.63 269.59 L 200.46 269.15 L 200.1 268.71 L 199.93 268.44 L 199.22 267.65" /><path d="M 199.22 267.65 L 198.77 266.85 L 198.24 265.87" /><path d="M 199.22 267.65 L 198.86 267.03 L 198.69 266.67 L 198.24 265.87" /><path d="M 198.24 265.87 L 198.07 265.61" /><path d="M 198.07 265.61 L 197.8 264.99 L 197.71 264.72 L 197.62 264.46 L 197.45 264.19" /><path d="M 198.07 265.61 L 197.8 264.9 L 197.62 264.63 L 197.53 264.37 L 197.45 264.19" /><path d="M 197.45 264.19 L 197.36 263.84 L 197.27 263.48" /><path d="M 197.45 264.19 L 197.36 263.75 L 197.27 263.48" /><path d="M 197.27 263.48 L 196.91 262.42 L 196.38 260.91 L 195.94 259.59 L 195.85 259.41 L 195.23 257.64 L 194.7 256.13 L 194.35 254.98 L 194.08 254.36 L 193.9 253.83 L 193.9 253.65" /><path d="M 193.9 253.65 L 193.82 253.39 L 193.64 253.03" /><path d="M 193.9 253.65 L 193.73 253.39 L 193.64 253.03" /><path d="M 193.64 253.03 L 193.37 252.15 L 193.02 251.08 L 192.58 249.84 L 192.49 249.58 L 191.87 247.9" /><path d="M 191.87 247.9 L 191.69 247.19 L 191.34 246.21 L 191.07 245.59" /><path d="M 191.87 247.9 L 191.51 246.83 L 191.25 246.13 L 191.07 245.59" /><path d="M 191.07 245.59 L 190.98 245.24 L 190.45 243.82" /><path d="M 191.07 245.59 L 190.89 245.15 L 190.45 243.82" /><path d="M 190.45 243.82 L 190.27 243.38 L 190.27 243.11 L 190.18 242.85 L 190.1 242.67 L 190.01 242.49 L 189.92 242.23" /><path d="M 190.45 243.82 L 190.27 243.29 L 190.18 243.11 L 190.1 242.76 L 190.01 242.41 L 189.92 242.23" /><path d="M 189.92 242.23 L 189.74 241.79" /><path d="M 189.74 241.79 L 189.3 240.72 L 189.21 240.46" /><path d="M 189.74 241.79 L 189.3 240.63 L 189.21 240.46" /><path d="M 189.21 240.46 L 189.21 240.19" /><path d="M 189.21 240.19 L 189.21 240.01 L 189.21 239.66" /><path d="M 189.21 240.19 L 189.21 239.84 L 189.21 239.66" /><path d="M 189.21 239.66 L 189.21 239.48 L 189.21 239.31 L 189.21 239.13 L 189.21 238.86 L 189.12 238.69 L 188.94 237.98 L 188.77 237.18 L 188.68 236.83 L 188.59 236.47 L 187.97 234.79 L 187.88 234.35 L 187.62 233.64" /><path d="M 187.62 233.64 L 187.44 233.2 L 187.08 232.31" /><path d="M 187.62 233.64 L 187.35 233.02 L 187.08 232.31" /><path d="M 187.08 232.31 L 187.08 232.04 L 187 231.87" /><path d="M 187.08 232.31 L 187 232.04 L 187 231.87" /><path d="M 187 231.87 L 186.91 231.78" /><path d="M 186.91 231.78 L 186.91 231.51 L 186.73 231.16 L 186.64 230.63 L 186.46 229.83 L 186.38 229.65 L 186.11 229.21" /><path d="M 186.91 231.78 L 186.82 231.42 L 186.73 231.25 L 186.64 230.72 L 186.55 230.27 L 186.46 230.01 L 186.38 229.74 L 186.2 229.39 L 186.11 229.21" /><path d="M 186.11 229.21 L 186.02 229.03" /><path d="M 186.02 229.03 L 186.02 228.86 L 185.93 228.68" /><path d="M 186.02 229.03 L 185.93 228.86 L 185.93 228.68" /><path d="M 185.93 228.68 L 185.84 228.59 L 185.76 228.24" /><path d="M 185.93 228.68 L 185.76 228.24" /><path d="M 185.76 228.24 L 185.67 227.88 L 185.58 227.79" /><path d="M 185.76 228.24 L 185.58 227.79" /><path d="M 185.58 227.79 L 185.4 227.26" /><path d="M 185.4 227.26 L 185.4 227.17 L 185.31 227" /><path d="M 185.4 227.26 L 185.31 227.17 L 185.31 227" /><path d="M 185.31 227 L 184.96 226.02 L 184.87 225.84" /><path d="M 184.87 225.84 L 184.87 225.67 L 184.78 225.49 L 184.52 224.69" /><path d="M 184.87 225.84 L 184.78 225.58 L 184.78 225.4 L 184.52 224.69" /><path d="M 184.52 224.69 L 184.25 223.9" /><path d="M 184.52 224.69 L 184.61 224.87" /><path d="M 184.25 223.9 L 184.16 223.72 L 184.16 223.63 L 183.99 223.19 L 183.99 223.1 L 183.9 223.01 L 183.81 222.83" /><path d="M 184.25 223.9 L 184.52 224.61 L 184.61 224.87" /><path d="M 183.81 222.83 L 183.72 222.75 L 183.37 222.39" /><path d="M 183.81 222.83 L 183.63 222.66 L 183.37 222.39" /><path d="M 183.37 222.39 L 183.01 222.13" /><path d="M 183.01 222.13 L 182.83 221.95 L 182.66 221.86" /><path d="M 183.01 222.13 L 182.75 221.95 L 182.66 221.86" /><path d="M 182.66 221.86 L 182.57 221.86 L 182.39 222.04" /><path d="M 182.66 221.86 L 182.48 221.95 L 182.39 222.04" /><path d="M 182.39 222.04 L 182.13 222.04 L 182.04 222.13" /><path d="M 182.39 222.04 L 182.04 222.13" /><path d="M 182.04 222.13 L 181.68 222.3 L 181.59 222.3 L 180.97 221.86" /><path d="M 182.04 222.13 L 181.77 222.3 L 181.68 222.39 L 181.51 222.3 L 180.97 221.86" /><path d="M 180.97 221.86 L 180.44 221.42 L 179.91 220.97" /><path d="M 179.91 220.97 L 179.65 220.71 L 179.47 220.53 L 178.85 220.09" /><path d="M 179.91 220.97 L 179.65 220.8 L 179.38 220.53 L 178.85 220.09" /><path d="M 178.85 220.09 L 178.32 219.65 L 178.05 219.38" /><path d="M 178.05 219.38 L 177.87 219.2 L 177.43 218.85" /><path d="M 178.05 219.38 L 177.79 219.2 L 177.43 218.85" /><path d="M 177.43 218.85 L 177.17 218.67" /><path d="M 177.17 218.67 L 177.08 218.49 L 176.81 218.14 L 176.72 217.96 L 176.28 217.43" /><path d="M 177.17 218.67 L 177.08 218.58 L 176.81 218.23 L 176.63 217.96 L 176.28 217.43" /><path d="M 176.28 217.43 L 176.1 217.34 L 176.1 217.25 L 175.93 217.08 L 175.84 216.9 L 175.75 216.72 L 175.39 216.28 L 175.22 216.01 L 175.13 215.93 L 175.04 215.75" /><path d="M 175.04 215.75 L 174.77 215.66 L 174.69 215.57" /><path d="M 175.04 215.75 L 174.77 215.57" /><path d="M 184.61 224.87 L 184.69 225.05" /><path d="M 184.69 225.05 L 184.78 225.14 L 184.96 225.31" /><path d="M 184.69 225.05 L 184.87 225.23 L 184.96 225.31" /><path d="M 184.96 225.31 L 185.05 225.31 L 185.23 225.4 L 185.31 225.4 L 185.4 225.31 L 185.84 225.14 L 186.02 225.05 L 186.55 224.78 L 186.73 224.69 L 186.91 224.69" /><path d="M 186.91 224.69 L 187 224.69 L 187.35 224.52 L 187.44 224.52 L 187.53 224.52 L 187.7 224.43 L 188.06 224.25" /><path d="M 186.91 224.69 L 187 224.61 L 187.26 224.52 L 187.44 224.43 L 187.53 224.43 L 187.7 224.34 L 188.06 224.25" /><path d="M 188.06 224.25 L 188.77 223.99 L 189.12 223.9 L 189.39 223.81 L 190.27 223.45 L 190.54 223.37 L 190.72 223.37" /><path d="M 190.72 223.37 L 190.98 223.28 L 191.25 223.28" /><path d="M 190.72 223.37 L 191.07 223.28 L 191.25 223.28" /><path d="M 191.25 223.28 L 191.69 223.28" /><path d="M 191.69 223.28 L 191.87 223.28 L 192.04 223.19" /><path d="M 191.69 223.28 L 191.96 223.19 L 192.04 223.19" /><path d="M 192.04 223.19 L 192.84 223.19 L 193.11 223.19 L 193.46 223.19 L 194.08 223.19 L 194.17 223.19 L 194.44 223.19" /><path d="M 194.44 223.19 L 194.61 223.19 L 194.97 223.28" /><path d="M 194.44 223.19 L 194.7 223.19 L 194.97 223.28" /><path d="M 194.97 223.28 L 195.23 223.28" /><path d="M 195.23 223.28 L 195.85 223.28 L 195.94 223.19 L 196.12 222.92" /><path d="M 195.23 223.28 L 195.94 223.28 L 196.03 223.1 L 196.12 222.92" /><path d="M 196.12 222.92 L 196.21 222.75 L 196.38 222.3 L 196.47 222.04" /><path d="M 196.47 222.04 L 196.56 221.86 L 196.56 221.77" /><path d="M 196.47 222.04 L 196.56 221.77" /><path d="M 196.56 221.77 L 196.74 221.68 L 197.18 222.04" /><path d="M 196.56 221.77 L 196.65 221.68 L 196.83 221.77 L 197.18 222.04" /><path d="M 197.18 222.04 L 197.36 222.21 L 198.24 222.83 L 198.95 223.45 L 199.13 223.54" /><path d="M 199.13 223.54 L 199.22 223.63 L 199.22 223.81 L 199.31 224.25" /><path d="M 199.13 223.54 L 199.22 223.72 L 199.31 223.9 L 199.31 224.25" /><path d="M 199.31 224.25 L 199.31 224.69" /><path d="M 199.31 224.69 L 199.31 225.05 L 199.31 225.23 L 199.39 225.31 L 199.66 225.58" /><path d="M 199.31 224.69 L 199.31 225.14 L 199.31 225.31 L 199.39 225.4 L 199.66 225.58" /><path d="M 199.66 225.58 L 200.28 226.02 L 200.99 226.73 L 201.79 227.26" /><path d="M 201.79 227.26 L 201.87 227.35 L 202.67 228.06 L 202.94 228.24 L 203.2 228.5 L 203.91 229.03" /><path d="M 201.79 227.26 L 201.96 227.35 L 202.23 227.62 L 202.41 227.7 L 202.67 227.97 L 203.29 228.5 L 203.91 229.03" /><path d="M 203.91 229.03 L 204.18 229.12 L 204.35 229.3 L 204.44 229.39" /><path d="M 204.44 229.39 L 204.62 229.56 L 205.42 230.18" /><path d="M 204.44 229.39 L 204.71 229.65 L 205.42 230.18" /><path d="M 205.42 230.18 L 206.13 230.72 L 206.75 231.25 L 206.92 231.42 L 207.28 231.69" /><path d="M 207.28 231.69 L 207.45 231.87 L 207.9 232.22" /><path d="M 207.28 231.69 L 207.54 231.87 L 207.9 232.22" /><path d="M 207.9 232.22 L 208.16 232.4 L 208.43 232.58 L 208.69 232.84 L 208.87 232.93 L 209.22 233.2 L 210.02 233.82 L 210.11 233.9 L 211.08 234.7 L 212.06 235.5 L 213.12 236.3" /><path d="M 213.12 236.3 L 213.39 236.56 L 213.65 236.74" /><path d="M 213.12 236.3 L 213.48 236.65 L 213.65 236.74" /><path d="M 213.65 236.74 L 213.83 236.91" /><path d="M 213.83 236.91 L 213.92 236.91 L 214.27 237.09" /><path d="M 213.83 236.91 L 214.01 237 L 214.27 237.09" /><path d="M 214.27 237.09 L 214.45 237.09 L 214.54 237.18 L 214.63 237.18 L 215.96 237.18 L 216.93 237.09 L 217.37 237.09" /><path d="M 217.37 237.09 L 217.73 237.09" /><path d="M 217.37 237.09 L 217.64 237.09 L 217.73 237.09" /><path d="M 217.73 237.09 L 217.9 237.09 L 218.35 237.09 L 218.61 237.09" /><path d="M 217.73 237.09 L 217.99 237.09 L 218.61 237.09" /><path d="M 218.61 237.09 L 219.41 237.09" /><path d="M 219.41 237.09 L 219.94 237.09 L 220.65 237.09" /><path d="M 219.41 237.09 L 220.03 237.09 L 220.65 237.09" /><path d="M 220.65 237.09 L 221 237.09" /><path d="M 221 237.09 L 221.89 237.09" /><path d="M 221 237.09 L 221.53 237.09 L 221.89 237.09" /><path d="M 221.89 237.09 L 222.24 237.09 L 222.86 237.09" /><path d="M 221.89 237.09 L 222.86 237.09" /><path d="M 222.86 237.09 L 223.93 237.09 L 224.9 237.09" /><path d="M 224.9 237.09 L 225.87 237.09" /><path d="M 224.9 237.09 L 225.52 237.09 L 225.87 237.09" /><path d="M 225.87 237.09 L 226.23 237.09 L 226.58 237.09" /><path d="M 225.87 237.09 L 226.58 237.09" /><path d="M 226.58 237.09 L 227.82 237.09 L 229.15 237.09" /><path d="M 229.15 237.09 L 229.77 237.09" /><path d="M 229.15 237.09 L 229.51 237.09 L 229.77 237.09" /><path d="M 229.77 237.09 L 230.12 237.09 L 230.66 237.09" /><path d="M 229.77 237.09 L 230.66 237.09" /><path d="M 230.66 237.09 L 231.72 237.09" /><path d="M 231.72 237.09 L 232.6 237.09 L 233.22 237.09" /><path d="M 231.72 237.09 L 232.69 237.09 L 233.22 237.09" /><path d="M 233.22 237.09 L 233.67 237.09 L 234.11 237.09 L 234.29 237.09" /><path d="M 233.22 237.09 L 233.4 237.09 L 233.76 237.09 L 234.29 237.09" /><path d="M 234.29 237.09 L 234.64 237.09 L 235.7 237.09 L 236.59 237.09 L 236.94 237.09" /><path d="M 236.94 237.09 L 237.65 237.09" /><path d="M 236.94 237.09 L 237.3 237.09 L 237.65 237.09" /><path d="M 237.65 237.09 L 238.01 237.09 L 240.13 237" /><path d="M 240.13 237 L 240.31 237 L 240.49 237.09" /><path d="M 240.13 237 L 240.4 237 L 240.49 237.09" /><path d="M 240.49 237.09 L 240.58 237.09 L 240.75 237.09 L 241.11 237.09 L 241.64 237.09 L 241.73 237.09" /><path d="M 241.73 237.09 L 241.81 237.09 L 242.17 237.09" /><path d="M 241.73 237.09 L 241.9 237.09 L 242.17 237.09" /><path d="M 242.17 237.09 L 242.43 237.09" /><path d="M 242.43 237.09 L 242.7 237 L 242.97 237" /><path d="M 242.43 237.09 L 242.79 237 L 242.97 237" /><path d="M 242.97 237 L 243.59 237 L 244.03 237 L 244.12 237 L 244.21 237.09 L 244.29 237.36 L 244.47 237.53 L 244.65 237.89 L 244.74 238.07 L 244.91 238.42" /><path d="M 244.91 238.42 L 245 238.6 L 245.27 239.04 L 245.27 239.22 L 244.91 239.66" /><path d="M 244.91 238.42 L 245.09 238.69 L 245.27 239.13 L 245.27 239.31 L 244.91 239.66" /><path d="M 244.91 239.66 L 244.65 239.84" /><path d="M 244.65 239.84 L 244.56 240.01 L 244.47 240.1 L 244.47 240.28 L 244.56 240.46 L 244.74 240.72 L 244.83 241.08 L 245 241.34 L 245.27 241.79" /><path d="M 244.65 239.84 L 244.47 240.01 L 244.47 240.19 L 244.56 240.37 L 244.65 240.55 L 244.74 240.81 L 244.91 240.99 L 245.09 241.43 L 245.27 241.79" /><path d="M 245.27 241.79 L 245.53 242.32 L 245.71 242.58 L 246.24 243.73" /><path d="M 246.24 243.73 L 246.51 244.35 L 246.95 244.53" /><path d="M 246.24 243.73 L 246.6 244.44 L 246.95 244.53" /><path d="M 246.95 244.53 L 247.31 244.62 L 247.75 244.18 L 248.28 243.65 L 248.55 243.47 L 248.81 243.11 L 249.08 242.94" />
    </g>
  </g>
</svg>