<svg xmlns="http://www.w3.org/2000/svg" viewBox="0 0 360 440" width="360" height="440" fill="none">
  <g shape-rendering="geometricPrecision" text-rendering="geometricPrecision">
    
    <g
      stroke="#111111"
      stroke-opacity="0.94"
      stroke-width="1.65"
      stroke-linecap="round"
      stroke-linejoin="round"
    >
      <path d="M 166.27 263.13 L 170.08 259.5 L 174.51 254.89 L 178.23 253.03 L 180.09 251.08 L 180.35 243.91 L 179.2 238.15 L 175.04 234.97" /><path d="M 175.04 234.97 L 172.92 229.12 L 175.39 224.78 L 177.17 220.62 L 178.32 218.14 L 179.56 214.86 L 180.89 212.74 L 182.39 209.46" /><path d="M 175.04 234.97 L 176.37 230.01 L 178.58 225.4 L 180 222.83 L 181.59 219.82 L 183.01 216.37 L 184.07 213.45 L 182.39 209.46" /><path d="M 175.04 234.97 L 172.56 239.04 L 166.01 241.52 L 159.81 237.18 L 156.8 232.75" /><path d="M 182.39 209.46 L 184.43 206.63 L 185.58 202.55 L 185.76 195.11 L 185.05 188.74 L 186.11 184.75 L 185.93 179.35 L 187.62 173.86 L 187.7 167.13 L 187.88 161.28 L 189.3 156.59 L 190.8 151.37 L 192.22 145.79" /><path d="M 182.39 209.46 L 179.29 206.45 L 174.33 201.85 L 172.47 199.9 L 168.31 196.53 L 165.65 193.7 L 162.11 190.78 L 156.44 187.59 L 152.46 185.28 L 145.9 181.65 L 141.3 178.11 L 135.81 174.39 L 125.45 173.86 L 120.4 175.63" /><path d="M 182.39 209.46 L 193.11 211.59 L 197.36 201.85" /><path d="M 156.8 232.75 L 154.76 227.26 L 152.72 225.49 L 147.14 225.49 L 143.87 221.33 L 138.73 214.07 L 135.72 210.17" /><path d="M 156.8 232.75 L 158.48 223.81 L 160.69 218.85 L 162.55 213.54 L 161.67 205.39 L 158.48 203 L 158.04 197.77 L 159.81 193.61 L 162.11 190.69 L 164.32 184.75 L 166.72 179.44 L 167.42 174.75" />
    </g>
  </g>
</svg>