<svg xmlns="http://www.w3.org/2000/svg" viewBox="0 0 360 440" width="360" height="440" fill="none">
  <g shape-rendering="geometricPrecision" text-rendering="geometricPrecision">
    
    <g
      stroke="#111111"
      stroke-opacity="0.8"
      stroke-width="1.65"
      stroke-linecap="round"
      stroke-linejoin="round"
    >
      <path d="M 141.03 212.92 L 140.95 213 L 140.77 213 L 140.15 212.92 L 139.97 213 L 139.71 213.09 L 139.62 213 L 139.62 212.92 L 139.62 212.74 L 139.62 212.56 L 139.71 212.47 L 139.88 212.47 L 139.97 212.65 L 140.24 212.83 L 140.5 212.92 L 140.59 212.92 L 140.77 212.92 L 140.95 212.92 L 141.03 212.92" /><path d="M 141.03 212.92 L 141.48 212.3 L 142.1 211.68 L 142.27 211.59 L 142.36 211.5 L 142.54 211.5 L 142.63 211.41 L 142.8 211.41 L 142.98 211.41 L 143.16 211.5 L 143.42 211.59 L 143.87 211.68 L 144.04 211.76 L 144.22 211.85 L 144.4 212.03 L 144.58 212.3" /><path d="M 144.58 212.3 L 144.66 212.38 L 144.84 212.47" /><path d="M 144.58 212.3 L 144.75 212.38 L 144.84 212.47" /><path d="M 144.84 212.47 L 145.02 212.56 L 145.2 212.65" /><path d="M 144.84 212.47 L 145.11 212.65 L 145.2 212.65" /><path d="M 145.2 212.65 L 145.28 212.65 L 145.64 212.74" /><path d="M 145.2 212.65 L 145.37 212.74 L 145.64 212.74" /><path d="M 145.64 212.74 L 145.73 212.74 L 145.9 212.83 L 146.61 212.92 L 146.88 213 L 147.14 213.09 L 147.41 213.09 L 148.3 213.27 L 148.56 213.36 L 148.83 213.45 L 149.09 213.45 L 149.98 213.62 L 150.78 213.8" /><path d="M 150.78 213.8 L 151.57 213.98 L 152.19 214.16" /><path d="M 150.78 213.8 L 151.66 213.98 L 152.19 214.16" /><path d="M 152.19 214.16 L 152.46 214.16 L 152.72 214.24 L 152.9 214.24 L 153.08 214.33 L 153.34 214.33 L 153.61 214.42 L 154.14 214.51 L 154.94 214.69 L 155.38 214.77 L 155.82 214.86 L 156.09 214.95 L 156.27 214.95 L 156.62 215.04 L 157.06 215.13 L 157.33 215.22 L 158.21 215.39 L 158.92 215.57 L 159.54 215.66" /><path d="M 159.54 215.66 L 159.72 215.75 L 159.9 215.75" /><path d="M 159.54 215.66 L 159.81 215.75 L 159.9 215.75" /><path d="M 159.9 215.75 L 160.16 215.75" /><path d="M 160.16 215.75 L 161.31 215.75 L 161.49 215.75 L 161.76 216.01" /><path d="M 160.16 215.75 L 161.4 215.75 L 161.49 215.84 L 161.76 216.01" /><path d="M 161.76 216.01 L 161.93 216.19 L 162.11 216.19" /><path d="M 162.11 216.19 L 162.55 216.28 L 162.82 216.37" /><path d="M 162.11 216.19 L 162.64 216.37 L 162.82 216.37" /><path d="M 162.82 216.37 L 163 216.46 L 163.26 216.46 L 163.62 216.55" /><path d="M 162.82 216.37 L 163.09 216.46 L 163.35 216.46 L 163.62 216.55" /><path d="M 163.62 216.55 L 163.7 216.55 L 163.97 216.63 L 164.06 216.63 L 164.24 216.72 L 164.5 216.72 L 164.59 216.72" /><path d="M 164.59 216.72 L 164.94 216.81 L 165.3 216.9" /><path d="M 164.59 216.72 L 165.03 216.81 L 165.3 216.9" /><path d="M 164.59 216.72 L 164.59 216.28" /><path d="M 164.59 216.72 L 164.5 217.25 L 164.41 217.87" /><path d="M 164.59 216.72 L 164.5 217.34 L 164.41 217.87" /><path d="M 165.3 216.9 L 165.56 216.99 L 165.74 216.99 L 166.01 217.08 L 166.18 217.08" /><path d="M 166.18 217.08 L 166.54 217.17 L 166.63 217.17" /><path d="M 166.18 217.08 L 166.18 217.43 L 166.18 217.61 L 166.1 218.14 L 166.1 218.49 L 166.01 218.76 L 166.01 219.11 L 165.92 219.29 L 165.92 219.56 L 165.83 220.09 L 165.83 220.44 L 165.65 220.97 L 165.03 220.8 L 164.06 220.62" /><path d="M 166.18 217.08 L 166.36 216.55 L 166.01 216.55 L 165.83 216.46 L 165.56 216.46 L 165.21 216.37 L 164.94 216.28 L 164.59 216.28" /><path d="M 166.63 217.17 L 166.8 217.25 L 166.98 217.25" /><path d="M 166.63 217.17 L 166.89 217.25 L 166.98 217.25" /><path d="M 166.98 217.25 L 167.16 217.25" /><path d="M 167.16 217.25 L 167.42 217.34 L 167.87 217.43" /><path d="M 167.16 217.25 L 167.51 217.34 L 167.87 217.43" /><path d="M 167.87 217.43 L 168.13 217.52 L 168.22 217.52 L 168.75 217.61 L 168.84 217.61 L 168.93 217.7 L 169.28 217.7" /><path d="M 167.87 217.43 L 167.87 216.9 L 167.96 216.28 L 168.04 215.75 L 167.6 215.39 L 167.42 215.13 L 167.16 214.95 L 166.72 214.51 L 166.36 214.16 L 165.83 213.8 L 165.65 213.62" /><path d="M 167.87 217.43 L 167.78 217.96" /><path d="M 169.28 217.7 L 169.46 217.79 L 169.82 217.87" /><path d="M 169.28 217.7 L 169.55 217.79 L 169.82 217.87" /><path d="M 169.82 217.87 L 169.99 217.87 L 170.35 217.96" /><path d="M 169.82 217.87 L 170.08 217.87 L 170.35 217.96" /><path d="M 170.35 217.96 L 170.52 217.96 L 170.61 218.05 L 170.79 218.05" /><path d="M 170.79 218.05 L 170.88 218.05 L 171.06 218.14 L 171.14 218.14 L 171.41 218.23 L 171.5 218.23 L 171.68 218.23" /><path d="M 170.79 218.05 L 169.73 218.41 L 168.93 218.23 L 167.78 217.96" /><path d="M 171.68 218.23 L 171.76 218.23 L 172.3 218.41" /><path d="M 171.68 218.23 L 171.85 218.32 L 172.3 218.41" /><path d="M 172.3 218.41 L 172.38 218.41 L 172.65 218.41 L 172.92 218.49 L 173.27 218.58 L 173.36 218.58 L 173.54 218.67 L 173.71 218.67" /><path d="M 173.71 218.67 L 173.89 218.76 L 174.16 218.76" /><path d="M 173.71 218.67 L 173.98 218.76 L 174.16 218.76" /><path d="M 174.16 218.76 L 174.51 218.85 L 174.69 218.85" /><path d="M 174.69 218.85 L 174.86 218.94 L 175.22 219.03" /><path d="M 174.69 218.85 L 174.95 218.94 L 175.22 219.03" /><path d="M 175.22 219.03 L 175.39 219.03 L 175.84 219.11 L 176.1 219.2 L 176.28 219.2 L 176.37 219.29 L 176.63 219.29 L 177.08 219.38 L 177.34 219.47 L 177.79 219.56 L 177.96 219.56 L 178.41 219.65 L 178.67 219.73 L 179.11 219.82 L 179.29 219.82 L 179.73 219.91 L 180 220" /><path d="M 180 220 L 181.24 220.27 L 181.59 220.35 L 181.77 220.35 L 182.21 220.53 L 182.39 220.53 L 182.92 220.62 L 183.54 220.8 L 183.9 220.89 L 184.25 220.89 L 184.87 221.06" /><path d="M 180 220 L 180 220.35 L 180 220.44 L 180.09 220.62 L 180.27 220.62 L 180.62 220.71" /><path d="M 180 220 L 180 219.73 L 180.09 219.56 L 180.18 219.38 L 180.27 219.38 L 180.44 219.38" /><path d="M 184.87 221.06 L 185.31 221.15 L 185.58 221.15" /><path d="M 184.87 221.06 L 184.96 220.18 L 185.05 219.56" /><path d="M 184.87 221.06 L 184.96 220.27 L 185.05 219.56" /><path d="M 185.58 221.15 L 186.2 221.33 L 186.46 221.33" /><path d="M 185.58 221.15 L 186.29 221.33 L 186.46 221.33" /><path d="M 186.46 221.33 L 186.55 221.42 L 186.82 221.42 L 187.53 221.59 L 188.24 221.77 L 188.41 221.77 L 188.5 221.86 L 188.77 221.86 L 189.03 221.95 L 189.39 222.04 L 189.56 222.13 L 189.65 222.04 L 189.74 221.95 L 189.92 221.77 L 190.01 221.59 L 190.01 221.15 L 190.01 219.82 L 190.01 219.03 L 190.01 218.32 L 190.1 217.61 L 190.18 216.37 L 190.27 215.13 L 190.45 214.33 L 190.63 213.62 L 190.8 212.92 L 191.07 212.21 L 191.34 211.76" /><path d="M 191.34 211.76 L 191.6 211.23 L 191.69 210.97 L 191.78 210.7" /><path d="M 191.34 211.76 L 191.69 211.14 L 191.69 210.88 L 191.78 210.7" /><path d="M 191.78 210.7 L 191.87 210.26 L 191.87 210.08 L 191.96 209.64 L 191.96 209.46 L 192.04 209.2 L 192.04 209.02 L 192.04 208.84 L 192.22 208.4 L 192.22 207.96 L 192.31 207.6 L 192.4 207.34 L 192.4 207.07 L 192.58 206.27 L 192.66 205.56 L 192.75 205.39 L 192.84 204.68" /><path d="M 192.84 204.68 L 192.84 204.59 L 192.93 204.32" /><path d="M 192.84 204.68 L 192.84 204.5 L 192.93 204.32" /><path d="M 192.93 204.32 L 192.93 204.15 L 193.02 203.97 L 193.02 203.79 L 193.11 203.17" /><path d="M 193.11 203.17 L 193.11 203 L 193.2 202.47" /><path d="M 193.11 203.17 L 193.11 202.91 L 193.2 202.47" /><path d="M 193.2 202.47 L 193.28 201.4 L 193.37 201.05 L 193.46 200.34 L 193.55 199.45 L 193.55 199.28 L 193.73 198.39 L 193.73 198.3 L 193.73 198.13" /><path d="M 193.73 198.13 L 193.9 197.06 L 193.9 196.62" /><path d="M 193.73 198.13 L 193.9 196.97 L 193.9 196.62" /><path d="M 193.9 196.62 L 193.99 196.09" /><path d="M 193.99 196.09 L 193.99 196 L 194.08 195.82" /><path d="M 193.99 196.09 L 193.99 195.91 L 194.08 195.82" /><path d="M 194.08 195.82 L 194.26 195.73 L 194.35 195.56 L 194.44 195.47 L 194.61 195.38 L 194.7 195.29 L 194.79 195.11 L 194.97 195.03 L 195.41 194.58 L 195.68 194.32 L 195.94 194.14 L 196.12 193.96 L 196.3 193.79 L 196.47 193.61 L 196.56 193.43 L 196.74 193.34 L 196.91 193.17" /><path d="M 196.91 193.17 L 197 193.08 L 197.09 192.99 L 197.36 192.81" /><path d="M 196.91 193.17 L 197.09 193.08 L 197.18 192.9 L 197.36 192.81" /><path d="M 197.36 192.81 L 197.45 192.72 L 197.71 192.46 L 197.89 192.28 L 198.15 192.02 L 198.24 191.84 L 198.33 191.75 L 198.6 191.57 L 198.86 191.31 L 198.95 191.22 L 199.13 191.13 L 199.57 190.6 L 199.66 190.51 L 199.84 190.42 L 199.93 190.33" /><path d="M 199.93 190.33 L 200.72 189.54 L 201.08 189.18" /><path d="M 199.93 190.33 L 200.81 189.54 L 201.08 189.18" /><path d="M 201.08 189.18 L 201.34 189 L 201.52 188.83 L 201.7 188.65 L 201.79 188.56 L 202.05 188.38 L 202.32 188.12 L 202.49 187.94 L 202.76 187.68 L 203.03 187.41 L 203.2 187.23 L 203.47 187.06 L 203.73 186.79 L 203.91 186.52 L 204.18 186.35 L 204.62 185.9 L 205.06 185.46 L 205.33 185.28 L 205.51 185.11 L 205.59 185.02 L 205.86 184.75" /><path d="M 205.86 184.75 L 206.04 184.58 L 206.21 184.4" /><path d="M 205.86 184.75 L 206.13 184.58 L 206.21 184.4" /><path d="M 206.21 184.4 L 206.39 184.22" /><path d="M 206.39 184.22 L 206.57 184.13 L 206.66 183.96" /><path d="M 206.39 184.22 L 206.57 184.04 L 206.66 183.96" /><path d="M 206.66 183.96 L 206.83 183.87 L 207.19 183.51 L 207.63 183.07 L 208.25 182.54 L 208.69 182.1 L 208.87 181.92 L 209.49 181.39 L 209.84 181.03 L 210.02 180.86 L 210.46 180.41 L 210.73 180.24" /><path d="M 210.73 180.24 L 210.91 180.06 L 211.26 179.71" /><path d="M 210.73 180.24 L 211 179.97 L 211.26 179.71" /><path d="M 211.26 179.71 L 211.53 179.53 L 211.62 179.35" /><path d="M 211.26 179.71 L 211.53 179.44 L 211.62 179.35" /><path d="M 211.62 179.35 L 211.7 179.26 L 211.79 179.17" /><path d="M 211.62 179.35 L 211.79 179.17" /><path d="M 211.79 179.17 L 211.88 178.91 L 212.15 178.29 L 212.24 178.11 L 212.32 177.76 L 212.41 177.49" /><path d="M 211.79 179.17 L 211.79 179.09 L 211.88 178.82 L 212.15 178.2 L 212.24 178.02 L 212.41 177.67 L 212.41 177.49" /><path d="M 212.41 177.49 L 212.5 177.4" /><path d="M 212.5 177.4 L 212.59 177.23 L 212.94 176.43" /><path d="M 212.5 177.4 L 212.59 177.14 L 212.94 176.43" /><path d="M 212.94 176.43 L 213.12 176.25 L 213.3 175.81 L 213.48 175.54 L 213.83 174.92 L 213.92 174.75" /><path d="M 213.92 174.75 L 214.1 174.3 L 214.27 174.13" /><path d="M 213.92 174.75 L 214.18 174.3 L 214.27 174.13" /><path d="M 214.27 174.13 L 214.63 173.42 L 214.98 172.8" /><path d="M 214.27 174.13 L 214.63 173.33 L 214.98 172.8" /><path d="M 214.98 172.8 L 215.16 172.44 L 215.42 172 L 215.6 171.65 L 215.78 171.2 L 216.04 170.85" /><path d="M 216.04 170.85 L 216.13 170.58 L 216.66 169.7" /><path d="M 216.04 170.85 L 216.22 170.49 L 216.31 170.23 L 216.58 169.61" /><path d="M 190.72 156.95 L 190.89 156.77 L 190.98 156.59 L 191.07 156.5 L 191.25 156.33 L 191.34 156.24 L 191.42 156.15 L 191.6 156.15 L 191.96 156.15 L 192.4 156.24 L 192.49 156.5 L 192.58 156.59 L 192.58 156.86 L 192.58 157.39 L 192.49 157.74 L 192.49 157.92 L 192.4 158.1 L 192.13 158.19 L 192.04 158.19 L 191.51 158.01 L 191.25 157.92 L 191.07 157.83 L 190.98 157.65 L 190.8 157.3 L 190.8 157.12 L 190.72 156.95" /><path d="M 190.72 156.95 L 190.36 156.86 L 190.1 156.77 L 189.74 156.77 L 189.3 156.59 L 189.03 156.59 L 188.86 156.59 L 188.77 156.77 L 188.68 157.65 L 188.59 158.19 L 188.5 159.25 L 188.41 159.42" /><path d="M 188.41 159.42 L 188.41 159.69 L 188.41 159.96" /><path d="M 188.41 159.42 L 188.41 159.78 L 188.41 159.96" /><path d="M 188.41 159.96 L 188.32 160.4 L 188.32 160.66" /><path d="M 188.32 160.66 L 188.24 160.93 L 188.24 161.2" /><path d="M 188.32 160.66 L 188.24 161.02 L 188.24 161.2" /><path d="M 188.24 161.2 L 188.24 161.37" /><path d="M 188.24 161.37 L 188.15 161.73 L 188.15 161.99" /><path d="M 188.24 161.37 L 188.15 161.9 L 188.15 161.99" /><path d="M 188.15 161.99 L 188.06 162.26 L 188.06 162.52 L 187.97 162.88" /><path d="M 187.97 162.88 L 187.97 163.06 L 187.97 163.23 L 187.88 163.76" /><path d="M 187.97 162.88 L 187.97 163.14 L 187.97 163.32 L 187.88 163.76" /><path d="M 187.88 163.76 L 187.88 163.85 L 187.88 164.03 L 187.88 164.21 L 187.79 164.38 L 187.79 164.56 L 187.79 164.83 L 187.62 166.16 L 187.53 166.33 L 187.53 166.51 L 187.53 166.69" /><path d="M 187.53 166.69 L 187.44 167.13 L 187.44 167.31 L 187.44 167.57" /><path d="M 187.53 166.69 L 187.44 167.22 L 187.44 167.4 L 187.44 167.57" /><path d="M 187.44 167.57 L 187.35 167.66 L 187.35 167.84" /><path d="M 187.35 167.84 L 187.35 168.28 L 187.26 168.55" /><path d="M 187.35 167.84 L 187.26 168.37 L 187.26 168.55" /><path d="M 187.26 168.55 L 187.26 168.72 L 187.17 169.34 L 187.17 169.7 L 187.08 170.05" /><path d="M 187.26 168.55 L 187.26 168.81 L 187.17 169.52 L 187.08 169.79 L 187.08 170.05" /><path d="M 187.08 170.05 L 187.08 170.32 L 187 170.49 L 187 170.76 L 187 170.94 L 186.91 171.11" /><path d="M 186.91 171.11 L 186.91 171.29 L 186.91 171.56 L 186.91 171.73 L 186.82 171.91 L 186.82 172.18" /><path d="M 186.91 171.11 L 186.91 171.38 L 186.91 171.65 L 186.91 171.82 L 186.82 172 L 186.82 172.18" /><path d="M 186.82 172.18 L 186.82 172.35 L 186.73 172.62 L 186.73 172.89 L 186.64 173.24 L 186.64 173.51 L 186.64 173.77 L 186.55 174.04" /><path d="M 186.55 174.04 L 186.55 174.48 L 186.46 174.66" /><path d="M 186.55 174.04 L 186.55 174.57 L 186.46 174.66" /><path d="M 186.46 174.66 L 186.46 174.92 L 186.46 175.19 L 186.38 175.45" /><path d="M 186.38 175.45 L 186.38 175.54 L 186.38 175.81" /><path d="M 186.38 175.45 L 186.38 175.63 L 186.38 175.81" /><path d="M 186.38 175.81 L 186.29 176.25 L 186.29 176.52 L 186.2 176.69 L 186.2 177.05" /><path d="M 186.2 177.05 L 186.2 177.23 L 186.11 177.49" /><path d="M 186.2 177.05 L 186.2 177.31 L 186.11 177.49" /><path d="M 186.11 177.49 L 186.11 177.67 L 186.11 177.85 L 186.11 178.02" /><path d="M 186.11 178.02 L 186.02 178.38 L 186.02 178.64 L 185.93 178.91 L 185.93 179.26" /><path d="M 186.11 178.02 L 186.02 178.47 L 185.93 178.73 L 185.93 179 L 185.93 179.26" /><path d="M 185.93 179.26 L 185.84 179.53 L 185.84 179.71 L 185.84 179.88 L 185.76 180.15 L 185.76 180.41 L 185.76 180.68" /><path d="M 185.76 180.68 L 185.67 180.95 L 185.67 181.21" /><path d="M 185.76 180.68 L 185.67 181.03 L 185.67 181.21" /><path d="M 185.67 181.21 L 185.67 181.48 L 185.58 181.74 L 185.58 181.83 L 185.58 182.01 L 185.49 182.36 L 185.49 182.54 L 185.49 182.8" /><path d="M 185.49 182.8 L 185.4 183.07 L 185.4 183.51" /><path d="M 185.49 182.8 L 185.4 183.16 L 185.4 183.51" /><path d="M 185.4 183.51 L 185.31 183.78 L 185.31 184.13" /><path d="M 185.4 183.51 L 185.31 183.87 L 185.31 184.13" /><path d="M 185.31 184.13 L 185.31 184.22 L 185.23 184.49 L 185.23 184.66 L 185.14 185.02 L 185.14 185.28 L 185.05 185.64 L 185.05 185.82 L 185.05 186.17 L 185.05 186.26" /><path d="M 185.05 186.26 L 184.96 186.44 L 184.96 186.88" /><path d="M 185.05 186.26 L 184.96 186.61 L 184.96 186.88" /><path d="M 184.96 186.88 L 184.96 187.06 L 184.87 187.14 L 184.87 187.32 L 184.87 187.41" /><path d="M 184.87 187.41 L 184.87 187.59 L 184.78 188.03 L 184.69 188.38 L 184.69 188.65" /><path d="M 184.87 187.41 L 184.87 187.76 L 184.78 188.21 L 184.69 188.47 L 184.69 188.65" /><path d="M 184.69 188.65 L 184.69 188.92 L 184.61 189.27" /><path d="M 184.69 188.65 L 184.61 189 L 184.61 189.27" /><path d="M 184.61 189.27 L 184.61 189.54 L 184.52 189.8" /><path d="M 184.52 189.8 L 184.52 190.16 L 184.43 190.42" /><path d="M 184.52 189.8 L 184.52 190.24 L 184.43 190.42" /><path d="M 184.43 190.42 L 184.43 190.6 L 184.43 190.78" /><path d="M 184.43 190.78 L 184.43 191.04 L 184.34 191.57" /><path d="M 184.43 190.78 L 184.34 191.22 L 184.34 191.57" /><path d="M 184.34 191.57 L 184.34 191.66 L 184.25 192.1" /><path d="M 184.34 191.57 L 184.25 191.75 L 184.25 192.1" /><path d="M 184.25 192.1 L 184.25 192.37 L 184.16 192.63" /><path d="M 184.16 192.63 L 184.16 192.81 L 184.07 193.43" /><path d="M 184.16 192.63 L 184.16 192.9 L 184.07 193.43" /><path d="M 184.07 193.43 L 184.07 193.61 L 183.99 193.96 L 183.99 194.41" /><path d="M 184.07 193.43 L 184.07 193.7 L 183.99 194.05 L 183.99 194.41" /><path d="M 183.99 194.41 L 183.99 194.58 L 183.9 194.76" /><path d="M 183.9 194.76 L 183.9 194.94 L 183.81 195.47" /><path d="M 183.9 194.76 L 183.9 195.03 L 183.81 195.47" /><path d="M 183.81 195.47 L 183.81 195.65 L 183.81 195.91 L 183.72 196.18 L 183.72 196.35" /><path d="M 183.72 196.35 L 183.72 196.62 L 183.63 197.06" /><path d="M 183.72 196.35 L 183.63 196.8 L 183.63 197.06" /><path d="M 183.63 197.06 L 183.63 197.24 L 183.54 197.59" /><path d="M 183.63 197.06 L 183.54 197.33 L 183.54 197.59" /><path d="M 183.54 197.59 L 183.54 197.77 L 183.54 197.95" /><path d="M 183.54 197.59 L 183.54 197.86 L 183.54 197.95" /><path d="M 183.54 197.95 L 183.45 198.13" /><path d="M 183.45 198.13 L 183.45 198.39 L 183.37 198.92" /><path d="M 183.45 198.13 L 183.45 198.48 L 183.37 198.92" /><path d="M 183.37 198.92 L 183.37 199.1 L 183.37 199.28 L 183.28 199.9" /><path d="M 183.37 198.92 L 183.37 199.19 L 183.28 199.45 L 183.28 199.9" /><path d="M 183.28 199.9 L 183.28 199.99 L 183.19 200.25" /><path d="M 183.19 200.25 L 183.19 200.43 L 183.19 200.61 L 183.1 201.05" /><path d="M 183.19 200.25 L 183.19 200.52 L 183.19 200.69 L 183.1 201.05" /><path d="M 183.1 201.05 L 183.1 201.23 L 183.1 201.4 L 183.01 201.58" /><path d="M 183.01 201.58 L 183.01 202.11 L 182.92 202.38" /><path d="M 183.01 201.58 L 183.01 202.2 L 182.92 202.38" /><path d="M 182.92 202.38 L 182.92 202.64 L 182.92 203" /><path d="M 182.92 202.38 L 182.92 202.73 L 182.92 203" /><path d="M 182.92 203 L 182.83 203.09 L 182.83 203.35" /><path d="M 182.92 203 L 182.83 203.17 L 182.83 203.35" /><path d="M 182.83 203.35 L 182.66 204.41 L 182.57 205.3 L 182.48 205.83 L 182.39 206.54 L 182.3 207.42 L 182.21 208.31 L 182.13 208.84 L 182.04 209.64" /><path d="M 182.04 209.64 L 181.95 209.9" /><path d="M 182.04 209.64 L 182.04 209.99 L 182.13 210.35 L 182.39 211.14" /><path d="M 181.95 209.9 L 181.86 211.06" /><path d="M 181.95 209.9 L 182.13 210.26 L 182.39 211.14" /><path d="M 181.86 211.06 L 181.77 211.68 L 181.68 212.03" /><path d="M 181.86 211.06 L 181.77 211.85 L 181.68 212.03" /><path d="M 181.68 212.03 L 181.68 212.12 L 181.68 212.3 L 181.68 212.47" /><path d="M 181.68 212.47 L 181.59 212.65 L 181.59 212.83 L 181.59 213 L 181.42 214.42" /><path d="M 181.68 212.47 L 181.59 212.74 L 181.59 212.92 L 181.59 213.09 L 181.42 214.42" /><path d="M 181.42 214.42 L 181.33 215.04 L 181.24 215.57 L 181.15 216.1 L 181.15 216.37 L 181.06 216.81 L 180.97 217.43 L 180.89 218.67 L 180.8 219.03" /><path d="M 180.8 219.03 L 180.71 219.11 L 180.53 219.29 L 180.44 219.38" /><path d="M 180.8 219.03 L 180.62 219.2 L 180.44 219.29 L 180.44 219.47 L 180.44 219.65" /><path d="M 180.44 219.38 L 180.44 219.65" /><path d="M 180.44 219.38 L 180.53 219.38 L 180.8 219.47 L 180.97 219.47 L 181.15 219.65 L 181.15 219.73 L 181.06 220.09 L 181.06 220.44 L 180.97 220.62 L 180.97 220.8 L 180.8 220.8 L 180.62 220.71" /><path d="M 180.44 219.65 L 180.44 220.09 L 180.62 220.71" /><path d="M 180.62 220.71 L 180.53 221.06 L 180.53 221.24 L 180.44 221.77 L 180.44 222.04 L 180.35 222.3 L 180.35 222.75 L 180.27 222.92 L 180.27 223.1 L 180.27 223.28 L 180.18 223.72 L 180.18 223.99 L 180.18 224.25 L 180.09 224.61 L 180.09 224.78 L 180.09 225.05 L 180 225.4 L 180 225.67 L 179.91 226.11 L 179.91 226.38 L 179.82 226.73 L 179.82 227 L 179.73 227.26 L 179.73 227.7 L 179.65 228.06 L 179.65 228.41 L 179.56 228.68 L 179.56 228.86 L 179.56 228.94 L 179.47 229.65 L 179.38 229.92 L 179.38 230.27 L 179.38 230.54 L 179.29 230.98 L 179.2 231.34 L 179.11 232.04 L 179.11 232.4 L 179.03 232.93 L 179.03 233.2 L 178.85 234.08 L 178.85 234.35 L 178.85 234.61 L 178.76 234.97 L 178.67 235.76 L 178.67 236.12 L 178.58 236.38 L 178.58 236.65 L 178.49 237.09 L 178.41 237.53 L 178.41 237.8 L 178.41 238.07 L 178.32 238.42 L 178.32 238.86 L 178.23 239.31 L 178.14 239.75" /><path d="M 178.14 239.75 L 178.14 240.1 L 178.05 240.46" /><path d="M 178.14 239.75 L 178.14 240.19 L 178.05 240.46" /><path d="M 178.05 240.46 L 177.96 241.08 L 177.96 241.34 L 177.87 241.7 L 177.87 241.96 L 177.79 242.41 L 177.79 242.85 L 177.7 243.03 L 177.7 243.73 L 177.52 244.44 L 177.52 244.62 L 177.17 247.37 L 176.99 248.69 L 176.72 250.02 L 176.37 253.65" /><path d="M 182.39 211.14 L 182.48 211.5" /><path d="M 182.48 211.5 L 182.66 211.94 L 182.66 212.12" /><path d="M 182.48 211.5 L 182.66 212.03 L 182.66 212.12" /><path d="M 182.66 212.12 L 182.75 212.38 L 182.83 212.47" /><path d="M 182.83 212.47 L 182.92 212.83 L 183.19 213.27" /><path d="M 182.83 212.47 L 183.01 212.92 L 183.19 213.27" /><path d="M 183.19 213.27 L 183.19 213.36 L 183.54 214.07" /><path d="M 183.19 213.27 L 183.28 213.45 L 183.54 214.07" /><path d="M 183.54 214.07 L 183.72 214.42 L 183.72 214.51" /><path d="M 183.72 214.51 L 183.9 214.95 L 184.07 215.31" /><path d="M 183.72 214.51 L 183.99 215.04 L 184.07 215.31" /><path d="M 184.07 215.31 L 184.25 215.66 L 184.34 215.75 L 184.34 216.01 L 184.52 216.28 L 184.96 217.43 L 185.14 217.87 L 185.23 218.23 L 185.14 218.94 L 185.14 219.29 L 185.05 219.56" /><path d="M 145.82 197.68 L 145.99 197.77 L 146.08 197.68 L 146.17 197.51 L 146.08 197.51 L 145.82 197.68" /><path d="M 145.82 197.68 L 145.64 197.86 L 145.64 198.04 L 145.64 198.13 L 145.82 199.37 L 145.82 199.81 L 145.82 199.99 L 145.9 200.25 L 145.9 200.69" /><path d="M 145.9 200.69 L 145.99 201.14 L 145.99 201.67" /><path d="M 145.9 200.69 L 145.99 201.23 L 145.99 201.67" /><path d="M 145.99 201.67 L 146.08 201.85 L 146.26 203.26 L 146.26 203.79 L 146.7 203.7 L 147.06 203.62 L 147.5 203.53 L 147.85 203.44 L 148.21 203.44 L 148.47 203.35 L 148.83 203.26 L 149.18 203.17 L 149.54 203.17 L 149.89 203.09 L 150.24 203 L 150.6 203 L 150.95 202.91 L 151.22 202.82 L 151.66 202.73 L 152.02 202.64 L 152.46 202.55 L 152.9 202.55 L 153.17 202.47 L 153.34 202.38 L 153.79 202.38" /><path d="M 153.79 202.38 L 153.87 202.29 L 154.05 202.38" /><path d="M 153.79 202.38 L 153.96 202.29 L 154.05 202.38" /><path d="M 154.05 202.38 L 154.14 202.38 L 154.41 202.64 L 154.76 202.91" /><path d="M 154.76 202.91 L 155.11 203.17 L 155.47 203.44" /><path d="M 154.76 202.91 L 155.2 203.26 L 155.47 203.44" /><path d="M 155.47 203.44 L 155.82 203.79 L 155.91 203.79" /><path d="M 155.91 203.79 L 156.27 204.06 L 156.53 204.24" /><path d="M 155.91 203.79 L 156.35 204.15 L 156.53 204.24" /><path d="M 156.53 204.24 L 156.71 204.5 L 157.15 204.86" /><path d="M 157.15 204.86 L 157.59 205.39 L 157.77 205.56" /><path d="M 157.15 204.86 L 157.68 205.48 L 157.77 205.56" /><path d="M 157.77 205.56 L 157.86 205.65 L 158.04 205.74 L 158.13 205.83 L 158.3 206.1" /><path d="M 157.77 205.56 L 157.95 205.65 L 158.04 205.83 L 158.13 205.92 L 158.3 206.1" /><path d="M 158.3 206.1 L 158.66 206.45 L 158.75 206.54 L 159.1 206.89" /><path d="M 159.1 206.89 L 159.19 206.98 L 159.37 207.16" /><path d="M 159.1 206.89 L 159.28 207.07 L 159.37 207.16" /><path d="M 159.37 207.16 L 159.54 207.42 L 159.99 207.78 L 160.07 207.96 L 160.34 208.13 L 160.52 208.31 L 160.61 208.49 L 160.69 208.58 L 161.14 209.02 L 161.31 209.2 L 161.85 209.73 L 161.93 209.82 L 162.2 210.17 L 162.55 210.44 L 162.64 210.61" /><path d="M 162.64 210.61 L 163.09 211.06 L 163.53 211.5" /><path d="M 162.64 210.61 L 163.09 211.14 L 162.91 211.32 L 162.91 211.5 L 163 212.21 L 163.09 212.83 L 163.09 213.27 L 163.09 213.8 L 163.17 214.6 L 163.17 215.22 L 163.17 215.48 L 163.26 216.1 L 163.53 216.01 L 163.7 216.01 L 163.88 216.1 L 164.06 216.1 L 164.24 216.19 L 164.59 216.28" /><path d="M 163.53 211.5 L 163.79 211.76 L 163.88 211.94 L 164.06 212.12" /><path d="M 163.53 211.5 L 163.88 211.85 L 163.97 212.03 L 164.06 212.12" /><path d="M 164.06 212.12 L 164.41 212.47" /><path d="M 164.41 212.47 L 164.59 212.65 L 165.03 213.09" /><path d="M 164.41 212.47 L 164.41 212.65 L 164.41 213.09 L 164.41 213.54 L 164.5 213.98 L 164.5 214.42 L 164.59 215.31 L 164.59 216.1 L 164.59 216.19" /><path d="M 165.03 213.09 L 165.3 213.27 L 165.65 213.62" /><path d="M 165.03 213.09 L 165.39 213.36 L 165.65 213.62" /><path d="M 167.78 217.96 L 167.78 218.23 L 167.69 218.58" /><path d="M 167.78 217.96 L 167.69 218.58" /><path d="M 146.17 226.29 L 145.82 226.38 L 145.82 226.29 L 145.9 226.2 L 145.99 226.2 L 146.17 226.29" /><path d="M 146.17 226.29 L 146.44 226.11 L 146.79 225.84 L 147.14 225.67 L 147.5 225.4 L 147.76 225.23 L 147.85 225.23" /><path d="M 147.85 225.23 L 148.21 224.96 L 148.47 224.78" /><path d="M 147.85 225.23 L 148.3 224.96 L 148.47 224.78" /><path d="M 148.47 224.78 L 148.56 224.78 L 148.92 224.69 L 149.18 224.61" /><path d="M 149.18 224.61 L 149.45 224.52 L 149.71 224.43 L 149.89 224.34" /><path d="M 149.18 224.61 L 149.54 224.43 L 149.8 224.34 L 149.89 224.34" /><path d="M 149.89 224.34 L 150.07 224.25 L 150.16 224.25 L 150.51 224.07 L 150.6 224.07 L 150.69 223.99 L 150.95 223.9 L 151.31 223.72 L 151.57 223.63 L 151.66 223.63 L 151.84 223.54 L 151.93 223.45 L 152.1 223.45 L 152.19 223.45 L 152.28 223.45 L 152.46 223.45 L 152.72 223.45 L 152.81 223.45 L 152.9 223.45 L 152.99 223.45 L 153.08 223.45" /><path d="M 153.08 223.45 L 153.25 223.45 L 153.7 223.45" /><path d="M 153.08 223.45 L 153.34 223.45 L 153.7 223.45" /><path d="M 153.7 223.45 L 153.87 223.45 L 154.41 223.45 L 154.67 223.45 L 154.76 223.45" /><path d="M 154.76 223.45 L 154.85 223.45 L 155.11 223.45" /><path d="M 154.76 223.45 L 154.94 223.45 L 155.11 223.45" /><path d="M 155.11 223.45 L 155.2 223.37 L 155.65 223.37 L 155.73 223.28 L 155.82 223.28 L 156.27 223.19 L 156.44 223.19 L 157.06 223.1" /><path d="M 157.06 223.1 L 157.24 223.01 L 157.68 222.92" /><path d="M 157.06 223.1 L 157.33 223.01 L 157.68 222.92" /><path d="M 157.68 222.92 L 158.21 222.83 L 158.66 222.75 L 159.1 222.66 L 159.37 222.66 L 159.54 222.57" /><path d="M 159.54 222.57 L 159.72 222.57 L 159.99 222.57" /><path d="M 159.54 222.57 L 159.81 222.57 L 159.99 222.57" /><path d="M 159.99 222.57 L 160.34 222.48 L 160.52 222.39 L 160.69 222.39 L 160.87 222.39 L 161.05 222.3 L 161.49 222.21 L 161.67 222.13 L 161.93 222.04 L 162.11 222.04 L 162.38 222.04" /><path d="M 162.38 222.04 L 162.55 222.04 L 163 221.95" /><path d="M 162.38 222.04 L 162.64 222.04 L 163 221.95" /><path d="M 162.38 222.04 L 162.38 221.51" /><path d="M 162.38 222.04 L 162.38 222.57 L 162.38 222.92" /><path d="M 162.38 222.04 L 162.47 222.92 L 161.58 223.01" /><path d="M 163 221.95 L 163.44 221.95 L 163.79 221.95 L 163.97 222.21" /><path d="M 163.97 222.21 L 166.54 221.15 L 167.16 221.06 L 167.34 221.06 L 167.42 220.89 L 167.51 220.44 L 167.51 220 L 167.6 219.65 L 167.6 219.11 L 167.69 218.58" /><path d="M 163.97 222.21 L 163.79 222.57 L 163.53 222.75" /><path d="M 162.38 221.51 L 162.38 221.15 L 162.38 221.06" /><path d="M 162.38 221.51 L 162.38 221.24 L 162.38 221.06" /><path d="M 162.38 221.06 L 162.47 220.71 L 162.47 220.27" /><path d="M 162.38 221.06 L 162.47 220.62 L 162.47 220.27" /><path d="M 162.47 220.27 L 163.09 220.35" /><path d="M 163.09 220.35 L 163.53 220.53 L 164.06 220.62" /><path d="M 163.09 220.35 L 163.62 220.44 L 164.06 220.62" /><path d="M 164.06 220.62 L 164.15 220.35 L 164.15 220.18" /><path d="M 164.06 220.62 L 164.15 220.18" /><path d="M 143.34 240.01 L 143.51 239.93 L 143.6 239.84" /><path d="M 143.34 240.01 L 143.51 239.84 L 143.6 239.84" /><path d="M 143.34 240.01 L 143.07 240.19 L 142.98 240.28 L 142.63 240.55 L 142.01 241.17 L 141.83 241.25" /><path d="M 143.34 240.01 L 143.6 239.84" /><path d="M 143.6 239.84 L 143.78 239.75 L 144.04 239.57" /><path d="M 143.6 239.84 L 143.69 239.75 L 144.04 239.57" /><path d="M 144.04 239.57 L 144.4 239.39 L 144.58 239.31 L 144.75 239.22" /><path d="M 144.04 239.57 L 144.49 239.39 L 144.75 239.22" /><path d="M 144.75 239.22 L 144.93 239.13 L 145.11 239.04" /><path d="M 144.75 239.22 L 145.11 239.13 L 145.46 238.95 L 145.9 238.69 L 145.99 238.69" /><path d="M 145.11 239.04 L 145.28 238.95 L 145.46 238.86" /><path d="M 145.11 239.04 L 145.37 238.95 L 145.46 238.86" /><path d="M 145.46 238.86 L 145.64 238.77 L 145.82 238.77" /><path d="M 145.46 238.86 L 145.73 238.77 L 145.82 238.77" /><path d="M 145.82 238.77 L 145.99 238.69" /><path d="M 145.99 238.69 L 146.08 238.6 L 146.17 238.42" /><path d="M 145.99 238.69 L 146.17 238.6 L 146.17 238.42" /><path d="M 146.17 238.42 L 146.26 238.24 L 146.44 237.45 L 146.61 236.56" /><path d="M 146.17 238.42 L 146.44 237.53 L 146.61 236.56" /><path d="M 146.61 236.56 L 146.61 236.47 L 146.7 236.38 L 146.88 236.38" /><path d="M 146.61 236.56 L 146.7 236.47" /><path d="M 146.88 236.38 L 147.06 236.47" /><path d="M 146.88 236.38 L 146.79 236.38 L 146.7 236.47" /><path d="M 146.88 236.38 L 146.97 236.47 L 147.23 236.56 L 147.5 236.56" /><path d="M 146.88 236.38 L 146.7 236.47" /><path d="M 147.06 236.47 L 147.14 236.47 L 147.5 236.56" /><path d="M 147.06 236.47 L 147.23 236.47 L 147.5 236.56" /><path d="M 147.5 236.56 L 147.68 236.65 L 147.85 236.74" /><path d="M 147.85 236.74 L 147.94 236.74 L 148.21 236.83" /><path d="M 147.85 236.74 L 148.21 236.83" /><path d="M 148.21 236.83 L 148.65 236.91 L 149.09 237.09 L 149.27 236.91" /><path d="M 148.21 236.83 L 148.65 237 L 148.83 237.09 L 149.09 237.18 L 149.27 236.91" /><path d="M 149.27 236.91 L 149.54 237.18 L 149.62 237.36 L 149.89 237.62 L 150.24 237.18 L 150.42 237" /><path d="M 149.27 236.91 L 149.45 237.18 L 149.62 237.45 L 149.89 237.71 L 150.51 236.91" /><path d="M 150.42 237 L 150.51 236.91" /><path d="M 150.42 237 L 150.51 236.83 L 150.86 236.47" /><path d="M 150.51 236.91 L 150.86 236.47" /><path d="M 150.51 236.91 L 150.6 236.83 L 151.22 236.12" /><path d="M 150.86 236.47 L 151.22 236.12" /><path d="M 151.22 236.12 L 151.84 235.32" /><path d="M 151.84 235.32 L 152.28 234.79 L 152.72 234.26 L 152.46 233.99 L 152.37 233.82 L 152.19 233.55 L 152.37 233.28" /><path d="M 151.84 235.32 L 152.28 234.88 L 152.72 234.35 L 152.46 234.08 L 152.28 233.73 L 152.1 233.55 L 152.28 233.37 L 152.37 233.28" /><path d="M 152.37 233.28 L 152.46 233.11 L 152.81 232.66" /><path d="M 152.37 233.28 L 152.55 233.02 L 152.81 232.66" /><path d="M 152.37 233.28 L 152.55 233.11 L 152.63 232.93 L 152.81 232.75 L 153.25 232.22 L 153.43 232.04" /><path d="M 152.81 232.66 L 153.43 232.04" /><path d="M 153.43 232.04 L 153.61 231.78 L 153.79 231.6 L 153.96 231.34 L 154.23 231.07" /><path d="M 154.23 231.07 L 154.23 230.98 L 154.41 230.89" /><path d="M 154.23 231.07 L 154.41 230.89" /><path d="M 154.41 230.89 L 154.58 230.63 L 154.85 230.36" /><path d="M 154.85 230.36 L 154.94 230.18 L 155.2 229.92" /><path d="M 154.85 230.36 L 155.03 230.18 L 155.2 229.92" /><path d="M 155.2 229.92 L 155.73 229.21 L 156.09 228.86" /><path d="M 155.2 229.92 L 155.73 229.3 L 155.82 229.21 L 156.09 228.86" /><path d="M 156.09 228.86 L 156.35 228.5" /><path d="M 156.09 228.86 L 156.18 228.77 L 156.35 228.5" /><path d="M 156.35 228.5 L 156.53 228.32" /><path d="M 156.53 228.32 L 156.62 228.24 L 156.71 228.06" /><path d="M 156.53 228.32 L 156.62 228.15 L 156.71 228.06" /><path d="M 156.71 228.06 L 156.89 227.88 L 157.15 227.53" /><path d="M 157.15 227.53 L 157.42 227.26 L 157.68 226.91" /><path d="M 157.15 227.53 L 157.33 227.35 L 157.51 227.17 L 157.68 226.91" /><path d="M 157.68 226.91 L 157.95 226.55 L 158.13 226.38 L 158.21 226.29" /><path d="M 157.68 226.91 L 157.95 226.64 L 158.21 226.29" /><path d="M 158.21 226.29 L 158.48 226.02" /><path d="M 158.48 226.02 L 158.92 225.4 L 159.54 224.69" /><path d="M 158.48 226.02 L 158.92 225.49 L 159.01 225.31 L 159.28 225.05 L 159.54 224.69" /><path d="M 159.54 224.69 L 159.81 224.43 L 160.07 224.07" /><path d="M 160.07 224.07 L 160.25 223.81 L 160.61 223.45" /><path d="M 160.07 224.07 L 160.16 223.9 L 160.61 223.45" /><path d="M 160.61 223.45 L 160.87 223.19" /><path d="M 160.87 223.19 L 160.96 223.1 L 161.58 223.01" /><path d="M 160.87 223.19 L 160.96 223.01" /><path d="M 161.58 223.01 L 162.11 223.01 L 162.38 222.92" /><path d="M 161.58 223.01 L 160.96 223.01" /><path d="M 161.58 223.01 L 161.31 223.01 L 161.14 223.01 L 160.96 223.01" /><path d="M 162.38 222.92 L 162.73 222.92 L 163 222.92" /><path d="M 162.38 222.92 L 162.47 223.63 L 162.47 223.81 L 162.47 223.99" /><path d="M 163 222.92 L 163.17 222.92 L 163.53 222.75" /><path d="M 163 222.92 L 163.26 222.92" /><path d="M 163.53 222.75 L 163.26 222.92" /><path d="M 163.53 222.75 L 163.17 223.01" /><path d="M 163.26 222.92 L 163.17 223.01" /><path d="M 139.17 244.09 L 139.26 244 L 139.26 243.91 L 139.35 243.82 L 139.44 243.91 L 139.44 244" /><path d="M 139.17 244.09 L 139.17 244.18" /><path d="M 139.17 244.09 L 139 243.73 L 139 243.56 L 138.82 243.29 L 139.17 242.94 L 139.62 242.41 L 139.88 242.14 L 140.06 241.79 L 140.33 241.52 L 140.86 241.17 L 141.3 240.72 L 141.56 240.55 L 141.65 240.81 L 141.74 240.99 L 141.83 241.25" /><path d="M 139.17 244.18 L 139.44 244" /><path d="M 139.17 244.18 L 139.26 244.35" /><path d="M 139.44 244 L 139.71 243.65 L 139.79 243.56 L 139.97 243.29 L 140.24 242.94 L 140.33 242.85 L 140.5 242.67 L 140.59 242.49 L 140.68 242.41 L 140.59 242.14 L 141.56 241.61 L 141.92 241.43 L 141.83 241.25" /><path d="M 139.44 244 L 139.26 244.35" /><path d="M 164.41 217.87 L 164.32 218.41 L 164.32 218.94" /><path d="M 164.32 218.94 L 164.24 219.2 L 164.24 219.73" /><path d="M 164.32 218.94 L 164.24 219.11 L 164.24 219.73" /><path d="M 164.24 219.73 L 164.15 220.18" /><path d="M 163.17 223.01 L 163.09 223.19 L 162.82 223.54" /><path d="M 163.17 223.01 L 163.09 223.1 L 163 223.19 L 162.82 223.54" /><path d="M 162.82 223.54 L 162.55 223.9 L 162.47 224.07" /><path d="M 162.82 223.54 L 162.55 223.99 L 162.47 224.16" /><path d="M 162.47 224.07 L 162.2 224.43" /><path d="M 162.47 224.07 L 162.47 223.99" /><path d="M 162.2 224.43 L 161.93 224.87 L 161.76 225.14" /><path d="M 162.2 224.43 L 161.85 224.96 L 161.76 225.14" /><path d="M 162.2 224.43 L 162.47 224.16" /><path d="M 161.76 225.14 L 161.67 225.31 L 161.49 225.49" /><path d="M 161.49 225.49 L 161.31 225.76 L 161.14 226.11 L 160.96 226.29 L 160.87 226.64" /><path d="M 161.49 225.49 L 161.31 225.84 L 161.05 226.11 L 160.96 226.38 L 160.87 226.64" /><path d="M 160.87 226.64 L 160.69 227.08 L 160.52 227.35" /><path d="M 160.87 226.64 L 160.61 227.17 L 160.52 227.35" /><path d="M 160.52 227.35 L 160.43 227.53 L 160.25 227.97 L 160.25 228.15" /><path d="M 160.25 228.15 L 160.16 228.32" /><path d="M 160.25 228.15 L 160.07 228.41 L 159.54 229.03 L 159.28 229.39" /><path d="M 160.16 228.32 L 159.63 228.94 L 159.28 229.39" /><path d="M 160.16 228.32 L 160.16 228.5 L 160.34 228.77 L 160.61 229.12 L 160.78 229.39 L 160.87 229.56" /><path d="M 159.28 229.39 L 159.01 229.65 L 158.83 229.92 L 158.57 230.18 L 158.39 230.45 L 158.21 230.72 L 157.95 230.89 L 157.77 231.16 L 157.42 231.6 L 157.24 231.78 L 157.06 232.04 L 156.89 232.31 L 156.53 232.66 L 156.44 232.75 L 156.27 232.93 L 156 233.37 L 155.65 233.73 L 155.47 233.9 L 155.29 234.17 L 155.11 234.44 L 154.76 234.79 L 154.58 235.06 L 153.96 235.68 L 153.79 235.94 L 153.7 236.03 L 153.52 236.21 L 153.34 236.47 L 153.08 236.74 L 153.08 236.83 L 152.72 237.27" /><path d="M 152.72 237.27 L 152.55 237.45 L 152.28 237.71" /><path d="M 152.72 237.27 L 152.46 237.53 L 152.28 237.71" /><path d="M 152.28 237.71 L 152.1 237.98 L 151.93 238.15 L 151.75 238.33 L 151.57 238.6 L 151.48 238.69 L 151.22 238.95 L 150.95 239.31 L 150.78 239.48 L 150.69 239.66 L 150.42 239.93 L 150.33 240.01" /><path d="M 150.33 240.01 L 150.24 240.19 L 149.89 240.55" /><path d="M 150.33 240.01 L 150.16 240.28 L 149.89 240.55" /><path d="M 149.89 240.55 L 149.71 240.81 L 149.45 241.08" /><path d="M 149.45 241.08 L 149.27 241.34 L 149 241.7 L 148.92 241.79" /><path d="M 149.45 241.08 L 149.18 241.43 L 148.92 241.7 L 148.92 241.79" /><path d="M 148.92 241.79 L 148.65 242.05 L 148.56 242.14 L 148.03 242.85 L 147.59 243.38 L 147.32 243.65 L 147.14 243.91 L 147.06 244 L 146.97 244.09 L 146.79 244.35 L 146.44 244.71 L 146.35 244.89 L 146.17 244.97" /><path d="M 146.17 244.97 L 145.99 245.15 L 145.9 245.33" /><path d="M 146.17 244.97 L 145.99 245.24 L 145.9 245.33" /><path d="M 145.9 245.33 L 145.82 245.42" /><path d="M 145.82 245.42 L 145.73 245.51 L 145.55 245.59" /><path d="M 145.82 245.42 L 145.64 245.51 L 145.55 245.59" /><path d="M 145.55 245.59 L 145.28 245.77 L 145.2 245.86 L 145.11 245.86 L 144.93 245.86 L 144.84 245.86 L 144.58 245.86 L 144.49 245.77 L 144.22 245.68 L 143.96 245.59 L 143.69 245.51 L 143.6 245.51 L 143.16 245.33 L 143.07 245.24 L 142.72 245.15 L 142.54 245.06 L 142.45 245.06 L 142.01 244.89 L 141.83 244.8 L 141.74 244.8 L 141.48 244.71 L 141.39 244.62" /><path d="M 141.39 244.62 L 140.86 244.44 L 140.59 244.44" /><path d="M 141.39 244.62 L 140.77 244.44 L 140.59 244.44" /><path d="M 140.59 244.44 L 140.24 244.62 L 140.15 244.62" /><path d="M 140.59 244.44 L 140.15 244.62" /><path d="M 140.15 244.62 L 139.88 244.53 L 139.62 244.44" /><path d="M 140.15 244.62 L 140.06 244.62 L 139.79 244.53 L 139.62 244.44" /><path d="M 139.62 244.44 L 139.53 244.44 L 139.44 244.35 L 139.26 244.35" /><path d="M 162.47 224.16 L 162.47 223.99" /><path d="M 147.68 247.63 L 147.59 247.54 L 147.5 247.54 L 147.23 247.9 L 147.32 248.07 L 147.41 247.98 L 147.5 247.9 L 147.68 247.63" /><path d="M 147.68 247.63 L 147.76 247.54 L 147.85 247.37 L 148.12 247.1" /><path d="M 148.12 247.1 L 148.47 246.75 L 149 246.04 L 149.45 245.59 L 149.71 245.24 L 150.24 244.62 L 150.51 244.27 L 150.69 244 L 150.95 243.73 L 151.13 243.47 L 151.4 243.29 L 151.57 243.03 L 151.84 242.67 L 152.1 242.32 L 152.63 241.7 L 153.17 241.08 L 153.61 240.63 L 153.79 240.37 L 154.05 240.1 L 154.05 239.93" /><path d="M 148.12 247.1 L 147.76 247.45" /><path d="M 154.05 239.93 L 154.32 239.75 L 154.49 239.39" /><path d="M 154.05 239.93 L 154.32 239.66 L 154.49 239.39" /><path d="M 154.49 239.39 L 154.76 239.13 L 154.94 238.95 L 155.11 238.69 L 155.38 238.42" /><path d="M 155.38 238.42 L 155.47 238.24 L 155.65 238.15" /><path d="M 155.38 238.42 L 155.56 238.24 L 155.65 238.15" /><path d="M 155.65 238.15 L 155.73 238.07 L 155.82 237.89 L 156.18 237.45 L 156.53 237.09 L 156.71 236.83 L 157.06 236.38 L 157.33 236.12 L 157.51 235.85 L 157.68 235.68 L 157.95 235.41 L 158.04 235.23 L 158.21 235.06" /><path d="M 158.21 235.06 L 158.3 234.97 L 158.39 234.79" /><path d="M 158.21 235.06 L 158.3 234.88 L 158.39 234.79" /><path d="M 158.39 234.79 L 158.57 234.35" /><path d="M 158.57 234.35 L 158.66 234.17 L 158.75 233.99" /><path d="M 158.57 234.35 L 158.66 234.08 L 158.75 233.99" /><path d="M 158.75 233.99 L 158.75 233.82 L 158.83 233.64 L 159.28 232.66 L 159.37 232.4 L 159.45 232.22" /><path d="M 159.45 232.22 L 159.54 231.96 L 159.9 231.51" /><path d="M 159.45 232.22 L 159.63 231.87 L 159.9 231.51" /><path d="M 159.9 231.51 L 160.07 231.34 L 160.25 231.07" /><path d="M 160.25 231.07 L 160.87 230.36 L 160.96 230.27 L 161.05 230.1 L 161.05 230.01" /><path d="M 160.25 231.07 L 160.87 230.27 L 160.96 230.18 L 161.05 230.01" /><path d="M 161.05 230.01 L 161.05 229.83 L 160.87 229.56" /><path d="M 161.05 230.01 L 161.05 229.92 L 161.05 229.74 L 160.87 229.56" /><path d="M 140.59 212.74 L 140.24 212.74 L 140.15 212.65 L 139.97 212.56 L 139.88 212.38 L 139.71 212.21 L 139.62 212.03 L 139.35 211.76 L 139.26 211.68 L 139.09 211.59 L 139 211.5 L 138.91 211.41 L 138.82 211.41 L 138.64 211.32 L 138.47 211.32 L 138.29 211.23 L 138.2 211.23 L 138.11 211.14 L 137.93 211.14" /><path d="M 137.93 211.14 L 137.76 211.06 L 137.4 210.79" /><path d="M 137.93 211.14 L 137.76 210.97 L 137.4 210.79" /><path d="M 137.4 210.79 L 137.31 210.7 L 136.96 210.44 L 136.61 210.17 L 136.34 209.99 L 136.16 209.82 L 135.9 209.64 L 134.83 208.93 L 134.48 208.66 L 134.3 208.58 L 134.21 208.49 L 134.04 208.4 L 133.95 208.31 L 133.86 208.22 L 133.68 208.04 L 133.59 207.96 L 133.42 207.78 L 133.24 207.6 L 133.24 207.51 L 132.8 206.8 L 132 205.48 L 131.56 204.77 L 131.29 204.32 L 130.85 203.62 L 130.76 203.53 L 130.67 203.35 L 130.58 203.17 L 130.49 202.82 L 130.41 202.55 L 130.32 202.38 L 130.32 202.02 L 130.23 201.76 L 130.23 201.4 L 130.23 201.05 L 130.23 200.61 L 130.23 200.25 L 130.14 200.07 L 130.14 199.9 L 130.14 199.72 L 130.14 199.54" /><path d="M 130.14 199.54 L 130.05 199.37 L 129.96 199.1 L 129.88 198.92" /><path d="M 130.14 199.54 L 130.05 199.28 L 129.96 199.01 L 129.88 198.92" /><path d="M 129.88 198.92 L 129.88 198.75 L 129.79 198.66 L 129.79 198.48 L 129.61 198.21 L 129.43 197.86 L 129.34 197.68 L 129.26 197.51 L 129.17 197.42 L 129.08 197.24 L 128.9 197.06 L 128.81 196.97 L 128.72 196.89 L 128.55 196.71 L 128.46 196.62 L 128.37 196.53 L 128.28 196.53 L 128.1 196.44 L 128.02 196.35 L 127.84 196.27 L 127.57 196.18 L 127.48 196.18 L 127.31 196.09 L 127.22 195.91 L 127.04 195.82" /><path d="M 127.04 195.82 L 126.95 195.73 L 126.78 195.47" /><path d="M 127.04 195.82 L 126.86 195.65 L 126.78 195.47" /><path d="M 126.78 195.47 L 126.69 195.38 L 126.6 195.29 L 126.51 195.03 L 126.07 193.87" /><path d="M 126.07 193.87 L 125.8 193.34 L 125.45 192.63" /><path d="M 126.07 193.87 L 125.8 193.25 L 125.45 192.63" /><path d="M 125.45 192.63 L 125.18 192.1 L 125 191.93 L 124.65 191.48 L 124.21 190.95 L 123.94 190.69 L 123.76 190.42 L 123.68 190.33 L 123.5 190.16 L 123.41 190.07 L 123.23 189.98 L 123.14 189.8 L 122.97 189.71 L 122.7 189.54 L 122.08 189 L 121.99 188.92 L 121.46 188.47 L 120.84 187.94 L 120.58 187.76 L 120.4 187.59" /><path d="M 120.4 187.59 L 120.22 187.41 L 120.04 187.23" /><path d="M 120.4 187.59 L 120.13 187.41 L 120.04 187.23" /><path d="M 120.04 187.23 L 119.87 187.06 L 119.78 186.97 L 119.78 186.88" /><path d="M 119.78 186.88 L 119.69 186.7 L 119.6 186.52" /><path d="M 119.78 186.88 L 119.6 186.61 L 119.6 186.52" /><path d="M 119.6 186.52 L 119.51 186.35 L 119.42 186.26 L 119.34 185.99 L 118.98 184.66 L 118.89 184.31 L 118.63 183.69 L 118.54 183.51 L 118.19 182.27 L 117.83 181.21 L 117.65 180.86 L 117.57 180.41 L 117.39 180.06 L 117.12 179.44 L 117.12 179.26 L 117.03 179.17" /><path d="M 117.03 179.17 L 117.03 179 L 116.95 178.82" /><path d="M 117.03 179.17 L 116.95 178.91 L 116.95 178.82" /><path d="M 116.95 178.82 L 116.86 178.64 L 116.77 178.47 L 116.59 178.29 L 116.41 177.93 L 116.33 177.76 L 116.24 177.58 L 116.15 177.49 L 116.06 177.31 L 115.88 177.14 L 114.91 175.81 L 114.82 175.72 L 114.73 175.63 L 114.64 175.45 L 114.55 175.37 L 114.47 175.19 L 114.29 174.83 L 114.02 174.13 L 113.85 173.77 L 113.76 173.51 L 113.58 173.24 L 113.49 173.06 L 113.4 172.89 L 113.31 172.8 L 113.14 172.62 L 113.05 172.53 L 112.96 172.44 L 112.78 172.35 L 112.61 172.27" /><path d="M 112.61 172.27 L 112.52 172.18 L 112.25 172.18" /><path d="M 112.61 172.27 L 112.43 172.18 L 112.25 172.18" /><path d="M 112.25 172.18 L 112.16 172.18" /><path d="M 112.16 172.18 L 112.07 172.09 L 111.81 172.09 L 111.63 172" /><path d="M 112.16 172.18 L 111.99 172.09 L 111.72 172 L 111.63 172" /><path d="M 111.63 172 L 111.54 171.91 L 111.37 171.73 L 111.19 171.56" /><path d="M 111.63 172 L 111.45 171.82 L 111.28 171.65 L 111.19 171.56" /><path d="M 111.19 171.56 L 111.1 171.47 L 111.01 171.38 L 110.92 171.2 L 110.75 170.85 L 110.66 170.67 L 110.21 170.05" /><path d="M 110.21 170.05 L 109.86 169.43 L 109.59 168.99" /><path d="M 110.21 170.05 L 109.86 169.34 L 109.59 168.99" /><path d="M 109.59 168.99 L 109.42 168.72 L 109.24 168.37 L 109.06 167.84 L 108.35 166.6 L 108.27 166.51 L 108.18 166.16 L 108 165.89 L 107.82 165.62 L 107.82 165.54 L 107.74 165.45 L 107.65 165.18 L 106.85 163.85 L 106.85 163.76 L 106.67 163.5 L 106.58 163.32 L 106.5 163.14 L 106.41 162.97 L 106.41 162.88 L 106.32 162.79" /><path d="M 106.32 162.79 L 106.23 162.61 L 106.05 162.44 L 105.88 162.26 L 105.79 162.08 L 105.61 161.99 L 105.52 161.9 L 105.34 161.9" /><path d="M 106.32 162.79 L 106.14 162.52 L 105.96 162.35 L 105.88 162.17 L 105.7 162.08 L 105.52 161.99 L 105.43 161.9 L 105.34 161.9" /><path d="M 105.34 161.9 L 104.02 161.55 L 102.78 161.28 L 102.51 161.2 L 102.33 161.2 L 102.24 161.11 L 102.07 161.11 L 101.98 161.02 L 101.89 160.93 L 101.71 160.75 L 101.62 160.58 L 101.62 160.49 L 101.54 160.4 L 101.45 160.22 L 101.45 160.04 L 101.45 159.87 L 101.27 158.63 L 101.18 158.45 L 101.18 158.19 L 101 157.03 L 101 156.77 L 100.92 156.24 L 100.92 156.15 L 100.92 155.97 L 100.92 155.79 L 100.92 155.53 L 100.92 155.35 L 100.92 155.09 L 100.92 154.91" /><path d="M 100.92 154.91 L 101 154.73 L 101.09 154.47" /><path d="M 100.92 154.91 L 101 154.64 L 101.09 154.47" /><path d="M 101.09 154.47 L 101.18 154.29 L 101.27 154.11 L 101.36 153.93 L 101.45 153.85 L 101.62 153.67 L 101.8 153.58 L 102.24 153.23 L 102.33 153.14 L 102.51 152.96 L 102.6 152.87 L 102.78 152.69 L 102.78 152.52 L 102.86 152.34 L 103.31 151.01 L 103.48 150.48 L 103.57 150.21 L 103.66 150.04 L 103.84 149.68 L 103.93 149.42 L 104.19 149.15 L 104.28 148.97" /><path d="M 104.28 148.97 L 104.46 148.89 L 105.17 148.35" /><path d="M 104.28 148.97 L 104.55 148.89 L 105.17 148.35" /><path d="M 105.17 148.35 L 105.52 148.09 L 105.79 147.91" /><path d="M 105.79 147.91 L 105.88 147.82 L 106.05 147.65" /><path d="M 105.79 147.91 L 105.96 147.74 L 106.05 147.65" /><path d="M 106.05 147.65 L 106.14 147.56" /><path d="M 106.14 147.56 L 106.23 147.47 L 106.32 147.29 L 106.41 147.2 L 106.58 147.03 L 106.58 146.76 L 106.67 146.58" /><path d="M 106.14 147.56 L 106.32 147.38 L 106.41 147.29 L 106.5 147.12 L 106.58 146.85 L 106.67 146.67 L 106.67 146.58" /><path d="M 106.67 146.58 L 106.76 146.5 L 106.76 146.32 L 106.76 146.14 L 106.76 145.88" /><path d="M 106.67 146.58 L 106.76 146.41 L 106.76 146.23 L 106.76 146.05 L 106.76 145.88" /><path d="M 106.76 145.88 L 106.85 145.61 L 106.85 144.28 L 106.85 143.84 L 106.85 143.66 L 106.85 143.4 L 106.85 143.31" /><path d="M 106.85 143.31 L 106.85 143.13 L 106.85 142.95 L 106.85 142.78 L 106.76 142.51 L 106.76 142.33" /><path d="M 106.85 143.31 L 106.85 143.04 L 106.85 142.86 L 106.85 142.69 L 106.76 142.42 L 106.76 142.33" /><path d="M 106.76 142.33 L 106.67 142.07 L 106.58 141.8 L 106.41 141.36 L 106.23 141 L 106.23 140.83 L 106.05 140.38 L 105.96 140.12 L 105.88 139.85" /><path d="M 105.88 139.85 L 105.79 139.5 L 105.7 139.32 L 105.7 139.14 L 105.7 138.97 L 105.61 138.79 L 105.61 138.61 L 105.7 138.44" /><path d="M 105.88 139.85 L 105.7 139.41 L 105.7 139.23 L 105.7 139.06 L 105.7 138.88 L 105.61 138.7 L 105.61 138.52 L 105.7 138.44" /><path d="M 105.7 138.44 L 105.7 138.26 L 105.7 138.08 L 105.7 137.99 L 105.79 137.73" /><path d="M 105.79 137.73 L 105.79 137.55 L 105.88 137.37 L 105.88 137.2 L 105.88 137.11" /><path d="M 105.79 137.73 L 105.88 137.46 L 105.88 137.28 L 105.88 137.11" /><path d="M 105.88 137.11 L 105.88 136.75 L 105.88 136.49" /><path d="M 105.88 137.11 L 105.88 136.93 L 105.88 136.67 L 105.88 136.49" /><path d="M 105.88 136.49 L 105.88 136.31 L 105.79 136.05 L 105.7 135.6 L 105.52 135.07 L 105.26 134.36 L 105.17 133.92 L 105.08 133.74 L 104.9 133.03 L 104.72 132.68 L 104.64 132.24 L 104.46 131.71 L 104.37 131.44 L 104.28 131.26 L 104.19 131 L 103.84 130.38 L 103.57 129.67 L 103.48 129.4 L 102.95 128.16" /><path d="M 102.95 128.16 L 102.78 127.81 L 102.69 127.63" /><path d="M 102.95 128.16 L 102.78 127.72 L 102.69 127.63" /><path d="M 102.69 127.63 L 102.51 127.1" /><path d="M 102.51 127.1 L 102.42 127.01 L 101.71 125.33" /><path d="M 102.51 127.1 L 102.42 126.92 L 101.71 125.33" /><path d="M 101.71 125.33 L 101.62 125.15 L 101.54 124.98 L 101.54 124.8 L 101.45 124.71 L 101.45 124.53 L 101.36 124.36 L 101.36 124.27 L 101.27 123.91" /><path d="M 101.27 123.91 L 101.27 123.74 L 101.18 123.47" /><path d="M 101.27 123.91 L 101.18 123.65 L 101.18 123.47" /><path d="M 101.18 123.47 L 101.18 123.29 L 101.18 123.12" /><path d="M 101.18 123.12 L 101.18 122.94 L 101.09 122.76" /><path d="M 101.18 123.12 L 101.18 122.85 L 101.09 122.76" /><path d="M 101.09 122.76 L 101.09 122.58 L 101.09 122.41" /><path d="M 101.09 122.41 L 101.09 122.23 L 101.18 121.88" /><path d="M 101.09 122.41 L 101.18 122.14 L 101.18 121.88" /><path d="M 101.18 121.88 L 101.18 121.17 L 101.27 120.46 L 101.27 119.4 L 101.45 117.45 L 101.45 116.74 L 101.54 116.21 L 101.54 115.94 L 101.54 115.41 L 101.54 115.14 L 101.62 114.97 L 101.62 114.79 L 101.62 114.61 L 101.71 114.44 L 101.71 114.26 L 101.8 114.17 L 101.8 113.99 L 101.89 113.91 L 101.98 113.73 L 102.16 113.46 L 102.24 113.29" /><path d="M 102.24 113.29 L 102.33 113.11 L 102.42 113.02 L 102.51 112.84 L 102.6 112.75 L 102.86 111.96" /><path d="M 102.24 113.29 L 102.42 113.11 L 102.51 112.93 L 102.51 112.75 L 102.6 112.58 L 102.86 111.96" /><path d="M 102.86 111.96 L 103.13 111.25" /><path d="M 103.13 111.25 L 103.31 110.72 L 103.4 110.45" /><path d="M 103.13 111.25 L 103.31 110.63 L 103.4 110.45" /><path d="M 103.4 110.45 L 103.4 110.36 L 103.57 110.01" /><path d="M 103.4 110.45 L 103.48 110.19 L 103.57 110.01" /><path d="M 103.57 110.01 L 103.57 109.83 L 103.66 109.57 L 103.66 109.3 L 103.75 109.03 L 103.75 108.5 L 103.84 107.97 L 103.93 106.91" /><path d="M 103.93 106.91 L 103.93 106.2 L 104.02 105.85" /><path d="M 103.93 106.91 L 103.93 106.11 L 104.02 105.85" /><path d="M 104.02 105.85 L 104.1 105.67 L 104.1 105.58" /><path d="M 104.1 105.58 L 104.19 105.49 L 104.28 105.31" /><path d="M 104.1 105.58 L 104.19 105.4 L 104.28 105.31" /><path d="M 104.28 105.31 L 104.37 105.14 L 104.46 104.96" />
    </g>
  </g>
</svg>