<svg xmlns="http://www.w3.org/2000/svg" viewBox="0 0 360 440" width="360" height="440" fill="none">
  <g shape-rendering="geometricPrecision" text-rendering="geometricPrecision">
    
    <g
      stroke="#111111"
      stroke-opacity="0.94"
      stroke-width="1.65"
      stroke-linecap="round"
      stroke-linejoin="round"
    >
      <path d="M 171.06 214.77 L 170.97 214.77 L 170.88 214.77 L 171.06 214.77" /><path d="M 171.06 214.77 L 171.23 214.77" /><path d="M 171.23 214.77 L 171.32 214.77 L 171.41 214.77 L 171.5 214.77 L 171.68 214.77 L 171.76 214.77 L 171.85 214.77 L 171.94 214.77 L 172.03 214.77 L 172.21 214.77 L 172.3 214.77 L 172.38 214.77 L 172.47 214.77 L 172.56 214.77 L 172.74 214.77 L 172.83 214.77 L 172.92 214.77 L 173 214.77 L 173.18 214.77 L 173.27 214.77 L 173.36 214.77 L 173.45 214.77 L 173.54 214.77 L 173.71 214.77 L 173.8 214.77 L 173.89 214.77 L 173.98 214.77 L 174.16 214.77 L 174.24 214.77 L 174.33 214.77 L 174.51 214.69 L 174.69 214.6 L 174.86 214.6 L 175.04 214.51" /><path d="M 171.23 214.77 L 171.41 214.69 L 171.68 214.69 L 171.85 214.69 L 172.03 214.69 L 172.21 214.69 L 172.38 214.69 L 172.56 214.69 L 172.74 214.69 L 173 214.69 L 173.18 214.6 L 173.36 214.6 L 173.54 214.6 L 173.71 214.6 L 173.89 214.6 L 174.07 214.6 L 174.16 214.6 L 174.33 214.6" /><path d="M 175.04 214.51 L 175.04 214.77 L 175.13 214.95 L 175.13 215.22 L 175.22 215.48 L 175.22 215.66 L 175.31 215.93 L 175.31 216.19 L 175.39 216.37 L 175.48 216.55 L 175.57 216.72 L 175.66 216.81" /><path d="M 175.04 214.51 L 174.86 214.51 L 174.77 214.51 L 174.6 214.51" /><path d="M 175.66 216.81 L 175.84 216.99 L 175.93 217.08 L 176.01 217.25" /><path d="M 175.66 216.81 L 175.75 216.99" /><path d="M 176.01 217.25 L 176.1 217.43" /><path d="M 176.01 217.25 L 175.84 217.17 L 175.75 216.99" /><path d="M 176.01 217.25 L 175.93 217.17 L 175.75 216.99" /><path d="M 176.1 217.43 L 176.19 217.52 L 176.28 217.79 L 176.37 218.05 L 176.37 218.23" /><path d="M 176.1 217.43 L 176.19 217.61 L 176.19 217.79 L 176.28 217.87 L 176.28 218.05 L 176.37 218.23" /><path d="M 176.37 218.23 L 176.46 218.49 L 176.46 218.67" /><path d="M 176.37 218.23 L 176.37 218.41 L 176.46 218.58 L 176.46 218.67" /><path d="M 176.46 218.67 L 176.55 218.94 L 176.55 219.2 L 176.63 219.38" /><path d="M 176.46 218.67 L 176.55 218.85 L 176.55 219.03 L 176.63 219.11 L 176.63 219.29" /><path d="M 176.63 219.38 L 176.72 219.38" /><path d="M 176.63 219.38 L 176.81 219.38" /><path d="M 176.63 219.38 L 176.63 219.29" /><path d="M 176.72 219.38 L 176.81 219.29" /><path d="M 176.72 219.38 L 176.81 219.38" /><path d="M 176.72 219.38 L 176.63 219.29" /><path d="M 176.81 219.29 L 176.9 219.29" /><path d="M 176.81 219.29 L 176.99 219.29" /><path d="M 176.9 219.29 L 177.08 219.2" /><path d="M 176.9 219.29 L 176.99 219.29" /><path d="M 176.9 219.29 L 176.81 219.38" /><path d="M 177.08 219.2 L 177.17 219.2" /><path d="M 177.08 219.2 L 176.99 219.29" /><path d="M 177.17 219.2 L 177.25 219.11 L 177.34 219.11" /><path d="M 177.17 219.2 L 177.34 219.11" /><path d="M 177.34 219.11 L 177.43 219.03 L 177.52 219.03" /><path d="M 177.34 219.11 L 177.52 219.03" /><path d="M 177.34 219.11 L 177.43 219.11 L 177.52 219.03" /><path d="M 177.52 219.03 L 177.61 218.94 L 177.79 218.94" /><path d="M 177.52 219.03 L 177.61 219.03 L 177.7 218.94 L 177.79 218.94" /><path d="M 177.79 218.94 L 177.87 218.85 L 177.96 218.85 L 178.05 218.76 L 178.14 218.76" /><path d="M 178.14 218.76 L 178.23 218.67 L 178.41 218.76" /><path d="M 178.14 218.76 L 178.32 218.67 L 178.41 218.76" /><path d="M 178.41 218.76 L 178.49 218.94 L 178.67 219.03" /><path d="M 178.41 218.76 L 178.49 218.85 L 178.58 218.94 L 178.67 219.03" /><path d="M 178.67 219.03 L 178.76 219.11" /><path d="M 178.67 219.03 L 178.76 219.03 L 178.94 219.11" /><path d="M 178.76 219.11 L 178.94 219.2 L 179.11 219.29" /><path d="M 178.76 219.11 L 178.94 219.11" /><path d="M 179.11 219.29 L 179.2 219.38 L 179.38 219.47" /><path d="M 179.11 219.29 L 179.2 219.29 L 179.29 219.38 L 179.38 219.47" /><path d="M 179.11 219.29 L 179.03 219.2 L 178.94 219.11" /><path d="M 179.38 219.47 L 179.56 219.56" /><path d="M 179.38 219.47 L 179.47 219.56 L 179.56 219.56" /><path d="M 179.38 219.47 L 179.47 219.47 L 179.56 219.56" /><path d="M 179.56 219.56 L 179.73 219.73" /><path d="M 179.56 219.56 L 179.65 219.65" /><path d="M 179.73 219.73 L 179.82 219.82 L 180 219.91" /><path d="M 179.73 219.73 L 179.82 219.73" /><path d="M 179.73 219.73 L 179.65 219.65" /><path d="M 180 219.91 L 180.09 220.09" /><path d="M 180 219.91 L 180.09 220 L 180.18 220.18 L 180.18 220.35 L 180.27 220.53 L 180.35 220.71 L 180.35 220.89 L 180.44 221.06" /><path d="M 180 219.91 L 179.91 219.82" /><path d="M 180.09 220.09 L 180.09 220.35 L 180.18 220.53 L 180.27 220.71 L 180.27 220.89 L 180.35 220.97 L 180.44 221.06" /><path d="M 180.09 220.09 L 180.18 220.27" /><path d="M 180.44 221.06 L 180.44 221.15 L 180.44 221.33 L 180.35 221.51 L 180.35 221.68" /><path d="M 180.44 221.06 L 180.44 221.24 L 180.44 221.42 L 180.35 221.59 L 180.35 221.68" /><path d="M 180.44 221.06 L 180.44 220.97 L 180.35 220.8 L 180.35 220.62 L 180.27 220.44 L 180.18 220.27" /><path d="M 180.35 221.68 L 180.27 221.86 L 180.27 222.04 L 180.18 222.21" /><path d="M 180.35 221.68 L 180.27 221.77 L 180.27 221.95 L 180.18 222.13 L 180.18 222.21" /><path d="M 180.18 222.21 L 180.09 222.3 L 180.09 222.48" /><path d="M 180.18 222.21 L 180.18 222.3 L 180.09 222.48" /><path d="M 180.18 222.21 L 180.09 222.39 L 180.09 222.57 L 180 222.75" /><path d="M 180.09 222.48 L 180 222.66 L 180 222.83" /><path d="M 180.09 222.48 L 180.09 222.66 L 180 222.75" /><path d="M 180 222.83 L 179.91 223.01 L 179.91 223.19" /><path d="M 180 222.83 L 180 222.75" /><path d="M 179.91 223.19 L 179.82 223.37" /><path d="M 179.91 223.19 L 179.82 223.28 L 179.82 223.45 L 179.73 223.63" /><path d="M 179.82 223.37 L 179.73 223.45 L 179.73 223.63" /><path d="M 179.82 223.37 L 179.82 223.54 L 179.73 223.72 L 179.65 223.9 L 179.56 224.07 L 179.56 224.25 L 179.47 224.43 L 179.38 224.61 L 179.29 224.78" /><path d="M 179.82 223.37 L 179.91 223.28 L 179.91 223.1 L 180 222.92 L 180 222.75" /><path d="M 179.73 223.63 L 179.65 223.81 L 179.65 223.99" /><path d="M 179.73 223.63 L 179.73 223.81 L 179.65 223.99" /><path d="M 179.65 223.99 L 179.56 224.16 L 179.47 224.34 L 179.38 224.52 L 179.38 224.69 L 179.29 224.87 L 179.2 225.05" /><path d="M 179.2 225.05 L 179.11 225.23 L 179.11 225.4" /><path d="M 179.2 225.05 L 179.11 225.31 L 179.03 225.49 L 179.03 225.67 L 178.94 225.84" /><path d="M 179.2 225.05 L 179.2 225.23" /><path d="M 179.2 225.05 L 179.29 224.78" /><path d="M 179.11 225.4 L 179.03 225.58" /><path d="M 179.11 225.4 L 179.2 225.23" /><path d="M 179.03 225.58 L 178.94 225.67 L 178.94 225.84" /><path d="M 179.03 225.58 L 178.94 225.76 L 178.85 225.93 L 178.85 226.11 L 178.76 226.29 L 178.67 226.46 L 178.58 226.64" /><path d="M 178.94 225.84 L 178.85 226.02 L 178.76 226.2 L 178.67 226.38 L 178.67 226.55" /><path d="M 178.67 226.55 L 178.58 226.73 L 178.41 226.82" /><path d="M 178.67 226.55 L 178.58 226.64" /><path d="M 178.41 226.82 L 178.32 226.91" /><path d="M 178.41 226.82 L 178.49 226.73" /><path d="M 178.32 226.91 L 178.14 227" /><path d="M 178.32 226.91 L 178.23 227" /><path d="M 178.32 226.91 L 178.49 226.82 L 178.58 226.64" /><path d="M 178.14 227 L 178.05 227.08" /><path d="M 178.14 227 L 177.96 227.08" /><path d="M 178.14 227 L 178.23 227" /><path d="M 178.14 227 L 178.32 227 L 178.41 226.91 L 178.49 226.73" /><path d="M 178.05 227.08 L 177.87 227.08" /><path d="M 178.05 227.08 L 177.96 227.08" /><path d="M 178.05 227.08 L 178.23 227" /><path d="M 177.87 227.08 L 177.7 227" /><path d="M 177.87 227.08 L 177.96 227.08" /><path d="M 177.7 227 L 177.61 227" /><path d="M 177.7 227 L 177.52 226.91" /><path d="M 177.7 227 L 177.79 227.08" /><path d="M 177.7 227 L 177.52 227 L 177.43 226.82" /><path d="M 177.61 227 L 177.52 226.91" /><path d="M 177.61 227 L 177.79 227.08" /><path d="M 177.52 226.91 L 177.34 226.82 L 177.25 226.73" /><path d="M 177.52 226.91 L 177.43 226.82" /><path d="M 177.25 226.73 L 177.08 226.55" /><path d="M 177.25 226.73 L 177.08 226.64 L 176.99 226.46" /><path d="M 177.25 226.73 L 177.43 226.82" /><path d="M 177.25 226.73 L 177.17 226.64 L 177.08 226.55" /><path d="M 177.08 226.55 L 176.99 226.46" /><path d="M 177.08 226.55 L 176.9 226.46 L 176.81 226.29" /><path d="M 176.99 226.46 L 176.9 226.38 L 176.81 226.29" /><path d="M 176.99 226.46 L 176.81 226.38 L 176.72 226.29" /><path d="M 176.81 226.29 L 176.72 226.29" /><path d="M 176.81 226.29 L 176.63 226.2" /><path d="M 176.72 226.29 L 176.63 226.2" /><path d="M 176.72 226.29 L 176.55 226.2" /><path d="M 176.63 226.2 L 176.55 226.2" /><path d="M 176.55 226.2 L 176.46 226.38" /><path d="M 176.55 226.2 L 176.46 226.29 L 176.46 226.46" /><path d="M 176.46 226.38 L 176.46 226.55 L 176.46 226.82 L 176.46 227 L 176.37 227.17" /><path d="M 176.46 226.38 L 176.46 226.46" /><path d="M 176.37 227.17 L 176.37 227.44" /><path d="M 176.37 227.17 L 176.37 227.26" /><path d="M 176.37 227.17 L 176.37 227 L 176.46 226.91" /><path d="M 176.37 227.44 L 176.37 227.62 L 176.37 227.88" /><path d="M 176.37 227.44 L 176.37 227.53" /><path d="M 176.37 227.44 L 176.37 227.26" /><path d="M 176.37 227.88 L 176.28 228.06" /><path d="M 176.37 227.88 L 176.37 227.79 L 176.37 227.7" /><path d="M 176.28 228.06 L 176.28 228.32" /><path d="M 176.28 228.06 L 176.28 228.15" /><path d="M 176.28 228.32 L 176.28 228.59" /><path d="M 176.28 228.32 L 176.28 228.41" /><path d="M 176.28 228.32 L 176.28 228.15" /><path d="M 176.28 228.59 L 176.28 228.77" /><path d="M 176.28 228.59 L 176.28 228.86 L 176.19 229.03" /><path d="M 176.28 228.59 L 176.28 228.41" /><path d="M 176.28 228.77 L 176.19 229.03" /><path d="M 176.28 228.77 L 176.19 228.94 L 176.19 229.12 L 176.19 229.3" /><path d="M 176.19 229.03 L 176.19 229.21" /><path d="M 176.19 229.21 L 176.19 229.39 L 176.19 229.56" /><path d="M 176.19 229.21 L 176.19 229.3" /><path d="M 176.19 229.56 L 176.1 229.74" /><path d="M 176.19 229.56 L 176.1 229.83 L 176.1 230.01" /><path d="M 176.19 229.56 L 176.19 229.3" /><path d="M 176.1 229.74 L 176.1 229.92 L 176.1 230.01" /><path d="M 176.1 229.74 L 176.19 229.65 L 176.19 229.48 L 176.19 229.3" /><path d="M 176.1 230.01 L 176.1 230.18 L 176.1 230.36 L 176.01 230.54" /><path d="M 176.1 230.01 L 176.1 230.27 L 176.01 230.54" /><path d="M 176.01 230.54 L 176.01 230.72" /><path d="M 176.01 230.54 L 176.01 230.63 L 176.01 230.8 L 176.01 230.98" /><path d="M 176.01 230.72 L 176.01 230.89 L 176.01 231.07 L 175.93 231.25" /><path d="M 176.01 230.72 L 176.01 230.98" /><path d="M 175.93 231.25 L 175.93 231.42" /><path d="M 175.93 231.25 L 175.93 231.16" /><path d="M 175.93 231.42 L 175.93 231.6" /><path d="M 175.93 231.42 L 175.93 231.69 L 175.93 231.96 L 175.84 232.13" /><path d="M 175.93 231.42 L 175.93 231.16" /><path d="M 175.93 231.6 L 175.93 231.87 L 175.84 232.13" /><path d="M 175.93 231.6 L 175.93 231.78 L 175.84 232.04 L 175.84 232.22 L 175.84 232.4 L 175.84 232.66" /><path d="M 175.84 232.13 L 175.84 232.31 L 175.84 232.49" /><path d="M 175.84 232.49 L 175.75 232.75 L 175.75 232.84" /><path d="M 175.84 232.49 L 175.84 232.66" /><path d="M 175.75 232.84 L 175.75 233.02 L 175.66 233.2" /><path d="M 175.75 232.84 L 175.75 232.93 L 175.75 233.11" /><path d="M 175.75 232.84 L 175.84 232.66" /><path d="M 175.66 233.2 L 175.66 233.37" /><path d="M 175.66 233.2 L 175.75 233.11" /><path d="M 175.66 233.37 L 175.66 233.46 L 175.66 233.64 L 175.57 233.82" /><path d="M 175.66 233.37 L 175.66 233.55" /><path d="M 175.66 233.37 L 175.75 233.11" /><path d="M 175.57 233.82 L 175.48 233.9 L 175.48 233.99" /><path d="M 175.57 233.82 L 175.48 233.99" /><path d="M 175.57 233.82 L 175.66 233.73 L 175.66 233.55" /><path d="M 175.57 233.82 L 175.66 233.55" /><path d="M 175.48 233.99 L 175.31 234.17" /><path d="M 175.48 233.99 L 175.39 234.08 L 175.31 234.26 L 175.13 234.35 L 175.04 234.44" /><path d="M 175.31 234.17 L 175.13 234.26 L 175.04 234.44" /><path d="M 175.31 234.17 L 175.22 234.26 L 175.04 234.35 L 174.95 234.52" /><path d="M 175.04 234.44 L 174.86 234.52 L 174.69 234.7" /><path d="M 175.04 234.44 L 174.95 234.52" /><path d="M 174.69 234.7 L 174.51 234.88" /><path d="M 174.69 234.7 L 174.6 234.79 L 174.51 234.88" /><path d="M 174.69 234.7 L 174.86 234.61 L 174.95 234.52" /><path d="M 174.69 234.7 L 174.77 234.61 L 174.95 234.52" /><path d="M 174.51 234.88 L 174.42 234.97" /><path d="M 174.51 234.88 L 174.42 234.88 L 174.24 235.06" /><path d="M 174.42 234.97 L 174.24 235.14 L 174.07 235.23" /><path d="M 174.42 234.97 L 174.24 235.06" /><path d="M 174.42 234.97 L 174.33 235.06 L 174.24 235.06" /><path d="M 174.07 235.23 L 173.98 235.41" /><path d="M 174.07 235.23 L 174.16 235.14 L 174.24 235.06" /><path d="M 174.07 235.23 L 173.98 235.32 L 173.89 235.5" /><path d="M 173.98 235.41 L 173.89 235.5" /><path d="M 173.98 235.41 L 173.89 235.59" /><path d="M 173.98 235.41 L 174.07 235.32 L 174.16 235.23" /><path d="M 173.98 235.41 L 174.16 235.23" /><path d="M 173.89 235.5 L 173.8 235.59 L 173.71 235.76" /><path d="M 173.71 235.76 L 173.71 235.94 L 173.71 236.12 L 173.71 236.3 L 173.71 236.38" /><path d="M 173.71 235.76 L 173.62 235.85" /><path d="M 173.71 235.76 L 173.89 235.59" /><path d="M 173.71 236.38 L 173.8 236.56" /><path d="M 173.71 236.38 L 173.71 236.21 L 173.71 236.03 L 173.71 235.85 L 173.8 235.68 L 173.89 235.59" /><path d="M 173.8 236.56 L 173.8 236.83 L 173.89 236.91 L 173.89 237.09 L 173.98 237.18" /><path d="M 173.8 236.56 L 173.8 236.74 L 173.89 236.83 L 173.89 237 L 173.98 237.18" /><path d="M 173.98 237.18 L 173.98 237.36 L 174.07 237.53 L 174.16 237.71 L 174.24 237.89 L 174.33 237.98" /><path d="M 173.98 237.18 L 174.07 237.45 L 174.07 237.62 L 174.16 237.8 L 174.33 237.98" /><path d="M 174.33 237.98 L 174.42 238.15 L 174.51 238.24" /><path d="M 174.33 237.98 L 174.42 238.07 L 174.51 238.24" /><path d="M 174.51 238.24 L 174.69 238.42 L 174.77 238.51 L 174.86 238.69 L 174.95 238.77" /><path d="M 174.95 238.77 L 175.04 238.95 L 175.22 239.04 L 175.31 239.22" /><path d="M 174.95 238.77 L 175.13 238.95 L 175.22 239.13 L 175.31 239.22" /><path d="M 175.31 239.22 L 175.39 239.31 L 175.39 239.48" /><path d="M 175.39 239.48 L 175.48 239.66 L 175.57 239.93 L 175.66 240.1 L 175.75 240.37" /><path d="M 175.39 239.48 L 175.48 239.57 L 175.57 239.75 L 175.66 240.01 L 175.66 240.19 L 175.75 240.37" /><path d="M 175.75 240.37 L 175.84 240.46 L 175.84 240.63 L 175.93 240.81 L 176.01 240.9" /><path d="M 175.75 240.37 L 175.84 240.55 L 175.93 240.72 L 176.01 240.9" /><path d="M 176.01 240.9 L 176.1 241.17 L 176.19 241.34" /><path d="M 176.01 240.9 L 176.1 241.08 L 176.19 241.17 L 176.19 241.34" /><path d="M 176.19 241.34 L 176.37 241.61 L 176.46 241.79" /><path d="M 176.19 241.34 L 176.28 241.43 L 176.37 241.52 L 176.37 241.7 L 176.46 241.79" /><path d="M 176.46 241.79 L 176.55 241.96" /><path d="M 176.55 241.96 L 176.63 242.14 L 176.72 242.41 L 176.72 242.58 L 176.81 242.76 L 176.9 242.94" /><path d="M 176.55 241.96 L 176.55 242.05 L 176.63 242.23 L 176.72 242.32 L 176.72 242.49 L 176.81 242.67 L 176.81 242.85 L 176.9 242.94" /><path d="M 176.9 242.94 L 176.9 243.11" /><path d="M 176.9 243.11 L 176.9 243.29 L 176.99 243.47 L 176.99 243.65 L 176.99 243.82 L 177.08 244.09" /><path d="M 176.9 243.11 L 176.9 243.2 L 176.99 243.38 L 176.99 243.56 L 176.99 243.73 L 177.08 243.91 L 177.08 244.09" /><path d="M 177.08 244.09 L 177.17 244.27 L 177.17 244.44 L 177.25 244.62" /><path d="M 177.25 244.62 L 177.34 244.89 L 177.43 244.97 L 177.52 245.15 L 177.61 245.33" /><path d="M 177.25 244.62 L 177.34 244.71 L 177.34 244.8 L 177.43 244.89 L 177.52 245.06 L 177.52 245.24 L 177.61 245.33" /><path d="M 177.61 245.33 L 177.7 245.51 L 177.79 245.59" /><path d="M 177.79 245.59 L 177.87 245.77 L 177.96 245.95 L 178.05 246.13" /><path d="M 177.79 245.59 L 177.79 245.77 L 177.87 245.86 L 177.96 246.04 L 178.05 246.13" /><path d="M 178.05 246.13 L 178.05 246.21 L 178.14 246.39 L 178.23 246.57" /><path d="M 178.05 246.13 L 178.05 246.3 L 178.14 246.48 L 178.23 246.57" /><path d="M 178.23 246.57 L 178.23 246.66 L 178.32 246.92 L 178.41 247.1" /><path d="M 178.23 246.57 L 178.32 246.75 L 178.32 247.01 L 178.41 247.1" /><path d="M 178.41 247.1 L 178.41 247.28 L 178.41 247.37" /><path d="M 178.41 247.37 L 178.49 247.54 L 178.49 247.63" /><path d="M 178.41 247.37 L 178.49 247.45 L 178.49 247.63" /><path d="M 178.49 247.63 L 178.49 247.9" /><path d="M 178.49 247.63 L 178.49 247.72 L 178.49 247.9" /><path d="M 178.49 247.9 L 178.49 248.07 L 178.58 248.25" /><path d="M 178.49 247.9 L 178.49 247.98 L 178.58 248.16 L 178.58 248.25" /><path d="M 178.58 248.25 L 178.58 248.52" /><path d="M 178.58 248.25 L 178.58 248.43 L 178.58 248.52" /><path d="M 178.58 248.52 L 178.58 248.6 L 178.58 248.78" /><path d="M 178.58 248.52 L 178.58 248.69 L 178.58 248.78" /><path d="M 178.58 248.78 L 178.58 248.96 L 178.67 249.05" /><path d="M 178.58 248.78 L 178.67 248.96 L 178.67 249.05" /><path d="M 178.67 249.05 L 178.67 249.22 L 178.67 249.31 L 178.67 249.49" /><path d="M 178.67 249.49 L 178.67 249.67 L 178.76 249.84" /><path d="M 178.67 249.49 L 178.76 249.67 L 178.76 249.84" /><path d="M 178.76 249.84 L 178.76 250.02 L 178.85 250.11" /><path d="M 178.76 249.84 L 178.76 249.93 L 178.85 250.11" /><path d="M 178.85 250.11 L 178.85 250.29" /><path d="M 178.85 250.29 L 178.94 250.46 L 178.94 250.64 L 179.03 250.73" /><path d="M 178.85 250.29 L 178.94 250.38 L 178.94 250.55 L 179.03 250.73" /><path d="M 179.03 250.73 L 179.03 250.91 L 179.11 251" /><path d="M 179.11 251 L 179.11 251.17 L 179.2 251.35" /><path d="M 179.11 251 L 179.2 251.17 L 179.2 251.35" /><path d="M 179.2 251.35 L 179.2 251.53 L 179.2 251.7" /><path d="M 179.2 251.7 L 179.2 251.97 L 179.11 252.24" /><path d="M 179.2 251.7 L 179.2 251.79 L 179.2 252.06 L 179.11 252.24" /><path d="M 179.11 252.24 L 179.03 252.41 L 179.03 252.68" /><path d="M 179.11 252.24 L 179.11 252.41 L 179.03 252.68" /><path d="M 179.03 252.68 L 178.94 252.94 L 178.94 253.12" /><path d="M 179.03 252.68 L 178.94 252.86 L 178.94 253.12" /><path d="M 178.94 253.12 L 178.94 253.3 L 178.94 253.48" /><path d="M 178.94 253.48 L 178.94 253.74" /><path d="M 178.94 253.48 L 178.94 253.65 L 178.94 253.74" /><path d="M 178.94 253.74 L 178.94 254.01 L 179.03 254.27 L 179.03 254.45" /><path d="M 178.94 253.74 L 178.94 253.92 L 179.03 254.01 L 179.03 254.18 L 179.03 254.36 L 179.03 254.45" /><path d="M 179.03 254.45 L 179.03 254.72" /><path d="M 179.03 254.45 L 179.03 254.63 L 179.03 254.72" /><path d="M 179.03 254.72 L 179.03 254.98" /><path d="M 179.03 254.72 L 179.03 254.89 L 179.03 254.98" /><path d="M 179.03 254.98 L 179.11 255.25" /><path d="M 179.03 254.98 L 179.03 255.16 L 179.11 255.25" /><path d="M 179.11 255.25 L 179.11 255.42" /><path d="M 179.11 255.42 L 179.11 255.6 L 179.11 255.78 L 179.03 255.96 L 179.03 256.13 L 179.03 256.4 L 179.03 256.58 L 179.03 256.75 L 179.03 256.93" /><path d="M 179.11 255.42 L 179.11 255.51 L 179.11 255.69 L 179.03 255.87 L 179.03 256.04 L 179.03 256.22 L 179.03 256.49 L 179.03 256.66 L 179.03 256.93" /><path d="M 179.03 256.93 L 179.03 257.02 L 179.03 257.2 L 179.11 257.37" /><path d="M 179.11 257.37 L 179.11 257.55 L 179.2 257.73 L 179.29 257.82" /><path d="M 179.11 257.37 L 179.2 257.64 L 179.29 257.82" /><path d="M 179.29 257.82 L 179.38 257.99 L 179.47 258.17 L 179.56 258.35" /><path d="M 179.56 258.35 L 179.65 258.52" /><path d="M 179.56 258.35 L 179.65 258.44 L 179.65 258.52" /><path d="M 179.65 258.52 L 179.73 258.7 L 179.82 258.79" /><path d="M 179.65 258.52 L 179.73 258.61 L 179.82 258.79" /><path d="M 179.82 258.79 L 179.91 258.97" /><path d="M 179.91 258.97 L 179.91 259.23 L 180 259.41 L 180 259.59 L 180 259.76 L 179.91 259.94" /><path d="M 179.91 258.97 L 179.91 259.14 L 179.91 259.32 L 180 259.5 L 180 259.67 L 179.91 259.85 L 179.91 259.94" /><path d="M 179.91 259.94 L 179.91 260.03 L 179.91 260.21" /><path d="M 179.91 259.94 L 179.91 260.12 L 179.91 260.21" /><path d="M 179.91 260.21 L 179.91 260.38" /><path d="M 179.91 260.38 L 179.91 260.65" /><path d="M 179.91 260.38 L 179.91 260.56 L 179.91 260.65" /><path d="M 179.91 260.65 L 179.82 260.83 L 179.73 261 L 179.73 261.18" /><path d="M 179.91 260.65 L 179.82 260.91 L 179.82 261.09 L 179.73 261.18" /><path d="M 179.73 261.18 L 179.65 261.36" /><path d="M 179.65 261.36 L 179.47 261.53" /><path d="M 179.65 261.36 L 179.56 261.45 L 179.47 261.53" /><path d="M 179.47 261.53 L 179.29 261.62 L 179.2 261.8 L 179.03 261.98 L 178.94 262.07 L 178.85 262.15" /><path d="M 179.47 261.53 L 179.38 261.62 L 179.29 261.71 L 179.2 261.71 L 179.11 261.8 L 179.03 261.89 L 178.94 261.98 L 178.85 262.15" /><path d="M 178.85 262.15 L 178.67 262.24 L 178.58 262.33 L 178.49 262.42" /><path d="M 178.85 262.15 L 178.67 262.33 L 178.49 262.42" /><path d="M 178.49 262.42 L 178.41 262.51 L 178.32 262.6 L 178.23 262.77" /><path d="M 178.49 262.42 L 178.41 262.6 L 178.32 262.69 L 178.23 262.77" /><path d="M 178.23 262.77 L 178.14 262.86 L 178.05 262.95 L 177.96 263.13" /><path d="M 177.96 263.13 L 177.87 263.22 L 177.79 263.48" /><path d="M 177.96 263.13 L 177.87 263.31 L 177.79 263.48" /><path d="M 177.79 263.48 L 177.61 263.66 L 177.52 263.75 L 177.43 263.93 L 177.34 264.1" /><path d="M 177.79 263.48 L 177.7 263.66 L 177.61 263.75 L 177.52 263.84 L 177.43 264.01 L 177.34 264.1" /><path d="M 177.34 264.1 L 177.25 264.19 L 177.17 264.28 L 177.08 264.37 L 176.99 264.46 L 176.81 264.63 L 176.72 264.72" /><path d="M 176.72 264.72 L 176.63 264.81 L 176.55 264.9" /><path d="M 176.72 264.72 L 176.55 264.9" /><path d="M 176.55 264.9 L 176.46 264.99 L 176.37 265.08 L 176.28 265.25 L 176.28 265.34 L 176.19 265.43" /><path d="M 176.55 264.9 L 176.46 265.08 L 176.37 265.25 L 176.19 265.43" /><path d="M 176.19 265.43 L 176.1 265.61 L 176.01 265.7 L 176.01 265.87" /><path d="M 176.19 265.43 L 176.19 265.52 L 176.1 265.7 L 176.01 265.87" /><path d="M 176.01 265.87 L 175.93 265.96" /><path d="M 175.93 265.96 L 175.84 266.23 L 175.84 266.41 L 175.75 266.67" /><path d="M 175.93 265.96 L 175.93 266.14 L 175.84 266.32 L 175.84 266.49 L 175.75 266.67" /><path d="M 175.75 266.67 L 175.75 266.76 L 175.66 266.94" /><path d="M 175.66 266.94 L 175.66 267.03 L 175.48 267.2 L 175.39 267.38" /><path d="M 175.66 266.94 L 175.57 267.11 L 175.57 267.2 L 175.48 267.29 L 175.39 267.38" /><path d="M 175.39 267.38 L 175.31 267.47 L 175.31 267.65 L 175.22 267.73" /><path d="M 175.39 267.38 L 175.31 267.56 L 175.22 267.65 L 175.22 267.73" /><path d="M 175.22 267.73 L 175.13 267.82 L 175.04 268 L 174.95 268.09 L 174.86 268.27" /><path d="M 174.86 268.27 L 174.77 268.44 L 174.6 268.53 L 174.51 268.71 L 174.42 268.89" /><path d="M 174.86 268.27 L 174.77 268.35 L 174.69 268.53 L 174.6 268.62 L 174.51 268.8 L 174.42 268.89" /><path d="M 174.42 268.89 L 174.33 268.97 L 174.24 269.15" /><path d="M 174.42 268.89 L 174.33 269.06 L 174.24 269.15" /><path d="M 174.24 269.15 L 174.16 269.33 L 174.07 269.51 L 173.98 269.59" /><path d="M 173.98 269.59 L 173.8 269.77 L 173.71 269.95 L 173.62 270.12" /><path d="M 173.98 269.59 L 173.89 269.77 L 173.8 269.86 L 173.71 270.04 L 173.62 270.12" /><path d="M 173.62 270.12 L 173.54 270.21 L 173.45 270.39" /><path d="M 173.62 270.12 L 173.54 270.3 L 173.45 270.39" /><path d="M 173.45 270.39 L 173.36 270.57 L 173.27 270.66" /><path d="M 173.45 270.39 L 173.36 270.48 L 173.27 270.66" /><path d="M 173.27 270.66 L 173.18 270.83" /><path d="M 173.27 270.66 L 173.27 270.74 L 173.18 270.83" /><path d="M 173.18 270.83 L 173.09 270.92 L 173 271.1" /><path d="M 173 271.1 L 172.92 271.19 L 172.92 271.36 L 172.83 271.45" /><path d="M 173 271.1 L 172.92 271.28 L 172.83 271.45" /><path d="M 172.83 271.45 L 172.74 271.63 L 172.65 271.81" /><path d="M 172.65 271.81 L 172.56 271.9 L 172.47 272.07 L 172.38 272.16 L 172.3 272.34" /><path d="M 172.65 271.81 L 172.56 271.98 L 172.47 272.16 L 172.3 272.34" /><path d="M 172.3 272.34 L 172.21 272.43 L 172.12 272.6" /><path d="M 172.3 272.34 L 172.21 272.52 L 172.12 272.6" /><path d="M 172.12 272.6 L 172.03 272.78" /><path d="M 172.12 272.6 L 172.12 272.69 L 172.03 272.78" /><path d="M 172.03 272.78 L 171.94 272.87 L 171.85 273.05 L 171.76 273.14 L 171.59 273.22" /><path d="M 172.03 272.78 L 171.94 272.96 L 171.76 273.05 L 171.68 273.14 L 171.59 273.22" /><path d="M 171.59 273.22 L 171.41 273.31" /><path d="M 171.41 273.31 L 171.23 273.31 L 171.14 273.4 L 171.06 273.49" /><path d="M 171.41 273.31 L 171.23 273.4 L 171.06 273.49" /><path d="M 171.06 273.49 L 170.97 273.49 L 170.88 273.58 L 170.79 273.67 L 170.7 273.76 L 170.61 273.76" /><path d="M 171.06 273.49 L 170.97 273.58 L 170.88 273.67 L 170.7 273.67 L 170.61 273.76" /><path d="M 170.61 273.76 L 170.44 273.84 L 170.35 273.93 L 170.26 273.93 L 170.17 273.93 L 169.99 273.93" /><path d="M 170.61 273.76 L 170.52 273.84 L 170.35 273.84 L 170.26 273.84 L 170.08 273.93 L 169.99 273.93" /><path d="M 169.99 273.93 L 169.9 273.93 L 169.82 274.02 L 169.73 274.02" /><path d="M 169.99 273.93 L 169.82 273.93 L 169.73 274.02" /><path d="M 169.73 274.02 L 169.55 274.02 L 169.46 274.02" /><path d="M 169.46 274.02 L 169.37 274.11 L 169.28 274.11" /><path d="M 169.46 274.02 L 169.28 274.11" /><path d="M 169.28 274.11 L 169.11 274.11 L 169.02 274.11 L 168.84 274.2" /><path d="M 168.84 274.2 L 168.75 274.2 L 168.58 274.2" /><path d="M 168.84 274.2 L 168.66 274.2 L 168.58 274.2" /><path d="M 168.58 274.2 L 168.49 274.11 L 168.31 274.02" /><path d="M 168.58 274.2 L 168.4 274.11 L 168.31 274.02" /><path d="M 168.31 274.02 L 168.22 273.93 L 168.04 273.84" /><path d="M 168.31 274.02 L 168.13 273.93 L 168.04 273.84" /><path d="M 168.04 273.84 L 167.96 273.76 L 167.87 273.76" /><path d="M 168.04 273.84 L 167.87 273.76" /><path d="M 167.87 273.76 L 167.69 273.76 L 167.51 273.84" /><path d="M 167.87 273.76 L 167.78 273.76 L 167.6 273.76 L 167.51 273.84" /><path d="M 167.51 273.84 L 167.42 273.93 L 167.34 274.02" /><path d="M 167.51 273.84 L 167.34 274.02" /><path d="M 167.34 274.02 L 167.25 274.11 L 167.16 274.2 L 167.07 274.38" /><path d="M 167.34 274.02 L 167.25 274.2 L 167.16 274.29 L 167.07 274.46" /><path d="M 167.07 274.38 L 166.98 274.46 L 166.98 274.55" /><path d="M 167.07 274.38 L 167.07 274.2" /><path d="M 167.07 274.38 L 166.98 274.55" /><path d="M 166.98 274.55 L 166.89 274.73 L 166.8 274.82" /><path d="M 166.98 274.55 L 167.07 274.46" /><path d="M 166.98 274.55 L 166.89 274.64" /><path d="M 166.8 274.82 L 166.72 274.91" /><path d="M 166.8 274.82 L 166.63 275 L 166.54 275.08 L 166.45 275.26" /><path d="M 166.8 274.82 L 166.89 274.64" /><path d="M 166.72 274.91 L 166.63 275.08" /><path d="M 166.72 274.91 L 166.8 274.73 L 166.89 274.64" /><path d="M 166.63 275.08 L 166.54 275.17" /><path d="M 166.63 275.08 L 166.45 275.26" /><path d="M 166.54 275.17 L 166.45 275.26" /><path d="M 166.54 275.17 L 166.45 275.35 L 166.45 275.44" /><path d="M 166.45 275.26 L 166.45 275.44" /><path d="M 166.45 275.44 L 166.36 275.62" /><path d="M 166.45 275.44 L 166.36 275.7" /><path d="M 166.36 275.62 L 166.36 275.79 L 166.36 276.06" /><path d="M 166.36 275.62 L 166.36 275.7" /><path d="M 166.36 276.06 L 166.27 276.24 L 166.27 276.41 L 166.18 276.59 L 166.18 276.77" /><path d="M 166.36 276.06 L 166.27 276.32" /><path d="M 166.36 276.06 L 166.36 275.88" /><path d="M 166.36 276.06 L 166.36 276.24 L 166.27 276.32" /><path d="M 166.18 276.77 L 166.18 277.03" /><path d="M 166.18 276.77 L 166.18 276.94" /><path d="M 166.18 276.77 L 166.27 276.59" /><path d="M 166.18 277.03 L 166.1 277.21" /><path d="M 166.18 277.03 L 166.18 276.94" /><path d="M 166.1 277.21 L 166.1 277.39 L 166.01 277.56 L 166.01 277.74" /><path d="M 166.1 277.21 L 166.1 277.3" /><path d="M 166.01 277.74 L 166.01 277.92" /><path d="M 166.01 277.74 L 166.01 277.65" /><path d="M 166.01 277.92 L 165.92 278.18 L 165.92 278.36" /><path d="M 166.01 277.92 L 166.01 278.1 L 166.01 278.18 L 166.01 278.36 L 166.01 278.54 L 166.01 278.63" /><path d="M 166.01 277.92 L 165.92 278.1" /><path d="M 165.92 278.36 L 165.92 278.54 L 165.92 278.72 L 166.01 278.89 L 166.01 279.07" /><path d="M 165.92 278.36 L 166.01 278.63" /><path d="M 165.92 278.36 L 165.92 278.1" /><path d="M 166.01 279.07 L 166.01 279.16" /><path d="M 166.01 279.07 L 166.01 279.25 L 166.01 279.42" /><path d="M 166.01 279.07 L 166.01 278.8" /><path d="M 166.01 279.16 L 166.01 279.42" /><path d="M 166.01 279.16 L 166.01 279.34" /><path d="M 166.01 279.16 L 166.01 278.98 L 166.01 278.8" /><path d="M 166.01 279.42 L 166.01 279.6" /><path d="M 166.01 279.42 L 166.1 279.69" /><path d="M 166.01 279.42 L 166.01 279.34" /><path d="M 166.01 279.6 L 166.1 279.87" /><path d="M 166.01 279.6 L 166.01 279.69 L 166.1 279.87" /><path d="M 166.1 279.87 L 166.1 280.13" /><path d="M 166.1 279.87 L 166.1 280.04" /><path d="M 166.1 279.87 L 166.1 279.69" /><path d="M 166.1 279.87 L 166.1 279.96" /><path d="M 166.1 280.13 L 166.1 280.31" /><path d="M 166.1 280.13 L 166.1 279.96" /><path d="M 166.1 280.13 L 166.1 280.22" /><path d="M 166.1 280.31 L 166.18 280.58" /><path d="M 166.1 280.31 L 166.1 280.49 L 166.18 280.66" /><path d="M 166.18 280.58 L 166.18 280.75" /><path d="M 166.18 280.58 L 166.27 280.84 L 166.27 281.02" /><path d="M 166.18 280.58 L 166.18 280.4 L 166.1 280.22" /><path d="M 166.18 280.75 L 166.27 280.93 L 166.27 281.19" /><path d="M 166.18 280.75 L 166.18 280.66" /><path d="M 166.18 280.75 L 166.27 281.02" /><path d="M 166.18 280.75 L 166.18 280.93 L 166.27 281.11" /><path d="M 166.27 281.19 L 166.36 281.37" /><path d="M 166.27 281.19 L 166.27 281.11" /><path d="M 166.27 281.19 L 166.27 281.37 L 166.36 281.55" /><path d="M 166.36 281.37 L 166.36 281.55" /><path d="M 166.36 281.37 L 166.36 281.28 L 166.27 281.11" /><path d="M 166.36 281.55 L 166.36 281.73" /><path d="M 166.36 281.55 L 166.45 281.64 L 166.45 281.81" /><path d="M 166.36 281.73 L 166.45 281.9" /><path d="M 166.36 281.73 L 166.36 281.46 L 166.27 281.28 L 166.27 281.02" /><path d="M 166.36 281.73 L 166.45 281.81" /><path d="M 166.45 281.9 L 166.45 282.08" /><path d="M 166.45 281.9 L 166.45 281.81" /><path d="M 166.45 281.9 L 166.45 282.17" /><path d="M 166.45 282.08 L 166.54 282.26" /><path d="M 166.45 282.08 L 166.54 282.17" /><path d="M 166.54 282.26 L 166.54 282.43" /><path d="M 166.54 282.26 L 166.45 282.17" /><path d="M 166.54 282.43 L 166.54 282.52 L 166.54 282.7" /><path d="M 166.54 282.43 L 166.63 282.61" /><path d="M 166.54 282.43 L 166.54 282.17" /><path d="M 166.54 282.43 L 166.54 282.61" /><path d="M 166.54 282.7 L 166.63 282.88" /><path d="M 166.54 282.7 L 166.63 282.79" /><path d="M 166.63 282.88 L 166.63 282.97" /><path d="M 166.63 282.88 L 166.63 283.05" /><path d="M 166.63 282.88 L 166.63 282.7 L 166.63 282.61" /><path d="M 166.63 282.88 L 166.63 282.79" /><path d="M 166.63 282.88 L 166.63 283.14" /><path d="M 166.63 282.88 L 166.63 282.61" /><path d="M 166.63 282.97 L 166.63 283.14" /><path d="M 166.63 282.97 L 166.63 282.79" /><path d="M 166.63 283.14 L 166.54 283.41" /><path d="M 166.63 283.14 L 166.63 283.32" /><path d="M 166.63 283.14 L 166.63 283.05" /><path d="M 166.63 283.14 L 166.63 283.23" /><path d="M 166.63 283.14 L 166.63 283.41" /><path d="M 166.54 283.41 L 166.54 283.5" /><path d="M 166.54 283.41 L 166.45 283.67" /><path d="M 166.54 283.41 L 166.63 283.23" /><path d="M 166.54 283.5 L 166.45 283.67" /><path d="M 166.54 283.5 L 166.63 283.32" /><path d="M 166.45 283.67 L 166.36 283.76 L 166.36 283.85" /><path d="M 166.45 283.67 L 166.36 283.85" /><path d="M 166.36 283.85 L 166.27 284.03" /><path d="M 166.36 283.85 L 166.18 284.12 L 166.1 284.29 L 166.01 284.47" /><path d="M 166.27 284.03 L 166.1 284.21 L 166.01 284.38" /><path d="M 166.27 284.03 L 166.18 284.21 L 166.01 284.38" /><path d="M 166.01 284.38 L 166.01 284.47" /><path d="M 166.01 284.38 L 165.92 284.56" /><path d="M 166.01 284.47 L 165.92 284.56" /><path d="M 165.92 284.56 L 165.74 284.65 L 165.65 284.83" /><path d="M 165.92 284.56 L 165.74 284.74 L 165.56 284.91" /><path d="M 165.92 284.56 L 165.83 284.65 L 165.65 284.83" /><path d="M 165.65 284.83 L 165.48 284.91" /><path d="M 165.65 284.83 L 165.56 284.91" /><path d="M 165.48 284.91 L 165.39 285 L 165.3 285.18 L 165.12 285.27" /><path d="M 165.48 284.91 L 165.48 285" /><path d="M 165.48 284.91 L 165.56 284.91" /><path d="M 165.12 285.27 L 165.03 285.27 L 164.94 285.36" /><path d="M 165.12 285.27 L 164.94 285.36" /><path d="M 165.12 285.27 L 165.21 285.18 L 165.39 285.09 L 165.48 285" /><path d="M 164.94 285.36 L 164.77 285.45" /><path d="M 164.94 285.36 L 164.86 285.36 L 164.77 285.45" /><path d="M 164.77 285.45 L 164.59 285.53 L 164.5 285.53" /><path d="M 164.77 285.45 L 164.68 285.53 L 164.5 285.53" /><path d="M 164.77 285.45 L 164.59 285.45 L 164.5 285.53" /><path d="M 164.5 285.53 L 164.32 285.62" /><path d="M 164.32 285.62 L 164.24 285.62" /><path d="M 164.32 285.62 L 164.15 285.62" /><path d="M 164.24 285.62 L 164.15 285.62" /><path d="M 164.24 285.62 L 164.06 285.62 L 163.97 285.71" /><path d="M 164.15 285.62 L 164.06 285.71 L 163.88 285.71 L 163.79 285.71" /><path d="M 164.15 285.62 L 163.97 285.71" /><path d="M 163.79 285.71 L 163.7 285.8" /><path d="M 163.79 285.71 L 163.62 285.8" /><path d="M 163.79 285.71 L 163.97 285.71" /><path d="M 163.7 285.8 L 163.62 285.8" /><path d="M 163.7 285.8 L 163.53 285.8 L 163.44 285.8" /><path d="M 163.62 285.8 L 163.44 285.8" /><path d="M 163.44 285.8 L 163.35 285.8 L 163.26 285.89" /><path d="M 163.44 285.8 L 163.26 285.89" /><path d="M 163.44 285.8 L 163.35 285.89 L 163.26 285.89" /><path d="M 163.26 285.89 L 163.17 285.89 L 163 285.89 L 162.91 285.98" /><path d="M 163.26 285.89 L 163.09 285.89" /><path d="M 162.91 285.98 L 162.82 285.98 L 162.73 285.98" /><path d="M 162.91 285.98 L 162.73 285.98" /><path d="M 162.91 285.98 L 163.09 285.89" /><path d="M 162.91 285.98 L 163 285.98 L 163.09 285.89" /><path d="M 162.73 285.98 L 162.55 286.07" /><path d="M 162.55 286.07 L 162.47 286.07" /><path d="M 162.55 286.07 L 162.38 286.07" /><path d="M 162.47 286.07 L 162.38 286.07" /><path d="M 162.47 286.07 L 162.29 286.15" /><path d="M 162.38 286.07 L 162.2 286.15" /><path d="M 162.38 286.07 L 162.29 286.15" /><path d="M 162.2 286.15 L 162.11 286.15" /><path d="M 162.2 286.15 L 162.11 286.24 L 162.02 286.24" /><path d="M 162.2 286.15 L 162.29 286.15" /><path d="M 162.11 286.15 L 162.02 286.24" /><path d="M 162.11 286.15 L 162.29 286.15" /><path d="M 162.11 286.15 L 161.93 286.24 L 161.85 286.24" /><path d="M 162.02 286.24 L 161.85 286.24" /><path d="M 162.02 286.24 L 161.85 286.33 L 161.76 286.33" /><path d="M 161.85 286.24 L 161.76 286.33" /><path d="M 161.85 286.24 L 161.67 286.33" /><path d="M 161.76 286.33 L 161.58 286.42" /><path d="M 161.76 286.33 L 161.67 286.33" /><path d="M 161.58 286.42 L 161.49 286.51 L 161.31 286.6" /><path d="M 161.58 286.42 L 161.4 286.51" /><path d="M 161.58 286.42 L 161.67 286.33" /><path d="M 161.58 286.42 L 161.49 286.42 L 161.4 286.51" /><path d="M 161.31 286.6 L 161.14 286.69 L 161.05 286.86" /><path d="M 161.31 286.6 L 161.14 286.77 L 161.05 286.86" /><path d="M 161.31 286.6 L 161.4 286.51" /><path d="M 161.05 286.86 L 160.87 286.95" /><path d="M 160.87 286.95 L 160.78 287.04 L 160.61 287.22" /><path d="M 160.87 286.95 L 160.78 287.13 L 160.61 287.22" /><path d="M 160.61 287.22 L 160.52 287.31" /><path d="M 160.61 287.22 L 160.43 287.39" /><path d="M 160.52 287.31 L 160.43 287.39" /><path d="M 160.52 287.31 L 160.34 287.48" /><path d="M 160.43 287.39 L 160.25 287.48 L 160.16 287.66 L 160.07 287.75" /><path d="M 160.43 287.39 L 160.34 287.48" /><path d="M 160.07 287.75 L 159.99 287.84" /><path d="M 160.07 287.75 L 160.25 287.57" /><path d="M 159.99 287.84 L 159.81 288.01" /><path d="M 159.99 287.84 L 159.9 287.93 L 159.81 288.01" /><path d="M 159.99 287.84 L 160.07 287.66 L 160.25 287.57" /><path d="M 159.99 287.84 L 159.81 287.93 L 159.72 288.1" /><path d="M 159.81 288.01 L 159.72 288.1" /><path d="M 159.72 288.1 L 159.63 288.28 L 159.45 288.37" /><path d="M 159.72 288.1 L 159.63 288.19" /><path d="M 159.45 288.37 L 159.37 288.55" /><path d="M 159.45 288.37 L 159.63 288.19" /><path d="M 159.37 288.55 L 159.19 288.63 L 159.1 288.81 L 159.01 289.08" /><path d="M 159.37 288.55 L 159.28 288.63" /><path d="M 159.01 289.08 L 158.92 289.25 L 158.92 289.43 L 158.83 289.52" /><path d="M 159.01 289.08 L 159.01 289.25 L 158.92 289.34" /><path d="M 159.01 289.08 L 159.1 288.9 L 159.19 288.81 L 159.28 288.63" /><path d="M 159.01 289.08 L 159.01 289.17 L 158.92 289.34" /><path d="M 158.83 289.52 L 158.83 289.61 L 158.75 289.79" /><path d="M 158.83 289.52 L 158.83 289.7 L 158.75 289.79" /><path d="M 158.83 289.52 L 158.92 289.34" /><path d="M 158.83 289.52 L 158.75 289.7 L 158.75 289.87" /><path d="M 158.75 289.79 L 158.75 289.87" /><path d="M 158.75 289.79 L 158.75 289.96" /><path d="M 158.75 289.87 L 158.66 290.05 L 158.66 290.14" /><path d="M 158.75 289.87 L 158.75 289.96" /><path d="M 158.66 290.14 L 158.66 290.32 L 158.57 290.41" /><path d="M 158.66 290.14 L 158.75 290.05 L 158.75 289.96" /><path d="M 158.66 290.14 L 158.75 289.96" /><path d="M 158.66 290.14 L 158.66 290.23 L 158.57 290.41" /><path d="M 158.57 290.41 L 158.57 290.58" /><path d="M 158.57 290.41 L 158.57 290.49 L 158.57 290.67" /><path d="M 158.57 290.58 L 158.48 290.67 L 158.48 290.85 L 158.48 290.94" /><path d="M 158.57 290.58 L 158.57 290.67" /><path d="M 158.48 290.94 L 158.39 291.11 L 158.39 291.2" /><path d="M 158.48 290.94 L 158.39 291.2" /><path d="M 158.48 290.94 L 158.48 290.76 L 158.57 290.67" /><path d="M 158.48 290.94 L 158.39 291.03 L 158.39 291.2" /><path d="M 158.39 291.2 L 158.3 291.38 L 158.3 291.47" /><path d="M 158.39 291.2 L 158.39 291.38 L 158.3 291.56" /><path d="M 158.39 291.2 L 158.39 291.29 L 158.3 291.47" /><path d="M 158.3 291.47 L 158.3 291.65 L 158.21 291.73" /><path d="M 158.3 291.47 L 158.3 291.56" /><path d="M 158.21 291.73 L 158.13 292" /><path d="M 158.21 291.73 L 158.3 291.56" /><path d="M 158.21 291.73 L 158.21 291.82 L 158.13 292.09" /><path d="M 158.13 292 L 158.13 292.18 L 158.04 292.26" /><path d="M 158.13 292 L 158.13 292.09" /><path d="M 158.04 292.26 L 157.95 292.44" /><path d="M 158.04 292.26 L 158.13 292.09" /><path d="M 157.95 292.44 L 157.86 292.53 L 157.68 292.62 L 157.59 292.53" /><path d="M 157.95 292.44 L 157.77 292.53" /><path d="M 157.59 292.53 L 157.42 292.53" /><path d="M 157.59 292.53 L 157.77 292.53" /><path d="M 157.42 292.53 L 157.33 292.53" /><path d="M 157.42 292.53 L 157.24 292.53" /><path d="M 157.33 292.53 L 157.15 292.53" /><path d="M 157.33 292.53 L 157.24 292.53" /><path d="M 157.15 292.53 L 156.97 292.53 L 156.89 292.62" /><path d="M 157.15 292.53 L 157.24 292.53" /><path d="M 157.15 292.53 L 157.06 292.53 L 156.89 292.53 L 156.8 292.62" /><path d="M 156.89 292.62 L 156.8 292.62" /><path d="M 156.89 292.62 L 156.71 292.62" /><path d="M 156.8 292.62 L 156.71 292.62" /><path d="M 156.8 292.62 L 156.62 292.62 L 156.44 292.71" /><path d="M 156.71 292.62 L 156.53 292.71 L 156.44 292.71" /><path d="M 156.44 292.71 L 156.27 292.8" /><path d="M 156.44 292.71 L 156.35 292.8" /><path d="M 156.44 292.71 L 156.35 292.71 L 156.27 292.8" /><path d="M 156.27 292.8 L 156.09 292.8 L 156.18 292.8 L 156.27 292.8" /><path d="M 157.77 292.53 L 157.86 292.44 L 157.95 292.35 L 158.04 292.18 L 158.13 292.09" /><path d="M 159.28 288.63 L 159.45 288.46 L 159.54 288.37 L 159.63 288.19" /><path d="M 160.25 287.57 L 160.34 287.48" /><path d="M 165.48 285 L 165.56 284.91" /><path d="M 166.63 283.23 L 166.63 283.05" /><path d="M 166.63 283.23 L 166.63 283.41" /><path d="M 166.63 282.61 L 166.63 282.52 L 166.54 282.35" /><path d="M 166.54 282.17 L 166.54 282.35" /><path d="M 166.54 282.35 L 166.45 282.17" /><path d="M 166.54 282.35 L 166.54 282.61" /><path d="M 166.45 281.81 L 166.45 281.99 L 166.45 282.17" /><path d="M 166.27 281.11 L 166.27 281.02" /><path d="M 166.1 280.22 L 166.1 280.04" /><path d="M 166.1 280.22 L 166.1 280.4 L 166.18 280.49 L 166.18 280.66" /><path d="M 166.1 280.04 L 166.1 279.96" /><path d="M 166.1 279.96 L 166.1 279.69" /><path d="M 166.1 279.69 L 166.01 279.51 L 166.01 279.34" /><path d="M 166.01 278.8 L 166.01 278.63" /><path d="M 166.01 278.8 L 165.92 278.63 L 165.92 278.45 L 165.92 278.27 L 165.92 278.1" /><path d="M 165.92 278.1 L 166.01 278.01 L 166.01 277.83 L 166.01 277.65" /><path d="M 166.01 277.65 L 166.1 277.48 L 166.1 277.3" /><path d="M 166.01 277.65 L 166.01 277.48 L 166.1 277.3" /><path d="M 166.1 277.3 L 166.18 277.12 L 166.18 276.86 L 166.27 276.59" /><path d="M 166.1 277.3 L 166.1 277.12 L 166.18 276.94" /><path d="M 166.27 276.59 L 166.27 276.32" /><path d="M 166.27 276.59 L 166.27 276.5" /><path d="M 166.27 276.32 L 166.27 276.5" /><path d="M 166.27 276.32 L 166.36 276.15 L 166.36 275.88" /><path d="M 166.36 275.88 L 166.36 275.7" /><path d="M 167.07 274.46 L 166.89 274.64" /><path d="M 167.07 274.46 L 167.07 274.2" /><path d="M 174.16 235.23 L 174.24 235.06" /><path d="M 175.93 231.16 L 176.01 230.98" /><path d="M 176.28 228.41 L 176.28 228.15" /><path d="M 176.28 228.15 L 176.37 227.97 L 176.37 227.7" /><path d="M 176.37 227.7 L 176.37 227.53" /><path d="M 176.37 227.53 L 176.37 227.26" /><path d="M 176.37 227.26 L 176.37 227.08 L 176.46 226.91" /><path d="M 176.46 226.91 L 176.46 226.64" /><path d="M 176.46 226.91 L 176.46 226.73 L 176.46 226.64" /><path d="M 176.46 226.64 L 176.46 226.46" /><path d="M 177.79 227.08 L 177.96 227.08" /><path d="M 178.49 226.73 L 178.58 226.64" /><path d="M 179.2 225.23 L 179.2 224.96 L 179.29 224.78" /><path d="M 180.18 220.27 L 180.09 220.18 L 180 220 L 179.91 219.82" /><path d="M 179.91 219.82 L 179.82 219.73" /><path d="M 179.82 219.73 L 179.73 219.65 L 179.65 219.65" /><path d="M 174.6 214.51 L 174.51 214.51 L 174.33 214.6" /><path d="M 174.6 214.51 L 174.42 214.6 L 174.33 214.6" /><path d="M 166.18 276.94 L 166.18 276.68 L 166.27 276.5" /><path d="M 167.07 274.2 L 167.07 274.11" /><path d="M 167.07 274.11 L 167.07 273.84 L 166.98 273.76" /><path d="M 167.07 274.11 L 167.07 273.93 L 166.98 273.76" /><path d="M 166.98 273.76 L 166.98 273.58 L 166.89 273.4 L 166.8 273.22" /><path d="M 166.98 273.76 L 166.89 273.58 L 166.89 273.49 L 166.8 273.4 L 166.8 273.22" /><path d="M 166.8 273.22 L 166.63 273.14" /><path d="M 166.63 273.14 L 166.63 273.05 L 166.54 272.96 L 166.45 272.87 L 166.36 272.78 L 166.27 272.69 L 166.18 272.6" /><path d="M 166.63 273.14 L 166.54 273.05 L 166.45 272.96 L 166.36 272.87 L 166.27 272.78 L 166.18 272.69 L 166.18 272.6" /><path d="M 166.18 272.6 L 166.1 272.43 L 165.92 272.34" /><path d="M 166.18 272.6 L 166.1 272.52 L 166.01 272.43 L 165.92 272.34" /><path d="M 165.92 272.34 L 165.83 272.25" /><path d="M 165.83 272.25 L 165.74 272.07 L 165.65 271.98 L 165.56 271.9" /><path d="M 165.83 272.25 L 165.74 272.16 L 165.65 272.07 L 165.56 271.9" /><path d="M 165.56 271.9 L 165.48 271.81 L 165.39 271.72 L 165.3 271.63" /><path d="M 165.56 271.9 L 165.48 271.72 L 165.3 271.63" /><path d="M 165.3 271.63 L 165.21 271.54 L 165.12 271.45 L 165.03 271.36" /><path d="M 165.03 271.36 L 164.94 271.28 L 164.77 271.19" /><path d="M 165.03 271.36 L 164.86 271.28 L 164.77 271.19" /><path d="M 164.77 271.19 L 164.68 271.1" /><path d="M 164.68 271.1 L 164.59 271.01 L 164.41 270.83" /><path d="M 164.68 271.1 L 164.5 271.01 L 164.41 270.83" /><path d="M 164.41 270.83 L 164.32 270.66" /><path d="M 164.41 270.83 L 164.32 270.74 L 164.32 270.66" /><path d="M 164.32 270.66 L 164.24 270.48 L 164.15 270.3 L 164.06 270.12 L 164.06 269.95 L 163.97 269.86 L 163.97 269.68 L 163.88 269.51" /><path d="M 164.32 270.66 L 164.24 270.57 L 164.15 270.39 L 164.15 270.21 L 164.06 270.04 L 163.97 269.77 L 163.88 269.59 L 163.88 269.51" /><path d="M 163.88 269.51 L 163.79 269.33" /><path d="M 163.79 269.33 L 163.79 269.15 L 163.7 269.06 L 163.62 268.89 L 163.62 268.8 L 163.53 268.71 L 163.44 268.53 L 163.35 268.44" /><path d="M 163.79 269.33 L 163.79 269.24 L 163.7 269.15 L 163.62 268.97 L 163.53 268.8 L 163.44 268.62 L 163.35 268.44" /><path d="M 163.35 268.44 L 163.26 268.27" /><path d="M 163.35 268.44 L 163.35 268.35 L 163.26 268.27" /><path d="M 163.26 268.27 L 163.17 268.09 L 163.09 267.91 L 162.91 267.73 L 162.82 267.56 L 162.64 267.38 L 162.55 267.29 L 162.38 267.11" /><path d="M 163.26 268.27 L 163.17 268.18 L 163.09 268.09 L 163 267.91 L 162.91 267.82 L 162.82 267.73 L 162.73 267.56 L 162.64 267.47 L 162.55 267.38 L 162.47 267.2 L 162.38 267.11" /><path d="M 162.38 267.11 L 162.2 266.94" /><path d="M 162.38 267.11 L 162.29 267.03 L 162.2 266.94" /><path d="M 162.2 266.94 L 162.11 266.76" /><path d="M 162.2 266.94 L 162.2 266.85 L 162.11 266.76" /><path d="M 162.11 266.76 L 162.02 266.58 L 161.85 266.41" /><path d="M 162.11 266.76 L 162.02 266.67 L 161.93 266.58 L 161.85 266.41" /><path d="M 161.85 266.41 L 161.76 266.32" /><path d="M 161.76 266.32 L 161.58 266.14" /><path d="M 161.76 266.32 L 161.67 266.23 L 161.58 266.14" /><path d="M 161.58 266.14 L 161.49 265.96" /><path d="M 161.58 266.14 L 161.49 266.05 L 161.49 265.96" /><path d="M 161.49 265.96 L 161.4 265.87" /><path d="M 161.4 265.87 L 161.23 265.7" /><path d="M 161.4 265.87 L 161.31 265.79 L 161.23 265.7" /><path d="M 161.23 265.7 L 161.14 265.52 L 161.05 265.43" /><path d="M 161.23 265.7 L 161.14 265.61 L 161.05 265.43" /><path d="M 161.05 265.43 L 160.96 265.25 L 160.87 265.08 L 160.87 264.99" /><path d="M 161.05 265.43 L 160.96 265.34 L 160.87 265.17 L 160.87 264.99" /><path d="M 160.87 264.99 L 160.78 264.81 L 160.69 264.63" /><path d="M 160.87 264.99 L 160.78 264.9 L 160.78 264.72 L 160.69 264.63" /><path d="M 160.69 264.63 L 160.69 264.46 L 160.61 264.28" /><path d="M 160.69 264.63 L 160.61 264.37 L 160.61 264.28" /><path d="M 160.61 264.28 L 160.52 264.01 L 160.34 263.84 L 160.25 263.66 L 160.25 263.57" /><path d="M 160.61 264.28 L 160.52 264.1 L 160.43 263.93 L 160.34 263.75 L 160.25 263.57" /><path d="M 160.25 263.57 L 160.16 263.39 L 160.16 263.22 L 160.16 263.04 L 160.16 262.86" /><path d="M 160.16 262.86 L 160.16 262.77 L 160.25 262.6 L 160.25 262.42 L 160.25 262.24 L 160.25 262.07 L 160.25 261.89" /><path d="M 160.16 262.86 L 160.16 262.69 L 160.16 262.51 L 160.16 262.33 L 160.25 262.15 L 160.25 261.89" /><path d="M 160.25 261.89 L 160.25 261.71 L 160.34 261.45 L 160.34 261.27" /><path d="M 160.34 261.27 L 160.43 261.09 L 160.43 260.83" /><path d="M 160.34 261.27 L 160.34 261.09 L 160.43 260.83" /><path d="M 160.43 260.83 L 160.43 260.65" /><path d="M 160.43 260.65 L 160.52 260.38 L 160.52 260.21" /><path d="M 160.43 260.65 L 160.43 260.38 L 160.52 260.21" /><path d="M 160.52 260.21 L 160.52 260.03 L 160.61 259.76 L 160.61 259.59" /><path d="M 160.52 260.21 L 160.52 259.94 L 160.52 259.76 L 160.61 259.59" /><path d="M 160.61 259.59 L 160.61 259.41 L 160.69 259.14 L 160.69 258.97 L 160.69 258.7" /><path d="M 160.61 259.59 L 160.61 259.32 L 160.61 259.14 L 160.69 258.88 L 160.69 258.7" /><path d="M 160.69 258.7 L 160.78 258.52 L 160.78 258.35 L 160.87 258.08 L 160.87 257.9 L 160.87 257.73 L 160.96 257.46 L 160.96 257.28 L 160.96 257.02 L 161.05 256.84 L 161.05 256.66 L 161.05 256.4 L 161.14 256.22 L 161.14 256.04 L 161.14 255.78 L 161.23 255.6 L 161.23 255.34 L 161.23 255.16 L 161.31 254.98 L 161.31 254.8" /><path d="M 160.69 258.7 L 160.69 258.44 L 160.78 258.26 L 160.78 257.99 L 160.87 257.82 L 160.87 257.64 L 160.87 257.37 L 160.96 257.2 L 160.96 256.93 L 160.96 256.75 L 161.05 256.49 L 161.05 256.31 L 161.05 256.13 L 161.14 255.87 L 161.14 255.69 L 161.14 255.42 L 161.23 255.25 L 161.23 254.98 L 161.31 254.8" /><path d="M 161.31 254.8 L 161.4 254.63 L 161.4 254.54" /><path d="M 161.31 254.8 L 161.4 254.54" /><path d="M 161.4 254.54 L 161.4 254.36" /><path d="M 161.4 254.36 L 161.49 254.18 L 161.49 254.01 L 161.58 253.83 L 161.58 253.65" /><path d="M 161.4 254.36 L 161.49 254.1 L 161.49 253.83 L 161.58 253.65" /><path d="M 161.58 253.65 L 161.58 253.48" /><path d="M 161.58 253.48 L 161.67 253.39 L 161.67 253.21 L 161.76 253.03 L 161.76 252.86" /><path d="M 161.58 253.48 L 161.67 253.3 L 161.67 253.03 L 161.76 252.86" /><path d="M 161.76 252.86 L 161.76 252.77 L 161.85 252.59 L 161.93 252.5" /><path d="M 161.76 252.86 L 161.85 252.77 L 161.93 252.5" /><path d="M 161.93 252.5 L 162.02 252.32 L 162.11 252.24 L 162.29 252.06" /><path d="M 161.93 252.5 L 162.02 252.41 L 162.11 252.32 L 162.2 252.15 L 162.29 252.06" /><path d="M 162.29 252.06 L 162.47 251.88 L 162.55 251.7" /><path d="M 162.29 252.06 L 162.38 251.97 L 162.47 251.79 L 162.55 251.7" /><path d="M 162.55 251.7 L 162.73 251.62 L 162.82 251.44 L 162.91 251.35" /><path d="M 162.55 251.7 L 162.64 251.62 L 162.73 251.44 L 162.91 251.35" /><path d="M 162.91 251.35 L 163 251.26" /><path d="M 163 251.26 L 163.17 251.17 L 163.26 251.08 L 163.35 251 L 163.44 250.82 L 163.53 250.64" /><path d="M 163 251.26 L 163.09 251.17 L 163.26 251 L 163.35 250.91 L 163.44 250.73 L 163.53 250.64" /><path d="M 163.53 250.64 L 163.62 250.46" /><path d="M 163.62 250.46 L 163.79 250.38 L 163.88 250.2" /><path d="M 163.62 250.46 L 163.7 250.29 L 163.88 250.2" /><path d="M 163.88 250.2 L 163.97 250.02 L 164.06 249.84" /><path d="M 164.06 249.84 L 164.24 249.67 L 164.32 249.49" /><path d="M 164.06 249.84 L 164.15 249.76 L 164.24 249.58 L 164.32 249.49" /><path d="M 164.32 249.49 L 164.41 249.31 L 164.59 249.14" /><path d="M 164.32 249.49 L 164.41 249.4 L 164.5 249.22 L 164.59 249.14" /><path d="M 164.59 249.14 L 164.68 248.96" /><path d="M 164.68 248.96 L 164.86 248.78 L 164.86 248.69 L 164.94 248.6 L 165.03 248.52" /><path d="M 164.68 248.96 L 164.77 248.87 L 164.94 248.69 L 165.03 248.52" /><path d="M 165.03 248.52 L 165.12 248.43" /><path d="M 165.12 248.43 L 165.21 248.34 L 165.21 248.16" /><path d="M 165.12 248.43 L 165.12 248.34 L 165.21 248.16" /><path d="M 165.21 248.16 L 165.3 247.98 L 165.3 247.81 L 165.39 247.54" /><path d="M 165.21 248.16 L 165.21 248.07 L 165.3 247.9 L 165.3 247.72 L 165.39 247.54" /><path d="M 165.39 247.54 L 165.39 247.37" /><path d="M 165.39 247.37 L 165.48 247.19 L 165.48 247.01 L 165.56 246.83" /><path d="M 165.39 247.37 L 165.39 247.19 L 165.48 247.1 L 165.48 246.92 L 165.56 246.83" /><path d="M 165.56 246.83 L 165.56 246.75 L 165.56 246.66" /><path d="M 165.56 246.83 L 165.56 246.66" /><path d="M 165.56 246.66 L 165.65 246.48 L 165.65 246.3" /><path d="M 165.56 246.66 L 165.56 246.57 L 165.65 246.39 L 165.65 246.3" /><path d="M 165.65 246.3 L 165.74 246.04" /><path d="M 165.74 246.04 L 165.74 245.95 L 165.74 245.77 L 165.74 245.59 L 165.83 245.42" /><path d="M 165.74 246.04 L 165.74 245.86 L 165.74 245.68 L 165.83 245.51 L 165.83 245.42" /><path d="M 165.83 245.42 L 165.83 245.24" /><path d="M 165.83 245.24 L 165.92 245.15 L 166.01 244.97 L 166.1 244.89 L 166.27 244.8 L 166.36 244.71" /><path d="M 165.83 245.24 L 165.92 245.06 L 166.1 244.97 L 166.18 244.8 L 166.36 244.71" /><path d="M 166.36 244.71 L 166.45 244.62" /><path d="M 166.45 244.62 L 166.63 244.53 L 166.72 244.35" /><path d="M 166.45 244.62 L 166.54 244.44 L 166.72 244.35" /><path d="M 166.72 244.35 L 166.8 244.27 L 166.98 244.18" /><path d="M 166.98 244.18 L 167.07 244.09 L 167.16 244 L 167.25 243.91" /><path d="M 166.98 244.18 L 167.07 244 L 167.25 243.91" /><path d="M 167.25 243.91 L 167.34 243.82 L 167.51 243.73 L 167.6 243.65 L 167.69 243.56 L 167.78 243.38" /><path d="M 167.25 243.91 L 167.42 243.73 L 167.51 243.65 L 167.69 243.47 L 167.78 243.38" /><path d="M 167.78 243.38 L 167.87 243.29 L 167.96 243.11 L 167.96 242.94" /><path d="M 167.96 242.94 L 168.04 242.76 L 168.04 242.58 L 168.04 242.41 L 168.04 242.23" /><path d="M 167.96 242.94 L 167.96 242.76 L 168.04 242.67 L 168.04 242.49 L 168.04 242.23" /><path d="M 168.04 242.23 L 168.04 242.05" /><path d="M 168.04 242.05 L 168.04 241.96 L 168.04 241.79" /><path d="M 168.04 242.05 L 168.04 241.79" /><path d="M 168.04 241.79 L 168.04 241.61 L 168.04 241.43 L 168.04 241.34" /><path d="M 168.04 241.79 L 167.96 241.52 L 168.04 241.34" /><path d="M 168.04 241.34 L 168.22 241.25 L 168.4 241.17" /><path d="M 168.04 241.34 L 168.13 241.25 L 168.22 241.17 L 168.4 241.17" /><path d="M 168.4 241.17 L 168.58 241.17 L 168.75 241.17 L 168.84 241.17" /><path d="M 168.4 241.17 L 168.49 241.17 L 168.66 241.17 L 168.84 241.17" /><path d="M 168.84 241.17 L 168.93 241.17 L 169.11 241.17" /><path d="M 168.84 241.17 L 169.02 241.17 L 169.11 241.17" /><path d="M 169.11 241.17 L 169.2 241.17" /><path d="M 169.2 241.17 L 169.37 241.17 L 169.55 241.25 L 169.64 241.34 L 169.73 241.43" /><path d="M 169.2 241.17 L 169.28 241.17 L 169.46 241.17 L 169.64 241.25 L 169.73 241.43" /><path d="M 169.73 241.43 L 169.9 241.61" /><path d="M 169.73 241.43 L 169.82 241.52 L 169.9 241.61" /><path d="M 169.9 241.61 L 169.99 241.79" /><path d="M 169.99 241.79 L 170.08 241.87 L 170.08 242.05 L 170.26 242.14 L 170.44 242.23 L 170.52 242.32 L 170.61 242.32 L 170.7 242.32" /><path d="M 169.99 241.79 L 170.08 241.96 L 170.17 242.05 L 170.35 242.23 L 170.52 242.23 L 170.7 242.32" /><path d="M 170.7 242.32 L 170.97 242.23" /><path d="M 170.7 242.32 L 170.79 242.23 L 170.97 242.23" /><path d="M 170.97 242.23 L 171.06 242.14" /><path d="M 171.06 242.14 L 171.14 241.96 L 171.23 241.87" /><path d="M 171.06 242.14 L 171.14 242.05 L 171.23 241.87" /><path d="M 171.23 241.87 L 171.32 241.7 L 171.41 241.61 L 171.5 241.43" /><path d="M 171.5 241.43 L 171.68 241.25 L 171.76 241.17 L 171.94 241.08 L 172.03 240.99 L 172.12 240.99" /><path d="M 171.5 241.43 L 171.5 241.34 L 171.68 241.17 L 171.85 241.08 L 171.94 240.99 L 172.12 240.99" /><path d="M 172.12 240.99 L 172.21 240.99 L 172.3 240.99" /><path d="M 172.12 240.99 L 172.3 240.99" /><path d="M 172.3 240.99 L 172.47 240.9" /><path d="M 172.47 240.9 L 172.56 240.9 L 172.65 240.9" /><path d="M 172.47 240.9 L 172.65 240.9" /><path d="M 172.65 240.9 L 172.74 240.9 L 172.92 240.9 L 173 240.9" /><path d="M 172.65 240.9 L 172.83 240.9 L 173 240.9" /><path d="M 173 240.9 L 173.18 240.81" /><path d="M 173.18 240.81 L 173.27 240.81 L 173.45 240.72" /><path d="M 173.18 240.81 L 173.36 240.81 L 173.45 240.72" /><path d="M 173.45 240.72 L 173.62 240.55 L 173.62 240.46" /><path d="M 173.45 240.72 L 173.54 240.63 L 173.62 240.46" /><path d="M 173.62 240.46 L 173.71 240.28 L 173.71 240.19 L 173.8 240.01 L 173.71 239.84 L 173.71 239.66 L 173.71 239.48 L 173.71 239.31 L 173.62 239.22 L 173.62 239.04 L 173.62 238.86" /><path d="M 173.62 240.46 L 173.71 240.37 L 173.71 240.1 L 173.71 239.93 L 173.71 239.75 L 173.71 239.57 L 173.62 239.31 L 173.62 239.13 L 173.62 238.86" /><path d="M 173.62 238.86 L 173.54 238.69 L 173.54 238.51 L 173.54 238.42" /><path d="M 173.62 238.86 L 173.54 238.6 L 173.54 238.42" /><path d="M 173.54 238.42 L 173.54 238.24 L 173.45 238.07 L 173.45 237.89 L 173.45 237.8 L 173.36 237.62" /><path d="M 173.54 238.42 L 173.45 238.15 L 173.45 237.98 L 173.36 237.8 L 173.36 237.62" /><path d="M 173.36 237.62 L 173.36 237.45" /><path d="M 173.36 237.45 L 173.36 237.27 L 173.36 237.09 L 173.36 236.91" /><path d="M 173.36 237.45 L 173.36 237.18 L 173.36 237 L 173.36 236.91" /><path d="M 173.36 236.91 L 173.36 236.74 L 173.45 236.56 L 173.45 236.38" /><path d="M 173.36 236.91 L 173.36 236.65 L 173.36 236.47 L 173.45 236.38" /><path d="M 173.45 236.38 L 173.54 236.21 L 173.54 236.03 L 173.62 235.85" /><path d="M 173.45 236.38 L 173.54 236.12 L 173.62 235.94 L 173.62 235.85" /><path d="M 166.54 282.61 L 166.63 282.79" /><path d="M 166.63 283.32 L 166.63 283.5" /><path d="M 169.46 330.26 L 169.55 330.35 L 169.46 330.35 L 169.37 330.26" /><path d="M 169.46 330.26 L 169.28 330.26" /><path d="M 169.46 330.26 L 169.37 330.26" /><path d="M 169.28 330.26 L 169.2 330.17" /><path d="M 169.28 330.26 L 169.11 330.17" /><path d="M 169.2 330.17 L 169.11 330.17" /><path d="M 169.2 330.17 L 169.37 330.26" /><path d="M 169.2 330.17 L 169.11 330.08 L 168.93 330.08" /><path d="M 169.11 330.17 L 168.93 330.08" /><path d="M 169.11 330.17 L 169.02 330.08 L 168.84 329.99" /><path d="M 168.93 330.08 L 168.84 329.99" /><path d="M 168.93 330.08 L 168.75 329.99 L 168.66 329.9 L 168.58 329.73" /><path d="M 168.84 329.99 L 168.75 329.9" /><path d="M 168.75 329.9 L 168.66 329.81 L 168.58 329.73" /><path d="M 168.75 329.9 L 168.58 329.81" /><path d="M 168.58 329.73 L 168.4 329.64" /><path d="M 168.4 329.64 L 168.31 329.55" /><path d="M 168.4 329.64 L 168.31 329.46" /><path d="M 168.31 329.55 L 168.22 329.46 L 168.13 329.28" /><path d="M 168.31 329.55 L 168.49 329.64" /><path d="M 168.31 329.55 L 168.22 329.37" /><path d="M 168.13 329.28 L 168.04 329.19 L 167.96 329.11" /><path d="M 168.13 329.28 L 168.22 329.37" /><path d="M 168.13 329.28 L 167.96 329.11" /><path d="M 167.96 329.11 L 167.87 329.02" /><path d="M 167.96 329.11 L 167.78 328.93" /><path d="M 167.87 329.02 L 167.78 328.93" /><path d="M 167.87 329.02 L 167.78 328.84 L 167.69 328.75 L 167.6 328.66 L 167.51 328.57 L 167.42 328.49 L 167.34 328.4 L 167.25 328.31" /><path d="M 167.78 328.93 L 167.69 328.84 L 167.6 328.75" /><path d="M 167.78 328.93 L 167.6 328.75" /><path d="M 167.6 328.75 L 167.51 328.66" /><path d="M 167.51 328.66 L 167.42 328.57 L 167.34 328.49" /><path d="M 167.51 328.66 L 167.34 328.49" /><path d="M 167.34 328.49 L 167.25 328.4 L 167.16 328.22" /><path d="M 167.34 328.49 L 167.25 328.31" /><path d="M 167.16 328.22 L 167.07 328.13 L 166.98 328.04 L 166.89 327.87" /><path d="M 167.16 328.22 L 167.07 328.04 L 166.98 327.95" /><path d="M 167.16 328.22 L 167.25 328.31" /><path d="M 166.89 327.87 L 166.8 327.69" /><path d="M 166.89 327.87 L 166.8 327.78" /><path d="M 166.89 327.87 L 166.98 327.95" /><path d="M 166.8 327.69 L 166.72 327.51 L 166.63 327.42" /><path d="M 166.8 327.69 L 166.63 327.51" /><path d="M 166.63 327.42 L 166.54 327.33 L 166.45 327.16" /><path d="M 166.63 327.42 L 166.54 327.25" /><path d="M 166.63 327.42 L 166.63 327.51" /><path d="M 166.63 327.42 L 166.72 327.6 L 166.8 327.78" /><path d="M 166.45 327.16 L 166.36 326.98" /><path d="M 166.45 327.16 L 166.45 327.07" /><path d="M 166.45 327.16 L 166.54 327.25" /><path d="M 166.36 326.98 L 166.36 326.8 L 166.27 326.71" /><path d="M 166.36 326.98 L 166.45 327.07" /><path d="M 166.27 326.71 L 166.18 326.54" /><path d="M 166.27 326.71 L 166.18 326.63 L 166.18 326.45" /><path d="M 166.27 326.71 L 166.36 326.89 L 166.45 327.07" /><path d="M 166.18 326.54 L 166.18 326.36" /><path d="M 166.18 326.54 L 166.18 326.45" /><path d="M 166.18 326.36 L 166.1 326.27" /><path d="M 166.18 326.36 L 166.1 326.18" /><path d="M 166.1 326.27 L 166.1 326.09" /><path d="M 166.1 326.27 L 166.18 326.45" /><path d="M 166.1 326.09 L 166.01 325.83 L 165.92 325.65" /><path d="M 166.1 326.09 L 166.1 326.18" /><path d="M 166.1 326.09 L 166.01 325.92 L 165.92 325.65" /><path d="M 165.92 325.65 L 165.92 325.47" /><path d="M 165.92 325.47 L 165.83 325.3" /><path d="M 165.92 325.47 L 165.92 325.39" /><path d="M 165.83 325.3 L 165.83 325.12" /><path d="M 165.83 325.3 L 165.92 325.39" /><path d="M 165.83 325.12 L 165.83 325.03" /><path d="M 165.83 325.12 L 165.74 324.86 L 165.74 324.68 L 165.74 324.41" /><path d="M 165.83 325.03 L 165.83 324.86 L 165.83 324.77 L 165.74 324.59" /><path d="M 165.83 325.03 L 165.83 325.21 L 165.92 325.39" /><path d="M 165.83 325.03 L 165.83 324.94 L 165.74 324.77 L 165.74 324.59" /><path d="M 165.74 324.59 L 165.74 324.5 L 165.74 324.32 L 165.74 324.24" /><path d="M 165.74 324.59 L 165.74 324.41" /><path d="M 165.74 324.24 L 165.65 324.06" /><path d="M 165.74 324.24 L 165.74 324.41" /><path d="M 165.65 324.06 L 165.65 323.88" /><path d="M 165.65 324.06 L 165.65 323.79" /><path d="M 165.65 324.06 L 165.65 324.24 L 165.74 324.41" /><path d="M 165.65 323.88 L 165.65 323.79" /><path d="M 165.65 323.88 L 165.65 323.7 L 165.56 323.53 L 165.56 323.26 L 165.56 323.08" /><path d="M 165.65 323.79 L 165.65 323.62 L 165.56 323.44" /><path d="M 165.65 323.79 L 165.56 323.62" /><path d="M 165.56 323.44 L 165.56 323.35" /><path d="M 165.56 323.44 L 165.56 323.62" /><path d="M 165.56 323.35 L 165.56 323.17" /><path d="M 165.56 323.35 L 165.56 323.62" /><path d="M 165.56 323.17 L 165.56 323.08" /><path d="M 165.56 323.17 L 165.48 322.91" /><path d="M 165.56 323.08 L 165.56 322.91 L 165.48 322.82" /><path d="M 165.56 323.08 L 165.56 323 L 165.48 322.82" /><path d="M 165.56 323.08 L 165.48 322.91" /><path d="M 165.48 322.82 L 165.48 322.64" /><path d="M 165.48 322.82 L 165.48 322.55" /><path d="M 165.48 322.64 L 165.48 322.55" /><path d="M 165.48 322.64 L 165.48 322.46" /><path d="M 165.48 322.64 L 165.48 322.91" /><path d="M 165.48 322.64 L 165.48 322.73 L 165.48 322.91" /><path d="M 165.48 322.55 L 165.48 322.38 L 165.39 322.2" /><path d="M 165.39 322.2 L 165.39 322.11 L 165.39 321.93" /><path d="M 165.39 322.2 L 165.39 321.93" /><path d="M 165.39 322.2 L 165.48 322.46" /><path d="M 165.39 322.2 L 165.39 322.02" /><path d="M 165.39 322.2 L 165.48 322.29 L 165.48 322.46" /><path d="M 165.39 321.93 L 165.39 321.84" /><path d="M 165.39 321.93 L 165.3 321.67 L 165.3 321.4" /><path d="M 165.39 321.93 L 165.39 321.76 L 165.3 321.58" /><path d="M 165.39 321.93 L 165.39 322.02" /><path d="M 165.39 321.84 L 165.39 321.67 L 165.3 321.58" /><path d="M 165.39 321.84 L 165.39 322.02" /><path d="M 165.3 321.58 L 165.3 321.4" /><path d="M 165.3 321.58 L 165.3 321.31" /><path d="M 165.3 321.58 L 165.3 321.49 L 165.3 321.31" /><path d="M 165.3 321.4 L 165.3 321.14" /><path d="M 165.3 321.4 L 165.3 321.22 L 165.21 320.96" /><path d="M 165.3 321.14 L 165.21 320.96" /><path d="M 165.3 321.14 L 165.3 321.31" /><path d="M 165.3 321.14 L 165.21 321.05 L 165.21 320.87 L 165.21 320.69" /><path d="M 165.21 320.96 L 165.21 320.69" /><path d="M 165.21 320.96 L 165.21 320.78 L 165.21 320.6 L 165.21 320.52" /><path d="M 165.21 320.69 L 165.21 320.43 L 165.12 320.25" /><path d="M 165.21 320.69 L 165.12 320.52 L 165.12 320.25" /><path d="M 165.21 320.69 L 165.21 320.52" /><path d="M 165.12 320.25 L 165.12 320.16 L 165.12 319.98" /><path d="M 165.12 320.25 L 165.12 319.98" /><path d="M 165.12 320.25 L 165.21 320.52" /><path d="M 165.12 320.25 L 165.12 320.07 L 165.12 319.9" /><path d="M 165.12 320.25 L 165.12 320.43 L 165.21 320.52" /><path d="M 165.12 319.98 L 165.12 319.81 L 165.03 319.63" /><path d="M 165.12 319.98 L 165.03 319.72" /><path d="M 165.12 319.98 L 165.12 319.9" /><path d="M 165.03 319.63 L 165.03 319.54" /><path d="M 165.03 319.63 L 165.03 319.45" /><path d="M 165.03 319.63 L 165.03 319.72" /><path d="M 165.03 319.54 L 165.03 319.36 L 165.03 319.19" /><path d="M 165.03 319.54 L 165.03 319.28" /><path d="M 165.03 319.54 L 165.03 319.72" /><path d="M 165.03 319.19 L 164.94 319.1" /><path d="M 165.03 319.19 L 164.94 319.01" /><path d="M 165.03 319.19 L 165.03 319.45" /><path d="M 164.94 319.1 L 164.94 318.92" /><path d="M 164.94 319.1 L 165.03 319.28" /><path d="M 164.94 318.92 L 164.94 318.74" /><path d="M 164.94 318.92 L 164.94 318.83" /><path d="M 164.94 318.74 L 164.94 318.57 L 164.86 318.39" /><path d="M 164.94 318.74 L 164.86 318.48" /><path d="M 164.94 318.74 L 164.94 319.01" /><path d="M 164.86 318.39 L 164.86 318.21 L 164.86 318.04" /><path d="M 164.86 318.39 L 164.86 318.48" /><path d="M 164.86 318.04 L 164.86 317.86 L 164.77 317.68" /><path d="M 164.86 318.04 L 164.86 318.3" /><path d="M 164.86 318.04 L 164.77 317.86 L 164.77 317.68" /><path d="M 164.86 318.04 L 164.86 317.95 L 164.77 317.77 L 164.77 317.68" /><path d="M 164.77 317.68 L 164.77 317.5" /><path d="M 164.77 317.68 L 164.77 317.95 L 164.86 318.12 L 164.86 318.3" /><path d="M 164.77 317.5 L 164.77 317.33" /><path d="M 164.77 317.5 L 164.68 317.24" /><path d="M 164.77 317.5 L 164.77 317.42 L 164.68 317.24" /><path d="M 164.77 317.33 L 164.68 317.15" /><path d="M 164.77 317.33 L 164.68 317.24" /><path d="M 164.68 317.15 L 164.68 316.97" /><path d="M 164.68 317.15 L 164.68 317.24" /><path d="M 164.68 316.97 L 164.68 316.8" /><path d="M 164.68 316.97 L 164.68 316.88" /><path d="M 164.68 316.8 L 164.59 316.53" /><path d="M 164.68 316.8 L 164.59 316.62" /><path d="M 164.68 316.8 L 164.68 317.06" /><path d="M 164.59 316.53 L 164.59 316.35" /><path d="M 164.59 316.53 L 164.59 316.71 L 164.68 316.88" /><path d="M 164.59 316.35 L 164.59 316.18" /><path d="M 164.59 316.35 L 164.59 316.26 L 164.59 316.09" /><path d="M 164.59 316.35 L 164.59 316.62" /><path d="M 164.59 316.35 L 164.59 316.44 L 164.59 316.62" /><path d="M 164.59 316.18 L 164.5 315.91" /><path d="M 164.59 316.18 L 164.59 316.09" /><path d="M 164.59 316.18 L 164.5 316.09 L 164.5 315.91" /><path d="M 164.5 315.91 L 164.5 315.64" /><path d="M 164.5 315.91 L 164.59 316.09" /><path d="M 164.5 315.91 L 164.5 315.82" /><path d="M 164.5 315.91 L 164.5 315.73" /><path d="M 164.5 315.64 L 164.41 315.47" /><path d="M 164.5 315.64 L 164.5 315.82" /><path d="M 164.5 315.64 L 164.5 315.47 L 164.41 315.2" /><path d="M 164.41 315.47 L 164.41 315.2" /><path d="M 164.41 315.47 L 164.5 315.56 L 164.5 315.73" /><path d="M 164.41 315.47 L 164.41 315.29 L 164.41 315.11 L 164.41 314.94" /><path d="M 164.41 315.2 L 164.41 315.02" /><path d="M 164.41 315.02 L 164.41 314.85 L 164.32 314.67" /><path d="M 164.41 315.02 L 164.32 314.76 L 164.32 314.58" /><path d="M 164.41 315.02 L 164.41 314.94" /><path d="M 164.32 314.67 L 164.32 314.58" /><path d="M 164.32 314.67 L 164.41 314.76" /><path d="M 164.32 314.58 L 164.32 314.4" /><path d="M 164.32 314.58 L 164.41 314.76" /><path d="M 164.32 314.4 L 164.32 314.23" /><path d="M 164.32 314.4 L 164.32 314.14" /><path d="M 164.32 314.4 L 164.32 314.32 L 164.32 314.14" /><path d="M 164.32 314.23 L 164.32 313.96" /><path d="M 164.32 314.23 L 164.32 314.05 L 164.32 313.96" /><path d="M 164.32 313.96 L 164.32 313.79 L 164.32 313.61" /><path d="M 164.32 313.96 L 164.32 314.14" /><path d="M 164.32 313.61 L 164.32 313.43 L 164.32 313.25" /><path d="M 164.32 313.61 L 164.32 313.34 L 164.32 313.17" /><path d="M 164.32 313.25 L 164.32 313.08" /><path d="M 164.32 313.25 L 164.32 313.17" /><path d="M 164.32 313.08 L 164.41 312.99" /><path d="M 164.32 313.08 L 164.41 312.9" /><path d="M 164.41 312.99 L 164.41 312.81 L 164.5 312.63" /><path d="M 164.41 312.99 L 164.32 313.17" /><path d="M 164.5 312.63 L 164.5 312.46" /><path d="M 164.5 312.63 L 164.41 312.9" /><path d="M 164.5 312.46 L 164.59 312.19" /><path d="M 164.5 312.46 L 164.59 312.28 L 164.68 312.1" /><path d="M 164.59 312.19 L 164.68 312.1" /><path d="M 164.59 312.19 L 164.59 312.37 L 164.5 312.55 L 164.41 312.72 L 164.41 312.9" /><path d="M 164.68 312.1 L 164.68 311.93 L 164.77 311.84" /><path d="M 164.68 312.1 L 164.77 311.93" /><path d="M 164.77 311.84 L 164.86 311.75" /><path d="M 164.77 311.84 L 164.86 311.66" /><path d="M 164.77 311.84 L 164.77 311.93" /><path d="M 164.86 311.75 L 164.94 311.57 L 164.94 311.48" /><path d="M 164.86 311.75 L 164.77 311.93" /><path d="M 164.86 311.75 L 164.86 311.66" /><path d="M 164.86 311.75 L 164.94 311.66 L 165.03 311.48 L 165.12 311.31" /><path d="M 164.94 311.48 L 165.03 311.31 L 165.12 311.22" /><path d="M 164.94 311.48 L 164.86 311.66" /><path d="M 164.94 311.48 L 165.03 311.39" /><path d="M 165.12 311.22 L 165.21 311.04" /><path d="M 165.12 311.22 L 165.03 311.39" /><path d="M 165.21 311.04 L 165.3 310.86" /><path d="M 165.21 311.04 L 165.12 311.13 L 165.12 311.31" /><path d="M 165.21 311.04 L 165.21 311.22 L 165.12 311.31" /><path d="M 165.3 310.86 L 165.39 310.69" /><path d="M 165.3 310.86 L 165.3 310.77 L 165.39 310.69" /><path d="M 165.39 310.69 L 165.48 310.51" /><path d="M 165.39 310.69 L 165.48 310.6" /><path d="M 165.48 310.51 L 165.56 310.24" /><path d="M 165.48 310.51 L 165.56 310.42" /><path d="M 165.56 310.24 L 165.65 310.07" /><path d="M 165.56 310.24 L 165.56 310.42" /><path d="M 165.65 310.07 L 165.83 309.89" /><path d="M 165.65 310.07 L 165.74 309.98" /><path d="M 165.83 309.89 L 165.92 309.71" /><path d="M 165.83 309.89 L 165.74 309.98" /><path d="M 165.83 309.89 L 165.83 309.71 L 165.92 309.62" /><path d="M 165.92 309.71 L 166.01 309.53 L 166.1 309.36 L 166.18 309.18 L 166.27 308.91" /><path d="M 165.92 309.71 L 165.92 309.53 L 166.01 309.45" /><path d="M 165.92 309.71 L 165.83 309.8 L 165.74 309.89 L 165.74 310.07 L 165.65 310.15" /><path d="M 165.92 309.71 L 165.92 309.62" /><path d="M 166.27 308.91 L 166.27 308.74" /><path d="M 166.27 308.91 L 166.27 308.83" /><path d="M 166.27 308.91 L 166.18 309.09" /><path d="M 166.27 308.74 L 166.36 308.56" /><path d="M 166.27 308.74 L 166.27 308.83" /><path d="M 166.36 308.56 L 166.36 308.38" /><path d="M 166.36 308.56 L 166.27 308.83" /><path d="M 166.36 308.56 L 166.36 308.47 L 166.36 308.29 L 166.45 308.21" /><path d="M 166.36 308.38 L 166.45 308.21" /><path d="M 166.36 308.38 L 166.36 308.65 L 166.27 308.83" /><path d="M 166.45 308.21 L 166.45 308.03" /><path d="M 166.45 308.03 L 166.45 307.85 L 166.54 307.67" /><path d="M 166.45 308.03 L 166.54 307.85 L 166.54 307.67" /><path d="M 166.45 308.03 L 166.54 307.76" /><path d="M 166.45 308.03 L 166.45 307.94 L 166.54 307.76" /><path d="M 166.54 307.67 L 166.45 307.41" /><path d="M 166.54 307.67 L 166.54 307.5" /><path d="M 166.54 307.67 L 166.54 307.76" /><path d="M 166.45 307.41 L 166.45 307.14" /><path d="M 166.45 307.41 L 166.45 307.23 L 166.45 307.14" /><path d="M 166.45 307.41 L 166.54 307.5" /><path d="M 166.45 307.14 L 166.45 306.88" /><path d="M 166.45 307.14 L 166.45 307.32" /><path d="M 166.45 307.14 L 166.45 307.05" /><path d="M 166.45 306.88 L 166.45 306.61 L 166.36 306.52" /><path d="M 166.45 306.88 L 166.45 306.7" /><path d="M 166.45 306.88 L 166.45 307.05" /><path d="M 166.45 306.88 L 166.45 306.79 L 166.36 306.52" /><path d="M 166.36 306.52 L 166.36 306.35" /><path d="M 166.36 306.52 L 166.45 306.7" /><path d="M 166.36 306.52 L 166.36 306.26 L 166.27 306.08" /><path d="M 166.36 306.35 L 166.27 306.26 L 166.27 306.08" /><path d="M 166.36 306.35 L 166.27 306.08" /><path d="M 166.27 306.08 L 166.27 305.99 L 166.18 305.81" /><path d="M 166.27 306.08 L 166.18 305.81" /><path d="M 166.27 306.08 L 166.27 306.17 L 166.36 306.43 L 166.45 306.7" /><path d="M 166.18 305.81 L 166.18 305.73 L 166.18 305.64" /><path d="M 166.18 305.81 L 166.1 305.55" /><path d="M 166.18 305.81 L 166.18 305.55 L 166.1 305.46" /><path d="M 166.18 305.81 L 166.18 305.64" /><path d="M 166.18 305.64 L 166.1 305.46" /><path d="M 166.18 305.64 L 166.1 305.55" /><path d="M 166.1 305.46 L 166.1 305.37" /><path d="M 166.1 305.46 L 166.1 305.28 L 166.01 305.19" /><path d="M 166.1 305.37 L 166.01 305.19" /><path d="M 166.1 305.37 L 166.01 305.11" /><path d="M 166.1 305.37 L 166.1 305.55" /><path d="M 166.01 305.19 L 166.01 305.11" /><path d="M 166.01 305.19 L 166.01 305.02" /><path d="M 166.01 305.11 L 166.01 304.93 L 165.92 304.84" /><path d="M 166.01 305.11 L 165.92 304.84" /><path d="M 165.92 304.84 L 165.92 304.75" /><path d="M 165.92 304.84 L 165.83 304.57" /><path d="M 165.92 304.84 L 166.01 305.02" /><path d="M 165.92 304.75 L 165.83 304.49" /><path d="M 165.92 304.75 L 165.83 304.57" /><path d="M 165.92 304.75 L 165.92 304.93 L 166.01 305.02" /><path d="M 165.83 304.49 L 165.74 304.22" /><path d="M 165.83 304.49 L 165.83 304.31" /><path d="M 165.83 304.49 L 165.83 304.57" /><path d="M 165.74 304.22 L 165.74 304.04" /><path d="M 165.74 304.22 L 165.83 304.4 L 165.83 304.57" /><path d="M 165.74 304.04 L 165.74 303.95" /><path d="M 165.74 304.04 L 165.83 304.22 L 165.83 304.31" /><path d="M 165.74 304.04 L 165.74 303.87" /><path d="M 165.74 303.95 L 165.74 303.78" /><path d="M 165.74 303.95 L 165.74 303.87" /><path d="M 165.74 303.95 L 165.74 304.13 L 165.83 304.31" /><path d="M 165.74 303.78 L 165.65 303.6" /><path d="M 165.74 303.78 L 165.74 303.69 L 165.65 303.51" /><path d="M 165.74 303.78 L 165.74 303.87" /><path d="M 165.65 303.6 L 165.65 303.51" /><path d="M 165.65 303.6 L 165.65 303.42" /><path d="M 165.65 303.51 L 165.65 303.33" /><path d="M 165.65 303.33 L 165.65 303.25" /><path d="M 165.65 303.33 L 165.65 303.16" /><path d="M 165.65 303.33 L 165.65 303.42" /><path d="M 165.65 303.25 L 165.65 303.07" /><path d="M 165.65 303.25 L 165.65 303.42" /><path d="M 165.65 303.07 L 165.65 302.98" /><path d="M 165.65 303.07 L 165.65 302.89 L 165.65 302.72" /><path d="M 165.65 303.07 L 165.65 303.16" /><path d="M 165.65 302.98 L 165.65 302.8 L 165.65 302.72" /><path d="M 165.65 302.98 L 165.65 303.16" /><path d="M 165.65 302.98 L 165.65 302.72" /><path d="M 165.65 302.72 L 165.65 302.54" /><path d="M 165.65 302.72 L 165.65 302.63 L 165.65 302.45" /><path d="M 165.65 302.54 L 165.65 302.45" /><path d="M 165.65 302.54 L 165.56 302.36 L 165.56 302.1" /><path d="M 165.65 302.54 L 165.56 302.27 L 165.56 302.1" /><path d="M 165.65 302.45 L 165.65 302.36 L 165.56 302.18 L 165.56 302.1" /><path d="M 165.65 302.45 L 165.65 302.27 L 165.56 302.1" /><path d="M 165.56 302.1 L 165.56 301.92" /><path d="M 165.56 301.92 L 165.56 301.83 L 165.56 301.65 L 165.56 301.56" /><path d="M 165.56 301.92 L 165.56 301.74 L 165.56 301.56" /><path d="M 165.56 301.56 L 165.56 301.3 L 165.56 301.12 L 165.56 300.86" /><path d="M 165.56 301.56 L 165.56 301.39 L 165.56 301.21 L 165.56 300.94 L 165.56 300.77 L 165.56 300.59" /><path d="M 165.56 300.86 L 165.56 300.68" /><path d="M 165.56 300.86 L 165.56 300.59" /><path d="M 165.56 300.68 L 165.56 300.5 L 165.56 300.24 L 165.48 300.06 L 165.48 299.79" /><path d="M 165.56 300.68 L 165.48 300.41" /><path d="M 165.48 299.79 L 165.48 299.62 L 165.48 299.44" /><path d="M 165.48 299.79 L 165.48 299.53" /><path d="M 165.48 299.79 L 165.48 299.97 L 165.48 300.15" /><path d="M 165.48 299.79 L 165.48 299.7" /><path d="M 165.48 299.44 L 165.48 299.17" /><path d="M 165.48 299.44 L 165.48 299.7" /><path d="M 165.48 299.17 L 165.48 298.91" /><path d="M 165.48 299.17 L 165.48 299 L 165.48 298.82" /><path d="M 165.48 299.17 L 165.48 299.35" /><path d="M 165.48 298.91 L 165.48 298.82" /><path d="M 165.48 298.91 L 165.48 298.73 L 165.48 298.55" /><path d="M 165.48 298.91 L 165.48 299.08 L 165.48 299.26 L 165.48 299.35" /><path d="M 165.48 298.82 L 165.48 298.64" /><path d="M 165.48 298.64 L 165.48 298.46 L 165.48 298.29 L 165.48 298.2 L 165.39 298.02" /><path d="M 165.48 298.64 L 165.39 298.46 L 165.39 298.29" /><path d="M 165.39 298.02 L 165.39 297.84" /><path d="M 165.39 298.02 L 165.39 298.11" /><path d="M 165.39 297.84 L 165.39 297.67" /><path d="M 165.39 297.84 L 165.39 297.58" /><path d="M 165.39 297.84 L 165.39 298.11" /><path d="M 165.39 297.67 L 165.39 297.58" /><path d="M 165.39 297.67 L 165.39 297.49" /><path d="M 165.39 297.58 L 165.39 297.4 L 165.39 297.22" /><path d="M 165.39 297.58 L 165.39 297.76 L 165.39 297.93 L 165.39 298.11" /><path d="M 165.39 297.58 L 165.39 297.49" /><path d="M 165.39 297.22 L 165.39 297.05" /><path d="M 165.39 297.22 L 165.39 297.14 L 165.39 296.96" /><path d="M 165.39 297.22 L 165.39 297.49" /><path d="M 165.39 297.22 L 165.39 297.31 L 165.39 297.49" /><path d="M 165.39 297.05 L 165.39 296.96" /><path d="M 165.39 297.05 L 165.39 296.87" /><path d="M 165.39 296.96 L 165.39 296.78" /><path d="M 165.39 296.78 L 165.39 296.6" /><path d="M 165.39 296.78 L 165.39 296.87" /><path d="M 165.39 296.6 L 165.39 296.43 L 165.39 296.34" /><path d="M 165.39 296.6 L 165.3 296.43 L 165.3 296.25" /><path d="M 165.39 296.6 L 165.3 296.52 L 165.3 296.25" /><path d="M 165.39 296.34 L 165.39 296.16" /><path d="M 165.39 296.34 L 165.39 296.52 L 165.39 296.69 L 165.39 296.87" /><path d="M 165.39 296.16 L 165.3 295.98 L 165.3 295.81 L 165.3 295.63" /><path d="M 165.39 296.16 L 165.3 296.07" /><path d="M 165.3 295.63 L 165.3 295.45" /><path d="M 165.3 295.63 L 165.3 295.54" /><path d="M 165.3 295.63 L 165.3 295.9" /><path d="M 165.3 295.45 L 165.3 295.28" /><path d="M 165.3 295.45 L 165.3 295.54" /><path d="M 165.3 295.28 L 165.3 295.1 L 165.3 294.92" /><path d="M 165.3 295.28 L 165.3 295.54" /><path d="M 165.3 294.92 L 165.3 294.74" /><path d="M 165.3 294.92 L 165.3 295.01 L 165.3 295.19 L 165.3 295.36 L 165.3 295.54" /><path d="M 165.3 294.74 L 165.3 294.57 L 165.3 294.39 L 165.3 294.21" /><path d="M 165.3 294.74 L 165.3 294.66 L 165.3 294.48 L 165.3 294.3 L 165.3 294.12" /><path d="M 165.3 294.21 L 165.3 294.04 L 165.3 293.86 L 165.3 293.68" /><path d="M 165.3 294.21 L 165.3 294.12" /><path d="M 165.3 293.68 L 165.39 293.5 L 165.39 293.33" /><path d="M 165.3 293.68 L 165.3 293.77" /><path d="M 165.39 293.33 L 165.48 293.15" /><path d="M 165.39 293.33 L 165.48 293.24 L 165.48 293.06" /><path d="M 165.39 293.33 L 165.39 293.42 L 165.39 293.59 L 165.3 293.77" /><path d="M 165.48 293.15 L 165.56 292.97" /><path d="M 165.48 293.15 L 165.56 292.88" /><path d="M 165.56 292.97 L 165.56 292.88" /><path d="M 165.56 292.97 L 165.56 292.8 L 165.65 292.71" /><path d="M 165.56 292.97 L 165.48 293.06" /><path d="M 165.56 292.88 L 165.65 292.71" /><path d="M 165.56 292.88 L 165.65 292.8 L 165.65 292.62" /><path d="M 165.56 292.88 L 165.48 293.06" /><path d="M 165.65 292.71 L 165.65 292.62" /><path d="M 165.65 292.62 L 165.74 292.44" /><path d="M 165.65 292.62 L 165.74 292.53 L 165.74 292.35" /><path d="M 165.65 292.62 L 165.74 292.35" /><path d="M 165.74 292.44 L 165.74 292.35" /><path d="M 165.74 292.44 L 165.83 292.18" /><path d="M 165.74 292.35 L 165.83 292.18" /><path d="M 165.74 292.35 L 165.83 292.09" /><path d="M 165.83 292.18 L 165.83 292.09" /><path d="M 165.83 292.18 L 165.92 292" /><path d="M 165.83 292.18 L 165.92 291.91" /><path d="M 165.83 292.09 L 165.92 291.91" /><path d="M 165.83 292.09 L 165.92 292" /><path d="M 165.92 291.91 L 166.01 291.82" /><path d="M 165.92 291.91 L 166.01 291.73 L 166.1 291.56 L 166.1 291.38" /><path d="M 166.01 291.82 L 166.01 291.65 L 166.1 291.47 L 166.1 291.38" /><path d="M 166.01 291.82 L 165.92 292" /><path d="M 166.01 291.82 L 166.01 291.56" /><path d="M 166.1 291.38 L 166.18 291.2" /><path d="M 166.1 291.38 L 166.01 291.56" /><path d="M 166.1 291.38 L 166.18 291.11" /><path d="M 166.18 291.2 L 166.18 291.11" /><path d="M 166.18 291.2 L 166.27 291.03 L 166.27 290.85" /><path d="M 166.18 291.11 L 166.27 290.94" /><path d="M 166.18 291.11 L 166.27 290.85" /><path d="M 166.18 291.11 L 166.1 291.29 L 166.01 291.56" /><path d="M 166.27 290.94 L 166.36 290.76 L 166.36 290.49" /><path d="M 166.27 290.94 L 166.36 290.67" /><path d="M 166.36 290.49 L 166.45 290.32" /><path d="M 166.36 290.49 L 166.36 290.67" /><path d="M 166.45 290.32 L 166.45 290.05" /><path d="M 166.45 290.32 L 166.45 290.14 L 166.45 289.96" /><path d="M 166.45 290.05 L 166.45 289.79" /><path d="M 166.45 290.05 L 166.45 289.87 L 166.45 289.61" /><path d="M 166.45 289.79 L 166.45 289.61" /><path d="M 166.45 289.79 L 166.45 289.96" /><path d="M 166.45 289.61 L 166.45 289.43" /><path d="M 166.45 289.61 L 166.45 289.52 L 166.36 289.34" /><path d="M 166.45 289.43 L 166.36 289.25 L 166.36 289.17" /><path d="M 166.45 289.43 L 166.36 289.34" /><path d="M 166.45 289.43 L 166.36 289.17" /><path d="M 166.36 289.17 L 166.36 288.99" /><path d="M 166.36 289.17 L 166.36 289.34" /><path d="M 166.36 289.17 L 166.36 289.08 L 166.36 288.81 L 166.36 288.63 L 166.27 288.46" /><path d="M 166.36 288.99 L 166.36 288.9" /><path d="M 166.36 288.99 L 166.27 288.81 L 166.27 288.63" /><path d="M 166.36 288.9 L 166.36 288.72 L 166.27 288.55 L 166.27 288.46" /><path d="M 166.36 288.9 L 166.27 288.63" /><path d="M 166.27 288.46 L 166.27 288.28" /><path d="M 166.27 288.28 L 166.18 288.01" /><path d="M 166.27 288.28 L 166.18 288.1 L 166.18 287.93" /><path d="M 166.18 288.01 L 166.18 287.84 L 166.18 287.57 L 166.18 287.39" /><path d="M 166.18 288.01 L 166.18 288.19" /><path d="M 166.18 287.39 L 166.1 287.13 L 166.18 286.95" /><path d="M 166.18 287.39 L 166.18 287.13 L 166.18 286.95" /><path d="M 166.18 286.95 L 166.18 286.77" /><path d="M 166.18 286.95 L 166.18 286.69 L 166.18 286.6" /><path d="M 166.18 286.77 L 166.18 286.6" /><path d="M 166.18 286.77 L 166.18 287.04" /><path d="M 166.18 286.77 L 166.18 286.51 L 166.18 286.24" /><path d="M 166.18 286.6 L 166.18 286.42" /><path d="M 166.18 286.6 L 166.18 286.86 L 166.18 287.04" /><path d="M 166.18 286.42 L 166.18 286.15 L 166.18 285.98" /><path d="M 166.18 286.42 L 166.18 286.24" /><path d="M 166.18 285.98 L 166.18 285.8 L 166.18 285.62 L 166.27 285.36" /><path d="M 166.18 285.98 L 166.18 285.71" /><path d="M 166.27 285.36 L 166.27 285.27" /><path d="M 166.27 285.36 L 166.27 285.09" /><path d="M 166.27 285.36 L 166.27 285.53 L 166.18 285.71" /><path d="M 166.27 285.36 L 166.18 285.53" /><path d="M 166.27 285.27 L 166.27 285.09" /><path d="M 166.27 285.27 L 166.18 285.53" /><path d="M 166.27 285.27 L 166.27 285.18 L 166.36 285 L 166.36 284.91" /><path d="M 166.27 285.09 L 166.36 284.91" /><path d="M 166.36 284.91 L 166.36 284.83 L 166.45 284.65" /><path d="M 166.36 284.91 L 166.45 284.74 L 166.45 284.47" /><path d="M 166.36 284.91 L 166.36 284.74" /><path d="M 166.45 284.65 L 166.45 284.47" /><path d="M 166.45 284.65 L 166.36 284.74" /><path d="M 166.45 284.65 L 166.45 284.56 L 166.45 284.38" /><path d="M 166.45 284.47 L 166.45 284.38" /><path d="M 166.45 284.47 L 166.54 284.29 L 166.54 284.12 L 166.54 283.94" /><path d="M 166.45 284.47 L 166.36 284.74" /><path d="M 166.45 284.38 L 166.54 284.21 L 166.54 284.03" /><path d="M 166.54 284.03 L 166.54 283.94" /><path d="M 166.54 284.03 L 166.54 283.85" /><path d="M 166.54 283.94 L 166.54 283.76 L 166.63 283.67" /><path d="M 166.54 283.94 L 166.54 283.85" /><path d="M 166.63 283.67 L 166.63 283.5" /><path d="M 166.63 283.67 L 166.63 283.59 L 166.63 283.41" /><path d="M 166.63 283.67 L 166.54 283.85" /><path d="M 166.63 283.5 L 166.63 283.41" /><path d="M 166.18 285.71 L 166.18 285.89 L 166.18 286.07 L 166.18 286.24" /><path d="M 166.18 285.71 L 166.18 285.53" /><path d="M 166.18 287.04 L 166.18 287.31 L 166.18 287.48 L 166.18 287.75 L 166.18 287.93" /><path d="M 166.18 287.93 L 166.18 288.19" /><path d="M 166.18 288.19 L 166.27 288.37 L 166.27 288.63" /><path d="M 166.45 289.96 L 166.45 290.23 L 166.45 290.41 L 166.36 290.58 L 166.36 290.67" /><path d="M 166.36 290.67 L 166.27 290.85" /><path d="M 166.01 291.56 L 165.92 291.73 L 165.92 292" /><path d="M 165.3 295.54 L 165.3 295.72 L 165.3 295.9" /><path d="M 165.3 295.9 L 165.3 296.07" /><path d="M 165.3 296.07 L 165.3 296.25" /><path d="M 165.39 298.11 L 165.39 298.29" /><path d="M 165.39 298.11 L 165.48 298.38 L 165.48 298.55" /><path d="M 165.39 298.29 L 165.48 298.55" /><path d="M 165.48 299.35 L 165.48 299.53" /><path d="M 165.48 299.53 L 165.48 299.7" /><path d="M 165.48 300.15 L 165.48 300.41" /><path d="M 165.48 300.15 L 165.48 300.32 L 165.48 300.5 L 165.56 300.59" /><path d="M 165.48 300.15 L 165.48 299.88 L 165.48 299.7" /><path d="M 165.48 300.15 L 165.48 300.24 L 165.48 300.41" /><path d="M 165.48 300.41 L 165.56 300.59" /><path d="M 166.45 307.32 L 166.54 307.5" /><path d="M 166.45 307.32 L 166.45 307.59 L 166.54 307.76" /><path d="M 166.45 307.32 L 166.45 307.05" /><path d="M 166.27 308.83 L 166.18 309" /><path d="M 166.18 309.09 L 166.1 309.18" /><path d="M 166.18 309.09 L 166.18 309" /><path d="M 166.18 309.09 L 166.1 309.27" /><path d="M 166.1 309.18 L 166.1 309.27" /><path d="M 166.1 309.18 L 166.01 309.45" /><path d="M 166.1 309.18 L 166.18 309" /><path d="M 166.1 309.27 L 166.01 309.45" /><path d="M 166.1 309.27 L 166.01 309.36 L 166.01 309.45" /><path d="M 166.01 309.45 L 165.92 309.62" /><path d="M 165.65 310.15 L 165.56 310.33" /><path d="M 165.65 310.15 L 165.74 309.98" /><path d="M 165.56 310.33 L 165.48 310.42 L 165.48 310.6" /><path d="M 165.56 310.33 L 165.56 310.42" /><path d="M 165.48 310.6 L 165.56 310.42" /><path d="M 165.03 311.39 L 164.86 311.66" /><path d="M 165.03 311.39 L 165.12 311.31" /><path d="M 164.41 312.9 L 164.41 313.08 L 164.32 313.17" /><path d="M 164.5 315.73 L 164.5 315.82" /><path d="M 164.5 315.82 L 164.5 316 L 164.59 316.09" /><path d="M 164.59 316.62 L 164.68 316.71 L 164.68 316.88" /><path d="M 164.68 317.06 L 164.68 317.24" /><path d="M 164.68 317.06 L 164.68 316.88" /><path d="M 164.86 318.3 L 164.86 318.48" /><path d="M 164.86 318.3 L 164.86 318.57 L 164.94 318.66" /><path d="M 164.86 318.48 L 164.94 318.66" /><path d="M 164.94 318.66 L 164.94 318.83" /><path d="M 164.94 318.83 L 164.94 319.01" /><path d="M 164.94 319.01 L 165.03 319.28" /><path d="M 165.03 319.28 L 165.03 319.45" /><path d="M 165.03 319.72 L 165.12 319.9" /><path d="M 165.03 319.72 L 165.03 319.45" /><path d="M 165.92 325.39 L 165.92 325.56 L 165.92 325.74 L 165.92 325.83 L 166.01 326.01 L 166.01 326.09 L 166.1 326.18" /><path d="M 166.1 326.18 L 166.1 326.36 L 166.18 326.45" /><path d="M 166.45 327.07 L 166.54 327.25" /><path d="M 166.54 327.25 L 166.63 327.51" /><path d="M 166.63 327.51 L 166.72 327.69 L 166.8 327.78" /><path d="M 166.8 327.78 L 166.98 327.95" /><path d="M 168.22 329.37 L 168.31 329.46" /><path d="M 168.31 329.46 L 168.49 329.64" /><path d="M 168.49 329.64 L 168.49 329.73 L 168.58 329.81" /><path d="M 168.49 329.64 L 168.58 329.81" /><path d="M 164.41 314.94 L 164.41 314.76" /><path d="M 165.3 294.12 L 165.3 293.95 L 165.3 293.77" />
    </g>
  </g>
</svg>