<svg xmlns="http://www.w3.org/2000/svg" viewBox="0 0 532 852" width="532" height="852" fill="none">
  <g shape-rendering="geometricPrecision" text-rendering="geometricPrecision">
    
    <g
      stroke="#111111"
      stroke-opacity="0.94"
      stroke-width="1.65"
      stroke-linecap="round"
      stroke-linejoin="round"
    >
      <path d="M 308.33 495.87 L 308.33 495.7 L 308.42 495.43 L 308.42 495.25 L 308.33 495.08 L 308.24 494.9 L 307.98 494.55" /><path d="M 308.33 495.87 L 308.42 495.61 L 308.42 495.34 L 308.42 495.17 L 308.33 494.99 L 308.15 494.81 L 307.98 494.55" /><path d="M 308.33 495.87 L 308.15 496.41" /><path d="M 307.98 494.55 L 307.62 494.19 L 307.53 494.1 L 307.45 493.93 L 307.27 493.84" /><path d="M 307.98 494.55 L 307.62 494.1 L 307.53 494.01 L 307.36 493.84 L 307.27 493.84" /><path d="M 307.27 493.84 L 307.09 493.75 L 306.91 493.66" /><path d="M 307.27 493.84 L 307 493.75 L 306.91 493.66" /><path d="M 306.91 493.66 L 306.21 493.39 L 305.94 493.31" /><path d="M 305.94 493.31 L 303.99 492.42 L 303.28 492.15" /><path d="M 305.94 493.31 L 303.9 492.42 L 303.28 492.15" /><path d="M 303.28 492.15 L 302.84 491.98 L 302.75 491.89" /><path d="M 302.75 491.89 L 302.58 491.89 L 302.4 491.8" /><path d="M 302.75 491.89 L 302.49 491.8 L 302.4 491.8" /><path d="M 302.4 491.8 L 302.22 491.71" /><path d="M 302.22 491.71 L 301.96 491.62 L 301.78 491.62" /><path d="M 302.22 491.71 L 301.87 491.62 L 301.78 491.62" /><path d="M 301.78 491.62 L 301.6 491.53" /><path d="M 301.6 491.53 L 301.51 491.53 L 301.25 491.53" /><path d="M 301.6 491.53 L 301.42 491.53 L 301.25 491.53" /><path d="M 301.25 491.53 L 301.07 491.45 L 300.8 491.45 L 300.72 491.45 L 300.54 491.45 L 300.36 491.45 L 298.5 491.36 L 298.24 491.36 L 297.35 491.36 L 297.08 491.36 L 296.29 491.36 L 295.93 491.36 L 295.49 491.36" /><path d="M 295.49 491.36 L 295.22 491.36 L 295.14 491.27 L 294.96 491.27" /><path d="M 295.49 491.36 L 295.22 491.27 L 295.05 491.27 L 294.96 491.27" /><path d="M 294.96 491.27 L 294.78 491.27 L 294.6 491.18 L 294.43 491.18" /><path d="M 294.96 491.27 L 294.69 491.27 L 294.52 491.18 L 294.43 491.18" /><path d="M 294.43 491.18 L 294.25 491.09" /><path d="M 294.25 491.09 L 294.16 491.09 L 293.9 491" /><path d="M 294.25 491.09 L 294.07 491 L 293.9 491" /><path d="M 293.9 491 L 293.63 490.83 L 293.54 490.74" /><path d="M 293.54 490.74 L 293.37 490.65 L 293.19 490.56" /><path d="M 293.54 490.74 L 293.28 490.65 L 293.19 490.56" /><path d="M 293.19 490.56 L 293.1 490.47 L 292.83 490.29 L 292.66 490.21 L 292.57 490.12 L 290.53 488.52 L 290.27 488.35 L 289.91 488.08 L 288.41 486.84 L 287.87 486.49 L 287.52 486.22 L 287.43 486.13 L 287.17 485.96 L 285.75 484.8 L 285.39 484.54 L 285.13 484.36 L 284.6 484.01 L 284.51 483.83 L 284.33 483.74 L 284.15 483.65 L 283.89 483.48" /><path d="M 283.89 483.48 L 283.8 483.48 L 283.53 483.39" /><path d="M 283.89 483.48 L 283.71 483.39 L 283.53 483.39" /><path d="M 283.53 483.39 L 283.45 483.3 L 283.36 483.3 L 283.27 483.21 L 283.09 483.21 L 282.91 483.12" /><path d="M 282.91 483.12 L 282.83 483.12 L 282.65 483.12" /><path d="M 282.91 483.12 L 282.74 483.12 L 282.65 483.12" /><path d="M 282.65 483.12 L 282.3 483.12 L 282.12 483.03 L 280.52 483.03 L 280.35 483.03 L 279.73 482.94 L 279.28 482.94 L 279.02 482.94" /><path d="M 279.02 482.94 L 278.75 482.94 L 278.04 482.94" /><path d="M 279.02 482.94 L 278.66 482.94 L 278.04 482.94" /><path d="M 278.04 482.94 L 277.96 482.94 L 277.69 482.94" /><path d="M 278.04 482.94 L 277.87 482.94 L 277.69 482.94" /><path d="M 277.69 482.94 L 277.6 482.94 L 277.51 482.94" /><path d="M 277.69 482.94 L 277.51 482.94" /><path d="M 277.51 482.94 L 277.42 482.86 L 277.34 482.77" /><path d="M 277.34 482.77 L 277.25 482.59 L 277.16 482.5" /><path d="M 277.34 482.77 L 277.25 482.68 L 277.16 482.5" /><path d="M 277.16 482.5 L 277.16 482.32 L 277.16 482.15" /><path d="M 277.16 482.5 L 277.16 482.41 L 277.16 482.24 L 277.16 482.15" /><path d="M 277.16 482.15 L 277.25 481.97 L 277.34 481.79 L 277.34 481.62 L 277.6 481.17 L 277.69 480.91" /><path d="M 277.69 480.91 L 277.69 480.82 L 277.78 480.64" /><path d="M 277.69 480.91 L 277.78 480.82 L 277.78 480.64" /><path d="M 277.78 480.64 L 277.87 480.55 L 277.87 480.29" /><path d="M 277.78 480.64 L 277.87 480.38 L 277.87 480.29" /><path d="M 277.87 480.29 L 277.96 480.2 L 277.96 480.02" /><path d="M 277.87 480.29 L 277.96 480.11 L 277.96 480.02" /><path d="M 277.96 480.02 L 277.96 479.84 L 277.96 479.4 L 277.96 478.6 L 277.96 477.72 L 277.96 477.1 L 277.96 476.66 L 277.96 476.48 L 277.87 476.3 L 277.87 476.12 L 277.87 475.77 L 277.87 475.68" /><path d="M 277.87 475.68 L 277.78 475.42 L 277.78 475.15" /><path d="M 277.87 475.68 L 277.78 475.33 L 277.78 475.15" /><path d="M 277.78 475.15 L 277.78 474.89 L 277.69 474.71" /><path d="M 277.78 475.15 L 277.69 474.8 L 277.69 474.71" /><path d="M 277.69 474.71 L 277.69 474.53 L 277.6 474.35 L 277.6 474.18 L 277.51 474 L 277.42 473.82 L 277.42 473.65 L 277.34 473.47 L 277.25 473.38 L 277.25 473.2 L 277.07 472.85 L 276.89 472.49 L 276.8 472.32 L 276.72 472.23 L 276.63 471.96" /><path d="M 276.63 471.96 L 276.63 471.87 L 276.54 471.7 L 276.45 471.43 L 276.36 471.17" /><path d="M 276.63 471.96 L 276.54 471.79 L 276.45 471.61 L 276.36 471.34 L 276.36 471.17" /><path d="M 276.36 471.17 L 276.27 470.99 L 276.27 470.9 L 276.27 470.72 L 276.18 470.55" /><path d="M 276.18 470.55 L 276.18 470.37 L 276.1 470.1" /><path d="M 276.18 470.55 L 276.18 470.28 L 276.1 470.1" /><path d="M 276.1 470.1 L 276.1 469.84 L 276.1 469.75 L 276.01 469.31 L 276.01 468.95 L 275.92 468.69 L 275.83 468.42 L 275.83 468.15 L 275.74 467.71 L 275.56 467.27 L 275.48 466.74 L 275.3 466.29 L 275.3 466.21 L 275.12 465.67 L 275.03 465.14 L 274.86 464.61 L 274.86 464.52 L 274.77 464.35 L 274.68 464.17 L 274.68 464.08 L 274.59 463.9 L 274.5 463.73" /><path d="M 274.5 463.73 L 274.41 463.46 L 274.24 463.02" /><path d="M 274.5 463.73 L 274.32 463.37 L 274.24 463.02" /><path d="M 274.24 463.02 L 273.62 461.78 L 273.53 461.51 L 273.26 460.98 L 273.17 460.8 L 273.08 460.63 L 273 460.45 L 272.91 460.27 L 272.82 459.92 L 272.73 459.65 L 272.73 459.48 L 272.64 459.3 L 272.64 459.12" /><path d="M 272.64 459.12 L 272.38 458.15 L 272.11 457.35" /><path d="M 272.64 459.12 L 272.29 458.06 L 272.11 457.35" /><path d="M 272.11 457.35 L 272.11 457.08 L 271.93 456.64 L 271.93 456.46 L 271.84 456.2 L 271.84 456.02 L 271.76 455.84 L 271.23 453.72 L 271.14 453.45 L 271.05 453.1 L 270.96 452.92 L 270.87 452.57 L 270.69 452.39 L 270.61 452.04 L 270.43 451.68 L 270.16 451.15 L 269.99 450.8 L 269.9 450.62 L 269.72 450.35 L 269.72 450.27 L 269.63 450.09 L 269.37 449.56" /><path d="M 269.37 449.56 L 269.28 449.47 L 268.83 448.58" /><path d="M 269.37 449.56 L 269.28 449.38 L 268.83 448.58" /><path d="M 268.83 448.58 L 268.66 448.14 L 268.39 447.7" /><path d="M 268.39 447.7 L 268.13 446.99 L 267.77 446.28" /><path d="M 268.39 447.7 L 268.04 446.9 L 267.77 446.28" /><path d="M 267.77 446.28 L 267.59 445.93 L 267.33 445.48 L 267.24 445.31 L 267.06 445.04 L 266.89 444.6 L 266.62 444.07" /><path d="M 266.62 444.07 L 266.62 443.98 L 266.53 443.8 L 266.44 443.62 L 266.27 443.45" /><path d="M 266.62 444.07 L 266.53 443.89 L 266.44 443.71 L 266.35 443.62 L 266.27 443.45" /><path d="M 266.27 443.45 L 266.18 443.18 L 265.65 442.38 L 265.47 442.12 L 265.38 441.94 L 265.29 441.85" /><path d="M 265.29 441.85 L 265.2 441.76 L 265.11 441.5" /><path d="M 265.29 441.85 L 265.2 441.68 L 265.11 441.5" /><path d="M 265.11 441.5 L 265.03 441.23 L 264.94 441.06" /><path d="M 265.11 441.5 L 264.94 441.23 L 264.94 441.06" /><path d="M 264.94 441.06 L 264.85 440.97 L 264.85 440.79 L 264.76 440.61 L 264.67 440.35 L 264.67 440.17 L 264.58 440.08 L 264.58 439.9 L 264.49 439.73 L 264.49 439.55 L 264.41 439.11 L 264.32 438.66 L 264.32 438.49 L 264.32 438.31 L 264.23 438.13 L 264.23 438.04 L 264.14 437.87 L 264.14 437.69 L 264.14 437.6" /><path d="M 264.14 437.6 L 264.05 437.51 L 263.96 437.16" /><path d="M 264.14 437.6 L 264.05 437.42 L 263.96 437.16" /><path d="M 263.96 437.16 L 263.7 436.63 L 263.61 436.36" /><path d="M 263.61 436.36 L 263.52 436.1 L 263.43 435.92 L 263.34 435.83 L 263.17 435.39" /><path d="M 263.61 436.36 L 263.43 436.01 L 263.43 435.83 L 263.34 435.65 L 263.17 435.39" /><path d="M 263.17 435.39 L 263.08 435.12" /><path d="M 263.08 435.12 L 263.08 435.03 L 262.99 434.86 L 262.99 434.68 L 262.9 434.59 L 262.99 434.41 L 263.08 434.15" /><path d="M 263.08 435.12 L 262.99 434.94 L 262.99 434.77 L 262.9 434.68 L 262.99 434.5 L 262.99 434.32 L 263.08 434.15" /><path d="M 263.08 434.15 L 263.08 433.97 L 263.08 433.88 L 263.08 433.7 L 262.99 433.53 L 262.81 433.17" /><path d="M 262.81 433.17 L 262.72 433.08 L 262.72 432.91 L 262.72 432.82" /><path d="M 262.81 433.17 L 262.72 433 L 262.72 432.82" /><path d="M 262.72 432.82 L 263.34 432.38" /><path d="M 262.72 432.82 L 262.81 432.73" /><path d="M 262.72 432.82 L 262.55 432.91 L 262.46 433 L 262.37 433" /><path d="M 263.34 432.38 L 263.61 432.2 L 263.7 432.11 L 263.87 431.93" /><path d="M 263.34 432.38 L 262.81 432.73" /><path d="M 263.87 431.93 L 264.05 431.84 L 264.49 431.49" /><path d="M 263.87 431.93 L 264.14 431.76 L 264.49 431.49" /><path d="M 264.49 431.49 L 264.85 431.31 L 264.94 431.14 L 265.11 431.05 L 265.38 430.87 L 265.56 430.69" /><path d="M 265.56 430.69 L 265.65 430.52 L 265.56 430.34 L 265.47 430.16 L 265.38 429.9 L 263.08 425.11 L 262.9 424.76" /><path d="M 265.56 430.69 L 265.82 430.52 L 265.91 430.43 L 266 430.25 L 266 430.16 L 265.82 429.81 L 263.43 424.67 L 263.34 424.58 L 263.25 424.67 L 263.17 424.76 L 263.08 424.76 L 262.9 424.76" /><path d="M 262.9 424.76 L 262.81 424.58 L 262.72 424.41 L 262.63 424.23 L 262.37 423.7 L 262.19 423.25 L 261.57 421.93 L 261.31 421.31 L 261.13 420.95 L 259.18 416.88 L 259 416.52 L 258.03 414.58 L 257.85 414.13 L 257.32 412.98 L 257.23 412.63 L 256.52 411.21 L 256.35 410.86 L 256.08 410.32 L 255.55 409.26 L 253.6 405.01 L 253.07 403.86 L 252.45 402.62 L 252.1 401.91 L 251.92 401.56 L 251.83 401.2 L 251.65 400.85 L 251.12 399.79 L 249.26 395.8 L 248.82 394.83 L 247.58 392.26 L 247.05 391.2 L 245.37 387.48 L 244.83 386.41 L 243.06 382.61 L 242.62 381.45 L 241.65 379.42 L 240.85 377.82 L 240.67 377.47" /><path d="M 240.67 377.47 L 240.58 377.29" /><path d="M 240.67 377.47 L 240.58 377.2" /><path d="M 240.58 377.29 L 240.58 377.11 L 240.67 376.94" /><path d="M 240.58 377.29 L 240.58 377.2" /><path d="M 240.58 377.29 L 240.49 377.11" /><path d="M 240.67 376.94 L 241.11 376.58 L 241.47 376.32 L 241.65 376.14 L 241.82 376.05 L 242 375.96 L 242.09 375.79" /><path d="M 240.67 376.94 L 240.58 377.03 L 240.58 377.2" /><path d="M 240.67 376.94 L 240.32 377.2" /><path d="M 242.09 375.79 L 242.27 375.7 L 242.44 375.61" /><path d="M 242.09 375.79 L 242.27 375.79 L 242.44 375.61" /><path d="M 240.58 377.2 L 240.49 377.11" /><path d="M 262.81 432.73 L 262.63 432.91 L 262.55 433 L 262.37 433" /><path d="M 243.77 457.08 L 243.68 457.26 L 243.51 457.53 L 243.33 457.79 L 243.33 457.88 L 243.24 457.97 L 243.15 458.15 L 243.06 458.32 L 242.97 458.5 L 242.8 458.86 L 242.35 459.83 L 241.82 460.89 L 241.56 461.34 L 241.38 461.87 L 241.29 462.04 L 241.11 462.31 L 240.85 462.84 L 240.41 463.9 L 239.87 464.88 L 239.43 465.76 L 239.17 466.29 L 238.99 466.65" /><path d="M 243.77 457.08 L 243.86 457 L 244.13 456.64" /><path d="M 243.77 457.08 L 243.95 456.91 L 244.13 456.64" /><path d="M 244.13 456.64 L 244.21 456.55 L 244.3 456.38 L 244.66 455.84 L 245.37 454.78 L 246.07 453.81 L 246.52 453.19 L 246.78 452.83 L 246.87 452.66 L 247.05 452.39 L 247.31 452.04 L 247.4 451.86 L 247.58 451.68 L 247.76 451.42 L 247.85 451.24 L 248.11 450.89 L 248.82 449.91 L 249.53 448.94 L 250.24 447.87 L 250.5 447.52 L 250.94 446.81 L 251.03 446.72 L 251.12 446.55 L 251.3 446.28 L 251.48 446.1 L 251.65 445.75 L 251.92 445.48 L 252.01 445.31 L 252.18 445.04 L 252.36 444.77 L 252.54 444.51 L 252.72 444.24 L 253.07 443.8 L 253.16 443.62 L 253.25 443.53 L 253.34 443.45 L 253.42 443.27 L 253.69 442.91" /><path d="M 253.69 442.91 L 253.78 442.74 L 254.04 442.38" /><path d="M 253.69 442.91 L 253.87 442.65 L 254.04 442.38" /><path d="M 254.04 442.38 L 254.13 442.21 L 254.4 441.76 L 254.93 441.06 L 255.11 440.79 L 255.37 440.52 L 255.55 440.17 L 255.73 439.9 L 255.82 439.82 L 255.99 439.55 L 256.52 438.75 L 256.7 438.58 L 256.79 438.31 L 257.23 437.69 L 257.94 436.72" /><path d="M 257.94 436.72 L 258.21 436.36 L 258.38 436.18 L 258.47 436.01" /><path d="M 257.94 436.72 L 258.21 436.27 L 258.38 436.1 L 258.47 436.01" /><path d="M 258.47 436.01 L 258.56 435.83 L 258.65 435.65 L 258.74 435.56 L 258.74 435.39" /><path d="M 258.74 435.39 L 258.74 435.3 L 258.74 435.12" /><path d="M 258.74 435.39 L 258.74 435.21 L 258.74 435.12" /><path d="M 258.74 435.12 L 258.74 434.77 L 258.74 434.59 L 258.74 434.5" /><path d="M 258.74 435.12 L 258.74 434.68 L 258.74 434.5" /><path d="M 258.74 434.5 L 258.65 433.97" /><path d="M 258.74 434.5 L 258.74 434.32 L 258.65 433.97" /><path d="M 258.65 433.97 L 258.56 433.7 L 258.56 433.53 L 258.47 433.26 L 258.47 432.91" /><path d="M 258.65 433.97 L 258.56 433.62 L 258.56 433.44 L 258.56 433.17 L 258.47 432.91" /><path d="M 258.47 432.91 L 258.47 432.64 L 258.47 432.38 L 258.47 432.02 L 258.47 431.84 L 258.47 431.49 L 258.47 431.4 L 258.56 431.31 L 258.65 431.23 L 258.74 431.31 L 258.83 431.31 L 258.92 431.4" /><path d="M 258.92 431.4 L 259 431.49 L 259.18 431.58" /><path d="M 258.92 431.4 L 259.09 431.58 L 259.18 431.58" /><path d="M 259.18 431.58 L 259.27 431.67 L 259.36 431.67 L 259.54 431.67 L 259.71 431.67 L 260.07 431.58 L 260.24 431.58 L 260.42 431.49 L 260.86 431.4" /><path d="M 260.86 431.4 L 261.13 431.23 L 261.22 431.31 L 261.31 431.31" /><path d="M 260.86 431.4 L 261.22 431.23 L 261.31 431.31" /><path d="M 261.31 431.31 L 261.39 431.93" /><path d="M 261.31 431.31 L 261.39 431.49 L 261.39 431.93" /><path d="M 261.39 431.93 L 261.48 432.11 L 261.48 432.29 L 261.66 432.55 L 261.84 433.08 L 262.01 433.17 L 262.1 433.17 L 262.19 433.08 L 262.37 433" /><path d="M 240.49 377.11 L 240.32 377.2" /><path d="M 240.49 377.11 L 240.41 377.11 L 240.32 377.2" /><path d="M 240.32 377.2 L 240.23 377.29 L 239.96 377.47 L 239.79 377.56 L 239.52 377.73 L 239.43 377.82 L 239.34 377.91 L 239.17 378 L 238.99 378 L 238.9 378 L 238.72 378" /><path d="M 238.72 378 L 238.63 378 L 238.46 378" /><path d="M 238.72 378 L 238.55 378 L 238.46 378" /><path d="M 238.46 378 L 238.28 377.91 L 238.1 377.82 L 238.02 377.73 L 237.93 377.73 L 237.84 377.65 L 237.75 377.56 L 237.57 377.38 L 237.4 377.29 L 237.31 377.11" /><path d="M 237.31 377.11 L 237.13 376.94 L 236.95 376.76" /><path d="M 237.31 377.11 L 237.04 376.85 L 236.95 376.76" /><path d="M 236.95 376.76 L 236.78 376.58 L 236.6 376.41 L 236.42 376.32 L 236.33 376.14 L 236.16 376.05 L 236.07 375.88 L 235.89 375.79 L 235.71 375.7 L 235.62 375.7 L 235.45 375.61 L 235.36 375.61 L 235.18 375.61 L 235.09 375.61" /><path d="M 235.09 375.61 L 235 375.61 L 234.83 375.61 L 234.65 375.7" /><path d="M 235.09 375.61 L 234.92 375.61 L 234.74 375.7 L 234.65 375.7" /><path d="M 234.65 375.7 L 234.56 375.79 L 234.47 375.79 L 234.3 375.96 L 234.21 376.05 L 234.03 376.14" /><path d="M 234.03 376.14 L 234.03 376.23 L 233.85 376.41" /><path d="M 234.03 376.14 L 233.94 376.32 L 233.85 376.41" /><path d="M 233.85 376.41 L 233.76 376.58 L 233.68 376.94 L 233.59 377.11 L 233.5 377.2 L 233.41 377.38 L 233.32 377.47" /><path d="M 233.32 377.47 L 233.23 377.56 L 233.14 377.65 L 232.97 377.73 L 232.61 378" /><path d="M 233.32 377.47 L 233.23 377.65 L 233.06 377.73 L 232.97 377.82 L 232.61 378" /><path d="M 232.61 378 L 232.44 378.09 L 232.35 378.18 L 231.64 378.62 L 231.28 378.8 L 231.11 378.89 L 230.93 379.06 L 230.84 379.06 L 230.4 379.42 L 228.98 380.39 L 228.8 380.57 L 228.63 380.66 L 228.45 380.75 L 228.27 380.83 L 228.18 380.83 L 228.1 380.92 L 227.92 380.92 L 227.83 380.92 L 227.56 381.01 L 227.39 381.01 L 227.12 381.1 L 226.95 381.1 L 226.77 381.1 L 226.33 381.1 L 226.06 381.1 L 225.71 381.1 L 225.26 381.1 L 224.55 381.1 L 224.2 381.1 L 224.02 381.1 L 223.85 381.1 L 223.31 381.01 L 223.14 381.01 L 222.96 380.92 L 222.87 380.92 L 222.52 380.92 L 221.99 380.92 L 221.45 381.01 L 221.01 381.01 L 220.83 381.01" /><path d="M 268.75 382.07 L 268.92 382.25 L 269.1 382.43 L 269.28 382.61 L 269.63 382.96 L 270.43 383.67 L 270.69 384.02 L 271.23 384.55 L 271.76 385.09 L 271.84 385.26 L 272.2 385.53 L 272.55 385.97 L 273 386.41 L 273.26 386.77 L 273.44 386.95 L 273.7 387.12 L 273.88 387.39 L 273.97 387.48 L 274.06 387.65 L 274.15 387.83 L 274.32 388.18 L 274.59 388.63 L 275.03 389.34 L 275.12 389.42 L 275.3 389.69 L 275.65 390.22 L 276.1 390.93 L 276.54 391.73 L 276.8 392.08 L 277.51 393.14 L 277.96 393.76 L 278.58 394.56 L 279.2 395.45 L 279.9 396.51 L 280.61 397.57 L 281.06 398.19 L 281.59 398.9 L 282.03 399.52 L 282.21 399.79 L 282.38 400.05 L 282.56 400.32 L 282.74 400.58 L 283 401.03 L 283.18 401.29 L 283.27 401.47 L 283.45 401.82 L 283.8 402.27 L 284.42 403.33 L 285.04 404.39 L 285.22 404.66 L 285.48 405.1 L 285.75 405.54 L 285.93 405.81 L 286.19 406.16 L 286.37 406.43 L 286.46 406.52 L 286.81 407.05 L 287.08 407.58 L 287.34 407.93 L 287.52 408.38 L 288.05 409.09 L 288.32 409.53 L 288.58 409.97 L 288.67 410.15 L 288.76 410.32 L 288.85 410.5 L 288.94 410.68 L 289.2 411.39 L 289.29 411.56 L 289.38 411.83 L 289.56 412.1 L 289.65 412.27" /><path d="M 268.75 382.07 L 268.66 381.99 L 268.48 381.81" /><path d="M 268.75 382.07 L 268.57 381.9 L 268.48 381.81" /><path d="M 268.48 381.81 L 268.39 381.72 L 268.3 381.54 L 267.95 381.28 L 267.77 381.01 L 267.42 380.66 L 267.15 380.39 L 266.89 380.21 L 266.71 380.04 L 266.62 379.86 L 266.35 379.59 L 266 379.33 L 265.73 379.06 L 265.38 378.71 L 265.29 378.53 L 264.94 378.27 L 264.67 378 L 264.58 377.91 L 264.49 377.82 L 264.32 377.65 L 264.14 377.47 L 263.79 377.2 L 263.43 376.94 L 262.99 376.58 L 262.72 376.41 L 262.37 376.14 L 262.1 375.96 L 261.75 375.7 L 261.48 375.52 L 261.31 375.34 L 260.95 375.08 L 260.42 374.64 L 260.24 374.55 L 260.16 374.37 L 259.98 374.37 L 259.89 374.28 L 259.8 374.19 L 259.54 373.93 L 259.45 373.75 L 259.27 373.66" /><path d="M 259.27 373.66 L 259.09 373.48 L 258.65 373.13" /><path d="M 259.27 373.66 L 259 373.4 L 258.65 373.13" /><path d="M 258.65 373.13 L 258.56 373.04 L 258.47 372.95 L 258.3 372.86 L 258.21 372.78 L 258.12 372.69 L 258.03 372.69 L 257.85 372.6 L 257.68 372.6 L 257.59 372.6 L 257.41 372.6 L 257.23 372.6 L 256.88 372.6 L 256.7 372.51 L 256.52 372.51 L 256.17 372.51 L 255.9 372.51 L 255.64 372.51 L 255.46 372.51" /><path d="M 255.46 372.51 L 255.28 372.51 L 255.11 372.51" /><path d="M 255.46 372.51 L 255.2 372.51 L 255.11 372.51" /><path d="M 255.11 372.51 L 254.93 372.6 L 254.75 372.6 L 254.58 372.6 L 254.22 372.78 L 253.96 372.86 L 253.78 372.95 L 253.6 373.04 L 253.51 373.13 L 253.34 373.22 L 253.25 373.31 L 253.07 373.4 L 252.98 373.57 L 252.89 373.66 L 252.8 373.75 L 252.72 373.93 L 252.54 374.02 L 252.45 374.19 L 252.36 374.37 L 252.18 374.55" /><path d="M 252.18 374.55 L 251.92 374.9 L 251.83 375.08" /><path d="M 252.18 374.55 L 251.92 374.99 L 251.83 375.08" /><path d="M 251.83 375.08 L 251.74 375.17 L 251.56 375.26 L 251.48 375.34 L 251.3 375.43 L 251.21 375.52 L 251.03 375.61 L 250.94 375.61 L 250.77 375.7 L 250.68 375.7 L 250.41 375.79 L 250.06 375.79 L 249.97 375.79 L 249.79 375.79 L 249.7 375.79 L 249.53 375.79 L 249.44 375.79 L 249.35 375.79 L 249.26 375.7 L 249.09 375.7 L 248.91 375.61 L 248.82 375.52 L 248.55 375.34 L 248.38 375.26 L 248.02 375.08 L 247.67 374.9 L 247.49 374.81 L 247.4 374.72 L 246.78 374.37 L 246.61 374.28 L 246.43 374.19 L 246.34 374.19 L 246.16 374.19 L 245.99 374.1 L 245.9 374.1 L 245.81 374.1 L 245.63 374.19 L 245.45 374.19 L 245.28 374.28 L 244.75 374.46 L 244.57 374.55 L 244.3 374.64 L 244.04 374.72 L 243.95 374.72 L 243.59 374.9 L 243.42 374.9" /><path d="M 243.42 374.9 L 243.33 374.99 L 243.15 375.08 L 242.97 375.26" /><path d="M 243.42 374.9 L 243.24 374.99 L 243.06 375.08 L 242.97 375.26" /><path d="M 242.97 375.26 L 242.71 375.34 L 242.44 375.61" /><path d="M 220.83 381.01 L 220.57 381.01 L 220.39 381.1 L 220.21 381.1" /><path d="M 220.83 381.01 L 220.48 381.1 L 220.3 381.1 L 220.21 381.1" /><path d="M 220.21 381.1 L 219.86 381.1 L 219.59 381.1 L 219.15 381.1 L 218.97 381.1 L 218.8 381.1 L 218.62 381.1 L 218.44 381.1 L 218.35 381.1 L 218.09 381.01 L 218 381.01 L 217.65 381.01 L 217.56 381.1 L 217.38 381.1 L 217.29 381.1 L 216.85 381.1 L 216.49 381.1 L 216.14 381.1 L 215.52 381.1 L 214.99 381.1 L 214.64 381.1 L 214.46 381.19 L 214.28 381.19 L 214.19 381.28 L 214.1 381.37 L 213.93 381.37 L 213.84 381.54 L 213.66 381.63 L 213.48 381.72 L 213.31 381.81 L 213.22 381.81 L 213.13 381.72 L 212.86 381.72 L 212.69 381.63" /><path d="M 212.69 381.63 L 212.42 381.54 L 212.24 381.45 L 212.07 381.37" /><path d="M 212.69 381.63 L 212.33 381.54 L 212.16 381.45 L 212.07 381.37" /><path d="M 212.07 381.37 L 212.07 381.28 L 212.07 381.1 L 212.07 380.83" /><path d="M 212.07 381.37 L 212.07 381.19 L 212.07 381.01 L 212.07 380.83" /><path d="M 212.07 380.83 L 212.16 380.66 L 212.16 380.48 L 212.24 380.21 L 212.24 379.95 L 212.24 379.77 L 212.33 379.59 L 212.33 379.42 L 212.33 379.33 L 212.33 379.15 L 212.33 379.06 L 212.24 378.89 L 212.24 378.8 L 212.24 378.53 L 212.16 378.35 L 212.07 378.18 L 211.98 377.91 L 211.89 377.82 L 211.8 377.65 L 211.71 377.47 L 211.62 377.29 L 211.54 377.11 L 211.36 376.94 L 211.27 376.67 L 211.18 376.58 L 211.09 376.41 L 210.92 376.32 L 210.83 376.23 L 210.74 376.14 L 210.56 376.05 L 210.47 375.96 L 210.3 375.96 L 210.12 375.88 L 209.85 375.79 L 209.41 375.61 L 209.23 375.61 L 208.97 375.43 L 208.61 375.34 L 208.08 375.17 L 207.82 375.08 L 207.64 375.08 L 207.46 374.99" /><path d="M 207.46 374.99 L 207.37 374.9 L 207.11 374.81" /><path d="M 207.46 374.99 L 207.28 374.9 L 207.11 374.81" /><path d="M 207.11 374.81 L 207.02 374.81 L 206.93 374.72 L 206.84 374.64 L 206.66 374.46" /><path d="M 206.66 374.46 L 206.58 374.37 L 206.49 374.19 L 206.4 374.02 L 206.13 373.84" /><path d="M 206.66 374.46 L 206.58 374.28 L 206.4 374.1 L 206.31 374.02 L 206.13 373.84" /><path d="M 206.13 373.84 L 206.04 373.75 L 205.87 373.66 L 205.78 373.66 L 205.6 373.66 L 205.51 373.66 L 205.42 373.75 L 205.34 373.84 L 205.34 374.02 L 205.16 374.81 L 204.89 375.88 L 204.81 376.49 L 204.72 376.94" /><path d="M 204.72 376.94 L 204.63 377.03 L 204.63 377.29 L 204.63 377.47 L 204.63 377.82" /><path d="M 204.72 376.94 L 204.63 377.11 L 204.63 377.38 L 204.63 377.65 L 204.63 377.82" /><path d="M 204.63 377.82 L 204.72 378 L 204.89 378.71 L 204.89 378.89 L 204.98 378.97 L 204.98 379.15 L 205.07 379.42 L 205.07 379.59 L 205.07 379.77 L 204.98 379.95 L 204.98 380.13 L 204.98 380.3" /><path d="M 204.98 380.3 L 204.89 380.39 L 204.89 380.57 L 204.72 380.75" /><path d="M 204.98 380.3 L 204.89 380.48 L 204.81 380.66 L 204.72 380.75" /><path d="M 204.72 380.75 L 204.45 380.83 L 204.27 381.01 L 204.1 381.19 L 203.92 381.28 L 203.83 381.28" /><path d="M 203.83 381.28 L 203.65 381.37 L 203.48 381.45" /><path d="M 203.83 381.28 L 203.57 381.45 L 203.48 381.45" /><path d="M 203.48 381.45 L 203.3 381.54 L 203.21 381.54 L 203.12 381.63 L 203.03 381.63 L 202.86 381.63 L 202.68 381.72 L 202.59 381.72 L 202.41 381.72 L 202.06 381.72 L 201.88 381.72 L 201.53 381.72 L 201.17 381.81 L 201.09 381.81 L 200.91 381.81 L 200.73 381.81 L 200.64 381.9 L 200.47 381.99" /><path d="M 200.47 381.99 L 200.38 382.07 L 200.2 382.16" /><path d="M 200.47 381.99 L 200.29 382.07 L 200.2 382.16" /><path d="M 200.2 382.16 L 200.02 382.16" /><path d="M 200.02 382.16 L 199.93 382.16 L 199.76 382.16" /><path d="M 200.02 382.16 L 199.85 382.16 L 199.76 382.16" /><path d="M 199.76 382.16 L 199.58 382.16 L 199.49 382.16 L 199.23 382.07 L 198.69 381.9 L 198.07 381.63 L 197.28 381.37 L 196.75 381.19 L 196.39 381.1 L 196.21 381.01 L 196.13 381.01 L 195.86 380.92 L 195.77 380.83" /><path d="M 195.77 380.83 L 195.59 380.75 L 195.33 380.57" /><path d="M 195.77 380.83 L 195.51 380.66 L 195.33 380.57" /><path d="M 195.33 380.57 L 195.15 380.48 L 194.97 380.3" /><path d="M 195.33 380.57 L 195.06 380.39 L 194.97 380.3" /><path d="M 194.97 380.3 L 194.8 380.21" /><path d="M 194.8 380.21 L 194.71 380.21 L 194.53 380.13 L 194.44 380.04" /><path d="M 194.8 380.21 L 194.71 380.13 L 194.53 380.04 L 194.44 380.04" /><path d="M 194.44 380.04 L 194.35 380.04 L 194.27 380.13 L 194.18 380.3 L 194.18 380.39" /><path d="M 194.44 380.04 L 194.27 380.04 L 194.18 380.21 L 194.18 380.39" /><path d="M 194.18 380.39 L 194.27 380.66" /><path d="M 194.18 380.39 L 194.18 380.48 L 194.27 380.66" /><path d="M 194.27 380.66 L 194.27 380.75 L 194.27 380.92" /><path d="M 194.27 380.92 L 194.27 381.01 L 194.44 381.19" /><path d="M 194.27 380.92 L 194.35 381.1 L 194.44 381.19" /><path d="M 194.44 381.19 L 194.53 381.37 L 194.62 381.45 L 194.71 381.54 L 194.8 381.72 L 194.8 381.81 L 194.8 381.99 L 194.8 382.16 L 194.71 382.34 L 194.71 382.52 L 194.53 383.23 L 194.27 384.47 L 194.18 385 L 194.09 385.17 L 193.82 386.06 L 193.74 386.59" /><path d="M 193.74 386.59 L 193.74 386.77 L 193.65 386.95" /><path d="M 193.74 386.59 L 193.65 386.86 L 193.65 386.95" /><path d="M 193.65 386.95 L 193.56 387.12 L 193.56 387.21 L 193.47 387.3 L 193.38 387.39 L 193.29 387.48 L 193.12 387.56 L 193.03 387.65 L 192.5 387.83" /><path d="M 192.5 387.83 L 191.96 388.1 L 191.88 388.1" /><path d="M 192.5 387.83 L 191.88 388.1" /><path d="M 191.88 388.1 L 191.7 388.18" /><path d="M 191.88 388.1 L 191.79 388.18 L 191.7 388.18" /><path d="M 191.7 388.18 L 191.61 388.27 L 191.26 388.72" /><path d="M 191.7 388.18 L 191.61 388.36 L 191.26 388.72" /><path d="M 191.26 388.72 L 191.17 388.8 L 190.81 389.07 L 190.55 389.34" /><path d="M 190.55 389.34 L 190.46 389.42 L 190.37 389.51 L 190.28 389.69 L 190.19 389.96" /><path d="M 190.55 389.34 L 190.46 389.51 L 190.37 389.6 L 190.28 389.78 L 190.19 389.96" /><path d="M 190.19 389.96 L 190.19 390.13 L 190.19 390.31 L 190.1 390.58" /><path d="M 190.19 389.96 L 190.19 390.22 L 190.1 390.4 L 190.1 390.58" /><path d="M 190.1 390.58 L 190.02 390.66 L 189.93 390.75" /><path d="M 190.1 390.58 L 190.02 390.75 L 189.93 390.75" /><path d="M 189.93 390.75 L 189.84 390.84 L 189.75 390.84" /><path d="M 189.93 390.75 L 189.75 390.84" /><path d="M 189.75 390.84 L 189.66 390.93" /><path d="M 189.66 390.93 L 189.48 390.93" /><path d="M 189.66 390.93 L 189.57 390.93 L 189.48 390.93" /><path d="M 189.48 390.93 L 189.4 390.93 L 189.22 390.84 L 189.13 390.75 L 188.95 390.66 L 188.78 390.58 L 188.6 390.49 L 188.07 390.13 L 187.8 389.96 L 187.45 389.69 L 186.74 389.25 L 186.38 389.07 L 186.03 388.8 L 185.06 388.18 L 184.79 387.92 L 184.26 387.65 L 183.99 387.39 L 183.73 387.3 L 183.55 387.21 L 183.02 386.86 L 182.67 386.68" /><path d="M 62.75 12.07 L 62.93 12.34 L 63.11 12.69 L 63.29 12.96" /><path d="M 63.29 12.96 L 63.46 13.22 L 63.73 13.58" /><path d="M 63.29 12.96 L 63.46 13.31 L 63.73 13.58" /><path d="M 63.73 13.58 L 63.91 13.84 L 64.08 14.11 L 64.35 14.37 L 64.53 14.64 L 64.79 14.9" /><path d="M 64.79 14.9 L 64.97 15.08 L 65.23 15.35" /><path d="M 64.79 14.9 L 65.06 15.08 L 65.23 15.35" /><path d="M 65.23 15.35 L 65.5 15.52 L 65.85 15.61 L 66.12 15.7 L 66.39 15.7 L 66.74 15.7 L 67.01 15.7" /><path d="M 67.01 15.7 L 67.27 15.7 L 67.63 15.7" /><path d="M 67.01 15.7 L 67.36 15.7 L 67.63 15.7" /><path d="M 67.63 15.7 L 67.89 15.7 L 68.25 15.7 L 68.51 15.7 L 68.87 15.7 L 69.13 15.7 L 69.4 15.7 L 69.75 15.7 L 70.02 15.7 L 70.37 15.7 L 70.64 15.7" /><path d="M 70.64 15.7 L 70.9 15.7 L 71.26 15.7" /><path d="M 70.64 15.7 L 70.99 15.7 L 71.26 15.7" /><path d="M 71.26 15.7 L 71.52 15.7 L 71.88 15.7 L 72.14 15.7" /><path d="M 72.14 15.7 L 72.41 15.7 L 72.76 15.7" /><path d="M 72.14 15.7 L 72.5 15.7 L 72.76 15.7" /><path d="M 72.76 15.7 L 73.03 15.79 L 73.38 15.79 L 73.65 15.79" /><path d="M 73.65 15.79 L 73.91 15.79 L 74.27 15.79" /><path d="M 73.65 15.79 L 74 15.79 L 74.27 15.79" /><path d="M 74.27 15.79 L 74.53 15.88 L 74.89 15.88 L 75.15 15.97" /><path d="M 75.15 15.97 L 75.42 16.06 L 75.77 16.14" /><path d="M 75.15 15.97 L 75.51 16.06 L 75.77 16.14" /><path d="M 75.77 16.14 L 76.04 16.32 L 76.3 16.5 L 76.57 16.68 L 76.75 16.94 L 77.01 17.21 L 77.19 17.47" /><path d="M 77.19 17.47 L 77.37 17.74 L 77.54 18.09" /><path d="M 77.19 17.47 L 77.37 17.83 L 77.54 18.09" /><path d="M 77.54 18.09 L 77.72 18.45" /><path d="M 77.72 18.45 L 77.81 18.71 L 77.99 19.07" /><path d="M 77.72 18.45 L 77.9 18.71 L 77.99 19.07" /><path d="M 77.99 19.07 L 78.16 19.42 L 78.34 19.69 L 78.52 20.04 L 78.61 20.4 L 78.78 20.66 L 78.96 21.02 L 79.14 21.37 L 79.32 21.64 L 79.4 21.99 L 79.58 22.34 L 79.76 22.61 L 79.94 22.96 L 80.11 23.32 L 80.2 23.58 L 80.38 23.94 L 80.56 24.29 L 80.73 24.56" /><path d="M 80.73 24.56 L 80.82 24.91 L 81 25.27" /><path d="M 80.73 24.56 L 80.91 24.91 L 81 25.27" /><path d="M 81 25.27 L 81.18 25.53 L 81.35 25.89 L 81.53 26.24" /><path d="M 81.53 26.24 L 81.62 26.51 L 81.8 26.86" /><path d="M 81.53 26.24 L 81.71 26.51 L 81.8 26.86" /><path d="M 81.8 26.86 L 81.97 27.13 L 82.15 27.48" /><path d="M 81.8 26.86 L 81.97 27.21 L 82.15 27.48" /><path d="M 82.15 27.48 L 82.33 27.83" /><path d="M 82.33 27.83 L 82.5 28.1 L 82.59 28.45" /><path d="M 82.33 27.83 L 82.5 28.19 L 82.59 28.45" /><path d="M 82.59 28.45 L 82.77 28.81 L 82.95 29.07 L 83.12 29.43 L 83.3 29.78 L 83.48 30.05 L 83.57 30.4" /><path d="M 83.57 30.4 L 83.74 30.67 L 83.92 31.02" /><path d="M 83.57 30.4 L 83.74 30.76 L 83.92 31.02" /><path d="M 83.92 31.02 L 84.1 31.38 L 84.27 31.64 L 84.45 32" /><path d="M 84.45 32 L 84.63 32.26 L 84.72 32.62" /><path d="M 84.45 32 L 84.63 32.35 L 84.72 32.62" /><path d="M 84.72 32.62 L 84.89 32.97" /><path d="M 84.89 32.97 L 85.07 33.24 L 85.25 33.59" /><path d="M 84.89 32.97 L 85.07 33.32 L 85.25 33.59" /><path d="M 85.25 33.59 L 85.43 33.94 L 85.6 34.21" /><path d="M 85.6 34.21 L 85.69 34.56 L 85.87 34.83 L 86.05 35.18" /><path d="M 85.6 34.21 L 85.78 34.56 L 85.87 34.92 L 86.05 35.18" /><path d="M 86.05 35.18 L 86.22 35.54" /><path d="M 86.22 35.54 L 86.4 35.8 L 86.58 36.16" /><path d="M 86.22 35.54 L 86.4 35.89 L 86.58 36.16" /><path d="M 86.58 36.16 L 86.67 36.51 L 86.84 36.78" /><path d="M 86.58 36.16 L 86.75 36.51 L 86.84 36.78" /><path d="M 86.84 36.78 L 87.02 37.13 L 87.2 37.49" /><path d="M 87.2 37.49 L 87.29 37.75 L 87.46 38.11 L 87.55 38.46 L 87.64 38.82 L 87.73 39.17 L 87.82 39.61" /><path d="M 87.2 37.49 L 87.29 37.84 L 87.46 38.2 L 87.55 38.55 L 87.64 38.9 L 87.73 39.26 L 87.82 39.61" /><path d="M 87.82 39.61 L 87.91 39.97 L 87.99 40.32 L 88.08 40.68" /><path d="M 88.08 40.68 L 88.08 41.03 L 88.17 41.38 L 88.26 41.83" /><path d="M 88.08 40.68 L 88.17 41.12 L 88.17 41.47 L 88.26 41.83" /><path d="M 88.26 41.83 L 88.35 42.18 L 88.44 42.54 L 88.53 42.89" /><path d="M 88.53 42.89 L 88.53 43.24 L 88.61 43.69" /><path d="M 88.53 42.89 L 88.53 43.33 L 88.61 43.69" /><path d="M 88.61 43.69 L 88.7 44.04 L 88.79 44.39 L 88.88 44.75 L 88.97 45.1" /><path d="M 88.97 45.1 L 88.97 45.46 L 89.06 45.9" /><path d="M 88.97 45.1 L 88.97 45.55 L 89.06 45.9" /><path d="M 89.06 45.9 L 89.15 46.25 L 89.23 46.61 L 89.32 46.96 L 89.41 47.32" /><path d="M 89.41 47.32 L 89.5 47.67 L 89.59 48.11" /><path d="M 89.41 47.32 L 89.5 47.76 L 89.59 48.11" /><path d="M 89.59 48.11 L 89.68 48.47 L 89.77 48.82 L 89.85 49.18 L 89.94 49.53 L 90.03 49.89 L 90.12 50.24" /><path d="M 90.12 50.24 L 90.21 50.59 L 90.39 50.95" /><path d="M 90.12 50.24 L 90.3 50.59 L 90.39 50.95" /><path d="M 90.39 50.95 L 90.47 51.3 L 90.56 51.66 L 90.65 52.01 L 90.74 52.37 L 90.83 52.72" /><path d="M 90.83 52.72 L 90.92 53.07 L 91.09 53.43 L 91.18 53.78 L 91.36 54.14" /><path d="M 90.83 52.72 L 91.01 53.16 L 91.09 53.52 L 91.18 53.87 L 91.36 54.14" /><path d="M 91.36 54.14 L 91.54 54.4 L 91.71 54.67 L 91.98 54.85 L 92.25 55.11" /><path d="M 91.36 54.14 L 91.54 54.49 L 91.8 54.67 L 91.98 54.93 L 92.25 55.11" /><path d="M 92.25 55.11 L 92.51 55.29 L 92.78 55.46 L 93.04 55.64 L 93.31 55.82 L 93.57 56 L 93.84 56.17" /><path d="M 93.84 56.17 L 94.11 56.26 L 94.46 56.44" /><path d="M 93.84 56.17 L 94.19 56.26 L 94.46 56.44" /><path d="M 94.46 56.44 L 94.72 56.44" /><path d="M 94.72 56.44 L 94.99 56.44 L 95.34 56.35" /><path d="M 94.72 56.44 L 95.08 56.44 L 95.34 56.35" /><path d="M 95.34 56.35 L 95.61 56.35 L 95.96 56.26 L 96.23 56.17" /><path d="M 96.23 56.17 L 96.5 56.17 L 96.85 56.08" /><path d="M 96.23 56.17 L 96.58 56.17 L 96.85 56.08" /><path d="M 96.85 56.08 L 97.12 56" /><path d="M 97.12 56 L 97.38 56 L 97.74 55.91" /><path d="M 97.12 56 L 97.47 56 L 97.74 55.91" /><path d="M 97.74 55.91 L 98 55.82 L 98.36 55.73 L 98.62 55.73 L 98.89 55.82 L 99.15 56 L 99.42 56.26" /><path d="M 99.42 56.26 L 99.6 56.53 L 99.6 56.97" /><path d="M 99.42 56.26 L 99.6 56.62 L 99.6 56.97" /><path d="M 99.6 56.97 L 99.68 57.32 L 99.68 57.68" /><path d="M 99.68 57.68 L 99.68 58.03 L 99.77 58.48" /><path d="M 99.68 57.68 L 99.68 58.12 L 99.77 58.48" /><path d="M 99.77 58.48 L 99.77 58.83 L 99.77 59.18" /><path d="M 99.77 59.18 L 99.86 59.54 L 99.86 59.98" /><path d="M 99.77 59.18 L 99.86 59.63 L 99.86 59.98" /><path d="M 99.86 59.98 L 99.86 60.34" /><path d="M 99.86 60.34 L 99.95 60.69 L 99.95 61.13" /><path d="M 99.86 60.34 L 99.95 60.78 L 99.95 61.13" /><path d="M 99.95 61.13 L 99.95 61.49 L 100.04 61.84" /><path d="M 100.04 61.84 L 100.04 62.2 L 100.04 62.64" /><path d="M 100.04 61.84 L 100.04 62.28 L 100.04 62.64" /><path d="M 100.04 62.64 L 100.13 62.99" /><path d="M 100.13 62.99 L 100.13 63.35 L 100.13 63.79" /><path d="M 100.13 62.99 L 100.13 63.44 L 100.13 63.79" /><path d="M 100.13 63.79 L 100.13 64.14 L 100.13 64.5" /><path d="M 100.13 64.5 L 100.13 64.85 L 100.13 65.3" /><path d="M 100.13 64.5 L 100.13 64.94 L 100.13 65.3" /><path d="M 100.13 65.3 L 100.04 65.65 L 99.95 66" /><path d="M 99.95 66 L 99.86 66.36 L 99.77 66.71 L 99.68 67.15" /><path d="M 99.95 66 L 99.86 66.45 L 99.77 66.8 L 99.68 67.15" /><path d="M 99.68 67.15 L 99.6 67.51" /><path d="M 99.6 67.51 L 99.6 67.86 L 99.51 68.22 L 99.42 68.57" /><path d="M 99.6 67.51 L 99.51 67.86 L 99.42 68.22 L 99.42 68.57" /><path d="M 99.42 68.57 L 99.33 68.93 L 99.24 69.28" /><path d="M 99.24 69.28 L 99.15 69.63 L 99.06 70.08" /><path d="M 99.24 69.28 L 99.15 69.72 L 99.06 70.08" /><path d="M 99.06 70.08 L 98.98 70.43 L 98.89 70.79" /><path d="M 98.89 70.79 L 98.8 71.14 L 98.71 71.49 L 98.62 71.85" /><path d="M 98.89 70.79 L 98.71 71.14 L 98.62 71.49 L 98.62 71.85" /><path d="M 98.62 71.85 L 98.53 72.2" /><path d="M 98.53 72.2 L 98.44 72.56 L 98.36 73" /><path d="M 98.53 72.2 L 98.44 72.65 L 98.36 73" /><path d="M 98.36 73 L 98.36 73.35 L 98.36 73.71 L 98.36 74.15 L 98.44 74.51 L 98.44 74.86" /><path d="M 98.44 74.86 L 98.53 75.21 L 98.53 75.66" /><path d="M 98.44 74.86 L 98.53 75.3 L 98.53 75.66" /><path d="M 98.53 75.66 L 98.62 76.01 L 98.62 76.37" /><path d="M 98.62 76.37 L 98.71 76.72 L 98.71 77.16" /><path d="M 98.62 76.37 L 98.71 76.81 L 98.71 77.16" /><path d="M 98.71 77.16 L 98.8 77.52 L 98.89 77.87 L 98.89 78.22 L 98.98 78.67 L 98.98 79.02 L 99.06 79.38 L 99.15 79.73" /><path d="M 99.15 79.73 L 99.15 80.08 L 99.33 80.44 L 99.42 80.79" /><path d="M 99.15 79.73 L 99.24 80.17 L 99.33 80.53 L 99.42 80.79" /><path d="M 99.42 80.79 L 99.6 81.15 L 99.77 81.5 L 99.95 81.77 L 100.13 82.12 L 100.22 82.39 L 100.39 82.74 L 100.48 83.1" /><path d="M 100.48 83.1 L 100.48 83.45 L 100.57 83.89" /><path d="M 100.48 83.1 L 100.48 83.54 L 100.57 83.89" /><path d="M 100.57 83.89 L 100.48 84.25 L 100.48 84.6 L 100.39 85.04 L 100.39 85.4 L 100.3 85.75 L 100.3 86.11 L 100.22 86.55 L 100.22 86.9 L 100.13 87.26 L 100.13 87.61" /><path d="M 100.13 87.61 L 100.04 87.97 L 99.95 88.41" /><path d="M 100.13 87.61 L 100.04 88.06 L 99.95 88.41" /><path d="M 99.95 88.41 L 99.95 88.76 L 99.86 89.12 L 99.77 89.47" /><path d="M 99.77 89.47 L 99.68 89.83 L 99.6 90.27" /><path d="M 99.77 89.47 L 99.68 89.91 L 99.6 90.27" /><path d="M 99.6 90.27 L 99.51 90.62 L 99.51 90.98 L 99.42 91.33" /><path d="M 99.42 91.33 L 99.33 91.69 L 99.33 92.13" /><path d="M 99.42 91.33 L 99.33 91.77 L 99.33 92.13" /><path d="M 99.33 92.13 L 99.24 92.48 L 99.15 92.84 L 99.06 93.19" /><path d="M 99.06 93.19 L 99.06 93.55 L 98.98 93.99" /><path d="M 99.06 93.19 L 99.06 93.63 L 98.98 93.99" /><path d="M 98.98 93.99 L 98.89 94.34 L 98.8 94.7 L 98.8 95.05 L 98.71 95.41" /><path d="M 98.71 95.41 L 98.62 95.76 L 98.53 96.2" /><path d="M 98.71 95.41 L 98.62 95.85 L 98.53 96.2" /><path d="M 98.53 96.2 L 98.53 96.56 L 98.53 96.91" /><path d="M 98.53 96.91 L 98.62 97.27 L 98.71 97.71" /><path d="M 98.53 96.91 L 98.62 97.35 L 98.71 97.71" /><path d="M 98.71 97.71 L 98.8 97.97 L 98.98 98.33" /><path d="M 98.71 97.71 L 98.8 98.06 L 98.98 98.33" /><path d="M 98.98 98.33 L 99.24 98.59 L 99.42 98.86 L 99.6 99.13 L 99.77 99.48 L 99.86 99.83 L 99.86 100.19 L 99.77 100.54 L 99.6 100.9 L 99.51 101.25 L 99.33 101.6" /><path d="M 99.33 101.6 L 99.24 101.87 L 99.06 102.22 L 98.98 102.58" /><path d="M 99.33 101.6 L 99.24 101.96 L 99.06 102.31 L 98.98 102.58" /><path d="M 98.98 102.58 L 98.8 102.93 L 98.71 103.29 L 98.53 103.64" /><path d="M 98.53 103.64 L 98.44 104 L 98.27 104.26 L 98.18 104.62" /><path d="M 98.53 103.64 L 98.36 104 L 98.27 104.35 L 98.18 104.62" /><path d="M 98.18 104.62 L 98 104.97 L 97.82 105.32 L 97.74 105.68 L 97.82 106.03 L 97.91 106.39 L 98.09 106.65 L 98.36 106.83 L 98.62 107.01" /><path d="M 98.62 107.01 L 98.89 107.18 L 99.15 107.36 L 99.42 107.54 L 99.68 107.72 L 99.95 107.89 L 100.22 108.07 L 100.48 108.34" /><path d="M 98.62 107.01 L 98.98 107.18 L 99.24 107.36 L 99.51 107.54 L 99.77 107.72 L 100.04 107.89 L 100.22 108.16 L 100.48 108.34" /><path d="M 98.62 107.01 L 98.36 107.01 L 98 106.92 L 97.74 106.92 L 97.47 107.1 L 97.2 107.27 L 96.94 107.54 L 96.76 107.8 L 96.5 107.89 L 96.14 107.98 L 95.88 107.89 L 95.52 107.89 L 95.26 107.72 L 94.99 107.54 L 94.72 107.27 L 94.55 107.1 L 94.28 106.92 L 94.02 106.74 L 93.75 106.48 L 93.49 106.3 L 93.22 106.12 L 92.95 105.94 L 92.69 105.77 L 92.42 105.68 L 92.07 105.59 L 91.8 105.5 L 91.54 105.32 L 91.27 105.24 L 90.92 105.15 L 90.65 105.06 L 90.39 104.97 L 90.12 104.79 L 89.77 104.7 L 89.5 104.53 L 89.23 104.35 L 88.97 104.17 L 88.7 104 L 88.44 103.82 L 88.17 103.64 L 87.91 103.46 L 87.64 103.29 L 87.37 103.11 L 87.11 102.93 L 86.84 102.84 L 86.58 102.67 L 86.22 102.58 L 85.96 102.49 L 85.69 102.31 L 85.43 102.22 L 85.07 102.14 L 84.81 102.05 L 84.54 101.96 L 84.19 101.87 L 83.92 101.78 L 83.65 101.69 L 83.39 101.6 L 83.04 101.52 L 82.77 101.43 L 82.5 101.34 L 82.15 101.34 L 81.88 101.25 L 81.53 101.16 L 81.26 101.16 L 81 101.07 L 80.64 101.07 L 80.38 100.98 L 80.11 100.98 L 79.76 100.9 L 79.49 100.9 L 79.14 100.81 L 78.87 100.81 L 78.61 100.72 L 78.25 100.72 L 77.99 100.63 L 77.72 100.63 L 77.37 100.54 L 77.1 100.54 L 76.75 100.45 L 76.48 100.45 L 76.22 100.36 L 75.86 100.36 L 75.6 100.28 L 75.24 100.28 L 74.98 100.19 L 74.71 100.19 L 74.36 100.1 L 74.09 100.1 L 73.82 100.1 L 73.47 100.01 L 73.2 100.01 L 72.85 100.01 L 72.58 100.01 L 72.32 100.01 L 71.97 100.01 L 71.7 100.01 L 71.35 100.1 L 71.08 100.1 L 70.81 100.1 L 70.46 100.19 L 70.19 100.19 L 69.84 100.28 L 69.57 100.28 L 69.31 100.36 L 68.95 100.36 L 68.69 100.45 L 68.42 100.54 L 68.07 100.63 L 67.8 100.72 L 67.54 100.81 L 67.18 100.81 L 66.92 100.9 L 66.65 100.98 L 66.3 101.07 L 66.03 101.16 L 65.77 101.25 L 65.41 101.34 L 65.15 101.43 L 64.88 101.52 L 64.53 101.6 L 64.26 101.69 L 63.99 101.69 L 63.64 101.78 L 63.37 101.87 L 63.11 101.96 L 62.75 102.05 L 62.49 102.14 L 62.22 102.22 L 61.87 102.31 L 61.6 102.4 L 61.34 102.49 L 60.98 102.58 L 60.72 102.58 L 60.45 102.67 L 60.1 102.76 L 59.83 102.84 L 59.57 102.93 L 59.21 103.02 L 58.95 103.11 L 58.68 103.2 L 58.33 103.29 L 58.06 103.38 L 57.8 103.46 L 57.44 103.46 L 57.18 103.55 L 56.91 103.64 L 56.56 103.73 L 56.29 103.82 L 56.02 103.91 L 55.67 104 L 55.4 104.08 L 55.14 104.17 L 54.78 104.26 L 54.52 104.35 L 54.25 104.44 L 53.99 104.53 L 53.63 104.62 L 53.37 104.7 L 53.1 104.88 L 52.84 104.97 L 52.57 105.15 L 52.22 105.32 L 51.95 105.41 L 51.68 105.68 L 51.42 105.86 L 51.15 106.03 L 50.89 106.21 L 50.62 106.39 L 50.44 106.56 L 50.18 106.74 L 49.91 106.92 L 49.65 107.1 L 49.38 107.27 L 49.12 107.45 L 48.85 107.72 L 48.59 107.89 L 48.32 108.07 L 48.05 108.25 L 47.79 108.42 L 47.52 108.6 L 47.26 108.78 L 46.99 108.96 L 46.73 109.13 L 46.46 109.31 L 46.19 109.58 L 45.93 109.75 L 45.66 109.93 L 45.4 110.11 L 45.13 110.28 L 44.87 110.46 L 44.6 110.73 L 44.42 110.9 L 44.16 111.17 L 43.98 111.43 L 43.71 111.7 L 43.54 111.97 L 43.27 112.23 L 43.09 112.5 L 42.92 112.76 L 42.65 113.03 L 42.47 113.29 L 42.21 113.56 L 42.03 113.83 L 41.85 114.18 L 41.59 114.45 L 41.41 114.71 L 41.15 114.98 L 40.97 115.24 L 40.79 115.51 L 40.53 115.77 L 40.35 116.04 L 40.08 116.31 L 39.91 116.57 L 39.73 116.84 L 39.46 117.1 L 39.29 117.37 L 39.02 117.63 L 38.84 117.9 L 38.67 118.17 L 38.4 118.43 L 38.22 118.7 L 37.96 118.96 L 37.78 119.23 L 37.6 119.49 L 37.34 119.76 L 37.16 120.03 L 36.9 120.38 L 36.72 120.65 L 36.54 120.91 L 36.28 121.18 L 36.1 121.44 L 35.83 121.71 L 35.66 121.97 L 35.39 122.24 L 35.21 122.5 L 35.04 122.77 L 34.77 123.04 L 34.59 123.3 L 34.42 123.57 L 34.15 123.83 L 33.97 124.19 L 33.8 124.45 L 33.71 124.81 L 33.53 125.16 L 33.53 125.52 L 33.44 125.87 L 33.44 126.31 L 33.44 126.67 L 33.44 127.02 L 33.53 127.46 L 33.53 127.82 L 33.53 128.17 L 33.53 128.53 L 33.62 128.97 L 33.62 129.32 L 33.62 129.68 L 33.71 130.12 L 33.71 130.48 L 33.71 130.83 L 33.71 131.18 L 33.8 131.63 L 33.8 131.98 L 33.8 132.34 L 33.8 132.78 L 33.88 133.13 L 33.88 133.49 L 33.88 133.84 L 33.88 134.28 L 33.97 134.64 L 33.97 134.99 L 33.97 135.43 L 33.97 135.79 L 34.06 136.14 L 34.06 136.5 L 34.06 136.94 L 34.15 137.29 L 34.15 137.65 L 34.15 138.09 L 34.15 138.45 L 34.24 138.8 L 34.24 139.15 L 34.24 139.6 L 34.24 139.95 L 34.33 140.31" /><path d="M 100.48 108.34 L 100.75 108.51" /><path d="M 100.75 108.51 L 101.01 108.78 L 101.19 108.96" /><path d="M 100.75 108.51 L 100.92 108.78 L 101.19 108.96" /><path d="M 101.19 108.96 L 101.46 109.13 L 101.72 109.4" /><path d="M 101.72 109.4 L 101.9 109.58 L 102.16 109.84" /><path d="M 101.72 109.4 L 101.99 109.58 L 102.16 109.84" /><path d="M 102.16 109.84 L 102.43 110.11 L 102.61 110.37 L 102.87 110.64 L 103.05 110.9 L 103.23 111.17 L 103.49 111.43 L 103.67 111.7 L 103.94 111.97 L 104.11 112.23 L 104.38 112.41 L 104.64 112.67 L 104.91 112.85 L 105.18 113.03 L 105.44 113.21 L 105.71 113.38 L 105.97 113.47 L 106.24 113.65" /><path d="M 106.24 113.65 L 106.5 113.74 L 106.77 113.91 L 107.12 114.09" /><path d="M 106.24 113.65 L 106.59 113.74 L 106.86 113.91 L 107.12 114.09" /><path d="M 107.12 114.09 L 107.39 114.27 L 107.65 114.45 L 107.92 114.62 L 108.19 114.8 L 108.45 114.98 L 108.72 115.15 L 108.98 115.33 L 109.25 115.51" /><path d="M 109.25 115.51 L 109.43 115.69 L 109.69 115.86 L 109.96 116.13" /><path d="M 109.25 115.51 L 109.51 115.69 L 109.78 115.86" /><path d="M 109.96 116.13 L 110.22 116.31" /><path d="M 109.96 116.13 L 109.78 115.86" /><path d="M 110.22 116.31 L 110.49 116.48 L 110.75 116.66 L 111.02 116.93 L 111.29 117.1 L 111.55 117.28" /><path d="M 110.22 116.31 L 110.05 116.13 L 109.78 115.86" /><path d="M 111.55 117.28 L 111.82 117.46" /><path d="M 111.55 117.28 L 111.82 117.55 L 112.08 117.72" /><path d="M 111.82 117.46 L 111.99 117.72 L 112.26 117.9" /><path d="M 111.82 117.46 L 112.08 117.72" /><path d="M 112.26 117.9 L 112.53 118.17" /><path d="M 112.26 117.9 L 112.08 117.72" /><path d="M 112.53 118.17 L 112.79 118.34 L 112.97 118.61" /><path d="M 112.53 118.17 L 112.79 118.43 L 112.97 118.61" /><path d="M 112.97 118.61 L 113.23 118.87 L 113.5 119.05" /><path d="M 113.5 119.05 L 113.68 119.32 L 113.94 119.49 L 114.21 119.76" /><path d="M 113.5 119.05 L 113.77 119.32 L 113.94 119.58 L 114.21 119.76" /><path d="M 114.21 119.76 L 114.39 120.03 L 114.65 120.29 L 114.83 120.56 L 115.09 120.82 L 115.27 121.09 L 115.54 121.35 L 115.71 121.62 L 115.98 121.8 L 116.25 122.06 L 116.51 122.24" /><path d="M 116.51 122.24 L 116.69 122.42 L 116.95 122.68" /><path d="M 116.51 122.24 L 116.78 122.5 L 116.95 122.68" /><path d="M 116.95 122.68 L 117.22 122.86 L 117.48 123.04 L 117.75 123.3 L 118.02 123.48" /><path d="M 118.02 123.48 L 118.19 123.74 L 118.46 123.92" /><path d="M 118.02 123.48 L 118.28 123.74 L 118.46 123.92" /><path d="M 118.46 123.92 L 118.72 124.19 L 118.99 124.36" /><path d="M 118.99 124.36 L 119.17 124.63 L 119.43 124.81" /><path d="M 118.99 124.36 L 119.26 124.63 L 119.43 124.81" /><path d="M 119.43 124.81 L 119.7 125.07 L 119.96 125.25 L 120.23 125.52" /><path d="M 120.23 125.52 L 120.41 125.69 L 120.67 125.87 L 120.94 126.05" /><path d="M 120.23 125.52 L 120.5 125.69 L 120.76 125.87 L 120.94 126.05" /><path d="M 120.94 126.05 L 121.2 126.22 L 121.47 126.49" /><path d="M 120.94 126.05 L 121.2 126.31 L 121.47 126.49" /><path d="M 121.47 126.49 L 121.74 126.67 L 122 126.93 L 122.18 127.2 L 122.44 127.46 L 122.62 127.73 L 122.8 128 L 122.98 128.35 L 123.15 128.62" /><path d="M 123.15 128.62 L 123.33 128.88 L 123.51 129.24" /><path d="M 123.15 128.62 L 123.33 128.97 L 123.51 129.24" /><path d="M 123.51 129.24 L 123.68 129.5 L 123.95 129.86" /><path d="M 123.51 129.24 L 123.77 129.5 L 123.95 129.86" /><path d="M 123.95 129.86 L 124.13 130.12 L 124.3 130.39" /><path d="M 124.3 130.39 L 124.48 130.65 L 124.75 130.92" /><path d="M 124.3 130.39 L 124.57 130.65 L 124.75 130.92" /><path d="M 124.75 130.92 L 124.92 131.18" /><path d="M 124.92 131.18 L 125.19 131.45 L 125.37 131.72 L 125.54 132.07" /><path d="M 124.92 131.18 L 125.19 131.54 L 125.37 131.8 L 125.54 132.07" /><path d="M 125.54 132.07 L 125.81 132.34 L 125.99 132.6 L 126.16 132.87 L 126.43 133.13 L 126.61 133.4 L 126.78 133.66 L 127.05 133.93" /><path d="M 127.05 133.93 L 127.23 134.19 L 127.4 134.55" /><path d="M 127.05 133.93 L 127.23 134.28 L 127.4 134.55" /><path d="M 127.4 134.55 L 127.67 134.81 L 127.85 135.08" /><path d="M 127.85 135.08 L 128.02 135.35 L 128.29 135.61" /><path d="M 127.85 135.08 L 128.11 135.35 L 128.29 135.61" /><path d="M 128.29 135.61 L 128.47 135.88" /><path d="M 128.47 135.88 L 128.64 136.14 L 128.91 136.41 L 129.09 136.76" /><path d="M 128.47 135.88 L 128.73 136.14 L 128.91 136.5 L 129.09 136.76" /><path d="M 129.09 136.76 L 129.26 137.03 L 129.53 137.29" /><path d="M 129.09 136.76 L 129.35 137.03 L 129.53 137.29" /><path d="M 129.53 137.29 L 129.71 137.56 L 129.88 137.83 L 130.15 138.09" /><path d="M 130.15 138.09 L 130.33 138.36 L 130.5 138.71" /><path d="M 130.15 138.09 L 130.33 138.45 L 130.5 138.71" /><path d="M 130.5 138.71 L 130.77 138.98 L 130.95 139.24 L 131.12 139.51 L 131.39 139.77 L 131.57 140.04 L 131.74 140.31 L 132.01 140.57 L 132.19 140.84" /><path d="M 132.19 140.84 L 132.36 141.1 L 132.63 141.46" /><path d="M 132.19 140.84 L 132.45 141.19 L 132.63 141.46" /><path d="M 132.63 141.46 L 132.81 141.72 L 133.07 141.99 L 133.25 142.25 L 133.43 142.52 L 133.69 142.79 L 133.87 143.05" /><path d="M 133.87 143.05 L 134.05 143.32 L 134.31 143.67" /><path d="M 133.87 143.05 L 134.05 143.41 L 134.31 143.67" /><path d="M 134.31 143.67 L 134.49 143.94 L 134.67 144.2 L 134.93 144.47 L 135.11 144.73 L 135.29 145" /><path d="M 135.29 145 L 135.46 145.26 L 135.73 145.53 L 135.91 145.88" /><path d="M 135.29 145 L 135.55 145.26 L 135.73 145.62 L 135.91 145.88" /><path d="M 135.91 145.88 L 136.08 146.15 L 136.35 146.42" /><path d="M 135.91 145.88 L 136.17 146.15 L 136.35 146.42" /><path d="M 136.35 146.42 L 136.53 146.68" /><path d="M 136.53 146.68 L 136.7 146.95 L 136.97 147.21" /><path d="M 136.53 146.68 L 136.79 146.95 L 136.97 147.21" /><path d="M 136.97 147.21 L 137.15 147.48" /><path d="M 137.15 147.48 L 137.41 147.74 L 137.59 148.1" /><path d="M 137.15 147.48 L 137.41 147.83 L 137.59 148.1" /><path d="M 137.59 148.1 L 137.77 148.36 L 138.03 148.63 L 138.21 148.9 L 138.39 149.16 L 138.65 149.43 L 138.83 149.69 L 139 149.96 L 139.27 150.22" /><path d="M 139.27 150.22 L 139.45 150.49" /><path d="M 139.27 150.22 L 139.45 150.58 L 139.71 150.84" /><path d="M 139.45 150.49 L 139.62 150.76 L 139.89 151.11" /><path d="M 139.45 150.49 L 139.71 150.84" /><path d="M 139.89 151.11 L 140.07 151.38 L 140.33 151.64 L 140.51 151.91 L 140.69 152.17 L 140.95 152.44 L 141.13 152.7 L 141.31 152.97" /><path d="M 139.89 151.11 L 139.71 150.84" /><path d="M 141.31 152.97 L 141.57 153.24 L 141.75 153.59" /><path d="M 141.31 152.97 L 141.57 153.32 L 141.75 153.59" /><path d="M 141.75 153.59 L 141.93 153.86 L 142.19 154.12 L 142.37 154.39 L 142.55 154.65 L 142.81 154.92 L 142.99 155.18" /><path d="M 142.99 155.18 L 143.17 155.45 L 143.43 155.8" /><path d="M 142.99 155.18 L 143.17 155.54 L 143.43 155.8" /><path d="M 143.43 155.8 L 143.61 156.07 L 143.79 156.33 L 144.05 156.6 L 144.23 156.87 L 144.41 157.13" /><path d="M 144.41 157.13 L 144.67 157.4 L 144.85 157.75" /><path d="M 144.41 157.13 L 144.67 157.49 L 144.85 157.75" /><path d="M 144.85 157.75 L 145.03 158.02 L 145.2 158.28 L 145.38 158.64" /><path d="M 145.38 158.64 L 145.56 158.9 L 145.74 159.26" /><path d="M 145.38 158.64 L 145.56 158.99 L 145.74 159.26" /><path d="M 145.74 159.26 L 145.82 159.61 L 146 159.97" /><path d="M 146 159.97 L 146.18 160.23 L 146.27 160.59" /><path d="M 146 159.97 L 146.18 160.32 L 146.27 160.59" /><path d="M 146.27 160.59 L 146.44 160.94 L 146.53 161.29" /><path d="M 146.53 161.29 L 146.71 161.56 L 146.89 161.91" /><path d="M 146.53 161.29 L 146.71 161.65 L 146.89 161.91" /><path d="M 146.89 161.91 L 146.98 162.27 L 147.15 162.62 L 147.33 162.89" /><path d="M 147.33 162.89 L 147.51 163.15 L 147.77 163.42" /><path d="M 147.33 162.89 L 147.6 163.15 L 147.77 163.42" /><path d="M 147.77 163.42 L 147.95 163.69 L 148.22 163.95" /><path d="M 147.77 163.42 L 148.04 163.69 L 148.22 163.95" /><path d="M 148.22 163.95 L 148.48 164.22" /><path d="M 148.48 164.22 L 148.66 164.39 L 148.92 164.66" /><path d="M 148.48 164.22 L 148.66 164.48 L 148.92 164.66" /><path d="M 148.92 164.66 L 149.1 164.93 L 149.37 165.19" /><path d="M 149.37 165.19 L 149.54 165.46 L 149.81 165.63 L 150.07 165.9" /><path d="M 149.37 165.19 L 149.63 165.46 L 149.81 165.72 L 150.07 165.9" /><path d="M 150.07 165.9 L 150.25 166.16 L 150.52 166.43 L 150.69 166.7" /><path d="M 150.69 166.7 L 150.96 166.87 L 151.14 167.14 L 151.4 167.4" /><path d="M 150.69 166.7 L 150.96 166.96 L 151.23 167.14 L 151.4 167.4" /><path d="M 151.4 167.4 L 151.67 167.67 L 151.85 167.94" /><path d="M 151.85 167.94 L 152.11 168.11 L 152.29 168.38" /><path d="M 151.85 167.94 L 152.11 168.2 L 152.29 168.38" /><path d="M 152.29 168.38 L 152.55 168.64" /><path d="M 152.55 168.64 L 152.73 168.91 L 153 169.18" /><path d="M 152.55 168.64 L 152.82 168.91 L 153 169.18" /><path d="M 153 169.18 L 153.26 169.44 L 153.44 169.62 L 153.71 169.88 L 153.88 170.15 L 154.15 170.42" /><path d="M 154.15 170.42 L 154.33 170.68 L 154.59 170.86 L 154.86 171.12" /><path d="M 154.15 170.42 L 154.41 170.68 L 154.59 170.95 L 154.86 171.12" /><path d="M 154.86 171.12 L 155.03 171.39 L 155.3 171.66 L 155.48 171.92" /><path d="M 155.48 171.92 L 155.74 172.1 L 155.92 172.36 L 156.19 172.63" /><path d="M 155.48 171.92 L 155.74 172.19 L 156.01 172.36 L 156.19 172.63" /><path d="M 156.19 172.63 L 156.45 172.9 L 156.63 173.16 L 156.89 173.43" /><path d="M 156.89 173.43 L 157.07 173.6 L 157.34 173.87" /><path d="M 156.89 173.43 L 157.07 173.69 L 157.34 173.87" /><path d="M 157.34 173.87 L 157.51 174.14 L 157.78 174.4" /><path d="M 157.34 173.87 L 157.6 174.14 L 157.78 174.4" /><path d="M 157.78 174.4 L 158.05 174.67" /><path d="M 158.05 174.67 L 158.22 174.84 L 158.49 175.11" /><path d="M 158.05 174.67 L 158.22 174.93 L 158.49 175.11" /><path d="M 158.49 175.11 L 158.67 175.38 L 158.93 175.64 L 159.11 175.91 L 159.37 176.17 L 159.64 176.35 L 159.82 176.62 L 160.08 176.88 L 160.26 177.15 L 160.53 177.32 L 160.79 177.59 L 160.97 177.85" /><path d="M 160.97 177.85 L 161.23 178.03 L 161.41 178.3" /><path d="M 160.97 177.85 L 161.23 178.12 L 161.41 178.3" /><path d="M 161.41 178.3 L 161.68 178.56" /><path d="M 161.68 178.56 L 161.85 178.83 L 162.12 179.09" /><path d="M 161.68 178.56 L 161.94 178.83 L 162.12 179.09" /><path d="M 162.12 179.09 L 162.38 179.36" /><path d="M 162.38 179.36 L 162.56 179.54 L 162.83 179.8" /><path d="M 162.38 179.36 L 162.56 179.63 L 162.83 179.8" /><path d="M 162.83 179.8 L 163 180.07 L 163.27 180.33" /><path d="M 163.27 180.33 L 163.45 180.6 L 163.71 180.78 L 163.98 181.04" /><path d="M 163.27 180.33 L 163.54 180.6 L 163.71 180.87 L 163.98 181.04" /><path d="M 163.98 181.04 L 164.16 181.31 L 164.42 181.57 L 164.6 181.84" /><path d="M 164.6 181.84 L 164.86 182.02 L 165.04 182.28 L 165.31 182.55" /><path d="M 164.6 181.84 L 164.86 182.11 L 165.13 182.28 L 165.31 182.55" /><path d="M 165.31 182.55 L 165.57 182.81 L 165.75 183.08 L 166.02 183.35 L 166.19 183.61 L 166.46 183.88" /><path d="M 166.46 183.88 L 166.64 184.05 L 166.9 184.32" /><path d="M 166.46 183.88 L 166.64 184.14 L 166.9 184.32" /><path d="M 166.9 184.32 L 167.08 184.59 L 167.34 184.85 L 167.52 185.12 L 167.79 185.38" /><path d="M 167.79 185.38 L 167.96 185.56 L 168.23 185.83" /><path d="M 167.79 185.38 L 168.05 185.65 L 168.23 185.83" /><path d="M 168.23 185.83 L 168.5 186.09 L 168.67 186.36 L 168.94 186.62 L 169.12 186.89" /><path d="M 169.12 186.89 L 169.38 187.07 L 169.56 187.33" /><path d="M 169.12 186.89 L 169.38 187.15 L 169.56 187.33" /><path d="M 169.56 187.33 L 169.82 187.6" /><path d="M 169.82 187.6 L 170 187.86 L 170.27 188.13" /><path d="M 169.82 187.6 L 170.09 187.86 L 170.27 188.13" /><path d="M 170.27 188.13 L 170.53 188.3 L 170.71 188.57" /><path d="M 170.27 188.13 L 170.53 188.39 L 170.71 188.57" /><path d="M 170.71 188.57 L 170.98 188.84 L 171.15 189.1 L 171.42 189.37" /><path d="M 171.42 189.37 L 171.6 189.63 L 171.86 189.81 L 172.13 190.08" /><path d="M 171.42 189.37 L 171.68 189.63 L 171.86 189.9 L 172.13 190.08" /><path d="M 172.13 190.08 L 172.3 190.34 L 172.57 190.61 L 172.75 190.87" /><path d="M 172.75 190.87 L 173.01 191.05 L 173.19 191.32" /><path d="M 172.75 190.87 L 173.01 191.14 L 173.19 191.32" /><path d="M 173.19 191.32 L 173.45 191.58 L 173.72 191.85 L 173.9 192.11" /><path d="M 173.9 192.11 L 174.16 192.29 L 174.34 192.56" /><path d="M 173.9 192.11 L 174.16 192.38 L 174.34 192.56" /><path d="M 174.34 192.56 L 174.61 192.82" /><path d="M 174.61 192.82 L 174.78 193.09 L 175.05 193.35" /><path d="M 174.61 192.82 L 174.87 193.09 L 175.05 193.35" /><path d="M 175.05 193.35 L 175.31 193.53 L 175.49 193.8" /><path d="M 175.05 193.35 L 175.31 193.62 L 175.49 193.8" /><path d="M 175.49 193.8 L 175.76 194.06 L 175.93 194.33 L 176.2 194.59 L 176.47 194.77 L 176.64 195.04 L 176.91 195.3 L 177.09 195.57 L 177.35 195.74 L 177.62 196.01 L 177.79 196.28 L 178.06 196.54 L 178.24 196.72 L 178.5 196.98" /><path d="M 178.5 196.98 L 178.68 197.25 L 178.95 197.52" /><path d="M 178.5 196.98 L 178.77 197.25 L 178.95 197.52" /><path d="M 178.95 197.52 L 179.21 197.78 L 179.39 197.96 L 179.65 198.22 L 179.83 198.49 L 180.1 198.76 L 180.27 199.02" /><path d="M 180.27 199.02 L 180.45 199.29 L 180.72 199.64" /><path d="M 180.27 199.02 L 180.54 199.29 L 180.72 199.64" /><path d="M 180.72 199.64 L 180.89 199.91 L 180.98 200.26 L 181.16 200.53 L 181.34 200.88 L 181.51 201.23 L 181.69 201.5" /><path d="M 181.69 201.5 L 181.78 201.85 L 181.96 202.12 L 182.13 202.47" /><path d="M 181.69 201.5 L 181.87 201.85 L 181.96 202.21 L 182.13 202.47" /><path d="M 182.13 202.47 L 182.31 202.83" /><path d="M 182.31 202.83 L 182.49 203.09 L 182.58 203.45" /><path d="M 182.31 202.83 L 182.49 203.18 L 182.58 203.45" /><path d="M 182.58 203.45 L 182.75 203.8" /><path d="M 182.75 203.8 L 182.93 204.07 L 183.11 204.42" /><path d="M 182.75 203.8 L 182.93 204.16 L 183.11 204.42" /><path d="M 183.11 204.42 L 183.28 204.78 L 183.37 205.04 L 183.55 205.4 L 183.73 205.75 L 183.9 206.02 L 184.08 206.37" /><path d="M 184.08 206.37 L 184.17 206.64 L 184.35 206.99" /><path d="M 184.08 206.37 L 184.17 206.73 L 184.35 206.99" /><path d="M 184.35 206.99 L 184.52 207.35" /><path d="M 184.52 207.35 L 184.7 207.61 L 184.88 207.97" /><path d="M 184.52 207.35 L 184.7 207.7 L 184.88 207.97" /><path d="M 184.88 207.97 L 184.97 208.32" /><path d="M 184.97 208.32 L 185.14 208.59 L 185.32 208.94" /><path d="M 184.97 208.32 L 185.14 208.67 L 185.32 208.94" /><path d="M 185.32 208.94 L 185.5 209.29" /><path d="M 185.5 209.29 L 185.59 209.56 L 185.76 209.91" /><path d="M 185.5 209.29 L 185.68 209.56 L 185.76 209.91" /><path d="M 185.76 209.91 L 185.94 210.27 L 186.12 210.53 L 186.3 210.89" /><path d="M 186.3 210.89 L 186.38 211.15 L 186.56 211.51" /><path d="M 186.3 210.89 L 186.47 211.24 L 186.56 211.51" /><path d="M 186.56 211.51 L 186.74 211.86" /><path d="M 186.74 211.86 L 186.92 212.13 L 187.09 212.48" /><path d="M 186.74 211.86 L 186.92 212.22 L 187.09 212.48" /><path d="M 187.09 212.48 L 187.18 212.84 L 187.36 213.1 L 187.54 213.46" /><path d="M 187.09 212.48 L 187.27 212.84 L 187.36 213.19 L 187.54 213.46" /><path d="M 187.54 213.46 L 187.71 213.81 L 187.89 214.08" /><path d="M 187.89 214.08 L 187.98 214.43 L 188.16 214.78" /><path d="M 187.89 214.08 L 188.07 214.43 L 188.16 214.78" /><path d="M 188.16 214.78 L 188.33 215.05 L 188.51 215.4" /><path d="M 188.51 215.4 L 188.69 215.67 L 188.78 216.02 L 188.95 216.38" /><path d="M 188.51 215.4 L 188.69 215.76 L 188.86 216.02 L 188.95 216.38" /><path d="M 188.95 216.38 L 189.13 216.64 L 189.31 217" /><path d="M 188.95 216.38 L 189.13 216.73 L 189.31 217" /><path d="M 189.31 217 L 189.48 217.35" /><path d="M 189.48 217.35 L 189.57 217.62 L 189.75 217.97" /><path d="M 189.48 217.35 L 189.66 217.62 L 189.75 217.97" /><path d="M 189.75 217.97 L 189.93 218.33 L 190.1 218.59 L 190.28 218.95" /><path d="M 190.28 218.95 L 190.46 219.21 L 190.55 219.57" /><path d="M 190.28 218.95 L 190.46 219.3 L 190.55 219.57" /><path d="M 190.55 219.57 L 190.72 219.92 L 190.9 220.19 L 191.08 220.54 L 191.26 220.9 L 191.34 221.16 L 191.52 221.51" /><path d="M 191.52 221.51 L 191.7 221.78 L 191.88 222.13" /><path d="M 191.52 221.51 L 191.7 221.87 L 191.88 222.13" /><path d="M 191.88 222.13 L 192.05 222.49" /><path d="M 192.05 222.49 L 192.14 222.75 L 192.32 223.11" /><path d="M 192.05 222.49 L 192.23 222.84 L 192.32 223.11" /><path d="M 192.32 223.11 L 192.5 223.46 L 192.67 223.73 L 192.85 224.08 L 192.94 224.44" /><path d="M 192.94 224.44 L 193.12 224.7 L 193.29 225.06" /><path d="M 192.94 224.44 L 193.12 224.79 L 193.29 225.06" /><path d="M 193.29 225.06 L 193.38 225.41 L 193.47 225.77 L 193.65 226.12 L 193.74 226.47 L 193.82 226.83 L 193.91 227.18" /><path d="M 193.91 227.18 L 194 227.54 L 194.18 227.89" /><path d="M 193.91 227.18 L 194.09 227.54 L 194.18 227.89" /><path d="M 194.18 227.89 L 194.27 228.25 L 194.35 228.6 L 194.44 228.95 L 194.62 229.31 L 194.71 229.66 L 194.8 230.02 L 194.97 230.37 L 195.06 230.73" /><path d="M 195.06 230.73 L 195.24 230.99 L 195.42 231.35" /><path d="M 195.06 230.73 L 195.24 231.08 L 195.42 231.35" /><path d="M 195.42 231.35 L 195.59 231.61 L 195.77 231.97" /><path d="M 195.42 231.35 L 195.59 231.7 L 195.77 231.97" /><path d="M 195.77 231.97 L 195.95 232.23 L 196.13 232.5 L 196.39 232.76 L 196.57 233.12 L 196.75 233.38 L 196.92 233.65 L 197.19 233.91 L 197.37 234.18" /><path d="M 197.37 234.18 L 197.54 234.44 L 197.72 234.8 L 197.99 235.06" /><path d="M 197.37 234.18 L 197.54 234.53 L 197.81 234.8 L 197.99 235.06" /><path d="M 197.99 235.06 L 198.16 235.33" /><path d="M 198.16 235.33 L 198.34 235.6 L 198.61 235.86" /><path d="M 198.16 235.33 L 198.43 235.6 L 198.61 235.86" /><path d="M 198.61 235.86 L 198.78 236.13 L 198.96 236.48" /><path d="M 198.61 235.86 L 198.78 236.22 L 198.96 236.48" /><path d="M 198.96 236.48 L 199.23 236.75 L 199.4 237.01 L 199.58 237.28 L 199.76 237.54 L 200.02 237.9 L 200.2 238.16 L 200.38 238.43" /><path d="M 200.38 238.43 L 200.55 238.7 L 200.73 239.05" /><path d="M 200.38 238.43 L 200.55 238.78 L 200.73 239.05" /><path d="M 200.73 239.05 L 200.91 239.32 L 201.17 239.58 L 201.35 239.94" /><path d="M 200.73 239.05 L 201 239.32 L 201.17 239.67 L 201.35 239.94" /><path d="M 201.35 239.94 L 201.53 240.2 L 201.71 240.56 L 201.88 240.82" /><path d="M 201.88 240.82 L 202.06 241.09 L 202.24 241.44" /><path d="M 201.88 240.82 L 202.06 241.18 L 202.24 241.44" /><path d="M 202.24 241.44 L 202.41 241.71 L 202.59 242.06 L 202.77 242.33" /><path d="M 202.77 242.33 L 202.95 242.59 L 203.12 242.95" /><path d="M 202.77 242.33 L 202.95 242.68 L 203.12 242.95" /><path d="M 203.12 242.95 L 203.3 243.21 L 203.48 243.57 L 203.65 243.83 L 203.83 244.19 L 204.01 244.45" /><path d="M 204.01 244.45 L 204.19 244.72 L 204.36 245.07 L 204.63 245.34" /><path d="M 204.01 244.45 L 204.27 244.81 L 204.45 245.07 L 204.63 245.34" /><path d="M 204.63 245.34 L 204.81 245.69 L 204.98 245.96 L 205.16 246.22 L 205.34 246.49" /><path d="M 205.34 246.49 L 205.6 246.75 L 205.78 247.11" /><path d="M 205.34 246.49 L 205.6 246.84 L 205.78 247.11" /><path d="M 205.78 247.11 L 205.96 247.37" /><path d="M 205.96 247.37 L 206.13 247.64 L 206.4 247.91" /><path d="M 205.96 247.37 L 206.22 247.64" /><path d="M 206.4 247.91 L 206.58 248.26" /><path d="M 206.4 247.91 L 206.22 247.64" /><path d="M 206.58 248.26 L 206.75 248.53 L 206.93 248.88" /><path d="M 206.58 248.26 L 206.4 247.99 L 206.22 247.64" /><path d="M 206.93 248.88 L 207.02 249.15 L 207.2 249.5" /><path d="M 206.93 248.88 L 207.11 249.15 L 207.2 249.5" /><path d="M 207.2 249.5 L 207.37 249.77 L 207.64 250.12 L 207.82 250.39 L 207.99 250.65 L 208.26 250.92 L 208.44 251.18 L 208.7 251.45" /><path d="M 208.7 251.45 L 208.88 251.63 L 209.14 251.89" /><path d="M 208.7 251.45 L 208.88 251.71 L 209.14 251.89" /><path d="M 209.14 251.89 L 209.32 252.16 L 209.59 252.42 L 209.76 252.69 L 210.03 252.95 L 210.21 253.22 L 210.47 253.49 L 210.65 253.75 L 210.92 254.02 L 211.09 254.28" /><path d="M 211.09 254.28 L 211.27 254.55 L 211.54 254.81" /><path d="M 211.09 254.28 L 211.36 254.55 L 211.54 254.81" /><path d="M 211.54 254.81 L 211.71 255.08 L 211.98 255.34 L 212.16 255.61 L 212.42 255.88 L 212.6 256.14 L 212.86 256.41 L 213.04 256.67" /><path d="M 213.04 256.67 L 213.22 256.94 L 213.48 257.2" /><path d="M 213.04 256.67 L 213.31 256.94 L 213.48 257.2" /><path d="M 213.48 257.2 L 213.66 257.38 L 213.93 257.65 L 214.1 257.91 L 214.37 258.18 L 214.55 258.44 L 214.81 258.71" /><path d="M 213.48 257.2 L 213.66 257.47 L 213.93 257.74 L 214.1 258 L 214.37 258.27 L 214.55 258.53 L 214.81 258.71" /><path d="M 214.81 258.71 L 214.99 258.98" /><path d="M 214.99 258.98 L 215.17 259.24 L 215.43 259.51" /><path d="M 214.99 258.98 L 215.26 259.24 L 215.43 259.51" /><path d="M 215.43 259.51 L 215.61 259.77 L 215.88 260.04 L 216.05 260.3 L 216.32 260.57 L 216.49 260.84 L 216.76 261.1 L 216.94 261.37" /><path d="M 216.94 261.37 L 217.11 261.63 L 217.38 261.9" /><path d="M 216.94 261.37 L 217.2 261.63 L 217.38 261.9" /><path d="M 217.38 261.9 L 217.56 262.16 L 217.82 262.43 L 218 262.7 L 218.27 262.96 L 218.44 263.23" /><path d="M 218.44 263.23 L 218.62 263.49 L 218.89 263.76" /><path d="M 218.44 263.23 L 218.71 263.49 L 218.89 263.76" /><path d="M 218.89 263.76 L 219.06 264.02 L 219.33 264.29" /><path d="M 218.89 263.76 L 219.15 264.02 L 219.33 264.29" /><path d="M 219.33 264.29 L 219.51 264.56 L 219.77 264.82 L 219.95 265.09 L 220.21 265.35 L 220.39 265.62" /><path d="M 220.39 265.62 L 220.57 265.88 L 220.83 266.15" /><path d="M 220.39 265.62 L 220.66 265.88 L 220.83 266.15" /><path d="M 220.83 266.15 L 221.01 266.41" /><path d="M 221.01 266.41 L 221.19 266.68 L 221.37 267.03" /><path d="M 221.01 266.41 L 221.19 266.77 L 221.37 267.03" /><path d="M 221.37 267.03 L 221.54 267.3 L 221.72 267.65" /><path d="M 221.37 267.03 L 221.54 267.39 L 221.72 267.65" /><path d="M 221.72 267.65 L 221.9 268.01 L 222.07 268.27 L 222.25 268.63" /><path d="M 222.25 268.63 L 222.34 268.89 L 222.52 269.25" /><path d="M 222.25 268.63 L 222.34 268.98 L 222.52 269.25" /><path d="M 222.52 269.25 L 222.69 269.51 L 222.87 269.87" /><path d="M 222.52 269.25 L 222.69 269.6 L 222.87 269.87" /><path d="M 222.87 269.87 L 223.05 270.13 L 223.23 270.49" /><path d="M 222.87 269.87 L 223.05 270.22 L 223.23 270.49" /><path d="M 223.23 270.49 L 223.49 270.75 L 223.67 271.02 L 223.85 271.29" /><path d="M 223.85 271.29 L 224.02 271.55 L 224.29 271.91" /><path d="M 223.85 271.29 L 224.02 271.64 L 224.29 271.91" /><path d="M 224.29 271.91 L 224.47 272.17 L 224.64 272.44 L 224.91 272.7 L 225.09 272.97" /><path d="M 225.09 272.97 L 225.26 273.23 L 225.53 273.5" /><path d="M 225.09 272.97 L 225.35 273.23 L 225.53 273.5" /><path d="M 225.53 273.5 L 225.79 273.77" /><path d="M 225.79 273.77 L 225.97 273.94 L 226.24 274.21" /><path d="M 225.79 273.77 L 225.97 274.03 L 226.24 274.21" /><path d="M 226.24 274.21 L 226.41 274.47 L 226.68 274.74 L 226.86 275.01" /><path d="M 226.86 275.01 L 227.12 275.18 L 227.39 275.45" /><path d="M 226.86 275.01 L 227.12 275.27 L 227.39 275.45" /><path d="M 227.39 275.45 L 227.56 275.71 L 227.83 275.98 L 228.1 276.16 L 228.36 276.33 L 228.63 276.42 L 228.89 276.51 L 229.25 276.6 L 229.51 276.69 L 229.78 276.69 L 230.13 276.78 L 230.4 276.78" /><path d="M 230.4 276.78 L 230.66 276.86 L 231.02 276.86" /><path d="M 230.4 276.78 L 230.75 276.86 L 231.02 276.86" /><path d="M 231.02 276.86 L 231.28 276.95" /><path d="M 231.28 276.95 L 231.55 277.04 L 231.9 277.13" /><path d="M 231.28 276.95 L 231.64 277.04 L 231.9 277.13" /><path d="M 231.9 277.13 L 232.17 277.31 L 232.44 277.48 L 232.7 277.66 L 232.88 277.93 L 233.14 278.19 L 233.32 278.46" /><path d="M 233.32 278.46 L 233.5 278.72 L 233.76 278.99 L 233.94 279.34" /><path d="M 233.32 278.46 L 233.59 278.72 L 233.76 279.08 L 233.94 279.34" /><path d="M 233.94 279.34 L 234.12 279.61 L 234.3 279.88 L 234.47 280.23 L 234.65 280.5" /><path d="M 234.65 280.5 L 234.83 280.76 L 235 281.12" /><path d="M 234.65 280.5 L 234.83 280.85 L 235 281.12" /><path d="M 235 281.12 L 235.18 281.38 L 235.36 281.74" /><path d="M 235 281.12 L 235.18 281.47 L 235.36 281.74" /><path d="M 235.36 281.74 L 235.45 282.09 L 235.62 282.44 L 235.71 282.8 L 235.71 283.15" /><path d="M 235.71 283.15 L 235.8 283.51 L 235.89 283.95" /><path d="M 235.71 283.15 L 235.8 283.6 L 235.89 283.95" /><path d="M 235.89 283.95 L 235.89 284.3 L 235.98 284.66" /><path d="M 235.98 284.66 L 235.98 285.01 L 236.07 285.46" /><path d="M 235.98 284.66 L 236.07 285.1 L 236.07 285.46" /><path d="M 236.07 285.46 L 236.16 285.81 L 236.16 286.16 L 236.24 286.52" /><path d="M 236.24 286.52 L 236.33 286.87 L 236.33 287.32" /><path d="M 236.24 286.52 L 236.33 286.96 L 236.33 287.32" /><path d="M 236.33 287.32 L 236.42 287.67 L 236.42 288.02" /><path d="M 236.42 288.02 L 236.51 288.38 L 236.51 288.82" /><path d="M 236.42 288.02 L 236.51 288.47 L 236.51 288.82" /><path d="M 236.51 288.82 L 236.51 289.17 L 236.51 289.53" /><path d="M 236.51 289.53 L 236.51 289.88 L 236.6 290.33" /><path d="M 236.51 289.53 L 236.51 289.97 L 236.6 290.33" /><path d="M 236.6 290.33 L 236.6 290.68 L 236.6 291.03 L 236.6 291.48 L 236.6 291.83 L 236.6 292.19" /><path d="M 236.6 292.19 L 236.69 292.54 L 236.69 292.98" /><path d="M 236.6 292.19 L 236.69 292.63 L 236.69 292.98" /><path d="M 236.69 292.98 L 236.69 293.34 L 236.69 293.69" /><path d="M 236.69 293.69 L 236.78 294.05 L 236.86 294.49" /><path d="M 236.69 293.69 L 236.78 294.13 L 236.86 294.49" /><path d="M 236.86 294.49 L 236.86 294.84 L 237.04 295.2" /><path d="M 236.86 294.49 L 236.95 294.84 L 237.04 295.2" /><path d="M 237.04 295.2 L 237.13 295.55 L 237.22 295.91 L 237.31 296.26 L 237.48 296.61 L 237.57 296.97 L 237.66 297.32" /><path d="M 237.66 297.32 L 237.75 297.68 L 237.93 298.03" /><path d="M 237.66 297.32 L 237.84 297.68 L 237.93 298.03" /><path d="M 237.93 298.03 L 238.02 298.39" /><path d="M 238.02 298.39 L 238.1 298.65 L 238.28 299 L 238.37 299.36 L 238.46 299.71 L 238.55 300.07 L 238.72 300.42" /><path d="M 238.02 298.39 L 238.1 298.74 L 238.28 299.09 L 238.37 299.45 L 238.46 299.8 L 238.55 300.16" /><path d="M 238.72 300.42 L 238.81 300.78" /><path d="M 238.72 300.42 L 238.55 300.16" /><path d="M 238.81 300.78 L 238.9 301.13 L 239.08 301.48 L 239.17 301.84 L 239.25 302.19 L 239.34 302.55 L 239.52 302.9 L 239.61 303.26 L 239.7 303.61 L 239.87 303.96 L 239.96 304.32 L 240.05 304.67" /><path d="M 238.81 300.78 L 238.72 300.51 L 238.55 300.16" /><path d="M 240.05 304.67 L 240.14 305.03 L 240.32 305.38" /><path d="M 240.05 304.67 L 240.23 305.03 L 240.32 305.38" /><path d="M 240.32 305.38 L 240.41 305.74 L 240.49 306.09 L 240.67 306.44 L 240.76 306.8 L 240.85 307.15" /><path d="M 240.85 307.15 L 241.03 307.42 L 241.11 307.77 L 241.2 308.13 L 241.38 308.48" /><path d="M 240.85 307.15 L 241.03 307.51 L 241.11 307.86 L 241.2 308.22 L 241.38 308.48" /><path d="M 241.38 308.48 L 241.47 308.84 L 241.56 309.19 L 241.73 309.54 L 241.82 309.9 L 241.91 310.25 L 242.09 310.61 L 242.18 310.96" /><path d="M 242.18 310.96 L 242.35 311.23 L 242.44 311.58 L 242.62 311.93" /><path d="M 242.18 310.96 L 242.35 311.31 L 242.44 311.67 L 242.62 311.93" /><path d="M 242.62 311.93 L 242.71 312.29 L 242.8 312.64 L 242.97 313 L 243.06 313.35 L 243.15 313.71 L 243.24 314.06 L 243.42 314.41 L 243.51 314.77 L 243.59 315.12 L 243.77 315.48 L 243.86 315.83 L 243.95 316.19 L 244.13 316.54 L 244.21 316.89 L 244.3 317.25 L 244.39 317.6" /><path d="M 244.39 317.6 L 244.48 317.96 L 244.66 318.31" /><path d="M 244.39 317.6 L 244.57 317.96 L 244.66 318.31" /><path d="M 244.66 318.31 L 244.75 318.67 L 244.83 319.02 L 244.92 319.37 L 245.1 319.73" /><path d="M 245.1 319.73 L 245.19 319.99 L 245.28 320.35 L 245.45 320.7 L 245.54 321.06" /><path d="M 245.1 319.73 L 245.19 320.08 L 245.28 320.44 L 245.45 320.79 L 245.54 321.06" /><path d="M 245.54 321.06 L 245.63 321.41 L 245.81 321.76 L 245.9 322.12 L 245.99 322.47 L 246.16 322.83 L 246.25 323.18 L 246.34 323.54 L 246.52 323.89 L 246.61 324.24 L 246.69 324.6 L 246.87 324.95 L 246.96 325.31 L 247.05 325.66" /><path d="M 247.05 325.66 L 247.14 325.93 L 247.31 326.28 L 247.4 326.64 L 247.49 326.99 L 247.58 327.34 L 247.76 327.7 L 247.85 328.05 L 247.93 328.41 L 248.02 328.76 L 248.11 329.12 L 248.29 329.47 L 248.38 329.82 L 248.47 330.18 L 248.55 330.53 L 248.73 330.89 L 248.82 331.24 L 248.91 331.6 L 249 331.95 L 249.17 332.3 L 249.26 332.66" /><path d="M 247.05 325.66 L 247.14 326.02 L 247.31 326.37 L 247.4 326.72 L 247.49 327.08 L 247.58 327.43 L 247.76 327.79 L 247.85 328.14 L 247.93 328.5 L 248.02 328.85 L 248.2 329.2 L 248.29 329.56 L 248.38 329.91 L 248.47 330.27 L 248.55 330.62 L 248.73 330.98 L 248.82 331.33 L 248.91 331.68 L 249 332.04 L 249.17 332.39 L 249.26 332.66" /><path d="M 249.26 332.66 L 249.35 333.01 L 249.44 333.37" /><path d="M 249.44 333.37 L 249.53 333.72 L 249.7 334.07" /><path d="M 249.44 333.37 L 249.62 333.72 L 249.7 334.07" /><path d="M 249.7 334.07 L 249.79 334.43 L 249.88 334.78" /><path d="M 249.88 334.78 L 249.97 335.14 L 250.15 335.49" /><path d="M 249.88 334.78 L 250.06 335.14 L 250.15 335.49" /><path d="M 250.15 335.49 L 250.24 335.85 L 250.32 336.2 L 250.5 336.55 L 250.59 336.91 L 250.68 337.26 L 250.77 337.62 L 250.94 337.97 L 251.03 338.33 L 251.12 338.68 L 251.3 339.03 L 251.39 339.39 L 251.48 339.74 L 251.56 340.1 L 251.74 340.45 L 251.83 340.81 L 251.92 341.16" /><path d="M 251.92 341.16 L 252.1 341.43 L 252.18 341.78 L 252.27 342.13 L 252.36 342.49 L 252.54 342.84 L 252.63 343.2" /><path d="M 251.92 341.16 L 252.1 341.51 L 252.18 341.87 L 252.27 342.22 L 252.36 342.58 L 252.54 342.93 L 252.63 343.2" /><path d="M 252.63 343.2 L 252.72 343.55 L 252.89 343.9 L 252.98 344.26 L 253.07 344.61 L 253.16 344.97 L 253.34 345.32 L 253.42 345.68 L 253.51 346.03" /><path d="M 253.51 346.03 L 253.6 346.38 L 253.78 346.74" /><path d="M 253.51 346.03 L 253.69 346.38 L 253.78 346.74" /><path d="M 253.78 346.74 L 253.87 347.09 L 253.96 347.45 L 254.13 347.8 L 254.22 348.16 L 254.31 348.51 L 254.49 348.86 L 254.58 349.22" /><path d="M 254.58 349.22 L 254.66 349.48 L 254.75 349.84 L 254.93 350.19 L 255.02 350.55 L 255.11 350.9 L 255.28 351.26" /><path d="M 254.58 349.22 L 254.66 349.57 L 254.84 349.93 L 254.93 350.28 L 255.02 350.64 L 255.11 350.99 L 255.28 351.26" /><path d="M 255.28 351.26 L 255.37 351.61 L 255.46 351.96" /><path d="M 255.46 351.96 L 255.55 352.32 L 255.73 352.67" /><path d="M 255.46 351.96 L 255.64 352.32 L 255.73 352.67" /><path d="M 255.73 352.67 L 255.82 353.03 L 255.9 353.38 L 256.08 353.74 L 256.17 354.09 L 256.26 354.44 L 256.35 354.8 L 256.52 355.15 L 256.61 355.51 L 256.7 355.86 L 256.88 356.21 L 256.97 356.57" /><path d="M 256.97 356.57 L 257.06 356.83 L 257.23 357.19 L 257.32 357.54" /><path d="M 256.97 356.57 L 257.14 356.92 L 257.23 357.28 L 257.32 357.54" /><path d="M 257.32 357.54 L 257.5 357.9 L 257.59 358.25 L 257.68 358.61 L 257.85 358.96 L 257.94 359.31" /><path d="M 257.94 359.31 L 258.03 359.67 L 258.21 360.02" /><path d="M 257.94 359.31 L 258.12 359.67 L 258.21 360.02" /><path d="M 258.21 360.02 L 258.3 360.38 L 258.47 360.73" /><path d="M 258.47 360.73 L 258.56 361 L 258.65 361.35 L 258.83 361.71" /><path d="M 258.47 360.73 L 258.56 361.09 L 258.65 361.44 L 258.83 361.71" /><path d="M 258.83 361.71 L 258.92 362.06 L 259 362.41 L 259.18 362.77 L 259.27 363.12 L 259.45 363.48 L 259.54 363.83 L 259.62 364.19 L 259.8 364.54" /><path d="M 259.8 364.54 L 259.89 364.81 L 259.98 365.16 L 260.16 365.51" /><path d="M 259.8 364.54 L 259.89 364.89 L 259.98 365.25 L 260.16 365.51" /><path d="M 260.16 365.51 L 260.24 365.87" /><path d="M 260.24 365.87 L 260.33 366.22 L 260.51 366.58" /><path d="M 260.24 365.87 L 260.42 366.22 L 260.51 366.58" /><path d="M 260.51 366.58 L 260.6 366.93 L 260.77 367.28 L 260.86 367.64 L 260.95 367.99 L 261.13 368.35" /><path d="M 261.13 368.35 L 261.22 368.61 L 261.31 368.97 L 261.48 369.32" /><path d="M 261.13 368.35 L 261.22 368.7 L 261.39 369.06 L 261.48 369.32" /><path d="M 261.48 369.32 L 261.57 369.68 L 261.75 370.03 L 261.84 370.38 L 261.93 370.74 L 262.1 371.09 L 262.19 371.45 L 262.28 371.8 L 262.46 372.16 L 262.55 372.51" /><path d="M 262.55 372.51 L 262.72 372.78 L 262.81 373.13 L 262.9 373.48" /><path d="M 262.55 372.51 L 262.72 372.86 L 262.81 373.22 L 262.9 373.48" /><path d="M 262.9 373.48 L 263.08 373.84 L 263.17 374.19 L 263.25 374.55 L 263.43 374.9 L 263.52 375.26" /><path d="M 263.52 375.26 L 263.61 375.61 L 263.79 375.96" /><path d="M 263.52 375.26 L 263.7 375.61 L 263.79 375.96" /><path d="M 263.79 375.96 L 263.87 376.32" /><path d="M 263.87 376.32 L 264.05 376.58 L 264.14 376.94 L 264.23 377.29" /><path d="M 263.87 376.32 L 264.05 376.67 L 264.14 377.03 L 264.23 377.29" /><path d="M 264.23 377.29 L 264.41 377.65 L 264.49 378 L 264.58 378.35 L 264.76 378.71 L 264.85 379.06 L 265.03 379.42 L 265.11 379.77 L 265.2 380.13" /><path d="M 265.2 380.13 L 265.38 380.39 L 265.47 380.75 L 265.56 381.1" /><path d="M 265.2 380.13 L 265.38 380.48 L 265.47 380.83 L 265.56 381.1" /><path d="M 265.56 381.1 L 265.73 381.45 L 265.82 381.81" /><path d="M 265.82 381.81 L 265.91 382.16 L 266.09 382.52" /><path d="M 265.82 381.81 L 266 382.16 L 266.09 382.52" /><path d="M 266.09 382.52 L 266.18 382.87 L 266.35 383.23 L 266.44 383.58 L 266.53 383.93 L 266.62 384.29 L 266.71 384.64 L 266.8 385 L 266.89 385.35 L 266.97 385.71" /><path d="M 266.97 385.71 L 267.06 386.06 L 267.15 386.41 L 267.15 386.86" /><path d="M 266.97 385.71 L 267.06 386.15 L 267.15 386.5 L 267.15 386.86" /><path d="M 267.15 386.86 L 267.24 387.21 L 267.33 387.56 L 267.42 387.92 L 267.51 388.27" /><path d="M 267.51 388.27 L 267.59 388.63 L 267.68 388.98 L 267.68 389.42" /><path d="M 267.51 388.27 L 267.59 388.72 L 267.68 389.07 L 267.68 389.42" /><path d="M 267.68 389.42 L 267.77 389.78 L 267.86 390.13 L 267.95 390.49 L 268.04 390.84 L 268.13 391.2" /><path d="M 268.13 391.2 L 268.21 391.55 L 268.3 391.9 L 268.3 392.35" /><path d="M 268.13 391.2 L 268.21 391.64 L 268.3 391.99 L 268.3 392.35" /><path d="M 268.3 392.35 L 268.39 392.7 L 268.48 393.06 L 268.57 393.41 L 268.66 393.76 L 268.75 394.12" /><path d="M 268.75 394.12 L 268.83 394.47 L 268.83 394.92 L 268.92 395.27" /><path d="M 268.75 394.12 L 268.83 394.56 L 268.92 394.92 L 268.92 395.27" /><path d="M 268.92 395.27 L 269.01 395.62 L 269.1 395.98 L 269.19 396.33 L 269.28 396.69" /><path d="M 269.28 396.69 L 269.37 397.04 L 269.45 397.4 L 269.45 397.84" /><path d="M 269.28 396.69 L 269.37 397.13 L 269.45 397.48 L 269.45 397.84" /><path d="M 269.45 397.84 L 269.54 398.19 L 269.63 398.55 L 269.72 398.9 L 269.81 399.25 L 269.9 399.61" /><path d="M 269.9 399.61 L 269.99 399.96 L 270.07 400.32 L 270.16 400.76" /><path d="M 269.9 399.61 L 269.99 400.05 L 270.07 400.41 L 270.16 400.76" /><path d="M 270.16 400.76 L 270.16 401.11 L 270.25 401.47 L 270.34 401.82 L 270.43 402.18 L 270.52 402.53" /><path d="M 270.52 402.53 L 270.61 402.89 L 270.69 403.33" /><path d="M 270.52 402.53 L 270.61 402.97 L 270.69 403.33" /><path d="M 270.69 403.33 L 270.69 403.68 L 270.78 404.04" /><path d="M 270.69 403.33 L 270.78 403.68 L 270.78 404.04" /><path d="M 270.78 404.04 L 270.87 404.39 L 270.96 404.75 L 271.05 405.1" /><path d="M 12.28 171.83 L 12.45 171.48 L 12.63 171.21 L 12.81 170.86 L 12.98 170.59 L 13.16 170.24 L 13.34 169.97 L 13.52 169.62 L 13.78 169.44 L 14.05 169.26 L 14.31 169.18 L 14.58 169.18 L 14.93 169.18 L 15.2 169.18 L 15.46 169.18 L 15.82 169.18 L 16.08 169.18 L 16.44 169.18 L 16.7 169.18 L 16.97 169.18 L 17.32 169.18 L 17.59 169.09 L 17.85 168.91 L 18.21 168.82 L 18.39 168.64 L 18.65 168.38 L 18.92 168.11 L 19.09 167.85 L 19.36 167.58 L 19.54 167.32 L 19.71 167.05 L 19.98 166.78 L 20.16 166.52 L 20.33 166.25 L 20.6 165.9 L 20.78 165.63 L 20.87 165.28 L 21.04 165.01 L 21.13 164.66 L 21.22 164.22 L 21.31 163.86 L 21.4 163.51 L 21.4 163.15 L 21.4 162.8 L 21.49 162.36 L 21.49 162 L 21.57 161.65 L 21.57 161.29 L 21.66 160.85 L 21.75 160.5 L 21.75 160.14 L 21.84 159.79 L 21.93 159.43 L 22.02 159.08" /><path d="M 22.02 159.08 L 22.19 158.73 L 22.28 158.37" /><path d="M 22.02 159.08 L 22.11 158.73 L 22.28 158.37" /><path d="M 22.28 158.37 L 22.46 158.02 L 22.64 157.75 L 22.81 157.49 L 23.08 157.22 L 23.26 156.95 L 23.52 156.69 L 23.79 156.51 L 24.05 156.33 L 24.32 156.16 L 24.59 155.98 L 24.85 155.8 L 25.12 155.63 L 25.38 155.45 L 25.65 155.27 L 25.91 155.01 L 26.09 154.83 L 26.36 154.56 L 26.62 154.3 L 26.8 154.12 L 27.07 153.86 L 27.24 153.59 L 27.51 153.32 L 27.77 153.15 L 27.95 152.88 L 28.22 152.62 L 28.48 152.35 L 28.66 152.17 L 28.92 151.91 L 29.1 151.64 L 29.37 151.38 L 29.63 151.2 L 29.81 150.93 L 30.08 150.67 L 30.25 150.4 L 30.52 150.22 L 30.78 149.96 L 30.96 149.69 L 31.23 149.43 L 31.4 149.25 L 31.67 148.9 L 31.85 148.63 L 32.02 148.36 L 32.2 148.01 L 32.38 147.74 L 32.56 147.39 L 32.64 147.04 L 32.82 146.68 L 32.91 146.42 L 33.09 146.06 L 33.18 145.71 L 33.35 145.35 L 33.53 145 L 33.62 144.73 L 33.8 144.38 L 33.88 144.02 L 34.06 143.67 L 34.15 143.32 L 34.24 142.96 L 34.33 142.61 L 34.33 142.25 L 34.42 141.81 L 34.33 141.46 L 34.33 141.1" /><path d="M 34.33 141.1 L 34.33 140.66 L 34.33 140.31" /><path d="M 34.33 141.1 L 34.33 140.75 L 34.33 140.31" />
    </g>
  </g>
</svg>