<svg xmlns="http://www.w3.org/2000/svg" viewBox="0 0 360 495" width="360" height="495" fill="none">
  <g shape-rendering="geometricPrecision" text-rendering="geometricPrecision">
    
    <g
      stroke="#111111"
      stroke-opacity="0.94"
      stroke-width="1.65"
      stroke-linecap="round"
      stroke-linejoin="round"
    >
      <path d="M 193.64 77.2 L 193.37 77.55 L 193.2 77.73 L 193.11 77.82 L 193.02 78.08 L 192.93 78.17 L 192.84 78.35 L 192.75 78.62 L 192.66 78.79 L 192.66 78.97" /><path d="M 192.66 78.97 L 192.4 79.94 L 192.31 80.21 L 192.31 80.39" /><path d="M 192.66 78.97 L 192.4 80.12 L 192.4 80.21 L 192.31 80.39" /><path d="M 192.66 78.97 L 192.75 78.79 L 192.75 78.7 L 192.84 78.44 L 193.02 78.17 L 193.11 78 L 193.28 77.73 L 193.99 76.84" /><path d="M 192.31 80.39 L 192.22 80.48 L 192.22 80.65" /><path d="M 192.31 80.39 L 192.31 80.48 L 192.22 80.65" /><path d="M 192.22 80.65 L 192.13 80.74 L 192.13 80.92 L 192.04 81.01 L 191.96 81.1" /><path d="M 191.96 81.1 L 191.87 81.27 L 191.87 81.36" /><path d="M 191.96 81.1 L 191.96 81.27 L 191.87 81.36" /><path d="M 191.87 81.36 L 191.78 81.45" /><path d="M 191.78 81.45 L 191.69 81.54 L 191.6 81.72" /><path d="M 191.78 81.45 L 191.69 81.63 L 191.6 81.72" /><path d="M 191.6 81.72 L 187.88 85.97 L 187.79 86.23" /><path d="M 191.6 81.72 L 187.97 86.06 L 187.79 86.23" /><path d="M 187.79 86.23 L 187.62 86.32 L 187.53 86.5 L 187.44 86.68" /><path d="M 187.79 86.23 L 187.62 86.41 L 187.53 86.59 L 187.44 86.68" /><path d="M 187.44 86.68 L 187.26 86.94 L 186.2 88.98 L 186.11 89.15 L 186.02 89.24" /><path d="M 186.02 89.24 L 185.93 89.42 L 185.93 89.6 L 185.84 89.86 L 185.84 90.04" /><path d="M 186.02 89.24 L 186.02 89.42 L 185.93 89.77 L 185.84 90.04" /><path d="M 185.84 90.04 L 185.84 90.22 L 185.84 90.48 L 185.84 92.52 L 185.84 92.79 L 185.84 92.96 L 185.84 93.14" /><path d="M 185.84 93.14 L 185.76 93.58 L 185.76 93.85" /><path d="M 185.84 93.14 L 185.84 93.58 L 185.76 93.85" /><path d="M 185.76 93.85 L 185.67 94.82 L 185.67 95.18 L 185.67 95.35 L 185.67 95.53 L 185.67 95.8" /><path d="M 185.67 95.8 L 185.58 97.04 L 185.58 97.3 L 185.58 97.48 L 185.67 97.66 L 185.67 97.83 L 185.76 98.1 L 185.93 98.72 L 186.02 98.81 L 186.11 99.16 L 186.11 99.34 L 186.29 100.4 L 186.29 100.58 L 186.38 100.76 L 186.38 101.11" /><path d="M 185.67 95.8 L 185.67 97.04 L 185.67 97.3 L 185.67 97.48 L 185.67 97.75 L 185.76 97.92 L 185.76 98.19 L 186.02 98.72 L 186.11 98.9 L 186.11 99.07 L 186.2 99.34 L 186.38 100.93 L 186.38 101.11" /><path d="M 186.38 101.11 L 186.38 102.88 L 186.38 103.06" /><path d="M 186.38 101.11 L 186.46 101.38 L 186.46 102.7 L 186.46 102.88 L 186.38 103.06" /><path d="M 186.38 103.06 L 186.38 103.24 L 186.29 103.5" /><path d="M 186.29 103.5 L 186.02 104.39 L 185.93 104.74" /><path d="M 186.29 103.5 L 186.02 104.56 L 185.93 104.74" /><path d="M 185.93 104.74 L 185.84 104.92 L 185.84 105.1 L 185.84 105.27 L 185.76 105.45 L 185.76 105.72" /><path d="M 185.93 104.74 L 185.84 105.01 L 185.84 105.18 L 185.84 105.36 L 185.76 105.72" /><path d="M 185.76 105.72 L 185.76 105.98 L 185.4 109.52" /><path d="M 185.76 105.72 L 185.76 105.89 L 185.4 109.52" /><path d="M 185.4 109.52 L 185.4 109.7" /><path d="M 185.4 109.7 L 185.31 109.88 L 185.31 110.05" /><path d="M 185.4 109.7 L 185.4 109.88 L 185.31 110.05" /><path d="M 185.31 110.05 L 185.31 110.14 L 185.23 110.32 L 185.23 110.5" /><path d="M 185.31 110.05 L 185.31 110.23 L 185.31 110.32 L 185.23 110.5" /><path d="M 185.23 110.5 L 185.23 110.67" /><path d="M 185.23 110.67 L 185.14 110.76 L 185.14 110.94" /><path d="M 185.23 110.67 L 185.14 110.85 L 185.14 110.94" /><path d="M 185.14 110.94 L 185.05 111.12 L 184.16 113.69 L 184.07 113.95 L 183.99 114.13" /><path d="M 183.99 114.13 L 183.9 114.39 L 183.9 114.66" /><path d="M 183.99 114.13 L 183.99 114.39 L 183.9 114.66" /><path d="M 183.9 114.66 L 183.81 114.93 L 183.81 115.19" /><path d="M 183.9 114.66 L 183.9 114.93 L 183.81 115.19" /><path d="M 183.81 115.19 L 183.72 115.46 L 183.28 119.89 L 183.28 120.15" /><path d="M 183.81 115.19 L 183.81 115.55 L 183.37 119.89 L 183.28 120.15" /><path d="M 183.28 120.15 L 183.19 120.42 L 183.19 120.59" /><path d="M 183.28 120.15 L 183.28 120.42 L 183.19 120.59" /><path d="M 183.19 120.59 L 183.1 120.86" /><path d="M 183.1 120.86 L 183.01 121.04 L 181.59 124.58" /><path d="M 183.1 120.86 L 183.1 121.04 L 181.59 124.58" /><path d="M 181.59 124.58 L 181.51 124.84" /><path d="M 181.51 124.84 L 181.42 125.11 L 181.33 125.38" /><path d="M 181.51 124.84 L 181.42 125.2 L 181.33 125.38" /><path d="M 181.33 125.38 L 181.33 125.46 L 181.15 126.17 L 181.06 126.44 L 181.06 126.7 L 180.97 126.88 L 180.97 127.06 L 180.97 127.32" /><path d="M 180.97 127.32 L 180.89 127.59 L 180.89 127.86" /><path d="M 180.97 127.32 L 180.97 127.59 L 180.89 127.86" /><path d="M 180.89 127.86 L 180.89 128.12" /><path d="M 180.89 128.12 L 180.89 128.48 L 180.89 128.74 L 180.97 129.01" /><path d="M 180.89 128.12 L 180.97 128.48 L 180.97 128.74 L 180.97 129.01" /><path d="M 180.97 129.01 L 180.97 129.18" /><path d="M 180.97 129.18 L 180.97 129.45 L 181.24 130.51" /><path d="M 180.97 129.18 L 181.06 129.45 L 181.24 130.51" /><path d="M 181.24 130.51 L 181.24 130.87 L 181.33 131.04" /><path d="M 181.24 130.51 L 181.33 130.87 L 181.33 131.04" /><path d="M 181.33 131.04 L 181.33 131.22 L 181.33 131.4 L 181.33 131.57" /><path d="M 181.33 131.57 L 181.33 131.75 L 181.33 131.93 L 181.33 132.11 L 181.33 132.28 L 181.33 132.46" /><path d="M 181.33 131.57 L 181.42 131.75 L 181.42 131.93 L 181.42 132.11 L 181.42 132.28 L 181.33 132.46" /><path d="M 181.33 132.46 L 181.33 132.55 L 181.33 132.73 L 181.33 132.9" /><path d="M 181.33 132.46 L 181.33 132.64 L 181.33 132.81 L 181.33 132.9" /><path d="M 181.33 132.9 L 181.24 133.26 L 181.06 134.67 L 181.06 134.85" /><path d="M 181.06 134.85 L 180.97 135.12 L 180.97 135.38 L 180.97 135.47" /><path d="M 181.06 134.85 L 181.06 135.12 L 180.97 135.29 L 180.97 135.47" /><path d="M 180.97 135.47 L 180.97 135.65 L 180.97 135.83 L 180.97 136" /><path d="M 180.97 136 L 180.97 136.18 L 180.97 136.27 L 181.06 136.45" /><path d="M 180.97 136 L 181.06 136.09 L 181.06 136.27 L 181.06 136.45" /><path d="M 181.06 136.45 L 181.06 136.71 L 181.15 136.89 L 181.15 137.15 L 181.24 137.33" /><path d="M 181.24 137.33 L 182.66 142.47 L 182.75 142.73 L 182.92 143.18 L 182.92 143.44 L 183.01 143.62" /><path d="M 181.24 137.33 L 182.04 140.17 L 182.13 140.34 L 182.3 140.96 L 182.39 141.32 L 182.75 142.64 L 182.83 142.91 L 183.01 143.44 L 183.01 143.62" /><path d="M 183.01 143.62 L 183.01 143.88 L 183.1 144.15 L 183.1 145.04" /><path d="M 183.01 143.62 L 183.1 143.8 L 183.1 144.06 L 183.1 144.33 L 183.1 145.04" /><path d="M 183.1 145.04 L 183.1 145.21 L 183.1 145.57 L 183.1 149.73 L 183.1 150.08 L 183.01 153.01 L 183.01 153.27 L 183.01 153.63 L 183.1 154.69 L 183.1 154.95" /><path d="M 183.1 154.95 L 183.01 155.93 L 183.01 156.11 L 183.01 156.28" /><path d="M 183.1 154.95 L 183.1 155.93 L 183.1 156.11 L 183.01 156.28" /><path d="M 183.01 156.28 L 183.01 156.46 L 183.01 156.64" /><path d="M 183.01 156.64 L 182.92 156.81 L 182.92 157.08 L 182.92 157.26" /><path d="M 183.01 156.64 L 183.01 156.81 L 183.01 156.99 L 182.92 157.17 L 182.92 157.26" /><path d="M 182.92 157.26 L 182.83 157.35 L 182.83 157.52 L 182.75 157.7 L 182.75 157.88 L 182.66 158.05 L 182.66 158.23 L 182.3 159.03 L 182.3 159.21 L 182.21 159.56" /><path d="M 182.92 157.26 L 182.83 157.43 L 182.83 157.61 L 182.83 157.79 L 182.75 157.97 L 182.75 158.14 L 182.66 158.32 L 182.39 159.12 L 182.3 159.38 L 182.21 159.56" /><path d="M 182.21 159.56 L 182.04 160.36" /><path d="M 182.04 160.36 L 181.95 160.53 L 181.86 160.71" /><path d="M 182.04 160.36 L 181.95 160.62 L 181.86 160.71" /><path d="M 181.86 160.71 L 181.86 160.89" /><path d="M 181.86 160.89 L 181.42 161.86 L 181.42 162.04 L 181.33 162.31" /><path d="M 181.86 160.89 L 181.51 161.86 L 181.42 162.13 L 181.33 162.31" /><path d="M 181.33 162.31 L 181.24 162.39 L 181.24 162.66 L 181.24 162.84" /><path d="M 181.33 162.31 L 181.33 162.48 L 181.24 162.57 L 181.24 162.84" /><path d="M 181.24 162.84 L 181.15 162.93 L 181.15 163.1" /><path d="M 181.24 162.84 L 181.24 162.93 L 181.15 163.1" /><path d="M 181.15 163.1 L 181.15 163.28" /><path d="M 181.15 163.28 L 181.15 163.37 L 181.15 163.55 L 181.06 163.81 L 181.06 164.7 L 181.06 164.96 L 181.06 165.23 L 181.15 165.49 L 181.15 165.67 L 181.15 165.85 L 181.15 166.02 L 181.33 166.73" /><path d="M 181.15 163.28 L 181.15 163.46 L 181.15 163.63 L 181.15 163.9 L 181.15 164.87 L 181.15 165.05 L 181.15 165.32 L 181.15 165.4 L 181.15 165.58 L 181.24 165.85 L 181.24 166.02 L 181.33 166.73" /><path d="M 181.33 166.73 L 181.33 166.91 L 181.33 167.18 L 181.33 167.62 L 181.42 169.74 L 181.42 170.01" /><path d="M 181.33 166.73 L 181.42 167 L 181.42 167.26 L 181.42 167.44 L 181.42 169.12 L 181.42 169.48 L 181.42 169.66 L 181.42 169.83 L 181.42 170.01" /><path d="M 181.42 170.01 L 181.42 170.19 L 181.33 170.36 L 181.24 171.96 L 181.24 172.22 L 181.24 172.4 L 181.24 172.58 L 181.24 172.76 L 181.24 172.93 L 181.24 173.2" /><path d="M 181.42 170.01 L 181.24 171.87 L 181.24 172.05 L 181.24 172.31 L 181.24 172.49 L 181.24 172.67 L 181.24 172.84 L 181.24 173.02 L 181.24 173.2" /><path d="M 181.24 173.2 L 181.33 174.26" /><path d="M 181.33 174.26 L 181.33 174.62 L 181.33 174.79 L 181.33 174.97 L 181.24 177.63 L 181.24 177.8 L 181.33 177.98" /><path d="M 181.33 174.26 L 181.33 174.53 L 181.33 174.7 L 181.33 175.06 L 181.33 177.63 L 181.33 177.8 L 181.33 177.98" /><path d="M 181.33 177.98 L 181.33 178.16 L 181.33 178.33" /><path d="M 181.33 178.33 L 181.33 178.51 L 181.33 178.69 L 181.42 178.87" /><path d="M 181.33 178.33 L 181.42 178.51 L 181.42 178.69 L 181.42 178.87" /><path d="M 181.42 178.87 L 181.42 179.04 L 181.42 179.22 L 181.51 179.4" /><path d="M 181.42 178.87 L 181.51 179.04 L 181.51 179.22 L 181.51 179.4" /><path d="M 181.51 179.4 L 181.51 179.57 L 181.59 179.75 L 181.59 179.93 L 181.68 180.11 L 181.68 180.19 L 181.77 180.37 L 181.86 180.55 L 181.86 180.73 L 181.95 180.81 L 182.04 180.99 L 182.13 181.17 L 182.21 181.35 L 185.23 186.84 L 185.31 187.01 L 185.4 187.28 L 185.49 187.37 L 185.49 187.46 L 185.58 187.63 L 185.67 187.72" /><path d="M 181.51 179.4 L 181.59 179.57 L 181.59 179.66 L 181.68 179.84 L 181.68 180.02 L 181.77 180.19 L 181.86 180.37 L 181.86 180.46 L 181.95 180.64 L 182.04 180.81 L 182.04 180.9 L 182.13 181.08 L 182.21 181.26 L 185.31 186.84 L 185.4 187.01 L 185.49 187.19 L 185.58 187.37 L 185.58 187.46 L 185.67 187.63 L 185.67 187.72" /><path d="M 185.67 187.72 L 185.67 187.9 L 185.67 188.08 L 185.76 188.16 L 185.76 188.34 L 185.84 188.43" /><path d="M 185.67 187.72 L 185.76 187.9 L 185.76 187.99 L 185.84 188.16 L 185.84 188.34 L 185.84 188.43" /><path d="M 185.84 188.43 L 185.84 188.61 L 185.84 188.78 L 185.84 188.87 L 185.84 189.05 L 185.93 189.23" /><path d="M 185.84 188.43 L 185.93 188.61 L 185.93 188.78 L 185.93 188.87 L 185.93 189.05 L 185.93 189.23" /><path d="M 185.93 189.23 L 185.93 189.4" /><path d="M 185.93 189.4 L 185.93 189.58 L 185.93 191.09 L 185.93 191.44 L 185.93 191.62 L 186.55 199.15 L 186.55 199.68 L 186.55 200.03 L 186.55 200.47 L 186.64 200.83 L 186.64 201.18 L 186.64 201.63" /><path d="M 185.93 189.4 L 186.02 189.58 L 186.02 191.26 L 186.02 191.44 L 186.02 191.71 L 186.55 198.97 L 186.55 199.32 L 186.64 199.68 L 186.64 200.12 L 186.64 200.47 L 186.64 200.92 L 186.64 201.27 L 186.64 201.63" /><path d="M 186.64 201.63 L 186.64 201.98 L 186.55 204.28 L 186.64 204.46 L 186.64 204.64 L 186.64 204.81 L 186.73 204.99 L 186.73 205.17 L 186.82 205.35 L 186.91 205.52 L 187 205.61 L 187.08 205.79 L 187.26 205.88 L 187.35 205.97 L 187.53 206.05 L 188.5 206.32 L 188.59 206.41 L 188.77 206.5 L 188.94 206.59 L 189.12 206.67 L 189.3 206.85 L 189.48 207.03 L 189.56 207.21 L 189.74 207.38 L 189.83 207.56 L 190.01 207.83 L 190.1 208" /><path d="M 186.64 201.63 L 186.64 202.07 L 186.64 204.19 L 186.64 204.37 L 186.73 204.64 L 186.73 204.81 L 186.82 204.99 L 186.82 205.17 L 186.91 205.35 L 187 205.52 L 187.08 205.61 L 187.26 205.7 L 187.35 205.88 L 187.44 205.88 L 187.62 205.97 L 188.5 206.23 L 188.59 206.32 L 188.86 206.41 L 189.03 206.5 L 189.21 206.59 L 189.3 206.76 L 189.48 206.94 L 189.65 207.12 L 189.83 207.29 L 189.92 207.47 L 190.01 207.74 L 190.1 208" /><path d="M 190.1 208 L 190.18 208.27 L 190.27 208.53" /><path d="M 190.27 208.53 L 190.27 208.8 L 190.36 209.06 L 190.36 209.33 L 190.36 209.51 L 190.36 209.68 L 190.45 212.43 L 190.45 213.94 L 190.45 214.29 L 190.45 214.64 L 190.45 214.91 L 190.45 215.26 L 190.45 215.53" /><path d="M 190.27 208.53 L 190.36 208.8 L 190.45 209.06 L 190.45 209.33 L 190.45 209.51 L 190.45 209.68 L 190.45 211.63 L 190.54 213.94 L 190.54 214.29 L 190.54 214.64 L 190.54 214.91 L 190.54 215.26 L 190.45 215.53" /><path d="M 190.45 215.53 L 190.36 215.88 L 190.36 216.15 L 190.36 216.42 L 190.36 216.77" /><path d="M 190.45 215.53 L 190.45 215.88 L 190.45 216.15 L 190.45 216.5 L 190.36 216.77" /><path d="M 190.36 216.77 L 190.27 217.04 L 190.27 217.39" /><path d="M 190.36 216.77 L 190.36 217.04 L 190.27 217.39" /><path d="M 190.27 217.39 L 190.18 217.66 L 190.18 217.92 L 190.1 218.28 L 190.1 218.54" /><path d="M 190.27 217.39 L 190.27 217.66 L 190.18 218.01 L 190.18 218.28 L 190.1 218.54" /><path d="M 190.1 218.54 L 190.01 218.81 L 189.92 219.16 L 189.92 219.43" /><path d="M 190.1 218.54 L 190.1 218.9 L 190.01 219.16 L 189.92 219.43" /><path d="M 189.92 219.43 L 189.83 219.69" /><path d="M 189.83 219.69 L 189.74 219.96 L 189.65 220.31 L 189.56 220.58 L 189.48 220.84 L 189.39 221.11 L 189.3 221.37 L 189.21 221.64 L 189.12 221.99" /><path d="M 189.83 219.69 L 189.83 220.05 L 189.74 220.31 L 189.65 220.58 L 189.56 220.84 L 189.48 221.11 L 189.39 221.46 L 189.3 221.73 L 189.12 221.99" /><path d="M 189.12 221.99 L 184.87 233.42 L 184.78 233.68 L 184.69 233.86 L 184.61 234.13 L 184.61 234.3 L 184.52 234.48 L 184.52 234.66 L 184.52 234.84 L 184.43 235.01 L 184.43 235.28" /><path d="M 189.12 221.99 L 184.87 233.51 L 184.87 233.68 L 184.78 233.86 L 184.69 233.95 L 184.69 234.13 L 184.69 234.3 L 184.61 234.48 L 184.61 234.66 L 184.52 234.75 L 184.52 234.92 L 184.52 235.1 L 184.43 235.28" /><path d="M 184.43 235.28 L 184.43 235.46" /><path d="M 184.43 235.46 L 184.34 235.63 L 184.34 235.99 L 184.34 236.25 L 184.34 237.94 L 184.34 238.11 L 184.34 238.29 L 184.34 238.56 L 184.34 238.91 L 184.25 239.18 L 184.16 239.44 L 184.07 239.71 L 183.99 239.97 L 183.9 240.15 L 183.81 240.42" /><path d="M 184.43 235.46 L 184.43 235.63 L 184.43 235.81 L 184.43 235.99 L 184.43 236.25 L 184.43 237.94 L 184.43 238.11 L 184.43 238.47 L 184.34 238.73 L 184.34 239 L 184.25 239.26 L 184.16 239.53 L 184.16 239.71 L 184.07 239.97 L 183.99 240.24 L 183.81 240.42" /><path d="M 183.81 240.42 L 183.63 240.59 L 183.54 240.77 L 183.37 240.95 L 183.19 241.12 L 183.01 241.21 L 182.83 241.39 L 182.66 241.48 L 182.48 241.57 L 182.3 241.57 L 182.04 241.57 L 181.86 241.57 L 181.68 241.57 L 181.51 241.57 L 181.33 241.48 L 180.89 241.21 L 180.8 241.21 L 180.62 241.21 L 180.53 241.21 L 180.44 241.21 L 180.27 241.3 L 180.18 241.39 L 178.76 242.72" /><path d="M 183.81 240.42 L 183.81 240.5 L 183.63 240.77 L 183.45 240.95 L 183.28 241.12 L 183.19 241.21 L 183.01 241.39 L 182.83 241.48 L 182.57 241.57 L 182.39 241.66 L 182.21 241.66 L 182.04 241.66 L 181.86 241.66 L 181.59 241.66 L 181.51 241.66 L 181.42 241.57 L 180.71 241.39 L 180.62 241.3 L 180.53 241.3 L 180.35 241.3 L 180.27 241.39 L 180.09 241.48 L 180 241.57 L 178.76 242.72" /><path d="M 178.76 242.72 L 178.49 242.89 L 177.87 243.51 L 177.79 243.6 L 177.7 243.78 L 177.7 243.96 L 177.7 244.22 L 177.79 244.4 L 178.23 245.46 L 178.32 245.73 L 178.67 246.61 L 178.85 246.97 L 180 249.71 L 180.09 250.07 L 180.53 250.95" /><path d="M 178.76 242.72 L 178.58 242.89 L 177.96 243.43 L 177.87 243.6 L 177.79 243.78 L 177.79 243.96 L 177.79 244.13 L 177.79 244.31 L 178.32 245.46 L 178.41 245.82 L 178.76 246.61 L 178.94 246.97 L 179.82 249.09 L 180.09 249.71 L 180.18 249.98 L 180.53 250.95" /><path d="M 180.53 250.95 L 180.62 251.22 L 181.24 252.02 L 181.33 252.11" /><path d="M 180.53 250.95 L 180.62 251.04 L 181.24 251.93 L 181.33 252.11" /><path d="M 181.33 252.11 L 181.33 252.28 L 181.42 252.55 L 181.51 252.64 L 181.51 252.99" /><path d="M 181.33 252.11 L 181.42 252.28 L 181.51 252.55 L 181.51 252.73 L 181.51 252.9" /><path d="M 181.51 252.99 L 181.51 254.32" /><path d="M 181.51 252.99 L 181.51 253.43" /><path d="M 181.51 254.32 L 181.51 254.5 L 181.42 254.67 L 181.42 255.91" /><path d="M 181.51 254.32 L 181.51 254.67 L 181.51 255.12 L 181.51 255.65" /><path d="M 181.51 254.32 L 181.51 253.79 L 181.51 253.43" /><path d="M 181.42 255.91 L 181.42 256.09 L 181.51 256.36 L 181.51 256.53 L 181.68 257.51 L 181.77 258.13 L 181.77 258.3 L 181.77 258.48 L 181.77 260.96 L 181.77 261.14 L 181.77 261.67 L 181.77 261.85 L 181.77 268.84 L 181.77 269.99" /><path d="M 181.42 255.91 L 181.51 256.18" /><path d="M 181.42 255.91 L 181.51 255.65" /><path d="M 181.77 269.99 L 181.77 270.17 L 181.77 270.35 L 181.86 270.44 L 181.95 270.61 L 182.04 270.7 L 182.13 270.7" /><path d="M 181.77 269.99 L 181.77 270.26 L 181.77 270.44 L 181.95 270.53 L 182.04 270.61 L 182.13 270.7" /><path d="M 181.77 269.99 L 181.77 268.31 L 181.77 262.38 L 181.77 262.2 L 181.77 262.02 L 181.86 261.4 L 181.86 261.14 L 181.86 261.05 L 181.86 258.48 L 181.86 258.3 L 181.86 258.13 L 181.68 257.6 L 181.68 257.42 L 181.51 256.27 L 181.51 256.18" /><path d="M 182.13 270.7 L 182.92 270.79 L 183.1 270.88 L 183.19 270.88 L 184.07 270.88 L 184.16 270.88 L 184.34 270.88 L 184.87 271.06 L 184.96 271.06 L 185.23 271.06 L 185.4 271.06 L 185.49 270.97 L 185.58 270.97 L 185.67 270.88" /><path d="M 182.13 270.7 L 183.01 270.79 L 183.1 270.79 L 184.34 270.79 L 184.52 270.79 L 184.87 270.97 L 185.05 270.97 L 185.23 270.97 L 185.4 270.97 L 185.49 270.88 L 185.67 270.88" /><path d="M 185.67 270.88 L 185.76 270.88 L 185.93 270.7 L 186.82 269.99 L 187 269.91 L 187.26 269.73 L 188.06 269.2 L 188.24 269.11 L 188.32 269.02 L 188.41 268.93 L 188.5 268.93 L 188.59 268.93 L 188.77 268.93 L 188.86 268.93 L 188.94 268.93 L 189.12 268.93 L 189.3 268.93 L 189.39 269.02 L 189.48 269.11 L 189.65 269.2 L 190.72 269.99 L 190.8 270.08 L 190.98 270.08" /><path d="M 185.67 270.88 L 185.76 270.79 L 185.84 270.7 L 186.02 270.53 L 186.64 269.82 L 186.82 269.73 L 186.91 269.64 L 187 269.55 L 187.08 269.46 L 187.97 268.84 L 188.06 268.84 L 188.15 268.75 L 188.32 268.75 L 188.41 268.67 L 188.5 268.67 L 188.59 268.67 L 188.77 268.67 L 188.86 268.67 L 188.94 268.67 L 189.12 268.75 L 189.21 268.75 L 189.3 268.84 L 189.48 268.93 L 190.63 269.82 L 190.72 269.91 L 190.89 269.99 L 190.98 270.08" /><path d="M 190.98 270.08 L 191.07 270.17 L 191.25 270.26 L 191.42 270.26 L 191.96 270.44 L 192.04 270.53 L 192.22 270.53" /><path d="M 190.98 270.08 L 191.16 270.08 L 192.13 270.44 L 192.22 270.53" /><path d="M 192.22 270.53 L 192.31 270.7 L 192.4 270.88 L 192.49 271.06 L 192.84 272.12 L 192.93 272.3 L 193.02 272.47 L 193.02 272.74 L 193.02 274.78" /><path d="M 192.22 270.53 L 192.31 270.61 L 192.49 270.88 L 192.58 271.06 L 192.93 272.12 L 193.02 272.39 L 193.02 272.65 L 193.02 272.92 L 193.02 274.78" /><path d="M 193.02 274.78 L 193.02 276.37 L 193.02 278.14 L 193.02 278.41 L 193.02 279.12" /><path d="M 193.02 279.12 L 193.02 279.38" /><path d="M 193.02 279.12 L 193.02 279.2 L 193.02 279.38" /><path d="M 193.02 279.38 L 193.02 279.56 L 193.02 279.74 L 193.02 279.82 L 193.11 280.09" /><path d="M 193.11 280.09 L 193.11 280.36 L 195.14 287.44 L 195.41 288.24" /><path d="M 193.11 280.09 L 193.11 280.27 L 195.23 287.44 L 195.41 288.24" /><path d="M 195.41 288.24 L 195.5 288.5 L 195.5 288.68 L 195.68 289.57 L 195.76 289.92" /><path d="M 195.76 289.92 L 196.21 292.13 L 196.56 293.46" /><path d="M 195.76 289.92 L 196.3 292.13 L 196.56 293.46" /><path d="M 196.56 293.46 L 197.09 295.85 L 197.27 296.83" /><path d="M 196.56 293.46 L 197.09 295.77 L 197.27 296.83" /><path d="M 197.27 296.83 L 198.07 300.46 L 198.15 300.81" /><path d="M 198.15 300.81 L 198.77 303.56 L 198.86 303.74" /><path d="M 198.15 300.81 L 198.86 303.56 L 198.86 303.74" /><path d="M 198.86 303.74 L 198.86 303.91 L 198.95 304.18 L 198.95 304.36 L 198.95 304.53" /><path d="M 198.95 304.53 L 198.95 309.49 L 198.95 309.76 L 199.04 309.93" /><path d="M 198.95 304.53 L 199.04 309.49 L 199.04 309.76 L 199.04 309.93" /><path d="M 199.04 309.93 L 199.04 310.11 L 199.04 310.29" /><path d="M 199.04 310.29 L 199.04 310.47 L 199.13 310.64" /><path d="M 199.04 310.29 L 199.13 310.47 L 199.13 310.64" /><path d="M 199.13 310.64 L 199.57 312.59 L 199.57 312.77 L 199.66 313.03 L 199.66 313.21" /><path d="M 199.13 310.64 L 199.57 312.68 L 199.66 312.86 L 199.66 313.12 L 199.66 313.21" /><path d="M 199.66 313.21 L 199.66 313.48 L 199.66 313.83" /><path d="M 199.66 313.21 L 199.66 313.39 L 199.66 313.57 L 199.66 313.83" /><path d="M 199.66 313.83 L 199.66 314.1" /><path d="M 199.66 313.83 L 199.66 313.92 L 199.66 314.1" /><path d="M 199.66 314.1 L 199.48 314.81 L 199.31 316.84" /><path d="M 199.66 314.1 L 199.31 316.84" /><path d="M 199.31 316.84 L 199.22 317.11 L 199.22 317.29 L 199.22 317.46 L 199.22 317.64 L 199.22 317.91 L 199.22 318.08 L 199.31 318.35 L 199.39 319.23" /><path d="M 199.31 316.84 L 199.31 317.02 L 199.31 317.2 L 199.31 317.37 L 199.31 317.55 L 199.31 317.82 L 199.31 318.08 L 199.39 319.23" /><path d="M 199.39 319.23 L 199.48 319.68 L 199.48 320.12 L 199.57 320.83" /><path d="M 199.39 319.23 L 199.48 320.03 L 199.57 320.83" /><path d="M 199.57 320.83 L 199.57 321 L 199.57 321.18 L 199.66 321.98 L 199.66 322.51" /><path d="M 199.57 320.83 L 199.57 321.09 L 199.66 321.89 L 199.66 322.51" /><path d="M 199.66 322.51 L 199.66 322.78" /><path d="M 199.66 322.78 L 199.66 322.95 L 199.75 323.66 L 199.75 323.93 L 199.84 324.99 L 199.84 325.34 L 199.84 325.96" /><path d="M 199.66 322.78 L 199.75 323.84 L 199.84 324.9 L 199.84 325.17 L 199.84 325.43 L 199.84 325.96" /><path d="M 199.84 325.96 L 199.84 326.23 L 199.84 326.5" /><path d="M 199.84 325.96 L 199.84 326.14 L 199.84 326.5" /><path d="M 199.84 326.5 L 199.75 326.67" /><path d="M 199.75 326.67 L 199.66 326.85 L 199.66 327.03" /><path d="M 199.75 326.67 L 199.75 326.85 L 199.66 327.03" /><path d="M 199.66 327.03 L 199.57 327.2 L 199.48 327.29" /><path d="M 199.48 327.29 L 199.39 327.38 L 199.31 327.56" /><path d="M 199.48 327.29 L 199.39 327.47 L 199.31 327.56" /><path d="M 199.31 327.56 L 199.13 327.56 L 199.04 327.65" /><path d="M 199.31 327.56 L 199.13 327.65 L 199.04 327.65" /><path d="M 199.04 327.65 L 198.95 327.65 L 198.77 327.74" /><path d="M 199.04 327.65 L 198.95 327.74 L 198.77 327.74" /><path d="M 198.77 327.74 L 196.38 328 L 196.12 328 L 196.03 328.09 L 195.85 328.18 L 195.76 328.36 L 195.68 328.53 L 195.59 328.71 L 195.5 328.89 L 195.5 329.15 L 195.5 329.42 L 195.5 329.6 L 195.5 329.86" /><path d="M 198.77 327.74 L 196.3 328 L 196.12 328.09 L 195.94 328.18 L 195.85 328.36 L 195.68 328.44 L 195.59 328.62 L 195.59 328.8 L 195.5 329.06 L 195.5 329.24 L 195.5 329.51 L 195.5 329.77 L 195.5 329.86" /><path d="M 195.5 329.86 L 195.94 331.9 L 195.94 332.16 L 196.03 332.34 L 196.03 332.52 L 196.21 333.85 L 196.21 334.02" /><path d="M 195.5 329.86 L 195.94 331.81 L 195.94 332.07 L 196.03 332.25 L 196.03 332.43 L 196.21 333.76 L 196.21 334.02" /><path d="M 196.21 334.02 L 196.21 334.11 L 196.21 334.29 L 196.3 334.47" /><path d="M 196.21 334.02 L 196.3 334.2 L 196.3 334.47" /><path d="M 196.3 334.47 L 196.3 334.64 L 196.38 334.82" /><path d="M 196.3 334.47 L 196.38 334.64 L 196.38 334.82" /><path d="M 196.38 334.82 L 196.47 335 L 196.47 335.09" /><path d="M 196.38 334.82 L 196.47 334.91 L 196.47 335.09" /><path d="M 196.47 335.09 L 196.56 335.26 L 196.56 335.35 L 196.65 335.44" /><path d="M 196.47 335.09 L 196.56 335.17 L 196.65 335.44" /><path d="M 196.65 335.44 L 196.74 335.71 L 196.83 335.79" /><path d="M 196.65 335.44 L 196.74 335.53 L 196.83 335.71 L 196.83 335.79" /><path d="M 196.83 335.79 L 196.91 335.97 L 197.09 336.15 L 197.53 336.59" /><path d="M 196.83 335.79 L 197 335.97 L 197.09 336.06 L 197.53 336.59" /><path d="M 197.53 336.59 L 197.62 336.77 L 197.71 336.86" /><path d="M 197.53 336.59 L 197.62 336.68 L 197.71 336.86" /><path d="M 197.71 336.86 L 197.8 337.03 L 197.89 337.21 L 197.98 337.39 L 198.07 337.65 L 198.15 337.83" /><path d="M 197.71 336.86 L 197.89 337.03 L 197.98 337.21 L 198.07 337.39 L 198.07 337.57 L 198.15 337.83" /><path d="M 198.15 337.83 L 198.15 338.01 L 198.24 338.1" /><path d="M 198.15 337.83 L 198.24 337.92 L 198.24 338.1" /><path d="M 198.24 338.1 L 198.24 338.45" /><path d="M 198.24 338.1 L 198.24 338.27 L 198.24 338.45" /><path d="M 198.24 338.45 L 198.24 338.72 L 198.42 340.84 L 198.51 341.02" /><path d="M 198.24 338.45 L 198.33 338.72 L 198.51 340.84 L 198.51 341.02" /><path d="M 198.51 341.02 L 198.51 341.2 L 198.51 341.46 L 198.6 341.73" /><path d="M 198.6 341.73 L 198.6 341.9 L 198.69 342.17" /><path d="M 198.6 341.73 L 198.69 341.9 L 198.69 342.17" /><path d="M 198.69 342.17 L 198.77 342.35 L 198.86 342.52 L 198.95 342.7" /><path d="M 198.95 342.7 L 199.04 342.88 L 201.25 346.24" /><path d="M 198.95 342.7 L 199.13 342.88 L 201.25 346.24" /><path d="M 201.25 346.24 L 201.43 346.51 L 201.52 346.69 L 201.61 346.86" /><path d="M 201.61 346.86 L 201.61 347.04 L 201.7 347.22" /><path d="M 201.61 346.86 L 201.7 347.04 L 201.7 347.22" /><path d="M 201.7 347.22 L 201.79 347.48 L 201.79 347.66" /><path d="M 201.7 347.22 L 201.79 347.4 L 201.79 347.66" /><path d="M 201.79 347.66 L 201.79 347.84 L 201.87 348.1" /><path d="M 201.79 347.66 L 201.87 347.84 L 201.87 348.1" /><path d="M 201.87 348.1 L 201.87 348.28 L 201.87 348.46" /><path d="M 201.87 348.46 L 201.79 348.64 L 201.79 349.26 L 201.79 349.52" /><path d="M 201.87 348.46 L 201.87 348.64 L 201.79 349.34 L 201.79 349.52" /><path d="M 201.79 349.52 L 201.79 349.7 L 201.79 349.88 L 201.79 350.05" /><path d="M 201.79 350.05 L 201.79 350.23 L 201.87 350.5 L 201.96 350.85 L 202.76 354.13" /><path d="M 201.79 350.05 L 201.87 350.41 L 201.87 350.67 L 201.96 350.76 L 202.76 354.13" /><path d="M 202.76 354.13 L 202.85 354.3 L 202.85 354.57 L 202.94 354.75 L 202.94 355.01 L 203.03 355.28 L 203.03 355.54" /><path d="M 203.03 355.54 L 203.03 355.81 L 203.11 356.16" /><path d="M 203.03 355.54 L 203.11 355.81 L 203.11 356.16" /><path d="M 203.11 356.16 L 203.29 358.38 L 203.38 358.64 L 203.38 359" /><path d="M 203.11 356.16 L 203.38 358.38 L 203.38 358.55 L 203.38 358.73 L 203.38 359" /><path d="M 203.38 359 L 203.38 359.26 L 203.29 360.41" /><path d="M 203.29 360.41 L 203.29 360.59 L 203.29 360.86 L 203.2 360.95 L 203.2 361.12 L 203.11 361.3 L 203.03 361.39 L 202.94 361.48 L 202.85 361.57 L 202.76 361.65 L 202.67 361.74 L 202.58 361.83 L 202.41 361.83 L 202.32 361.83 L 202.14 361.83 L 201.96 361.74 L 201.87 361.74 L 201.08 361.39" /><path d="M 203.29 360.41 L 203.29 360.68 L 203.29 360.95 L 203.2 361.03 L 203.2 361.21 L 203.11 361.39 L 203.03 361.48 L 202.94 361.57 L 202.85 361.65 L 202.76 361.74 L 202.67 361.83 L 202.49 361.83 L 202.41 361.92 L 202.23 361.83 L 202.05 361.83 L 201.96 361.83 L 201.79 361.74 L 201.08 361.39" /><path d="M 201.08 361.39 L 200.99 361.3" /><path d="M 200.99 361.3 L 200.9 361.21 L 200.72 361.21" /><path d="M 200.99 361.3 L 200.9 361.3 L 200.72 361.21" /><path d="M 200.72 361.21 L 200.55 361.21" /><path d="M 200.55 361.21 L 200.46 361.21 L 200.28 361.21" /><path d="M 200.55 361.21 L 200.37 361.21 L 200.28 361.21" /><path d="M 200.28 361.21 L 200.1 361.21 L 200.01 361.3 L 199.84 361.39" /><path d="M 200.28 361.21 L 200.1 361.3 L 199.93 361.39 L 199.84 361.39" /><path d="M 199.84 361.39 L 199.66 361.48 L 199.57 361.48 L 199.48 361.57" /><path d="M 199.84 361.39 L 199.75 361.48 L 199.57 361.57 L 199.48 361.57" /><path d="M 199.48 361.57 L 199.39 361.65" /><path d="M 199.39 361.65 L 199.31 361.74 L 199.22 361.83 L 199.04 362.01 L 198.95 362.27" /><path d="M 199.39 361.65 L 199.31 361.83 L 199.13 361.92 L 199.04 362.1 L 198.95 362.27" /><path d="M 198.95 362.27 L 198.6 362.63 L 198.51 362.81" /><path d="M 198.95 362.27 L 198.69 362.63 L 198.51 362.81" /><path d="M 198.51 362.81 L 198.33 362.98 L 198.24 363.07 L 198.15 363.16 L 198.07 363.25" /><path d="M 198.51 362.81 L 198.42 362.98 L 198.24 363.16 L 198.15 363.25 L 198.07 363.25" /><path d="M 198.07 363.25 L 197.98 363.25 L 197.8 363.34" /><path d="M 198.07 363.25 L 197.89 363.34 L 197.8 363.34" /><path d="M 197.8 363.34 L 197.71 363.43 L 197.62 363.43" /><path d="M 197.62 363.43 L 197.53 363.43 L 197.45 363.43 L 197.27 363.43 L 197.18 363.43 L 197 363.34 L 196.91 363.25 L 195.94 362.54" /><path d="M 197.62 363.43 L 197.53 363.51 L 197.45 363.51 L 197.27 363.51 L 197.18 363.51 L 197 363.43 L 196.91 363.34 L 195.94 362.54" /><path d="M 195.94 362.54 L 195.76 362.45" /><path d="M 195.76 362.45 L 195.68 362.36 L 195.59 362.36 L 195.41 362.36 L 195.23 362.45 L 195.06 362.63" /><path d="M 195.76 362.45 L 195.68 362.45 L 195.59 362.45 L 195.41 362.45 L 195.32 362.45 L 195.23 362.54 L 195.06 362.63" /><path d="M 195.06 362.63 L 194.88 362.72 L 194.7 362.89 L 194.52 363.16" /><path d="M 195.06 362.63 L 194.97 362.72 L 194.79 362.81 L 194.7 362.98 L 194.52 363.16" /><path d="M 194.52 363.16 L 194.44 363.25 L 194.35 363.51" /><path d="M 194.52 363.16 L 194.44 363.34 L 194.35 363.51" /><path d="M 194.35 363.51 L 192.31 366.97 L 192.13 367.23 L 192.04 367.41 L 191.96 367.59 L 191.87 367.85 L 191.78 368.12 L 191.78 368.3" /><path d="M 194.35 363.51 L 192.31 367.06 L 192.13 367.32 L 192.04 367.59 L 191.96 367.76 L 191.87 368.03 L 191.78 368.3" /><path d="M 191.78 368.3 L 191.69 368.56 L 191.69 368.92 L 191.69 369.27" /><path d="M 191.78 368.3 L 191.78 368.56 L 191.69 368.83 L 191.69 369 L 191.69 369.27" /><path d="M 191.69 369.27 L 191.69 371.75 L 191.69 371.93" /><path d="M 191.69 371.93 L 191.69 372.19 L 191.78 372.46 L 191.78 372.72 L 191.87 372.99 L 191.96 373.17" /><path d="M 191.69 371.93 L 191.69 372.1 L 191.78 372.37 L 191.78 372.64 L 191.87 372.9 L 191.96 373.17" /><path d="M 191.96 373.17 L 192.04 373.43 L 192.13 373.61 L 192.22 373.79" /><path d="M 191.96 373.17 L 192.04 373.34 L 192.13 373.52 L 192.22 373.79" /><path d="M 192.22 373.79 L 192.31 373.88" /><path d="M 192.31 373.88 L 192.58 374.32 L 192.75 374.5" /><path d="M 192.31 373.88 L 192.66 374.32 L 192.75 374.5" /><path d="M 192.75 374.5 L 192.75 374.67 L 192.84 374.76" /><path d="M 192.75 374.5 L 192.84 374.58 L 192.84 374.76" /><path d="M 192.84 374.76 L 192.93 374.94 L 192.93 375.11 L 192.93 375.29" /><path d="M 192.93 375.29 L 192.93 375.47 L 192.93 376.8 L 192.93 377.06 L 193.02 379.72 L 193.02 380.07 L 193.02 381.14 L 193.11 382.02" /><path d="M 192.93 375.29 L 192.93 376.53 L 192.93 376.71 L 193.02 377.15 L 193.02 377.24 L 193.11 379.19 L 193.11 379.54 L 193.11 379.9 L 193.11 381.14 L 193.11 382.02" /><path d="M 193.11 382.02 L 193.11 382.2 L 193.11 382.73" /><path d="M 193.11 382.02 L 193.11 382.73" /><path d="M 193.11 382.73 L 193.11 383 L 193.11 383.09 L 193.11 383.26" /><path d="M 193.11 383.26 L 193.02 383.44 L 193.02 383.53 L 193.02 383.71" /><path d="M 193.11 383.26 L 193.11 383.44 L 193.11 383.53 L 193.02 383.71" /><path d="M 193.02 383.71 L 193.02 383.97 L 192.84 384.95" /><path d="M 192.84 384.95 L 192.75 385.12 L 192.75 385.39" /><path d="M 192.84 384.95 L 192.84 385.12 L 192.75 385.39" /><path d="M 192.75 385.39 L 192.66 386.8 L 192.66 387.16 L 192.66 387.51" /><path d="M 192.66 387.51 L 192.58 387.78 L 192.58 388.13 L 192.58 388.49 L 192.58 388.75 L 192.58 389.11 L 192.58 389.46 L 192.58 389.73 L 192.66 390.97" /><path d="M 192.66 387.51 L 192.66 387.78 L 192.66 388.13 L 192.66 388.49 L 192.66 388.75 L 192.66 389.11 L 192.66 389.46 L 192.66 389.73 L 192.66 390.97" /><path d="M 192.66 390.97 L 192.75 393.36 L 192.75 393.62" /><path d="M 192.75 393.62 L 192.75 393.8 L 192.66 394.16 L 192.66 395.84 L 192.66 396.1 L 192.66 396.72 L 192.66 397.43 L 192.66 397.7 L 192.66 397.96 L 192.75 398.23" /><path d="M 192.75 393.62 L 192.75 393.98 L 192.75 394.16 L 192.66 395.04 L 192.66 395.22 L 192.66 395.93 L 192.75 397.79 L 192.75 398.05 L 192.75 398.23" /><path d="M 192.75 398.23 L 192.84 400.09 L 192.84 400.35" /><path d="M 192.84 400.35 L 192.84 400.53 L 192.93 400.71" /><path d="M 192.84 400.35 L 192.93 400.53 L 192.93 400.71" /><path d="M 192.93 400.71 L 192.93 400.89" /><path d="M 192.93 400.89 L 192.93 401.06 L 192.93 401.15 L 193.02 401.33" /><path d="M 192.93 400.89 L 192.93 400.97 L 193.02 401.15 L 193.02 401.33" /><path d="M 193.02 401.33 L 193.02 401.51 L 193.11 401.68 L 193.11 401.77 L 193.2 401.95" /><path d="M 193.02 401.33 L 193.11 401.51 L 193.11 401.59 L 193.2 401.77 L 193.2 401.95" /><path d="M 193.2 401.95 L 193.2 402.13 L 193.28 402.21" /><path d="M 193.2 401.95 L 193.28 402.04 L 193.28 402.21" /><path d="M 193.28 402.21 L 193.37 402.39 L 193.37 402.48 L 193.46 402.66 L 193.55 402.75 L 193.99 403.54" /><path d="M 193.28 402.21 L 193.37 402.3 L 193.46 402.48 L 193.46 402.57 L 193.64 402.83 L 193.99 403.54" /><path d="M 193.99 403.54 L 194.08 403.63" /><path d="M 194.08 403.63 L 194.17 403.9 L 194.26 404.07 L 194.44 404.43 L 194.52 404.69" /><path d="M 194.08 403.63 L 194.17 403.81 L 194.26 403.99 L 194.35 404.25 L 194.44 404.52 L 194.52 404.69" /><path d="M 194.52 404.69 L 194.52 405.05 L 194.61 405.4 L 194.61 405.58 L 194.61 405.85 L 194.7 406.02 L 194.7 406.2" /><path d="M 194.52 404.69 L 194.52 404.96 L 194.61 405.14 L 194.61 405.31 L 194.7 405.67 L 194.7 405.85 L 194.7 406.2" /><path d="M 194.7 406.2 L 194.61 406.47 L 194.61 406.64 L 194.44 409.21 L 194.35 410.36" /><path d="M 194.7 406.2 L 194.7 406.47 L 194.7 406.64 L 194.35 410.01 L 194.35 410.36" /><path d="M 194.35 410.36 L 194.26 410.54 L 194.26 411.07" /><path d="M 194.35 410.36 L 194.35 410.63 L 194.26 411.07" /><path d="M 194.26 411.07 L 194.26 411.34" /><path d="M 194.26 411.34 L 194.26 411.69 L 194.26 412.13" /><path d="M 194.26 411.34 L 194.26 411.6 L 194.26 412.13" /><path d="M 194.26 412.13 L 194.26 412.66" /><path d="M 194.26 412.66 L 194.26 412.93 L 194.26 413.2 L 194.26 413.46" /><path d="M 194.26 412.66 L 194.26 413.02 L 194.26 413.46" /><path d="M 194.26 413.46 L 194.35 413.99" /><path d="M 194.35 413.99 L 194.35 414.44 L 194.35 414.88 L 194.44 415.59 L 194.52 415.94" /><path d="M 194.35 413.99 L 194.35 414.35 L 194.35 414.52 L 194.52 415.94" /><path d="M 194.52 415.94 L 194.52 416.38 L 194.61 416.74" /><path d="M 194.61 416.74 L 194.61 417.18 L 194.61 417.54" /><path d="M 194.61 416.74 L 194.61 417.09 L 194.61 417.54" /><path d="M 194.61 417.54 L 194.61 417.89" /><path d="M 194.61 417.89 L 194.7 418.86 L 194.7 419.22 L 194.7 419.39 L 194.61 419.48 L 194.61 419.75 L 194.61 419.93" /><path d="M 194.61 417.89 L 194.7 418.24 L 194.7 419.04 L 194.7 419.31 L 194.7 419.48 L 194.7 419.66 L 194.61 419.84 L 194.61 419.93" /><path d="M 194.61 419.93 L 194.61 420.01 L 194.61 420.19 L 194.52 420.28 L 194.52 420.46 L 194.52 420.63 L 194.44 420.81 L 194.44 420.99 L 194.08 422.14" /><path d="M 194.61 419.93 L 194.61 420.1 L 194.61 420.28 L 194.61 420.37 L 194.52 420.55 L 194.52 420.72 L 194.44 420.9 L 194.35 421.08 L 194.17 421.87 L 194.08 422.14" /><path d="M 194.08 422.14 L 193.99 422.23 L 193.99 422.41 L 193.82 423.73 L 193.82 424 L 193.82 424.18 L 193.82 424.35 L 193.9 424.62 L 194.26 426.04" /><path d="M 194.08 422.14 L 194.08 422.32 L 193.9 423.91 L 193.82 424.09 L 193.82 424.27 L 193.9 424.44 L 193.9 424.71 L 194.26 426.04" /><path d="M 194.26 426.04 L 194.35 426.3 L 194.44 426.57 L 194.88 428.87" /><path d="M 194.88 428.87 L 194.88 429.14 L 194.97 429.31" /><path d="M 194.88 428.87 L 194.97 429.14 L 194.97 429.31" /><path d="M 194.97 429.31 L 194.97 429.4 L 194.97 429.58" /><path d="M 194.97 429.58 L 194.97 429.76 L 194.97 429.93 L 194.97 430.11 L 194.97 430.29 L 194.97 430.46 L 194.97 430.64" /><path d="M 194.97 429.58 L 195.06 429.76 L 195.06 429.93 L 195.06 430.11 L 195.06 430.29 L 195.06 430.46 L 194.97 430.64" /><path d="M 194.97 430.64 L 194.97 430.82 L 194.97 431.08 L 193.37 444.28 L 193.37 444.63" /><path d="M 193.37 444.63 L 193.28 444.81 L 193.28 445.08" /><path d="M 193.37 444.63 L 193.37 444.81 L 193.28 445.08" /><path d="M 193.28 445.08 L 193.11 446.05 L 193.11 446.23 L 193.02 446.41 L 192.66 448.18 L 192.58 448.35 L 192.58 448.53 L 192.58 448.71 L 192.58 448.8 L 192.75 449.59 L 192.75 449.86" /><path d="M 193.28 445.08 L 193.02 446.85 L 193.02 446.94 L 192.66 448.27 L 192.66 448.44 L 192.66 448.62 L 192.66 448.8 L 192.66 449.06 L 192.75 449.68 L 192.75 449.86" /><path d="M 192.75 449.86 L 192.75 450.13 L 192.84 450.83" /><path d="M 192.75 449.86 L 192.84 450.13 L 192.84 450.83" /><path d="M 192.84 450.83 L 192.84 451.01 L 192.84 451.28" /><path d="M 192.84 451.28 L 192.84 451.54 L 192.93 451.81" /><path d="M 192.84 451.28 L 192.93 451.54 L 192.93 451.81" /><path d="M 192.93 451.81 L 192.93 452.07" /><path d="M 192.93 452.07 L 192.93 452.34 L 193.02 452.52" /><path d="M 192.93 452.07 L 193.02 452.25 L 193.02 452.52" /><path d="M 193.02 452.52 L 193.02 452.78 L 193.11 453.05" /><path d="M 193.02 452.52 L 193.11 452.78 L 193.11 453.05" /><path d="M 193.11 453.05 L 193.11 453.31 L 193.2 453.67 L 193.82 456.41 L 193.9 456.59" /><path d="M 193.11 453.05 L 193.2 453.31 L 193.28 453.67 L 193.9 456.41 L 193.9 456.59" /><path d="M 193.9 456.59 L 193.99 457.03" /><path d="M 193.99 457.03 L 194.08 457.39 L 194.08 457.65" /><path d="M 193.99 457.03 L 193.99 457.21 L 194.08 457.65" /><path d="M 194.08 457.65 L 194.08 457.83 L 194.17 458.27" /><path d="M 194.08 457.65 L 194.17 457.83 L 194.17 458.27" /><path d="M 194.17 458.27 L 194.17 458.72 L 194.26 458.89" /><path d="M 194.17 458.27 L 194.26 458.63 L 194.26 458.89" /><path d="M 194.26 458.89 L 194.26 459.07 L 194.26 459.51" /><path d="M 194.26 458.89 L 194.26 459.34 L 194.26 459.51" /><path d="M 194.26 459.51 L 194.26 459.96 L 194.26 460.13" /><path d="M 194.26 459.51 L 194.26 459.69 L 194.26 460.13" /><path d="M 194.26 460.13 L 194.26 460.58" /><path d="M 194.26 460.58 L 194.26 460.84 L 193.73 474.3 L 193.73 474.57 L 193.64 476.43" /><path d="M 194.26 460.58 L 194.26 460.93 L 193.73 475.19 L 193.73 475.54 L 193.64 476.43" /><path d="M 193.64 476.43 L 193.55 476.69 L 193.55 476.87 L 193.55 477.22 L 193.46 477.58 L 193.28 479 L 193.2 479.35 L 193.11 480.15" /><path d="M 193.64 476.43 L 193.64 476.69 L 193.64 477.05 L 193.55 477.49 L 193.37 478.73 L 193.37 479 L 193.11 480.15" /><path d="M 193.11 480.15 L 193.02 480.32 L 193.02 480.5" /><path d="M 193.11 480.15 L 193.11 480.32 L 193.02 480.5" /><path d="M 193.02 480.5 L 192.84 480.77 L 192.75 480.94" /><path d="M 193.02 480.5 L 192.93 480.77 L 192.75 480.94" /><path d="M 192.75 480.94 L 192.66 481.03 L 192.49 481.21" /><path d="M 192.75 480.94 L 192.66 481.12 L 192.49 481.21" /><path d="M 192.49 481.21 L 192.31 481.3" /><path d="M 192.31 481.3 L 192.22 481.3 L 192.04 481.3 L 191.34 481.3 L 191.25 481.3 L 191.16 481.39" /><path d="M 192.31 481.3 L 192.22 481.39 L 192.04 481.39 L 191.96 481.39 L 191.42 481.39 L 191.34 481.39 L 191.16 481.39" /><path d="M 191.16 481.39 L 190.98 481.39 L 190.89 481.48 L 190.8 481.56 L 190.72 481.65 L 190.72 481.83" /><path d="M 191.16 481.39 L 191.07 481.48 L 190.98 481.48 L 190.89 481.56 L 190.8 481.74 L 190.72 481.83" /><path d="M 190.72 481.83 L 190.63 481.92 L 190.54 482.1 L 190.36 482.98" /><path d="M 190.72 481.83 L 190.72 481.92 L 190.63 482.1 L 190.54 482.45" /><path d="M 181.51 256.18 L 181.59 256.62 L 181.68 257.06 L 181.77 257.51 L 181.86 258.04 L 181.95 258.39 L 182.21 258.57 L 182.39 258.48 L 182.66 258.39 L 182.83 258.3 L 183.01 258.13 L 183.28 257.95 L 183.45 257.77 L 183.72 257.6 L 183.9 257.42 L 184.07 257.33 L 184.34 257.24 L 184.52 257.15 L 184.78 257.06 L 184.96 256.98" /><path d="M 181.51 256.18 L 181.51 255.65" /><path d="M 181.51 255.65 L 181.51 255.47 L 181.51 255.2 L 181.51 254.76 L 181.51 254.58 L 181.51 254.41 L 181.51 252.9" /><path d="M 181.51 252.9 L 181.51 253.17 L 181.51 253.43" /><path d="M 181.51 253.43 L 181.51 254.23 L 181.42 254.76 L 181.42 255.2 L 181.42 255.74 L 181.42 256.18 L 181.51 256.71 L 181.59 257.15 L 181.59 257.6 L 181.68 258.04 L 181.86 258.39 L 182.13 258.57 L 182.3 258.57 L 182.57 258.48 L 182.75 258.39 L 183.01 258.22 L 183.19 258.04 L 183.37 257.86 L 183.63 257.68 L 183.81 257.51 L 184.07 257.42 L 184.25 257.33 L 184.52 257.24 L 184.69 257.15 L 184.96 256.98" /><path d="M 184.96 256.98 L 185.14 256.89 L 185.31 256.71 L 185.58 256.53 L 185.76 256.36 L 186.02 256.36 L 186.2 256.36 L 186.46 256.44 L 186.64 256.71 L 186.82 256.98 L 187 257.24 L 187.17 257.6 L 187.26 258.04 L 187.44 258.39 L 187.62 258.84" /><path d="M 184.96 256.98 L 185.23 256.8 L 185.4 256.62 L 185.67 256.44 L 185.84 256.36 L 186.11 256.27 L 186.29 256.36 L 186.55 256.53 L 186.73 256.71 L 186.91 257.06 L 187.08 257.33 L 187.26 257.68 L 187.35 258.04 L 187.53 258.48 L 187.62 258.84" /><path d="M 187.62 258.84 L 187.7 259.19 L 187.88 259.54 L 188.06 259.9 L 188.24 260.08 L 188.41 260.25 L 188.68 260.43 L 188.86 260.43 L 189.12 260.52 L 189.3 260.52 L 189.56 260.43 L 189.83 260.43 L 190.01 260.43 L 190.27 260.43 L 190.45 260.43 L 190.72 260.43 L 190.89 260.43 L 191.16 260.43 L 191.34 260.43 L 191.6 260.43 L 191.78 260.43 L 192.04 260.43 L 192.31 260.43 L 192.49 260.43 L 192.75 260.43 L 192.93 260.43 L 193.2 260.34 L 193.37 260.34 L 193.64 260.34 L 193.82 260.34 L 194.08 260.34 L 194.26 260.34 L 194.52 260.34 L 194.7 260.34 L 194.97 260.34 L 195.23 260.34 L 195.41 260.34 L 195.68 260.34 L 195.85 260.34 L 196.12 260.34 L 196.3 260.34 L 196.56 260.34 L 196.74 260.43 L 197 260.43 L 197.18 260.52 L 197.45 260.52 L 197.71 260.52 L 197.89 260.52 L 198.15 260.52 L 198.33 260.52 L 198.6 260.61 L 198.77 260.61 L 199.04 260.61 L 199.22 260.61 L 199.48 260.61 L 199.66 260.61 L 199.93 260.61 L 200.1 260.61 L 200.37 260.7 L 200.63 260.7 L 200.81 260.7 L 201.08 260.7 L 201.25 260.7 L 201.52 260.7 L 201.7 260.7 L 201.96 260.7 L 202.14 260.78 L 202.41 260.78 L 202.58 260.78 L 202.85 260.78 L 203.11 260.78 L 203.29 260.78 L 203.56 260.78 L 203.73 260.78 L 204 260.87 L 204.18 260.87 L 204.44 260.87 L 204.62 260.87 L 204.89 260.87 L 205.06 260.87 L 205.33 260.87 L 205.59 260.87 L 205.77 260.96 L 206.04 260.96 L 206.21 260.96 L 206.48 260.96 L 206.66 260.96 L 206.92 260.96 L 207.1 260.96 L 207.37 261.05 L 207.54 261.05 L 207.81 261.05 L 207.98 261.05 L 208.25 261.05 L 208.52 261.05 L 208.69 261.05 L 208.96 261.05 L 209.14 261.05 L 209.4 261.05 L 209.58 260.96 L 209.84 260.87 L 210.02 260.7 L 210.29 260.52 L 210.46 260.25 L 210.64 260.08 L 210.82 259.81 L 211.08 259.63 L 211.26 259.46 L 211.44 259.28 L 211.7 259.1 L 211.88 259.01 L 212.15 259.01 L 212.32 258.92 L 212.59 259.01 L 212.77 259.01 L 213.03 259.1 L 213.21 259.19 L 213.48 259.28 L 213.65 259.46 L 213.92 259.72" /><path d="M 187.62 258.84 L 187.79 259.28 L 187.97 259.63 L 188.15 259.9 L 188.32 260.08 L 188.5 260.25 L 188.77 260.34 L 188.94 260.43 L 189.21 260.43 L 189.39 260.43 L 189.65 260.43 L 189.92 260.43 L 190.1 260.43 L 190.36 260.34 L 190.54 260.34 L 190.8 260.34 L 190.98 260.34 L 191.25 260.34 L 191.42 260.34 L 191.69 260.43 L 191.87 260.43 L 192.13 260.43 L 192.4 260.43 L 192.58 260.43 L 192.84 260.34 L 193.02 260.34 L 193.28 260.34 L 193.46 260.25 L 193.73 260.25 L 193.9 260.25 L 194.17 260.25 L 194.35 260.25 L 194.61 260.25 L 194.88 260.25 L 195.06 260.25 L 195.32 260.25 L 195.5 260.25 L 195.76 260.25 L 195.94 260.34 L 196.21 260.34 L 196.38 260.34 L 196.65 260.34 L 196.83 260.43 L 197.09 260.43 L 197.27 260.52 L 197.53 260.52 L 197.8 260.52 L 197.98 260.52 L 198.24 260.52 L 198.42 260.52 L 198.69 260.52 L 198.86 260.52 L 199.13 260.61 L 199.31 260.61 L 199.57 260.61 L 199.75 260.61 L 200.01 260.61 L 200.28 260.61 L 200.46 260.61 L 200.72 260.61 L 200.9 260.61 L 201.17 260.7 L 201.34 260.7 L 201.61 260.7 L 201.79 260.7 L 202.05 260.7 L 202.23 260.7 L 202.49 260.7 L 202.67 260.7 L 202.94 260.78 L 203.2 260.78 L 203.38 260.78 L 203.65 260.78 L 203.82 260.78 L 204.09 260.78 L 204.27 260.78 L 204.53 260.78 L 204.71 260.87 L 204.97 260.87 L 205.15 260.87 L 205.42 260.87 L 205.68 260.87 L 205.86 260.87 L 206.13 260.87 L 206.3 260.96 L 206.57 260.96 L 206.75 260.96 L 207.01 260.96 L 207.19 260.96 L 207.45 260.96 L 207.63 260.96 L 207.9 260.96 L 208.07 261.05 L 208.34 261.05 L 208.6 261.05 L 208.78 261.05 L 209.05 261.05 L 209.22 261.05 L 209.49 260.96 L 209.67 260.87 L 209.93 260.7 L 210.11 260.61 L 210.29 260.34 L 210.55 260.16 L 210.73 259.9 L 210.91 259.72 L 211.08 259.46 L 211.35 259.28 L 211.53 259.19 L 211.79 259.01 L 211.97 259.01 L 212.24 258.92 L 212.41 258.92 L 212.68 258.92 L 212.86 259.01 L 213.12 259.1 L 213.3 259.19 L 213.56 259.28 L 213.74 259.54 L 213.92 259.72" /><path d="M 213.92 259.72 L 214.1 259.9 L 214.27 260.16 L 214.45 260.34 L 214.72 260.61" /><path d="M 213.92 259.72 L 214.18 259.99 L 214.36 260.16 L 214.54 260.43 L 214.72 260.61" /><path d="M 214.72 260.61 L 214.89 260.78 L 215.07 261.05 L 215.34 261.23 L 215.51 261.4 L 215.69 261.58 L 215.96 261.76 L 216.13 261.85 L 216.4 262.02 L 216.58 262.2 L 216.75 262.38 L 217.02 262.56 L 217.2 262.73 L 217.46 262.91" /><path d="M 214.72 260.61 L 214.98 260.87 L 215.16 261.05 L 215.42 261.23 L 215.6 261.4 L 215.78 261.58 L 216.04 261.67 L 216.22 261.85 L 216.49 262.02 L 216.66 262.2 L 216.84 262.38 L 217.11 262.56 L 217.28 262.73 L 217.46 262.91" /><path d="M 217.46 262.91 L 217.64 263.09 L 217.82 263.26 L 217.99 263.44 L 218.26 263.71 L 218.44 263.88 L 218.61 264.15 L 218.88 264.33 L 219.05 264.5 L 219.23 264.77 L 219.5 264.95" /><path d="M 217.46 262.91 L 217.73 263.09 L 217.9 263.26 L 218.08 263.53 L 218.35 263.71 L 218.52 263.97 L 218.7 264.15 L 218.97 264.33 L 219.14 264.59 L 219.32 264.77 L 219.5 264.95" /><path d="M 219.5 264.95 L 219.67 265.12 L 219.85 265.3 L 220.12 265.57" /><path d="M 219.5 264.95 L 219.76 265.21 L 219.94 265.39 L 220.12 265.57" /><path d="M 220.12 265.57 L 220.29 265.74 L 220.47 265.92 L 220.74 266.1 L 220.91 266.36 L 221.09 266.54 L 221.36 266.72 L 221.53 266.89 L 221.71 267.16 L 221.89 267.43 L 222.07 267.69 L 222.33 267.96 L 222.51 268.22 L 222.69 268.58 L 222.86 268.84 L 223.04 269.02 L 223.22 269.2 L 223.48 269.37 L 223.66 269.55 L 223.93 269.64 L 224.1 269.82 L 224.37 269.91 L 224.55 269.91 L 224.81 269.99 L 224.99 270.08 L 225.25 270.17 L 225.43 270.17 L 225.7 270.26 L 225.87 270.35 L 226.14 270.44 L 226.32 270.44 L 226.58 270.53 L 226.76 270.53 L 227.03 270.53 L 227.29 270.44" /><path d="M 220.12 265.57 L 220.38 265.74 L 220.56 265.92 L 220.83 266.19 L 221 266.36 L 221.18 266.54 L 221.45 266.72 L 221.62 266.98 L 221.8 267.16 L 221.98 267.43 L 222.15 267.78 L 222.33 268.05 L 222.51 268.31 L 222.77 268.58 L 222.95 268.84 L 223.13 269.11 L 223.31 269.29 L 223.57 269.46 L 223.75 269.55 L 224.01 269.73 L 224.19 269.82 L 224.46 269.82 L 224.63 269.91 L 224.9 269.99 L 225.08 270.08 L 225.34 270.08 L 225.52 270.17 L 225.79 270.26 L 225.96 270.35 L 226.23 270.44 L 226.41 270.44 L 226.67 270.44 L 226.85 270.44 L 227.11 270.44 L 227.29 270.44" /><path d="M 227.29 270.44 L 227.47 270.35 L 227.73 270.26 L 227.91 270.17 L 228.09 270.08 L 228.35 269.91 L 228.53 269.82 L 228.8 269.64 L 228.97 269.55 L 229.24 269.37 L 229.42 269.29 L 229.68 269.2 L 229.86 269.02 L 230.12 268.93 L 230.3 268.84 L 230.57 268.84 L 230.74 268.84 L 231.01 268.84 L 231.19 268.93 L 231.45 269.02 L 231.63 269.11 L 231.9 269.2 L 232.07 269.29 L 232.34 269.2 L 232.52 269.11 L 232.78 268.93 L 232.96 268.67 L 233.14 268.4 L 233.22 267.96 L 233.31 267.51 L 233.31 266.98 L 233.22 266.45 L 233.14 266.01 L 233.05 265.65 L 232.96 265.21 L 232.78 264.86 L 232.69 264.41 L 232.52 263.97 L 232.43 263.62 L 232.25 263.18 L 232.16 262.82 L 231.98 262.38 L 231.9 261.94 L 231.81 261.49 L 231.72 261.05 L 231.63 260.61 L 231.54 260.16 L 231.36 259.81 L 231.28 259.37 L 231.1 259.01 L 231.01 258.57 L 230.83 258.13 L 230.83 257.68 L 230.83 257.15 L 230.83 256.71 L 230.92 256.27 L 231.01 255.82 L 231.1 255.29 L 231.28 254.94 L 231.45 254.58 L 231.63 254.23 L 231.81 253.96 L 231.9 253.61 L 232.07 253.17 L 232.07 252.64 L 232.07 252.19 L 232.16 251.66 L 232.16 251.22 L 232.16 250.69 L 232.16 250.16 L 232.16 249.71 L 232.16 249.18 L 232.16 248.74 L 232.07 248.21 L 232.07 247.77 L 232.07 247.23 L 232.07 246.7 L 232.07 246.26 L 232.07 245.73 L 232.07 245.29 L 231.9 244.84 L 231.72 244.67 L 231.54 244.49 L 231.28 244.31 L 231.19 243.87 L 231.1 243.43 L 231.1 242.89 L 231.19 242.45 L 231.19 241.92 L 231.19 241.39 L 231.19 240.95 L 231.19 240.42 L 231.36 240.15 L 231.54 240.15 L 231.81 240.15 L 231.98 240.15 L 232.25 240.15 L 232.43 240.15 L 232.69 240.15 L 232.96 240.15" /><path d="M 227.29 270.44 L 227.56 270.35 L 227.73 270.17 L 228 270.08 L 228.18 269.99 L 228.44 269.82 L 228.62 269.73 L 228.89 269.55 L 229.06 269.46 L 229.33 269.37 L 229.51 269.2 L 229.77 269.11 L 229.95 268.93 L 230.21 268.84 L 230.39 268.84 L 230.66 268.75 L 230.83 268.75 L 231.1 268.84 L 231.28 268.93 L 231.54 269.02 L 231.72 269.11 L 231.98 269.2 L 232.16 269.2 L 232.43 269.2 L 232.6 269.02 L 232.87 268.84 L 233.05 268.58 L 233.14 268.13 L 233.22 267.69 L 233.22 267.25 L 233.22 266.72 L 233.22 266.27 L 233.05 265.83 L 232.96 265.39 L 232.78 265.03 L 232.69 264.59 L 232.52 264.24 L 232.43 263.8" /><path d="M 232.96 240.15 L 233.14 240.24 L 233.4 240.24 L 233.58 240.24 L 233.84 240.15 L 234.02 240.15 L 234.29 239.97 L 234.46 239.71 L 234.64 239.44 L 234.73 239 L 234.82 238.56 L 234.82 238.02 L 234.82 237.49 L 234.82 237.05 L 234.91 236.52 L 235 236.08 L 235.08 235.63 L 235.08 235.19 L 235.17 234.66 L 235.26 234.22 L 235.44 233.86 L 235.62 233.6 L 235.88 233.51 L 236.06 233.42 L 236.32 233.33 L 236.5 233.33 L 236.77 233.24 L 236.94 233.15 L 237.21 233.06 L 237.39 233.06 L 237.65 232.98 L 237.83 232.89 L 238.1 232.89 L 238.27 232.8 L 238.54 232.8 L 238.72 232.8 L 238.98 232.8 L 239.16 232.8 L 239.42 232.8 L 239.69 232.8 L 239.87 232.71 L 240.13 232.71 L 240.31 232.71 L 240.58 232.71 L 240.75 232.71 L 241.02 232.71 L 241.19 232.71 L 241.46 232.71 L 241.64 232.71 L 241.9 232.71 L 242.17 232.71" /><path d="M 232.96 240.15 L 233.22 240.15 L 233.49 240.15 L 233.67 240.15 L 233.93 240.15 L 234.11 240.06 L 234.29 239.88 L 234.55 239.62 L 234.64 239.18 L 234.73 238.73 L 234.73 238.29 L 234.73 237.76 L 234.82 237.23 L 234.82 236.78 L 234.91 236.34 L 235 235.81 L 235.08 235.37 L 235.17 234.92 L 235.26 234.48 L 235.35 234.04 L 235.53 233.68 L 235.7 233.51 L 235.88 233.42 L 236.15 233.33 L 236.41 233.33 L 236.59 233.24 L 236.86 233.15 L 237.03 233.15 L 237.3 233.06 L 237.48 232.98 L 237.74 232.89 L 237.92 232.89 L 238.18 232.8 L 238.36 232.8 L 238.63 232.8 L 238.8 232.8 L 239.07 232.8 L 239.25 232.8 L 239.51 232.8 L 239.78 232.71 L 239.96 232.71 L 240.22 232.71 L 240.4 232.62 L 240.66 232.62 L 240.84 232.62 L 241.11 232.62 L 241.28 232.62 L 241.55 232.62 L 241.73 232.62 L 241.99 232.62 L 242.17 232.71" /><path d="M 232.96 240.15 L 232.78 240.15 L 232.52 240.15 L 232.34 240.15 L 232.07 240.15 L 231.9 240.15 L 231.63 240.15 L 231.45 240.15 L 231.19 240.24 L 231.1 240.68 L 231.1 241.21 L 231.19 241.66 L 231.1 242.19 L 231.1 242.63 L 231.1 243.16 L 231.1 243.69 L 231.19 244.13 L 231.36 244.4 L 231.54 244.58 L 231.81 244.75 L 231.98 245.02 L 231.98 245.46 L 232.07 245.99 L 232.07 246.53 L 232.07 246.97 L 232.07 247.5 L 232.07 247.94 L 232.07 248.47 L 232.07 249.01 L 232.07 249.45 L 232.07 249.98 L 232.07 250.42 L 232.07 250.95 L 232.07 251.4 L 232.07 251.93 L 232.07 252.46 L 232.07 252.9 L 231.98 253.34 L 231.81 253.79 L 231.63 254.05 L 231.45 254.41 L 231.28 254.76 L 231.19 255.12 L 231.1 255.56 L 231.01 256 L 230.92 256.44 L 230.83 256.89 L 230.74 257.42 L 230.83 257.86 L 230.92 258.39 L 231.01 258.75 L 231.19 259.19 L 231.28 259.54 L 231.45 259.99 L 231.54 260.43 L 231.63 260.78 L 231.81 261.23 L 231.81 261.67 L 231.9 262.2 L 232.07 262.64 L 232.16 263 L 232.43 263.8" /><path d="M 242.17 232.71 L 242.35 232.71 L 242.61 232.71 L 242.79 232.71 L 243.05 232.71 L 243.23 232.71 L 243.5 232.71 L 243.67 232.62 L 243.94 232.36 L 244.03 232.09 L 244.21 231.65 L 244.29 231.2 L 244.38 230.76 L 244.47 230.32 L 244.65 229.88 L 244.74 229.43 L 244.91 229.17 L 245.09 228.9 L 245.36 228.81 L 245.53 228.81 L 245.8 228.73 L 245.98 228.73 L 246.24 228.64 L 246.42 228.55 L 246.69 228.37 L 246.86 228.28 L 247.13 228.11 L 247.31 227.93 L 247.48 227.75 L 247.75 227.57 L 247.93 227.31 L 248.1 227.13 L 248.28 226.87 L 248.55 226.69 L 248.72 226.42 L 248.9 226.25 L 249.08 225.98 L 249.34 225.8 L 249.52 225.54 L 249.7 225.27 L 249.96 225.09 L 250.14 224.83 L 250.32 224.56 L 250.49 224.3 L 250.67 224.03 L 250.85 223.77 L 251.03 223.5 L 251.2 223.23 L 251.47 222.88 L 251.65 222.61 L 251.82 222.35 L 252 222.08 L 252.18 221.82 L 252.35 221.46 L 252.53 221.11 L 252.62 220.75 L 252.8 220.31 L 252.88 219.96 L 253.06 219.52 L 253.15 219.07 L 253.15 218.54 L 253.24 218.1 L 253.33 217.66 L 253.42 217.12 L 253.33 216.68 L 253.33 216.15 L 253.24 215.71" /><path d="M 242.17 232.71 L 242.43 232.71 L 242.7 232.71 L 242.88 232.71 L 243.14 232.71 L 243.32 232.71 L 243.59 232.62 L 243.76 232.53 L 243.94 232.27 L 244.12 231.82 L 244.21 231.38 L 244.29 230.94 L 244.38 230.5 L 244.56 230.14 L 244.65 229.7 L 244.74 229.26 L 245 228.99 L 245.18 228.9 L 245.45 228.81 L 245.62 228.73 L 245.89 228.73 L 246.07 228.64 L 246.33 228.55 L 246.51 228.46 L 246.77 228.28 L 246.95 228.19 L 247.13 228.02 L 247.39 227.84 L 247.57 227.66 L 247.75 227.4 L 248.01 227.22 L 248.19 226.95 L 248.37 226.78 L 248.63 226.51 L 248.81 226.33 L 248.99 226.07 L 249.17 225.89 L 249.43 225.63 L 249.61 225.45 L 249.79 225.18 L 249.96 224.92 L 250.23 224.74 L 250.41 224.47 L 250.58 224.12 L 250.76 223.85 L 250.94 223.59 L 251.11 223.32 L 251.29 223.06 L 251.47 222.79 L 251.65 222.44 L 251.91 222.17 L 252.09 221.91 L 252.26 221.64 L 252.35 221.29 L 252.53 220.93 L 252.71 220.58 L 252.8 220.13 L 252.97 219.69 L 253.06 219.25 L 253.15 218.81 L 253.24 218.36 L 253.24 217.83 L 253.33 217.39 L 253.33 216.95 L 253.33 216.42 L 253.24 215.97 L 253.24 215.71" /><path d="M 253.24 215.71 L 253.24 215.44" /><path d="M 253.24 215.44 L 253.24 215.26 L 253.15 214.91" /><path d="M 253.24 215.44 L 253.15 215.26 L 253.15 215.09 L 253.15 214.91" /><path d="M 253.15 214.91 L 252.8 213.58 L 252.71 213.32 L 252.62 213.14" /><path d="M 253.15 214.91 L 253.06 214.73 L 252.71 213.58 L 252.71 213.4 L 252.62 213.14" /><path d="M 252.62 213.14 L 252.62 212.96 L 252.53 212.78 L 252.53 212.61 L 252.44 212.43" /><path d="M 252.62 213.14 L 252.53 212.87 L 252.53 212.7 L 252.44 212.43" /><path d="M 252.44 212.43 L 252.26 211.46 L 252.18 211.37 L 252.18 211.1 L 252.09 210.84 L 252.09 210.66 L 252.09 210.39" /><path d="M 252.09 210.39 L 252.09 210.22 L 252.09 210.04 L 252.09 209.77 L 252.09 209.51" /><path d="M 252.09 210.39 L 252.09 210.3 L 252.09 210.13 L 252.09 209.95 L 252.09 209.68 L 252.09 209.51" /><path d="M 252.09 209.51 L 252.09 209.24 L 252.18 208.8" /><path d="M 252.09 209.51 L 252.09 209.15 L 252.18 208.8" /><path d="M 252.18 208.8 L 252.18 208.53 L 252.18 208.36" /><path d="M 252.18 208.8 L 252.18 208.62 L 252.18 208.36" /><path d="M 252.18 208.36 L 252.18 208.27 L 252.26 207.91 L 252.26 207.56 L 252.18 207.12 L 252.18 206.94 L 252.18 206.67 L 252.18 206.41 L 252.26 206.32 L 252.26 206.05 L 252.26 205.7" /><path d="M 252.18 208.36 L 252.18 208.09 L 252.18 207.91 L 252.18 207.56 L 252.18 207.03 L 252.18 206.76 L 252.18 206.5 L 252.18 206.23 L 252.26 205.97 L 252.26 205.7" /><path d="M 252.26 205.7 L 252.35 205.43 L 252.44 205.17" /><path d="M 252.26 205.7 L 252.35 205.52 L 252.35 205.35 L 252.44 205.17" /><path d="M 252.44 205.17 L 252.88 203.31" /><path d="M 252.44 205.17 L 252.8 203.49 L 252.88 203.31" /><path d="M 252.88 203.31 L 252.97 203.13 L 253.06 202.69 L 253.15 201.89" /><path d="M 252.88 203.31 L 252.88 203.13 L 252.97 202.95 L 252.97 202.69 L 253.15 201.89" /><path d="M 253.15 201.89 L 253.24 201.54" /><path d="M 253.24 201.54 L 253.33 201.36 L 253.33 201.18" /><path d="M 253.24 201.54 L 253.24 201.36 L 253.33 201.18" /><path d="M 253.33 201.18 L 253.42 200.83 L 253.5 200.65" /><path d="M 253.33 201.18 L 253.33 201.09 L 253.42 200.92 L 253.42 200.74 L 253.5 200.65" /><path d="M 253.5 200.65 L 253.68 200.3 L 253.77 200.03" /><path d="M 253.5 200.65 L 253.59 200.47 L 253.59 200.3 L 253.68 200.21 L 253.77 200.03" /><path d="M 253.77 200.03 L 253.95 199.77 L 254.04 199.68 L 254.21 199.41 L 254.39 199.23 L 254.57 198.97 L 254.74 198.79 L 254.92 198.7 L 255.01 198.61" /><path d="M 253.77 200.03 L 253.86 199.94 L 253.86 199.77 L 253.95 199.68 L 254.04 199.59 L 254.12 199.41 L 254.21 199.32 L 254.3 199.23 L 254.39 199.15 L 254.48 198.97 L 254.57 198.88 L 254.66 198.79 L 254.74 198.7 L 254.83 198.61 L 255.01 198.61" /><path d="M 255.01 198.61 L 255.19 198.53 L 255.28 198.44 L 255.45 198.35 L 255.63 198.26" /><path d="M 255.01 198.61 L 255.1 198.53 L 255.19 198.44 L 255.28 198.35 L 255.36 198.35 L 255.54 198.26 L 255.63 198.26" /><path d="M 255.63 198.26 L 255.72 198.26 L 255.9 198.17 L 256.07 198.17 L 256.25 198.17 L 256.69 198.08" /><path d="M 255.63 198.26 L 255.72 198.17 L 255.81 198.17 L 255.98 198.17 L 256.25 198.08 L 256.69 198.08" /><path d="M 256.69 198.08 L 256.96 198.08 L 257.31 198.08 L 257.4 198.08 L 258.02 198.08" /><path d="M 256.69 198.08 L 256.87 198.08 L 257.14 197.99 L 257.4 197.99 L 258.02 198.08" /><path d="M 258.02 198.08 L 259.17 198.08 L 259.7 198.08 L 259.88 198.17 L 260.94 198.17" /><path d="M 258.02 198.08 L 259.26 198.08 L 259.44 198.08 L 259.62 198.08 L 259.88 198.08 L 260.24 198.08 L 260.94 198.17" /><path d="M 260.94 198.17 L 261.21 198.26 L 261.39 198.17 L 261.48 198.17 L 261.65 198.08 L 261.74 198.08 L 262.54 197.73 L 262.63 197.64 L 262.72 197.55" /><path d="M 260.94 198.17 L 261.12 198.17 L 261.21 198.17 L 261.39 198.08 L 261.56 198.08 L 261.65 197.99 L 262.63 197.55 L 262.72 197.55" /><path d="M 262.72 197.55 L 262.8 197.46 L 262.89 197.29" /><path d="M 262.72 197.55 L 262.8 197.38 L 262.89 197.29" /><path d="M 262.89 197.29 L 262.98 197.11 L 262.98 196.93 L 262.89 196.76 L 262.89 196.58 L 262.8 196.4 L 262.72 196.31 L 262.54 196.22 L 262.45 196.22" /><path d="M 262.89 197.29 L 262.89 197.02 L 262.89 196.84 L 262.89 196.67 L 262.8 196.58 L 262.72 196.4 L 262.63 196.31 L 262.54 196.31 L 262.45 196.22" /><path d="M 262.45 196.22 L 262.01 195.96 L 261.74 195.87" /><path d="M 262.45 196.22 L 262.27 196.14 L 262.1 196.05 L 262.01 196.05 L 261.92 195.96 L 261.74 195.87" /><path d="M 261.74 195.87 L 260.06 194.98 L 259.7 194.81 L 259.53 194.63 L 259.17 194.45 L 258.73 194.19" /><path d="M 261.74 195.87 L 259.08 194.45" /><path d="M 232.43 263.8 L 232.25 263.44" />
    </g>
  </g>
</svg>