<svg xmlns="http://www.w3.org/2000/svg" viewBox="0 0 360 440" width="360" height="440" fill="none">
  <g shape-rendering="geometricPrecision" text-rendering="geometricPrecision">
    
    <g
      stroke="#111111"
      stroke-opacity="0.94"
      stroke-width="1.65"
      stroke-linecap="round"
      stroke-linejoin="round"
    >
      <path d="M 128.64 244 L 128.64 243.56" /><path d="M 128.64 243.56 L 128.64 243.2 L 128.64 243.03" /><path d="M 128.64 243.56 L 128.64 243.03" /><path d="M 128.64 243.03 L 128.55 242.76" /><path d="M 128.64 243.03 L 128.55 242.85 L 128.55 242.76" /><path d="M 128.55 242.76 L 128.55 242.32 L 128.55 242.14 L 128.55 241.87 L 128.55 241.79 L 128.55 241.61 L 128.55 241.43 L 128.55 240.81" /><path d="M 128.55 240.81 L 128.55 240.72 L 128.55 240.55 L 128.55 240.37 L 128.55 240.19 L 128.55 240.01 L 128.46 239.84 L 128.46 239.66 L 128.37 239.48 L 128.28 239.31 L 128.28 239.22" /><path d="M 128.55 240.81 L 128.55 240.63 L 128.55 240.46 L 128.55 240.28 L 128.55 240.1 L 128.55 239.93 L 128.46 239.75 L 128.37 239.57 L 128.37 239.39 L 128.28 239.22" /><path d="M 128.28 239.22 L 128.19 239.04 L 128.1 238.95" /><path d="M 128.28 239.22 L 128.19 239.13 L 128.1 238.95" /><path d="M 128.1 238.95 L 128.02 238.77 L 127.84 238.69 L 127.75 238.6 L 127.57 238.42 L 127.22 238.15" /><path d="M 128.1 238.95 L 128.02 238.86 L 127.93 238.69 L 127.84 238.6 L 127.75 238.51 L 127.48 238.42 L 127.22 238.15" /><path d="M 127.22 238.15 L 126.95 237.98 L 126.86 237.89 L 126.78 237.8 L 126.69 237.62 L 126.6 237.53 L 126.51 237.36" /><path d="M 126.51 237.36 L 126.42 237.27 L 126.24 236.91 L 126.07 236.65 L 125.98 236.47" /><path d="M 126.51 237.36 L 126.33 237.18 L 126.24 236.83 L 126.07 236.56 L 125.98 236.47" /><path d="M 125.98 236.47 L 125.98 236.38 L 125.89 236.3 L 125.8 236.21 L 125.62 236.12" /><path d="M 125.98 236.47 L 125.89 236.38 L 125.8 236.3 L 125.71 236.21 L 125.62 236.12" /><path d="M 125.62 236.12 L 125.54 236.12 L 125.45 236.03" /><path d="M 125.62 236.12 L 125.45 236.03" /><path d="M 125.45 236.03 L 125 235.94" /><path d="M 125.45 236.03 L 125.36 236.03 L 125 235.94" /><path d="M 125 235.94 L 124.92 235.94 L 124.83 235.94 L 124.65 235.85 L 124.56 235.76 L 124.47 235.68 L 124.38 235.59 L 124.3 235.5 L 124.21 235.32 L 124.12 235.23 L 124.12 235.06 L 124.03 234.97 L 124.03 234.79" /><path d="M 124.03 234.79 L 124.03 234.7 L 124.03 234.52 L 124.03 233.99 L 124.03 233.55" /><path d="M 124.03 234.79 L 124.03 234.61 L 124.03 234.44 L 124.03 233.9 L 124.03 233.55" /><path d="M 124.03 233.55 L 124.03 233.28 L 124.03 233.2 L 124.03 233.02 L 123.94 232.93 L 123.94 232.66 L 123.94 232.58 L 123.94 232.4 L 123.94 232.13 L 123.94 231.96 L 123.94 231.78" /><path d="M 123.94 231.78 L 124.03 231.07 L 124.03 230.89 L 124.03 230.72 L 124.03 230.54 L 124.03 230.36" /><path d="M 123.94 231.78 L 124.03 230.98 L 124.03 230.8 L 124.03 230.63 L 124.03 230.45 L 124.03 230.36" /><path d="M 124.03 230.36 L 123.94 230.27 L 123.94 230.1" /><path d="M 124.03 230.36 L 123.94 230.18 L 123.94 230.1" /><path d="M 123.94 230.1 L 123.94 230.01 L 123.76 229.65" /><path d="M 123.94 230.1 L 123.85 229.92 L 123.76 229.65" /><path d="M 123.76 229.65 L 123.68 229.39 L 123.5 229.03" /><path d="M 123.5 229.03 L 123.41 228.86 L 123.32 228.59 L 123.23 228.15" /><path d="M 123.5 229.03 L 123.41 228.77 L 123.32 228.41 L 123.23 228.15" /><path d="M 123.23 228.15 L 123.23 228.06 L 123.06 227.62" /><path d="M 123.23 228.15 L 123.14 227.97 L 123.06 227.62" /><path d="M 123.06 227.62 L 122.88 227.08" /><path d="M 122.88 227.08 L 122.79 226.91 L 122.61 226.55" /><path d="M 122.88 227.08 L 122.7 226.82 L 122.61 226.55" /><path d="M 122.61 226.55 L 122.52 226.2 L 122.44 226.02 L 122.35 225.84 L 122.26 225.67 L 122.08 225.14 L 121.9 224.69 L 121.73 224.16 L 121.55 223.63" /><path d="M 121.55 223.63 L 121.37 223.1 L 121.11 222.57" /><path d="M 121.55 223.63 L 121.28 223.01 L 121.11 222.57" /><path d="M 121.11 222.57 L 120.93 222.04 L 120.84 221.86 L 120.84 221.68 L 120.75 221.59 L 120.75 221.42 L 120.75 221.24 L 120.66 221.06 L 120.66 220.89 L 120.66 220.71 L 120.66 220.53 L 120.66 220.35 L 120.66 220.27 L 120.66 220.09 L 120.66 219.82 L 120.66 219.29 L 120.66 218.94 L 120.66 218.85 L 120.66 218.58 L 120.66 218.41 L 120.66 218.32 L 120.66 218.14" /><path d="M 120.66 218.14 L 120.66 218.05 L 120.66 217.87" /><path d="M 120.66 218.14 L 120.66 217.96 L 120.66 217.87" /><path d="M 120.66 217.87 L 120.66 217.7 L 120.58 217.52 L 120.58 217.34 L 120.49 217.17 L 120.49 216.99 L 120.4 216.81" /><path d="M 120.66 217.87 L 120.66 217.61 L 120.58 217.43 L 120.58 217.25 L 120.49 217.08 L 120.4 216.9 L 120.4 216.81" /><path d="M 120.4 216.81 L 120.31 216.63 L 120.22 216.55 L 120.22 216.46 L 120.13 216.28 L 120.04 216.19 L 119.96 216.01 L 119.87 215.75 L 119.78 215.66 L 119.69 215.48 L 119.42 215.22 L 119.34 215.04" /><path d="M 119.34 215.04 L 119.25 214.86 L 119.07 214.69" /><path d="M 119.34 215.04 L 119.16 214.86 L 119.07 214.69" /><path d="M 119.07 214.69 L 118.98 214.51 L 118.81 214.16 L 118.72 214.07 L 118.63 213.89 L 118.63 213.71 L 118.63 213.54 L 118.63 213.36 L 118.63 213.18 L 118.54 213 L 118.54 212.83" /><path d="M 118.54 212.83 L 118.36 212.38 L 118.27 212.03" /><path d="M 118.54 212.83 L 118.36 212.3 L 118.27 212.03" /><path d="M 118.27 212.03 L 118.19 211.76 L 118.1 211.59 L 118.01 211.32 L 117.92 211.06 L 117.92 210.97 L 117.74 210.61 L 117.74 210.44 L 117.65 210.26 L 117.57 209.99 L 117.48 209.73 L 117.39 209.46 L 117.21 209.11 L 117.21 208.93 L 117.03 208.58 L 116.95 208.31" /><path d="M 116.95 208.31 L 116.95 208.22 L 116.86 208.04 L 116.86 207.96" /><path d="M 116.95 208.31 L 116.86 208.13 L 116.86 207.96" /><path d="M 116.86 207.96 L 116.86 207.78" /><path d="M 116.86 207.78 L 116.86 207.6 L 116.86 207.51" /><path d="M 116.86 207.78 L 116.86 207.69 L 116.86 207.51" /><path d="M 116.86 207.51 L 116.95 207.34 L 116.95 207.25" /><path d="M 116.86 207.51 L 116.95 207.42 L 116.95 207.25" /><path d="M 116.95 207.25 L 117.03 207.07 L 117.12 206.98" /><path d="M 116.95 207.25 L 117.03 207.16 L 117.12 206.98" /><path d="M 117.12 206.98 L 117.21 206.89" /><path d="M 117.21 206.89 L 117.39 206.8 L 117.48 206.72" /><path d="M 117.21 206.89 L 117.3 206.8 L 117.48 206.72" /><path d="M 117.48 206.72 L 117.65 206.72 L 117.74 206.72" /><path d="M 117.48 206.72 L 117.57 206.72 L 117.74 206.72" /><path d="M 117.74 206.72 L 117.92 206.72" /><path d="M 117.74 206.72 L 117.83 206.72 L 117.92 206.72" /><path d="M 117.92 206.72 L 118.1 206.8 L 118.45 206.8 L 118.54 206.89 L 118.72 206.89" /><path d="M 118.72 206.89 L 118.81 206.98 L 118.98 206.98 L 119.07 206.98" /><path d="M 118.72 206.89 L 118.89 206.98 L 119.07 206.98" /><path d="M 119.07 206.98 L 119.25 206.98 L 119.42 206.98 L 119.69 206.98" /><path d="M 119.07 206.98 L 119.16 206.98 L 119.34 206.98 L 119.51 206.98 L 119.69 206.98" /><path d="M 119.69 206.98 L 119.87 206.98" /><path d="M 119.87 206.98 L 120.22 206.89 L 120.4 206.89 L 120.58 206.8 L 120.75 206.72 L 120.93 206.63" /><path d="M 119.87 206.98 L 120.31 206.89 L 120.49 206.89 L 120.66 206.8 L 120.84 206.72 L 120.93 206.63" /><path d="M 120.93 206.63 L 121.55 206.36 L 121.82 206.27 L 122.08 206.18 L 122.17 206.1 L 122.35 206.01 L 122.52 206.01 L 122.7 205.83 L 122.97 205.74 L 123.23 205.65 L 123.41 205.48 L 123.68 205.39 L 123.76 205.39 L 123.85 205.3 L 123.94 205.3 L 124.12 205.21 L 124.21 205.12 L 124.3 205.12 L 124.38 205.03 L 124.56 204.94 L 124.65 204.86 L 124.74 204.77 L 124.83 204.77 L 124.92 204.68 L 125 204.59" /><path d="M 125 204.59 L 125.09 204.41 L 125.27 204.32 L 125.36 204.24 L 125.62 203.88" /><path d="M 125 204.59 L 125.18 204.41 L 125.27 204.24 L 125.45 204.15 L 125.62 203.88" /><path d="M 125.62 203.88 L 125.89 203.7 L 126.16 203.44 L 126.42 203.09 L 126.69 202.82 L 126.78 202.73 L 126.95 202.64 L 127.04 202.55 L 127.22 202.47 L 127.31 202.38 L 127.48 202.38 L 127.57 202.29 L 127.75 202.29 L 127.84 202.29 L 127.93 202.29 L 128.19 202.38 L 128.55 202.47 L 128.9 202.47" /><path d="M 128.9 202.47 L 129.17 202.55 L 129.61 202.55" /><path d="M 128.9 202.47 L 129.26 202.55 L 129.61 202.55" /><path d="M 129.61 202.55 L 129.96 202.64 L 130.32 202.73 L 130.58 202.73 L 130.85 202.82 L 131.03 202.82 L 131.11 202.82" /><path d="M 131.11 202.82 L 131.29 202.82 L 131.47 202.82 L 131.65 202.91 L 131.82 202.91" /><path d="M 131.11 202.82 L 131.38 202.82 L 131.56 202.91 L 131.73 202.91 L 131.82 202.91" /><path d="M 131.82 202.91 L 131.91 203 L 132 203 L 132.09 203.09 L 132.44 203.17 L 132.62 203.26 L 132.89 203.35 L 133.15 203.44 L 133.33 203.53 L 133.59 203.62 L 133.77 203.7 L 133.95 203.79 L 134.13 203.79 L 134.21 203.79 L 134.48 203.88 L 134.75 203.88 L 134.92 203.97 L 135.1 203.97 L 135.19 204.06 L 135.28 204.06 L 135.45 204.06 L 135.54 204.06 L 135.63 204.15 L 135.81 204.15 L 135.9 204.15" /><path d="M 135.9 204.15 L 135.99 204.15 L 136.16 204.24 L 136.34 204.24 L 136.61 204.32" /><path d="M 135.9 204.15 L 136.07 204.24 L 136.25 204.24 L 136.43 204.24 L 136.61 204.32" /><path d="M 136.61 204.32 L 136.69 204.32 L 136.87 204.41" /><path d="M 136.61 204.32 L 136.78 204.41 L 136.87 204.41" /><path d="M 136.87 204.41 L 136.96 204.41 L 137.14 204.5 L 137.23 204.5 L 137.76 204.59 L 137.85 204.59 L 138.11 204.68 L 138.47 204.68 L 138.73 204.77 L 139.09 204.77 L 139.17 204.77 L 139.26 204.86 L 139.35 204.86 L 139.62 204.86 L 139.97 204.94 L 140.33 204.94 L 140.68 205.03 L 141.03 205.12 L 141.3 205.12 L 141.56 205.21 L 141.92 205.21" /><path d="M 141.92 205.21 L 142.27 205.3 L 142.45 205.3" /><path d="M 141.92 205.21 L 142.36 205.3 L 142.45 205.3" /><path d="M 142.45 205.3 L 142.54 205.3 L 142.72 205.39 L 142.89 205.39" /><path d="M 142.45 205.3 L 142.63 205.3 L 142.8 205.39 L 142.89 205.39" /><path d="M 142.89 205.39 L 143.16 205.39" /><path d="M 143.16 205.39 L 143.25 205.39" /><path d="M 143.16 205.39 L 143.34 205.39" /><path d="M 143.16 205.39 L 142.98 205.3 L 142.89 205.3 L 142.72 205.21 L 142.54 205.12 L 142.45 205.03 L 142.27 204.94 L 142.18 204.86 L 142.1 204.77 L 142.01 204.68 L 141.92 204.59 L 141.92 204.5 L 141.83 204.41 L 141.65 204.15 L 141.39 203.79 L 141.21 203.62 L 140.86 203.09 L 140.5 202.55 L 140.41 202.47 L 140.33 202.38 L 140.24 202.29 L 140.24 202.11 L 140.15 202.02 L 140.06 201.93 L 139.97 201.76 L 139.88 201.67 L 139.88 201.49 L 139.79 201.4 L 139.71 201.23 L 139.71 201.14 L 139.62 200.96 L 139.53 200.69 L 139.44 200.43 L 139.35 200.07 L 139.26 199.9 L 139.17 199.45 L 139.09 199.37 L 139 199.01 L 138.91 198.57 L 138.73 198.21 L 138.64 197.77 L 138.55 197.59 L 138.47 197.33 L 138.47 197.15 L 138.38 196.89 L 138.38 196.71 L 138.29 196.44 L 138.29 196.27 L 138.29 196 L 138.29 195.91" /><path d="M 143.25 205.39 L 143.51 205.39" /><path d="M 143.25 205.39 L 143.34 205.39" /><path d="M 143.51 205.39 L 144.04 205.48 L 144.31 205.56 L 144.66 205.56 L 145.02 205.65 L 145.28 205.65 L 145.64 205.74 L 145.9 205.74 L 146.35 205.83 L 146.44 205.83 L 146.61 205.92 L 146.7 206.01 L 146.88 206.1 L 146.97 206.18 L 147.06 206.27 L 147.23 206.36 L 147.32 206.54 L 147.41 206.72 L 147.59 207.07 L 147.76 207.25" /><path d="M 143.51 205.39 L 143.34 205.39" /><path d="M 147.76 207.25 L 147.76 207.34 L 147.94 207.51 L 148.03 207.69 L 148.12 207.78 L 148.3 207.87 L 148.47 208.04 L 148.65 208.13" /><path d="M 147.76 207.25 L 147.85 207.42 L 147.94 207.6 L 148.12 207.69 L 148.21 207.87 L 148.38 207.96 L 148.56 208.04 L 148.65 208.13" /><path d="M 148.65 208.13 L 149.18 208.31" /><path d="M 149.18 208.31 L 149.71 208.58 L 149.89 208.58 L 150.07 208.66 L 150.16 208.75 L 150.33 208.84 L 150.42 208.93 L 150.51 209.11 L 150.6 209.2 L 150.69 209.37 L 150.78 209.46" /><path d="M 149.18 208.31 L 149.8 208.58 L 149.98 208.66 L 150.07 208.75 L 150.24 208.84 L 150.33 208.93 L 150.42 209.02 L 150.6 209.11 L 150.69 209.28 L 150.78 209.46" /><path d="M 150.78 209.46 L 150.86 209.64 L 150.86 209.82 L 150.95 209.99 L 150.95 210.17 L 151.04 210.35" /><path d="M 150.78 209.46 L 150.78 209.55 L 150.86 209.73 L 150.95 209.9 L 150.95 210.08 L 151.04 210.26 L 151.04 210.35" /><path d="M 151.04 210.35 L 151.04 210.52 L 151.04 210.7 L 151.04 210.88 L 151.04 210.97 L 151.04 211.14 L 151.13 211.23 L 151.13 211.41" /><path d="M 151.13 211.41 L 151.13 211.5 L 151.13 211.68 L 151.22 211.85 L 151.22 212.03 L 151.31 212.21" /><path d="M 151.13 211.41 L 151.13 211.59 L 151.13 211.76 L 151.22 211.94 L 151.22 212.12 L 151.31 212.21" /><path d="M 151.31 212.21 L 151.31 212.3 L 151.4 212.47 L 151.57 212.65" /><path d="M 151.31 212.21 L 151.4 212.38 L 151.48 212.56 L 151.57 212.65" /><path d="M 151.57 212.65 L 151.66 212.74 L 151.75 212.83 L 151.93 213 L 152.02 213.09 L 152.1 213.18 L 152.19 213.18 L 152.28 213.27 L 152.37 213.36 L 152.46 213.45 L 152.55 213.45 L 152.63 213.54 L 152.72 213.54 L 152.81 213.62 L 152.9 213.62 L 153.17 213.8 L 153.43 213.89 L 153.7 213.98 L 154.23 214.16 L 154.76 214.24 L 155.11 214.42 L 155.38 214.51" /><path d="M 155.38 214.51 L 155.65 214.6 L 156.09 214.77" /><path d="M 155.38 214.51 L 155.73 214.6 L 156.09 214.77" /><path d="M 156.09 214.77 L 156.35 214.86 L 156.89 215.04" /><path d="M 156.89 215.04 L 157.06 215.13 L 157.42 215.22" /><path d="M 156.89 215.04 L 157.15 215.13 L 157.42 215.22" /><path d="M 157.42 215.22 L 157.68 215.31 L 157.95 215.39 L 158.13 215.48 L 158.39 215.57 L 158.57 215.66 L 158.83 215.75 L 159.01 215.75 L 159.1 215.84 L 159.37 215.93 L 159.63 216.01 L 159.81 216.1 L 159.99 216.1 L 160.16 216.19 L 160.25 216.28 L 160.34 216.28 L 160.43 216.37 L 160.61 216.46 L 160.78 216.46 L 160.96 216.55 L 161.14 216.63 L 161.31 216.72 L 161.49 216.81 L 161.76 216.9 L 161.85 216.9 L 162.02 216.99 L 162.11 217.08 L 162.2 217.08 L 162.29 217.17 L 162.38 217.25 L 162.47 217.25 L 162.73 217.43 L 162.91 217.61 L 163 217.7 L 163.17 217.79 L 163.26 217.79 L 163.35 217.87 L 163.44 217.87 L 163.53 217.87 L 163.62 217.96 L 163.97 218.05 L 164.41 218.23" /><path d="M 164.41 218.23 L 164.5 218.23 L 164.77 218.32" /><path d="M 164.41 218.23 L 164.59 218.23 L 164.77 218.32" /><path d="M 164.77 218.32 L 164.86 218.32 L 165.03 218.41 L 165.12 218.41 L 165.21 218.49 L 165.3 218.49 L 165.39 218.58 L 165.56 218.67 L 165.65 218.67 L 165.74 218.76 L 165.83 218.85 L 165.92 218.94 L 166.01 219.03 L 166.45 219.38 L 166.63 219.38 L 166.72 219.47 L 166.8 219.56 L 166.89 219.56 L 167.07 219.65 L 167.16 219.73 L 167.51 219.82 L 167.96 220.09 L 168.58 220.35 L 168.75 220.44 L 168.93 220.53 L 169.02 220.53 L 169.2 220.62 L 169.28 220.62 L 170.08 220.89 L 170.79 221.15 L 171.5 221.42 L 172.03 221.59 L 172.3 221.68" /><path d="M 172.3 221.68 L 172.47 221.77 L 172.65 221.77 L 172.83 221.86 L 173 221.86" /><path d="M 172.3 221.68 L 172.56 221.77 L 172.74 221.77 L 172.92 221.86 L 173 221.86" /><path d="M 173 221.86 L 173.45 221.77" /><path d="M 173.45 221.77 L 173.54 221.77 L 173.71 221.77 L 173.8 221.68" /><path d="M 173.45 221.77 L 173.62 221.77 L 173.8 221.68" /><path d="M 173.8 221.68 L 173.98 221.59 L 174.07 221.51 L 174.24 221.42" /><path d="M 173.8 221.68 L 173.89 221.68 L 174.07 221.59 L 174.16 221.51 L 174.24 221.42" /><path d="M 174.24 221.42 L 174.33 221.33 L 174.42 221.15" /><path d="M 174.24 221.42 L 174.33 221.24 L 174.42 221.15" /><path d="M 174.42 221.15 L 174.51 221.06 L 174.51 220.89 L 174.6 220.71 L 174.69 220.62 L 174.69 220.44 L 174.77 220.27" /><path d="M 174.42 221.15 L 174.51 220.97 L 174.6 220.8 L 174.6 220.62 L 174.69 220.53 L 174.69 220.35 L 174.77 220.27" /><path d="M 174.77 220.27 L 174.77 220.18 L 174.86 220 L 174.95 219.91 L 175.13 219.82 L 175.22 219.82 L 175.31 219.73 L 175.48 219.82 L 175.57 219.82 L 176.55 220.18" /><path d="M 176.55 220.18 L 176.72 220.18 L 177.17 220.35" /><path d="M 176.55 220.18 L 176.72 220.27 L 177.17 220.35" /><path d="M 177.17 220.35 L 177.61 220.53 L 177.7 220.53 L 178.05 220.71 L 178.23 220.71 L 178.32 220.8 L 178.41 220.89 L 178.41 220.97 L 178.41 221.15 L 178.41 221.33 L 178.41 221.51 L 178.41 221.77 L 178.32 222.04 L 178.32 222.21 L 178.32 222.3 L 178.32 222.48 L 178.41 222.57 L 178.49 222.66 L 178.67 222.66 L 178.76 222.75 L 178.94 222.75 L 179.11 222.83 L 179.47 222.92 L 179.65 223.01 L 179.82 223.01 L 180 223.1 L 180.18 223.1" /><path d="M 180.18 223.1 L 180.27 223.19 L 180.53 223.28" /><path d="M 180.18 223.1 L 180.35 223.19 L 180.53 223.28" /><path d="M 180.53 223.28 L 180.71 223.37 L 180.8 223.37 L 180.97 223.37 L 181.15 223.37 L 181.24 223.37 L 181.42 223.37 L 181.51 223.37 L 181.59 223.28 L 181.77 223.19 L 181.86 223.1 L 181.95 223.01 L 182.04 222.83 L 182.04 222.75 L 182.04 222.57 L 182.13 222.48 L 182.21 222.04 L 182.3 221.86" /><path d="M 182.3 221.86 L 182.39 221.15 L 182.57 220.53" /><path d="M 182.3 221.86 L 182.48 221.06 L 182.57 220.53" /><path d="M 182.57 220.53 L 182.66 220.35 L 182.75 220 L 182.75 219.73 L 182.83 219.38" /><path d="M 182.83 219.38 L 183.01 219.03 L 183.1 218.32" /><path d="M 182.83 219.38 L 183.01 218.85 L 183.1 218.32" /><path d="M 183.1 218.32 L 183.28 217.79" /><path d="M 183.28 217.79 L 183.28 217.61 L 183.37 217.52 L 183.45 217.52" /><path d="M 183.28 217.79 L 183.37 217.61 L 183.45 217.52" /><path d="M 183.45 217.52 L 183.81 217.61" /><path d="M 183.45 217.52 L 183.54 217.52 L 183.81 217.61" /><path d="M 183.81 217.61 L 184.16 217.7 L 184.34 217.79 L 184.69 217.87 L 184.78 217.96 L 185.23 218.05 L 185.31 218.05 L 185.4 218.14 L 185.49 218.14 L 185.67 218.14" /><path d="M 185.67 218.14 L 185.76 218.14 L 186.11 218.14" /><path d="M 185.67 218.14 L 185.84 218.14 L 186.11 218.14" /><path d="M 186.11 218.14 L 186.29 218.23 L 186.55 218.23 L 186.73 218.23 L 186.82 218.32 L 187.17 218.32 L 187.35 218.41 L 187.62 218.41 L 188.15 218.49 L 188.68 218.58 L 188.77 218.58 L 189.21 218.67 L 189.74 218.76 L 190.18 218.85 L 190.36 218.94" /><path d="M 190.36 218.94 L 190.45 218.94 L 190.98 219.03" /><path d="M 190.36 218.94 L 190.54 218.94 L 190.98 219.03" /><path d="M 190.98 219.03 L 191.25 219.11" /><path d="M 191.25 219.11 L 191.34 219.11 L 191.51 219.11" /><path d="M 191.25 219.11 L 191.42 219.11 L 191.51 219.11" /><path d="M 191.51 219.11 L 191.69 219.2 L 191.87 219.2 L 192.04 219.29 L 192.13 219.29 L 192.31 219.29 L 192.58 219.38 L 192.75 219.38 L 192.93 219.47 L 193.2 219.47 L 193.37 219.56 L 193.55 219.56 L 193.64 219.65 L 193.82 219.73 L 193.9 219.73 L 194.08 219.82 L 194.17 220 L 194.35 220.09 L 194.35 220.18 L 194.44 220.27 L 194.52 220.35 L 194.61 220.53 L 194.7 220.62 L 194.79 220.71 L 194.88 220.89" /><path d="M 194.88 220.89 L 194.97 221.06 L 195.23 221.33 L 195.5 221.68" /><path d="M 194.88 220.89 L 195.06 221.15 L 195.23 221.42 L 195.5 221.68" /><path d="M 195.5 221.68 L 195.59 221.86 L 195.68 221.95 L 195.76 222.04 L 195.85 222.13 L 196.03 222.13 L 196.12 222.04 L 196.38 222.04 L 196.56 221.95" /><path d="M 196.56 221.95 L 196.65 221.95 L 196.74 221.86 L 196.91 221.68" /><path d="M 196.56 221.95 L 196.65 221.86 L 196.74 221.77 L 196.91 221.68" /><path d="M 196.91 221.68 L 197.09 221.42 L 197.36 221.06 L 197.53 220.89 L 197.8 220.62 L 197.98 220.35 L 198.15 220.09 L 198.24 220 L 198.51 219.65 L 198.69 219.38 L 198.95 219.11 L 199.13 218.94 L 199.31 218.67 L 199.66 218.23 L 199.84 218.05 L 199.93 217.96 L 200.01 217.87 L 200.1 217.87 L 200.19 217.79 L 200.28 217.7 L 200.37 217.61 L 200.55 217.43 L 200.81 217.25 L 200.99 217.17 L 201.08 217.08 L 201.17 216.99 L 201.25 216.9 L 201.43 216.9 L 201.52 216.9 L 201.61 216.9 L 201.79 216.9 L 201.87 216.9 L 201.96 216.9 L 202.05 216.99 L 202.14 217.08 L 202.23 217.17 L 202.32 217.34" /><path d="M 202.32 217.34 L 202.58 217.7 L 202.67 217.79 L 202.76 217.87 L 202.85 217.87" /><path d="M 202.32 217.34 L 202.67 217.7 L 202.76 217.79 L 202.85 217.87" /><path d="M 202.85 217.87 L 203.11 218.05" /><path d="M 202.85 217.87 L 202.94 217.96 L 203.11 218.05" /><path d="M 203.11 218.05 L 203.2 218.14" /><path d="M 203.2 218.14 L 203.38 218.14 L 203.47 218.23" /><path d="M 203.2 218.14 L 203.47 218.23" /><path d="M 203.47 218.23 L 203.56 218.23" /><path d="M 203.56 218.23 L 203.73 218.32" /><path d="M 203.56 218.23 L 203.65 218.32 L 203.73 218.32" /><path d="M 203.73 218.32 L 203.82 218.32 L 204 218.23" /><path d="M 203.73 218.32 L 203.91 218.32 L 204 218.23" /><path d="M 204 218.23 L 204.09 218.23 L 204.18 218.23 L 204.44 218.14 L 204.71 218.05" /><path d="M 204.71 218.05 L 204.89 218.05 L 205.06 217.96" /><path d="M 204.71 218.05 L 204.97 218.05 L 205.06 217.96" /><path d="M 205.06 217.96 L 205.24 217.96 L 205.42 217.87" /><path d="M 205.42 217.87 L 205.51 217.87 L 205.59 217.87" /><path d="M 205.42 217.87 L 205.59 217.87" /><path d="M 205.59 217.87 L 205.77 217.87 L 205.86 217.87" /><path d="M 205.59 217.87 L 205.68 217.87 L 205.86 217.87" /><path d="M 205.86 217.87 L 206.04 217.87 L 206.13 217.96" /><path d="M 205.86 217.87 L 205.95 217.87 L 206.04 217.96 L 206.13 217.96" /><path d="M 206.13 217.96 L 206.21 218.05 L 206.3 218.14 L 206.39 218.23" /><path d="M 206.13 217.96 L 206.3 218.05 L 206.39 218.14 L 206.48 218.32" /><path d="M 206.39 218.23 L 206.48 218.32" /><path d="M 206.39 218.23 L 206.57 218.49" /><path d="M 206.48 218.32 L 206.57 218.49" /><path d="M 109.33 139.76 L 109.42 140.38 L 109.42 140.47 L 109.51 140.65 L 109.51 140.74 L 109.59 140.83 L 109.68 140.92 L 109.77 141.09 L 109.86 141.18" /><path d="M 109.86 141.18 L 110.21 141.27 L 110.3 141.36" /><path d="M 109.86 141.18 L 110.3 141.36" /><path d="M 110.3 141.36 L 110.48 141.45 L 111.1 141.98" /><path d="M 110.3 141.36 L 110.39 141.45 L 110.48 141.54 L 111.1 141.98" /><path d="M 111.1 141.98 L 111.54 142.33" /><path d="M 111.54 142.33 L 111.9 142.6 L 112.07 142.69 L 112.16 142.78 L 112.25 142.86 L 112.43 142.86 L 112.52 142.95 L 112.78 143.22" /><path d="M 111.54 142.33 L 111.99 142.69 L 112.07 142.78 L 112.25 142.78 L 112.34 142.86 L 112.43 142.95 L 112.52 143.04 L 112.78 143.22" /><path d="M 112.78 143.22 L 113.14 143.57 L 113.4 143.75 L 113.49 143.84 L 113.67 143.93" /><path d="M 112.78 143.22 L 113.23 143.66 L 113.4 143.84 L 113.58 143.93 L 113.67 143.93" /><path d="M 113.67 143.93 L 113.76 144.02 L 113.85 144.02" /><path d="M 113.67 143.93 L 113.85 144.02" /><path d="M 113.85 144.02 L 114.02 144.1 L 114.29 144.19" /><path d="M 113.85 144.02 L 113.93 144.02 L 114.11 144.1 L 114.29 144.19" /><path d="M 114.29 144.19 L 114.47 144.19 L 114.64 144.28 L 114.73 144.37 L 114.91 144.46 L 115 144.55 L 115.17 144.64 L 115.26 144.72 L 115.44 144.81 L 115.62 144.9 L 115.79 144.99 L 115.97 144.99" /><path d="M 115.97 144.99 L 116.41 145.17 L 116.5 145.17" /><path d="M 115.97 144.99 L 116.5 145.17" /><path d="M 116.5 145.17 L 116.68 145.17 L 117.03 145.17" /><path d="M 116.5 145.17 L 116.59 145.17 L 116.77 145.17 L 117.03 145.17" /><path d="M 117.03 145.17 L 117.21 145.17 L 117.48 145.17 L 117.74 145.17" /><path d="M 117.74 145.17 L 117.83 145.17 L 118.01 145.17 L 118.1 145.17" /><path d="M 117.74 145.17 L 117.92 145.17 L 118.1 145.17" /><path d="M 118.1 145.17 L 118.27 145.26 L 118.45 145.26 L 118.63 145.34" /><path d="M 118.1 145.17 L 118.19 145.17 L 118.36 145.26 L 118.54 145.26 L 118.63 145.34" /><path d="M 118.63 145.34 L 118.81 145.43 L 118.89 145.43 L 118.98 145.52 L 119.25 145.7 L 119.42 145.7 L 119.6 145.79 L 119.78 145.88 L 119.96 145.88 L 120.13 145.88 L 120.58 145.96 L 120.84 145.96 L 121.11 145.96 L 121.2 146.05 L 121.28 146.05 L 121.46 146.14 L 121.55 146.23 L 121.64 146.23 L 121.73 146.32 L 121.82 146.41 L 121.9 146.58 L 121.99 146.67 L 121.99 146.85 L 122.08 147.03 L 122.08 147.12 L 122.26 147.65" /><path d="M 122.26 147.65 L 122.35 147.74 L 122.44 147.91 L 122.44 148.09 L 122.52 148.18 L 122.61 148.27 L 122.7 148.35 L 122.79 148.44 L 123.06 148.71" /><path d="M 122.26 147.65 L 122.35 147.82 L 122.44 148 L 122.52 148.09 L 122.52 148.27 L 122.61 148.35 L 122.7 148.44 L 122.79 148.53 L 123.06 148.71" /><path d="M 123.06 148.71 L 123.14 148.8 L 123.5 149.06" /><path d="M 123.5 149.06 L 123.59 149.15 L 123.85 149.42" /><path d="M 123.5 149.06 L 123.59 149.24 L 123.85 149.42" /><path d="M 123.85 149.42 L 124.3 149.77 L 124.38 149.86 L 124.65 150.04" /><path d="M 124.65 150.04 L 125 150.39 L 125.18 150.48 L 125.36 150.66 L 125.45 150.83" /><path d="M 124.65 150.04 L 125.09 150.48 L 125.27 150.57 L 125.36 150.75 L 125.45 150.83" /><path d="M 125.45 150.83 L 125.54 150.92 L 125.62 151.01 L 125.71 151.19 L 125.89 151.37 L 126.07 151.63 L 126.16 151.72 L 126.51 152.16 L 126.78 152.52 L 127.04 152.78 L 127.22 153.05 L 127.31 153.31" /><path d="M 127.31 153.31 L 127.48 153.49 L 127.66 153.67 L 127.75 153.76 L 127.93 153.85 L 128.02 154.02 L 128.19 154.02 L 128.46 154.2" /><path d="M 127.31 153.31 L 127.57 153.58 L 127.75 153.67 L 127.84 153.85 L 128.02 153.93 L 128.1 154.02 L 128.28 154.11 L 128.46 154.2" /><path d="M 128.46 154.2 L 128.64 154.29 L 128.81 154.38 L 128.99 154.47" /><path d="M 128.99 154.47 L 129.34 154.64 L 129.52 154.73" /><path d="M 128.99 154.47 L 129.43 154.64 L 129.52 154.73" /><path d="M 129.52 154.73 L 129.61 154.73 L 129.7 154.73" /><path d="M 129.52 154.73 L 129.7 154.73" /><path d="M 129.7 154.73 L 130.05 154.82" /><path d="M 129.7 154.73 L 129.79 154.82 L 130.05 154.82" /><path d="M 130.05 154.82 L 130.23 154.82 L 130.41 154.82 L 130.58 154.82" /><path d="M 130.58 154.82 L 130.67 154.82 L 130.85 154.82 L 130.94 154.82" /><path d="M 130.58 154.82 L 130.76 154.82 L 130.94 154.82" /><path d="M 130.94 154.82 L 131.03 154.82" /><path d="M 131.03 154.82 L 131.2 154.91" /><path d="M 131.03 154.82 L 131.11 154.91 L 131.2 154.91" /><path d="M 131.2 154.91 L 131.29 155 L 131.38 155.09 L 131.47 155.17" /><path d="M 131.47 155.17 L 131.47 155.26 L 131.56 155.35" /><path d="M 131.47 155.17 L 131.56 155.35" /><path d="M 131.56 155.35 L 131.65 155.53" /><path d="M 131.56 155.35 L 131.56 155.44 L 131.65 155.53" /><path d="M 131.65 155.53 L 131.65 155.71 L 131.73 155.88" /><path d="M 131.65 155.53 L 131.73 155.71 L 131.73 155.88" /><path d="M 131.73 155.88 L 131.73 155.97 L 131.82 156.41 L 131.91 156.68" /><path d="M 131.91 156.68 L 131.91 157.03 L 132 157.12 L 132 157.3 L 132 157.48 L 132.09 157.57 L 132.18 157.74" /><path d="M 131.91 156.68 L 131.91 157.12 L 132 157.21 L 132 157.39 L 132.09 157.48 L 132.09 157.65 L 132.18 157.74" /><path d="M 132.18 157.74 L 132.18 157.83 L 132.35 158.01" /><path d="M 132.18 157.74 L 132.27 157.92 L 132.35 158.01" /><path d="M 132.35 158.01 L 132.44 158.1 L 132.44 158.19 L 132.53 158.27 L 132.62 158.36 L 132.71 158.45 L 132.8 158.45 L 132.89 158.54 L 132.97 158.63 L 133.06 158.72 L 133.24 158.81 L 133.33 158.89 L 133.42 158.98 L 133.59 159.07 L 133.68 159.16" /><path d="M 133.68 159.16 L 133.86 159.34 L 134.04 159.42 L 134.13 159.51 L 134.3 159.78" /><path d="M 133.68 159.16 L 133.95 159.42 L 134.04 159.51 L 134.13 159.6 L 134.3 159.78" /><path d="M 134.3 159.78 L 134.39 159.87 L 134.57 159.96 L 134.66 160.13 L 134.75 160.22 L 134.83 160.4 L 134.92 160.49 L 135.01 160.58 L 135.01 160.75 L 135.1 160.93 L 135.1 161.11 L 135.01 161.28 L 135.01 161.46 L 134.92 161.82 L 134.92 162.08 L 134.83 162.44 L 134.75 162.79 L 134.75 162.88 L 134.75 163.06 L 134.66 163.14 L 134.66 163.32 L 134.66 163.41 L 134.66 163.59 L 134.66 163.68 L 134.66 163.94 L 134.66 164.03 L 134.66 164.3 L 134.66 164.47 L 134.66 164.65 L 134.75 164.74 L 134.75 164.92 L 134.75 165 L 134.83 165.62 L 134.92 166.24 L 134.92 166.78 L 135.01 167.4 L 135.1 167.84 L 135.1 168.19 L 135.19 168.64 L 135.19 168.99 L 135.28 169.34 L 135.28 169.79 L 135.37 170.14 L 135.37 170.58 L 135.37 170.85 L 135.45 171.2 L 135.45 171.47 L 135.54 171.82 L 135.54 172.18 L 135.63 172.44 L 135.63 172.89 L 135.72 173.33 L 135.72 173.59 L 135.81 174.13 L 135.81 174.48 L 135.9 174.83" /><path d="M 135.9 174.83 L 135.9 175.28 L 135.99 175.63" /><path d="M 135.9 174.83 L 135.9 175.37 L 135.99 175.63" /><path d="M 135.99 175.63 L 135.99 176.07 L 136.07 176.43 L 136.07 176.78 L 136.16 177.14 L 136.16 177.4 L 136.16 177.58 L 136.25 177.93 L 136.25 178.29 L 136.34 178.73 L 136.34 178.91 L 136.34 179.09 L 136.34 179.44 L 136.43 179.79 L 136.43 180.15 L 136.43 180.24 L 136.52 180.41 L 136.52 180.68 L 136.52 181.03 L 136.61 181.3 L 136.61 181.65 L 136.69 182.1 L 136.69 182.45 L 136.78 182.89 L 136.78 183.34 L 136.87 183.78 L 136.96 184.22 L 136.96 184.58 L 137.05 184.93 L 137.05 185.28 L 137.05 185.73 L 137.14 186.08 L 137.14 186.26 L 137.14 186.44 L 137.23 186.88 L 137.23 187.23 L 137.31 187.59 L 137.31 187.76 L 137.31 187.94 L 137.4 188.3 L 137.4 188.65 L 137.49 189 L 137.49 189.27 L 137.49 189.62 L 137.58 189.98 L 137.58 190.33 L 137.67 190.6 L 137.67 191.04 L 137.76 191.93" /><path d="M 137.76 191.93 L 137.85 192.55 L 137.93 193.08" /><path d="M 137.76 191.93 L 137.85 192.63 L 137.93 193.08" /><path d="M 137.93 193.08 L 137.93 193.43 L 138.02 193.79" /><path d="M 138.02 193.79 L 138.02 194.05 L 138.11 194.58" /><path d="M 138.02 193.79 L 138.02 194.14 L 138.11 194.58" /><path d="M 138.11 194.58 L 138.11 194.94 L 138.2 195.2" /><path d="M 138.2 195.2 L 138.2 195.56 L 138.29 195.91" /><path d="M 138.2 195.2 L 138.2 195.65 L 138.29 195.91" /><path d="M 206.57 218.49 L 206.75 218.67 L 206.92 219.03 L 207.37 219.56 L 207.45 219.73 L 207.54 219.82 L 207.72 220 L 207.81 220.09 L 207.9 220.09 L 208.07 220.27 L 208.34 220.35 L 208.69 220.62 L 209.14 220.89 L 209.67 221.15 L 209.76 221.24 L 209.93 221.33 L 210.11 221.42 L 210.55 221.77 L 210.91 221.95 L 211.17 222.04 L 211.53 222.3 L 211.7 222.39 L 212.06 222.57 L 212.24 222.75" /><path d="M 212.24 222.75 L 212.41 222.83 L 212.59 222.92" /><path d="M 212.24 222.75 L 212.5 222.83 L 212.59 222.92" /><path d="M 212.59 222.92 L 213.03 223.19 L 213.48 223.45 L 213.83 223.72 L 214.01 223.81 L 214.27 223.99 L 214.45 223.99 L 214.72 224.25 L 215.16 224.52" /><path d="M 215.16 224.52 L 215.51 224.69 L 216.13 224.96" /><path d="M 215.16 224.52 L 215.6 224.69 L 216.13 224.96" /><path d="M 216.13 224.96 L 216.58 225.23 L 216.93 225.4 L 217.46 225.67 L 217.73 225.76 L 217.82 225.84 L 218.35 226.11 L 218.79 226.29 L 219.23 226.55 L 219.76 226.82 L 220.29 227.08 L 220.74 227.35 L 221.18 227.53 L 221.62 227.79 L 222.15 228.06 L 222.6 228.32 L 222.86 228.41 L 223.13 228.59" /><path d="M 223.13 228.59 L 223.48 228.77 L 224.01 229.03" /><path d="M 223.13 228.59 L 223.57 228.77 L 224.01 229.03" /><path d="M 224.01 229.03 L 224.46 229.21 L 224.63 229.3 L 224.9 229.48 L 225.43 229.74 L 225.61 229.83 L 225.96 230.01 L 226.49 230.27 L 226.94 230.54 L 227.38 230.72 L 227.65 230.8 L 227.73 230.89 L 227.82 230.98 L 228 231.07 L 228.09 231.16 L 228.18 231.16 L 228.71 231.6 L 229.15 231.87 L 229.59 232.13 L 230.12 232.58 L 230.3 232.66 L 230.48 232.75 L 230.57 232.84 L 231.01 233.2 L 231.45 233.46 L 231.9 233.82 L 232.07 233.9 L 232.34 234.08 L 232.52 234.17 L 232.78 234.26 L 233.05 234.44 L 233.31 234.52 L 233.84 234.79 L 234.29 234.97 L 234.73 235.14 L 235.26 235.41 L 235.79 235.68 L 236.32 235.85 L 236.77 236.12 L 237.3 236.38 L 237.74 236.56 L 237.83 236.56 L 238.27 236.83" /><path d="M 238.27 236.83 L 238.72 237 L 238.89 237.09 L 239.07 237.18 L 239.25 237.27" /><path d="M 238.27 236.83 L 238.8 237.09 L 238.98 237.18 L 239.16 237.27 L 239.25 237.27" /><path d="M 239.25 237.27 L 239.34 237.36 L 239.42 237.45 L 239.51 237.53 L 239.6 237.62 L 239.69 237.71 L 240.13 238.07 L 240.66 238.42 L 241.11 238.77 L 241.64 239.13 L 242.08 239.48 L 242.52 239.93 L 242.61 239.93 L 242.88 240.19 L 243.05 240.37 L 243.14 240.46 L 243.23 240.55 L 243.32 240.63 L 243.41 240.72 L 243.5 240.81 L 243.59 240.9 L 243.67 240.99 L 243.76 241.17 L 243.85 241.25 L 243.94 241.43 L 244.03 241.52 L 244.12 241.7 L 244.21 241.79 L 244.21 241.87 L 244.29 242.05 L 244.38 242.14 L 244.38 242.32 L 244.65 242.85 L 244.83 243.38 L 245.18 244.09 L 245.45 244.89 L 245.8 245.59 L 246.07 246.3 L 246.15 246.48 L 246.24 246.57 L 246.24 246.75 L 246.33 246.92 L 246.33 247.1 L 246.42 247.19 L 246.51 247.81 L 246.6 248.07" /><path d="M 246.6 248.07 L 246.77 248.6 L 246.95 249.31" /><path d="M 246.6 248.07 L 246.77 248.78 L 246.95 249.31" /><path d="M 246.95 249.31 L 247.04 249.76 L 247.13 249.93 L 247.22 250.2 L 247.22 250.46 L 247.31 250.64 L 247.31 250.82 L 247.31 251.08 L 247.31 251.26 L 247.31 251.53 L 247.22 251.7 L 247.22 251.88 L 247.22 251.97 L 247.13 252.15 L 247.13 252.24 L 247.13 252.32 L 247.04 252.5 L 246.86 253.21 L 246.77 253.48 L 246.69 253.65 L 246.69 253.83 L 246.69 254.01 L 246.69 254.18 L 246.69 254.45 L 246.69 254.63 L 246.69 254.8 L 246.77 255.07 L 246.77 255.25 L 246.86 255.51 L 246.86 255.6 L 246.95 255.69 L 246.95 255.87 L 247.04 255.96 L 247.04 256.04 L 247.13 256.22 L 247.22 256.31 L 247.22 256.49 L 247.31 256.58 L 247.39 256.66 L 247.39 256.84 L 247.48 256.93 L 247.57 257.11 L 247.66 257.2" /><path d="M 247.66 257.2 L 247.75 257.28 L 247.84 257.46 L 247.93 257.55 L 248.01 257.64" /><path d="M 247.66 257.2 L 247.84 257.37 L 247.93 257.46 L 248.01 257.64" /><path d="M 248.01 257.64 L 248.19 257.73" /><path d="M 248.01 257.64 L 248.1 257.73 L 248.19 257.73" /><path d="M 248.19 257.73 L 248.28 257.82 L 248.46 257.9" /><path d="M 248.19 257.73 L 248.37 257.82 L 248.46 257.9" /><path d="M 248.46 257.9 L 248.55 257.9 L 248.9 257.99" /><path d="M 248.46 257.9 L 248.63 257.9 L 248.9 257.99" /><path d="M 248.9 257.99 L 249.17 257.99 L 249.34 258.08 L 249.43 258.08 L 249.52 258.17 L 249.61 258.17 L 249.7 258.17 L 249.87 258.26 L 249.96 258.35" /><path d="M 249.96 258.35 L 250.05 258.35 L 250.23 258.44 L 250.41 258.61 L 250.58 258.7 L 250.67 258.88 L 250.85 258.97 L 250.94 259.14 L 251.11 259.32 L 251.2 259.59" /><path d="M 249.96 258.35 L 250.14 258.44 L 250.32 258.52 L 250.49 258.61 L 250.58 258.79 L 250.76 258.97 L 250.85 259.05 L 251.03 259.23 L 251.11 259.5 L 251.2 259.59" /><path d="M 251.2 259.59 L 251.29 259.67 L 251.38 259.85 L 251.38 260.03 L 251.47 260.21 L 251.56 260.47 L 251.56 260.56 L 251.65 260.74 L 251.65 260.83 L 251.73 261.18 L 251.82 261.71 L 252 262.51" /><path d="M 252 262.51 L 252.18 263.31 L 252.26 263.48 L 252.35 263.66 L 252.35 263.84 L 252.44 264.01 L 252.53 264.1" /><path d="M 252 262.51 L 252.26 263.39 L 252.26 263.57 L 252.35 263.75 L 252.44 263.93 L 252.53 264.1" /><path d="M 252.53 264.1 L 252.62 264.28 L 252.8 264.37" /><path d="M 252.53 264.1 L 252.62 264.19 L 252.71 264.28 L 252.8 264.37" /><path d="M 252.8 264.37 L 252.88 264.46" /><path d="M 252.88 264.46 L 252.97 264.55 L 253.15 264.63" /><path d="M 252.88 264.46 L 253.06 264.55 L 253.15 264.63" /><path d="M 253.15 264.63 L 253.24 264.63 L 253.42 264.72 L 253.95 264.81" /><path d="M 253.15 264.63 L 253.33 264.72 L 253.5 264.72 L 253.95 264.81" /><path d="M 253.95 264.81 L 254.48 264.9" /><path d="M 254.48 264.9 L 254.74 264.99 L 254.92 264.99 L 255.1 265.08 L 255.28 265.08 L 255.45 265.17 L 255.63 265.34 L 255.81 265.43 L 255.9 265.52" /><path d="M 254.48 264.9 L 254.83 264.99 L 255.01 264.99 L 255.19 265.08 L 255.36 265.17 L 255.54 265.25 L 255.72 265.34 L 255.9 265.52" /><path d="M 255.9 265.52 L 256.07 265.7 L 256.16 265.79" /><path d="M 255.9 265.52 L 255.98 265.61 L 256.16 265.79" /><path d="M 256.16 265.79 L 256.34 265.96 L 256.43 266.14 L 256.52 266.32 L 256.6 266.49 L 256.69 266.67 L 257.05 267.47 L 257.05 267.65 L 257.14 267.82 L 257.22 267.91" /><path d="M 256.16 265.79 L 256.25 265.87 L 256.34 266.05 L 256.52 266.23 L 256.6 266.41 L 256.69 266.58 L 256.69 266.76 L 257.05 267.56 L 257.14 267.73 L 257.22 267.91" /><path d="M 257.22 267.91 L 257.4 268.09" /><path d="M 257.22 267.91 L 257.31 268 L 257.4 268.09" /><path d="M 257.4 268.09 L 257.49 268.18 L 257.58 268.27 L 257.76 268.35" /><path d="M 257.4 268.09 L 257.49 268.27 L 257.67 268.35 L 257.76 268.35" /><path d="M 257.76 268.35 L 257.84 268.44 L 257.93 268.44" /><path d="M 257.76 268.35 L 257.93 268.44" /><path d="M 257.93 268.44 L 258.11 268.53" /><path d="M 257.93 268.44 L 258.02 268.53 L 258.11 268.53" /><path d="M 258.11 268.53 L 258.38 268.53 L 258.55 268.62 L 259.08 268.71 L 259.26 268.8 L 259.44 268.8 L 259.53 268.89 L 259.7 268.89 L 259.79 268.97 L 259.97 269.15 L 260.06 269.24 L 260.15 269.42 L 260.32 269.59 L 260.68 269.95 L 261.21 270.66 L 261.74 271.36 L 262.27 271.9 L 262.72 272.52 L 263.25 273.14 L 263.69 273.76 L 263.78 273.84 L 263.87 273.93 L 264.04 274.02 L 264.13 274.2 L 264.57 274.46 L 264.66 274.55" /><path d="M 264.66 274.55 L 264.75 274.55 L 264.84 274.64 L 264.93 274.82" /><path d="M 264.66 274.55 L 264.75 274.64 L 264.84 274.73 L 264.93 274.82" /><path d="M 264.93 274.82 L 265.11 274.91 L 265.19 275.08 L 265.28 275.26 L 265.73 275.97 L 265.99 276.5 L 266.08 276.59 L 266.08 276.77 L 266.17 276.86 L 266.26 276.94 L 266.35 277.03 L 266.43 277.12 L 266.52 277.21 L 266.61 277.3 L 266.7 277.48 L 266.79 277.56 L 266.88 277.65 L 267.41 278.18" /><path d="M 267.41 278.18 L 267.59 278.36 L 267.85 278.54" /><path d="M 267.41 278.18 L 267.67 278.36 L 267.85 278.54" /><path d="M 267.85 278.54 L 267.94 278.72 L 268.03 278.8 L 268.12 278.89 L 268.21 278.98 L 268.29 279.07 L 268.56 279.51 L 268.65 279.6 L 268.74 279.78 L 268.74 279.87 L 268.83 279.96 L 268.91 280.13 L 269 280.22 L 269.09 280.49 L 269.27 280.75 L 269.62 281.46 L 269.98 282.26 L 270.33 282.97 L 270.42 283.14 L 270.51 283.32 L 270.6 283.41 L 270.69 283.5 L 270.77 283.67" /><path d="M 270.77 283.67 L 271.04 284.03 L 271.13 284.21" /><path d="M 270.77 283.67 L 271.04 284.12 L 271.13 284.21" /><path d="M 271.13 284.21 L 271.22 284.29 L 271.22 284.38" /><path d="M 271.13 284.21 L 271.22 284.38" /><path d="M 271.22 284.38 L 271.31 284.56 L 271.31 284.65" /><path d="M 271.22 284.38 L 271.22 284.47 L 271.31 284.65" /><path d="M 271.31 284.65 L 271.39 284.91 L 271.39 285.09 L 271.39 285.27 L 271.39 285.45" /><path d="M 271.31 284.65 L 271.31 284.74 L 271.39 285 L 271.39 285.18 L 271.39 285.36 L 271.39 285.45" /><path d="M 271.39 285.45 L 271.48 286.07 L 271.48 286.24 L 271.57 286.51 L 271.57 286.69 L 271.66 286.86 L 271.75 287.13 L 271.84 287.31 L 272.01 287.39 L 272.19 287.75" /><path d="M 271.39 285.45 L 271.48 286.15 L 271.48 286.42 L 271.57 286.6 L 271.66 286.77 L 271.75 287.04 L 271.84 287.22 L 271.93 287.31 L 272.01 287.48 L 272.19 287.75" /><path d="M 272.19 287.75 L 272.28 287.93 L 272.46 288.1 L 272.55 288.28 L 272.63 288.46 L 273.08 289.25" /><path d="M 272.19 287.75 L 272.37 288.01 L 272.46 288.19 L 272.63 288.37 L 272.72 288.55 L 273.08 289.25" /><path d="M 273.08 289.25 L 273.25 289.79" /><path d="M 273.25 289.79 L 273.52 290.23 L 273.7 290.58" /><path d="M 273.25 289.79 L 273.52 290.32 L 273.7 290.58" /><path d="M 273.7 290.58 L 273.79 290.94 L 273.87 291.03 L 273.96 291.11 L 274.05 291.29 L 274.05 291.38 L 274.14 291.47 L 274.23 291.56 L 274.32 291.65 L 274.4 291.73 L 274.49 291.82 L 274.58 291.91 L 274.58 292 L 274.76 292.09 L 275.11 292.53 L 275.56 292.97 L 276.09 293.42 L 276.26 293.59 L 276.35 293.77 L 276.8 294.12 L 277.24 294.66 L 277.86 295.19 L 278.39 295.72 L 278.48 295.9 L 278.92 296.25 L 279.28 296.6 L 279.54 296.87 L 279.98 297.31 L 280.43 297.76 L 280.96 298.2 L 281.22 298.46 L 281.49 298.73 L 281.84 299.17 L 282.38 299.7 L 282.55 299.79 L 283 300.24 L 283.44 300.68 L 283.88 300.94 L 284.06 301.12 L 284.41 301.48" /><path d="M 284.41 301.48 L 284.94 301.92 L 285.12 302.01" /><path d="M 284.41 301.48 L 285.03 301.92 L 285.12 302.01" /><path d="M 285.12 302.01 L 285.3 302.1 L 285.39 302.18 L 285.47 302.27 L 285.56 302.36 L 285.74 302.36 L 285.83 302.45 L 285.92 302.54 L 286.01 302.54 L 286.18 302.63 L 286.27 302.63 L 286.36 302.72 L 286.54 302.72 L 286.71 302.8 L 286.89 302.8 L 286.98 302.8 L 287.07 302.89 L 287.25 302.89 L 287.33 302.89 L 287.42 302.89 L 287.6 302.89 L 287.69 302.89 L 287.78 302.89 L 288.31 302.8 L 288.75 302.8 L 289.37 302.8 L 289.99 302.72 L 290.52 302.72 L 291.05 302.63 L 291.67 302.63 L 292.21 302.54 L 292.74 302.54 L 293.36 302.45 L 293.89 302.45 L 294.51 302.36 L 295.04 302.36 L 295.57 302.27 L 295.93 302.27 L 296.19 302.27 L 296.37 302.27 L 296.72 302.18 L 297.34 302.18 L 297.96 302.1" /><path d="M 297.96 302.1 L 298.32 302.1 L 298.49 302.1 L 298.58 302.01" /><path d="M 297.96 302.1 L 298.4 302.1 L 298.58 302.01" /><path d="M 298.58 302.01 L 298.76 301.92 L 298.94 301.83" /><path d="M 298.58 302.01 L 298.67 302.01 L 298.85 301.92 L 298.94 301.83" /><path d="M 298.94 301.83 L 299.02 301.74 L 299.11 301.65 L 299.29 301.48" /><path d="M 298.94 301.83 L 299.11 301.74 L 299.2 301.65 L 299.29 301.48" /><path d="M 299.29 301.48 L 299.38 301.39 L 299.47 301.21 L 299.56 301.03 L 299.56 300.86 L 299.64 300.68 L 299.64 300.59 L 299.73 300.41 L 299.73 300.24 L 299.73 300.15 L 299.73 299.35 L 299.73 298.55 L 299.73 297.93 L 299.73 297.58 L 299.73 297.14 L 299.64 296.52 L 299.64 296.34 L 299.64 296.16 L 299.73 295.98 L 299.73 295.9 L 299.73 295.72 L 299.73 295.28 L 299.73 294.92 L 299.82 294.21 L 299.82 293.59 L 299.91 292.8 L 299.91 292 L 300 291.47 L 300 290.85 L 300 290.67 L 300 290.58 L 300.09 290.49 L 300.09 290.32 L 300.09 290.23 L 300.18 290.05 L 300.18 289.96 L 300.18 289.79 L 300.26 289.7 L 300.26 289.52 L 300.35 289.43 L 300.44 289.25 L 300.44 289.17 L 300.53 288.99 L 300.62 288.9 L 300.71 288.72 L 300.71 288.63 L 300.8 288.55 L 300.88 288.46 L 300.97 288.37 L 301.06 288.19 L 301.24 288.01 L 301.42 287.93 L 301.59 287.75 L 301.68 287.66 L 301.86 287.57 L 302.04 287.48 L 302.21 287.39 L 302.39 287.39 L 302.57 287.31 L 302.74 287.31 L 302.92 287.31 L 303.1 287.22 L 303.72 287.22 L 304.25 287.31 L 304.87 287.31 L 305.4 287.31 L 305.49 287.31 L 305.93 287.31 L 306.55 287.31 L 307.08 287.31 L 307.7 287.31" /><path d="M 307.7 287.31 L 308.23 287.31 L 308.85 287.31" /><path d="M 307.7 287.31 L 308.32 287.31 L 308.85 287.31" /><path d="M 308.85 287.31 L 309.3 287.31 L 309.47 287.31" /><path d="M 309.47 287.31 L 310.01 287.31 L 310.18 287.31 L 310.36 287.31 L 310.54 287.22 L 310.71 287.22 L 310.89 287.13 L 310.98 287.13" /><path d="M 309.47 287.31 L 310.09 287.31 L 310.27 287.31 L 310.45 287.22 L 310.63 287.22 L 310.8 287.22 L 310.98 287.13" /><path d="M 310.98 287.13 L 311.16 287.04" /><path d="M 310.98 287.13 L 311.07 287.04 L 311.16 287.04" /><path d="M 311.16 287.04 L 311.25 286.95 L 311.33 286.95 L 311.42 286.86 L 311.51 286.77 L 311.6 286.69 L 311.78 286.6 L 312.31 286.07 L 312.4 285.98 L 312.49 285.98 L 312.57 285.89 L 312.75 285.8 L 312.84 285.71 L 312.93 285.71 L 313.02 285.62 L 313.11 285.62 L 313.19 285.53 L 313.28 285.53 L 313.37 285.45 L 313.46 285.45 L 313.64 285.36" /><path d="M 313.64 285.36 L 313.73 285.36 L 313.99 285.36 L 314.17 285.27 L 314.35 285.27 L 314.97 285.27 L 315.23 285.27" /><path d="M 313.64 285.36 L 313.81 285.36 L 314.08 285.27 L 314.26 285.27 L 314.43 285.27 L 315.05 285.27 L 315.23 285.27" /><path d="M 315.23 285.27 L 315.59 285.36 L 316.12 285.36 L 316.47 285.36" /><path d="M 316.47 285.36 L 316.56 285.36 L 316.74 285.36 L 316.83 285.27" /><path d="M 316.47 285.36 L 316.65 285.36 L 316.83 285.27" /><path d="M 316.83 285.27 L 317 285.18" /><path d="M 316.83 285.27 L 316.91 285.27 L 317 285.18" /><path d="M 317 285.18 L 317.09 285.18 L 317.18 285.09 L 317.27 285 L 317.36 284.83" /><path d="M 317 285.18 L 317.09 285.09 L 317.18 285 L 317.27 284.91 L 317.36 284.83" /><path d="M 317.36 284.83 L 317.45 284.74 L 317.53 284.56" /><path d="M 317.36 284.83 L 317.45 284.65 L 317.53 284.56" /><path d="M 317.53 284.56 L 317.53 284.47 L 317.62 284.29" /><path d="M 317.53 284.56 L 317.62 284.38 L 317.62 284.29" /><path d="M 317.62 284.29 L 317.62 284.21 L 317.62 284.03 L 317.71 283.94 L 317.71 283.76 L 317.71 283.67" /><path d="M 317.62 284.29 L 317.62 284.12 L 317.62 283.94 L 317.71 283.85 L 317.71 283.67" /><path d="M 317.71 283.67 L 317.62 283.5 L 317.62 283.41" /><path d="M 317.71 283.67 L 317.62 283.59 L 317.62 283.41" /><path d="M 317.62 283.41 L 317.62 283.23 L 317.36 282.61" /><path d="M 317.62 283.41 L 317.62 283.32 L 317.53 283.23 L 317.36 282.61" /><path d="M 317.36 282.61 L 317.09 281.9" />
    </g>
  </g>
</svg>