<svg xmlns="http://www.w3.org/2000/svg" viewBox="0 0 360 440" width="360" height="440" fill="none">
  <g shape-rendering="geometricPrecision" text-rendering="geometricPrecision">
    
    <g
      stroke="#111111"
      stroke-opacity="0.94"
      stroke-width="1.65"
      stroke-linecap="round"
      stroke-linejoin="round"
    >
      <path d="M 166.98 123.38 L 167.07 124.09 L 167.25 124.98 L 167.25 125.6 L 167.42 126.3 L 167.42 126.57 L 167.6 127.63 L 167.69 128.69 L 167.78 129.31 L 167.87 129.85 L 167.87 130.02 L 167.96 130.82 L 168.04 131.09 L 168.04 131.44 L 168.13 132.06 L 168.22 132.77 L 168.31 133.12 L 168.31 133.48 L 168.4 133.83 L 168.4 134.19 L 168.49 134.81 L 168.58 135.51 L 168.66 135.87 L 168.66 136.13 L 168.75 136.67 L 168.84 137.37 L 168.93 137.99" /><path d="M 168.93 137.99 L 169.02 138.35 L 169.02 138.61 L 169.11 139.14 L 169.2 139.85 L 169.28 140.47 L 169.28 140.65 L 169.28 140.92" /><path d="M 168.93 137.99 L 169.46 137.73 L 169.99 137.55 L 170.44 137.37 L 171.41 136.93 L 171.68 136.84 L 172.12 136.67 L 172.38 136.49 L 173.36 136.13 L 174.42 135.69 L 175.39 135.25 L 176.01 134.98 L 176.46 134.81 L 177.25 134.45 L 177.7 134.27 L 177.87 134.19 L 178.58 133.83 L 179.91 133.21 L 180.35 133.03 L 180.71 132.86 L 181.06 132.77 L 181.51 132.59 L 181.86 132.41 L 182.21 132.33 L 182.48 132.15 L 183.01 131.97 L 183.45 131.79 L 184.07 131.53 L 184.69 131.26 L 185.31 131 L 185.84 130.73 L 186.11 130.64 L 186.38 130.64 L 186.82 130.55 L 187.44 130.47 L 187.7 130.38 L 187.97 130.2 L 188.24 130.11 L 188.41 130.11 L 188.59 130.02 L 188.68 130.02 L 188.86 129.93 L 189.3 129.76" /><path d="M 169.28 140.92 L 169.37 141.18 L 169.46 141.62" /><path d="M 169.28 140.92 L 169.37 141.27 L 169.46 141.62" /><path d="M 169.46 141.62 L 169.46 141.89 L 169.55 142.24 L 169.55 142.51 L 169.64 142.78 L 169.64 142.95 L 169.73 143.22 L 169.73 143.48 L 169.73 143.84 L 169.82 144.02 L 169.82 144.19 L 169.82 144.37 L 169.82 144.64 L 169.9 144.9 L 169.9 145.26 L 169.9 145.79 L 169.9 145.96 L 169.9 146.23 L 169.9 146.5 L 169.99 146.76 L 170.08 147.65 L 170.17 148.18 L 170.26 148.35 L 170.35 148.44 L 170.44 148.8 L 170.52 149.06 L 170.79 151.01 L 170.88 151.54 L 171.06 152.87 L 171.23 155.26 L 171.32 155.79 L 171.23 156.24 L 171.23 156.59 L 171.32 157.3 L 171.32 157.65 L 171.41 158.54 L 171.5 158.72 L 171.5 158.89 L 171.5 159.07" /><path d="M 171.5 159.07 L 171.59 159.6 L 171.68 160.4" /><path d="M 171.5 159.07 L 171.59 159.69 L 171.68 160.4" /><path d="M 171.68 160.4 L 171.76 161.02 L 171.76 161.2 L 171.85 161.64 L 171.85 161.9 L 171.94 162.26 L 171.94 162.52 L 172.03 162.97 L 172.03 163.14 L 172.12 163.5 L 172.12 163.85 L 172.3 164.65 L 172.3 165.18" /><path d="M 172.3 165.18 L 172.38 165.62 L 172.47 166.16" /><path d="M 172.3 165.18 L 172.38 165.71 L 172.47 166.16" /><path d="M 172.47 166.16 L 172.47 166.6 L 172.56 166.86 L 172.56 167.13 L 172.65 167.93 L 172.74 168.72 L 172.83 169.43 L 172.83 169.79 L 172.92 170.41 L 172.92 170.67 L 173 171.56 L 173.09 172 L 173.09 172.18 L 173.18 172.89 L 173.18 173.24 L 173.27 173.59" /><path d="M 173.27 173.59 L 173.36 174.3 L 173.36 174.75" /><path d="M 173.27 173.59 L 173.36 174.39 L 173.36 174.75" /><path d="M 173.36 174.75 L 173.45 175.28 L 173.45 175.63" /><path d="M 173.45 175.63 L 173.54 176.25 L 173.62 177.31" /><path d="M 173.45 175.63 L 173.54 176.34 L 173.62 177.31" /><path d="M 173.62 177.31 L 173.71 177.76 L 173.8 178.38 L 173.8 178.55" /><path d="M 173.8 178.55 L 173.89 179.35 L 173.89 179.53 L 173.89 180.68" /><path d="M 173.8 178.55 L 173.89 179.44 L 173.89 179.71 L 173.89 180.68" /><path d="M 173.89 180.68 L 173.89 181.03 L 173.89 181.3 L 173.89 181.65 L 173.89 182.18 L 173.98 182.72 L 174.07 184.04 L 174.24 185.46 L 174.33 185.9 L 174.33 186.17 L 174.51 186.88 L 174.51 187.06 L 174.6 187.32 L 175.13 190.95 L 175.22 191.31 L 175.31 191.48 L 175.48 191.75 L 175.57 192.02 L 175.93 193.52 L 176.9 198.04 L 177.79 201.93 L 178.05 203.09 L 178.14 203.44 L 178.23 203.88 L 178.41 204.32 L 178.49 204.68 L 178.58 204.94 L 178.67 205.56 L 178.85 206.18 L 178.85 206.45 L 178.94 206.72 L 179.03 207.34 L 179.82 210.88 L 179.82 211.23 L 179.91 211.5 L 179.91 211.76 L 180 212.21 L 180 212.47 L 180 212.83 L 179.91 213 L 179.91 213.18 L 179.91 213.36 L 179.91 213.62" /><path d="M 179.91 213.62 L 179.91 213.8 L 180.18 214.77" /><path d="M 179.91 213.62 L 180 213.89 L 180.18 214.77" /><path d="M 180.18 214.77 L 180.18 214.95 L 180.35 215.57 L 180.44 215.93 L 180.53 216.46 L 180.62 216.81 L 180.71 217.17 L 180.8 217.7 L 180.89 218.05 L 181.24 219.38 L 181.51 220.62 L 181.59 221.15 L 181.68 221.68 L 181.77 222.13 L 182.04 223.1 L 182.04 223.28 L 182.13 223.45 L 182.13 223.63" /><path d="M 182.13 223.63 L 182.13 223.72 L 182.21 224.07" /><path d="M 182.13 223.63 L 182.13 223.9 L 182.21 224.07" /><path d="M 182.21 224.07 L 182.21 224.25 L 182.21 224.34 L 182.21 224.52 L 182.13 224.69 L 182.13 224.87 L 182.04 224.96 L 181.86 225.14 L 181.77 225.23 L 181.68 225.4 L 181.51 225.49 L 181.33 225.58 L 181.15 225.67 L 180.97 225.76 L 180.71 225.84" /><path d="M 180.71 225.84 L 180.53 225.93 L 180.35 225.93" /><path d="M 180.71 225.84 L 180.44 225.93 L 180.35 225.93" /><path d="M 180.35 225.93 L 180.18 225.84 L 180.09 225.84 L 180 225.76 L 179.91 225.67 L 179.73 225.49 L 179.65 225.31 L 179.56 225.05 L 179.47 224.78 L 179.38 224.61 L 179.29 224.43 L 179.29 224.25 L 179.11 223.81 L 179.03 223.37 L 178.85 223.01 L 178.76 222.66 L 178.67 222.39 L 178.58 221.86 L 178.41 221.15 L 178.32 220.71" /><path d="M 178.32 220.71 L 178.23 220.18 L 178.05 219.47" /><path d="M 178.32 220.71 L 178.23 220.09 L 178.05 219.47" /><path d="M 178.05 219.47 L 177.87 218.85 L 177.79 218.32 L 177.79 218.14" /><path d="M 177.79 218.14 L 177.61 217.7 L 177.52 217.08" /><path d="M 177.79 218.14 L 177.61 217.61 L 177.52 217.08" /><path d="M 177.52 217.08 L 177.43 216.72 L 177.34 216.46" /><path d="M 177.34 216.46 L 177.25 215.93 L 177.08 215.04" /><path d="M 177.34 216.46 L 177.25 215.84 L 177.08 215.04" /><path d="M 177.08 215.04 L 176.9 214.42 L 176.9 214.07 L 176.9 213.8 L 176.9 213.54 L 176.9 213.36 L 176.9 213.18 L 176.81 213.09 L 176.81 212.83 L 176.81 212.65 L 176.72 212.38 L 176.72 212.12 L 176.63 211.94 L 176.55 211.68 L 176.46 211.41 L 176.37 211.23 L 176.28 210.97 L 176.19 210.7 L 176.1 210.44 L 175.84 209.37 L 175.75 209.11 L 175.66 208.75 L 175.57 208.49 L 175.48 208.31 L 175.39 208.22 L 175.22 208.13 L 175.13 208.13 L 174.95 208.13 L 174.77 208.22 L 174.51 208.22 L 174.16 208.4" /><path d="M 174.16 208.4 L 173.8 208.49 L 173.27 208.75 L 172.56 209.02" /><path d="M 174.16 208.4 L 174.86 208.13 L 175.48 207.87 L 176.72 207.34 L 176.9 207.34 L 177.34 207.16 L 177.61 206.98 L 177.96 206.72 L 178.23 206.63 L 178.49 206.54 L 179.2 206.45 L 179.38 206.45 L 179.47 206.45 L 179.65 206.45 L 179.73 206.45 L 180 206.45 L 180.27 206.36 L 180.71 206.18 L 181.06 206.1 L 181.68 205.83 L 182.13 205.74 L 182.48 205.65 L 183.28 205.65 L 183.63 205.56 L 184.07 205.39 L 184.52 205.12 L 185.23 204.68 L 185.76 204.24 L 185.93 204.15 L 186.46 203.79 L 186.55 203.7 L 188.94 202.82 L 189.03 202.82 L 189.21 202.64 L 189.3 202.55 L 189.65 202.11" /><path d="M 172.56 209.02 L 172.38 209.02 L 172.3 209.11 L 172.12 209.11 L 172.03 209.2 L 171.85 209.2 L 171.68 209.11 L 171.59 208.93 L 171.5 208.84 L 171.5 208.66 L 171.41 208.49 L 171.41 208.13 L 171.14 207.07 L 170.88 205.65 L 170.44 203.62 L 170.35 203.17 L 170.26 202.91 L 170.08 201.67 L 169.82 200.61 L 169.73 200.07 L 169.55 199.28 L 169.28 198.39" /><path d="M 172.56 209.02 L 172.12 209.2 L 171.68 209.37 L 171.41 209.46 L 171.06 209.64 L 170.7 209.73 L 170.52 209.82 L 170.26 209.99 L 169.73 210.17 L 169.46 210.26 L 169.2 210.35 L 168.75 210.52 L 168.22 210.79 L 167.69 210.97 L 167.34 211.14 L 167.07 211.32 L 166.8 211.5 L 166.36 211.68 L 165.92 211.85 L 165.74 211.94 L 164.86 212.3 L 164.41 212.47 L 163.88 212.65" /><path d="M 169.28 198.39 L 169.28 198.3 L 169.2 198.13 L 169.11 197.95 L 168.93 197.77 L 168.84 197.68 L 168.58 197.59" /><path d="M 169.28 198.39 L 169.28 198.21 L 169.2 198.04 L 169.02 197.86 L 168.93 197.68 L 168.75 197.59 L 168.58 197.59" /><path d="M 168.58 197.59 L 168.49 197.59 L 168.4 197.59 L 168.13 197.59 L 167.87 197.59 L 167.69 197.59" /><path d="M 167.69 197.59 L 167.51 197.59 L 167.42 197.51 L 167.34 197.42 L 167.25 197.15 L 167.16 196.89" /><path d="M 167.69 197.59 L 167.51 197.51 L 167.42 197.42 L 167.25 197.24 L 167.25 197.06 L 167.16 196.89" /><path d="M 167.16 196.89 L 167.07 196.27 L 166.8 195.2 L 166.63 194.67 L 166.45 193.96 L 166.27 193.52 L 166.01 192.99 L 165.65 192.55 L 165.3 192.28 L 164.77 191.93 L 164.15 191.75 L 163.62 191.57 L 162.91 191.31 L 162.38 191.04 L 161.93 190.69 L 161.58 190.42 L 161.31 190.07 L 160.96 189.71 L 160.61 189.18 L 160.25 188.65 L 159.99 188.12 L 159.63 187.5 L 159.37 186.79 L 159.1 185.9 L 158.92 185.28 L 158.13 181.03 L 158.04 180.5 L 157.86 180.06 L 157.06 177.67 L 156.97 177.4" /><path d="M 156.97 177.4 L 156.71 176.61 L 156.62 176.43 L 156.62 176.25 L 156.53 176.07 L 156.53 175.9 L 156.44 175.72 L 156.44 175.54 L 156.27 175.01" /><path d="M 156.97 177.4 L 156.62 176.52 L 156.62 176.34 L 156.53 176.16 L 156.53 175.99 L 156.44 175.81 L 156.44 175.63 L 156.35 175.45 L 156.27 175.01" /><path d="M 156.27 175.01 L 156.27 174.83" /><path d="M 156.27 174.83 L 156 173.59 L 155.82 172.8" /><path d="M 156.27 174.83 L 156 173.51 L 155.82 172.8" /><path d="M 155.82 172.8 L 155.73 172.44 L 155.65 171.82 L 155.29 170.23 L 155.29 170.14 L 154.85 167.93 L 154.58 166.69 L 154.58 166.6 L 154.49 166.33 L 154.49 166.07 L 154.41 165.89 L 154.41 165.71 L 154.32 165.54 L 154.32 165.36 L 154.32 165.18 L 154.23 165" /><path d="M 154.23 165 L 154.23 164.92 L 154.23 164.74" /><path d="M 154.23 165 L 154.23 164.83 L 154.23 164.74" /><path d="M 154.23 164.74 L 154.23 164.56 L 154.14 164.38 L 154.14 164.21 L 154.14 164.03 L 154.14 163.85" /><path d="M 154.14 163.85 L 153.96 162.17 L 153.96 161.99" /><path d="M 154.14 163.85 L 153.96 162.08 L 153.96 161.99" /><path d="M 153.96 161.99 L 153.96 161.82" /><path d="M 153.96 161.82 L 153.96 161.64 L 153.87 161.28" /><path d="M 153.96 161.82 L 153.96 161.55 L 153.87 161.28" /><path d="M 153.87 161.28 L 153.87 161.11 L 153.87 160.93 L 153.87 160.84 L 153.87 160.66 L 153.79 160.49 L 153.79 160.4 L 153.7 160.22 L 153.7 160.04 L 153.7 159.96 L 153.7 159.78" /><path d="M 153.7 159.78 L 153.52 158.81 L 153.34 158.1" /><path d="M 153.7 159.78 L 153.43 158.72 L 153.34 158.1" /><path d="M 153.34 158.1 L 153.08 156.86 L 152.99 156.41 L 152.9 156.06 L 152.72 155.71 L 152.46 155.44 L 152.19 155.09 L 152.02 154.82 L 151.75 154.47 L 151.48 154.11 L 151.31 153.85 L 150.95 153.4 L 150.6 153.05 L 150.33 152.61 L 150.07 152.25 L 149.89 151.99 L 149.62 151.63 L 149.45 151.19 L 149.27 150.66 L 149.09 150.04 L 149 149.42 L 149 148.97 L 148.83 148.09 L 148.74 147.47 L 148.65 147.03 L 148.56 146.76 L 148.3 145.43 L 148.12 144.64 L 148.03 144.55 L 148.03 144.37 L 147.94 144.19 L 147.76 144.02 L 147.68 143.93 L 147.59 143.75 L 147.5 143.66" /><path d="M 147.5 143.66 L 147.41 143.57 L 147.23 143.48 L 146.97 143.4" /><path d="M 147.5 143.66 L 147.32 143.57 L 147.14 143.4 L 146.97 143.4" /><path d="M 146.97 143.4 L 146.79 143.31 L 146.7 143.31 L 146.08 143.13 L 145.64 142.95 L 145.46 142.95 L 145.2 142.95 L 145.02 142.95 L 144.84 142.95 L 144.58 143.04 L 144.4 143.04 L 144.31 143.13 L 144.04 143.22 L 143.78 143.31 L 143.6 143.4 L 142.63 143.75 L 141.74 144.19" /><path d="M 141.74 144.19 L 141.48 144.28 L 141.3 144.28" /><path d="M 141.74 144.19 L 141.39 144.28 L 141.3 144.28" /><path d="M 141.3 144.28 L 141.12 144.37 L 141.03 144.37 L 140.95 144.37 L 140.77 144.37 L 140.68 144.37 L 140.33 144.28 L 140.15 144.28 L 139.97 144.19 L 139.79 144.1 L 139.71 144.1 L 139.62 144.02 L 139.44 143.84 L 139.17 143.66 L 139 143.48 L 138.73 143.13 L 138.55 142.95" /><path d="M 138.55 142.95 L 138.47 142.78 L 138.38 142.6 L 138.2 142.33" /><path d="M 138.55 142.95 L 138.38 142.69 L 138.29 142.51 L 138.2 142.33" /><path d="M 138.2 142.33 L 138.11 142.07 L 138.02 141.89 L 138.02 141.71 L 137.93 141.36 L 137.85 140.92 L 137.76 140.21 L 137.67 139.59 L 137.67 139.23 L 137.23 136.4 L 137.05 134.72 L 136.96 134.54 L 136.96 134.27" /><path d="M 136.96 134.27 L 136.87 133.65 L 136.69 132.06" /><path d="M 136.96 134.27 L 136.87 133.57 L 136.69 132.06" /><path d="M 136.69 132.06 L 136.61 131.62 L 136.52 131.35 L 136.43 131.09 L 136.34 130.82 L 136.25 130.64 L 136.16 130.47 L 136.07 130.29" /><path d="M 136.07 130.29 L 135.99 130.11 L 135.72 129.76" /><path d="M 136.07 130.29 L 135.9 130.02 L 135.72 129.76" /><path d="M 135.72 129.76 L 135.63 129.58 L 135.37 129.4" /><path d="M 135.72 129.76 L 135.54 129.49 L 135.37 129.4" /><path d="M 135.37 129.4 L 135.28 129.23 L 135.1 129.14 L 135.01 129.05 L 134.75 128.87 L 134.48 128.69 L 134.21 128.61 L 133.51 128.16 L 132.8 127.81 L 131.82 127.28 L 130.94 126.83 L 130.32 126.48 L 128.72 125.6 L 127.93 125.15 L 126.6 124.44 L 126.33 124.27 L 126.07 124.18 L 125.98 124.09 L 125.89 124 L 125.8 123.91 L 125.62 123.74 L 125.45 123.56 L 125.36 123.47 L 125.27 123.29 L 125.18 123.12 L 125.09 122.94 L 124.83 122.41 L 124.83 122.23 L 124.74 121.96 L 124.47 120.81 L 123.94 119.22 L 123.76 118.33 L 123.59 117.54 L 123.5 117.18 L 123.41 116.83 L 123.32 116.47 L 123.32 116.21 L 123.23 115.85 L 123.06 114.79 L 122.52 111.16" /><path d="M 227.03 160.13 L 226.41 160.49 L 225.96 160.75 L 225.7 161.2 L 225.52 161.64 L 224.99 162.7 L 224.9 162.88 L 224.37 164.03 L 224.1 164.38 L 223.31 166.16" /><path d="M 223.31 166.16 L 223.31 166.24 L 223.22 166.42" /><path d="M 223.31 166.16 L 223.22 166.24 L 223.22 166.42" /><path d="M 223.22 166.42 L 223.13 166.51 L 223.13 166.69 L 223.04 166.78 L 222.95 166.95 L 222.86 167.48" /><path d="M 223.22 166.42 L 223.13 166.6 L 223.04 166.69 L 223.04 166.86 L 222.95 167.04 L 222.86 167.48" /><path d="M 222.86 167.48 L 222.77 167.75 L 222.77 167.93 L 222.24 170.14" /><path d="M 222.24 170.14 L 221.98 171.03 L 221.98 171.11" /><path d="M 222.24 170.14 L 221.98 171.11" /><path d="M 221.98 171.11 L 221.98 171.29 L 221.89 171.47" /><path d="M 221.98 171.11 L 221.98 171.2 L 221.89 171.38 L 221.89 171.47" /><path d="M 221.89 171.47 L 221.89 171.56 L 221.8 171.73 L 221.8 171.82" /><path d="M 221.89 171.47 L 221.89 171.65 L 221.8 171.82" /><path d="M 221.8 171.82 L 221.8 172 L 221.71 172.18" /><path d="M 221.8 171.82 L 221.8 171.91 L 221.8 172.09 L 221.71 172.18" /><path d="M 221.71 172.18 L 221.71 172.27 L 221.71 172.44 L 221.62 172.53 L 221.62 172.71 L 221.62 172.89 L 221.53 173.06 L 221.53 173.24" /><path d="M 221.71 172.18 L 221.71 172.35 L 221.71 172.53 L 221.62 172.62 L 221.62 172.8 L 221.53 172.97 L 221.53 173.24" /><path d="M 221.53 173.24 L 221.53 173.51 L 221.45 173.68 L 221.27 175.1" /><path d="M 221.53 173.24 L 221.53 173.42 L 221.45 173.59 L 221.45 173.77 L 221.27 175.1" /><path d="M 221.27 175.1 L 221.27 175.9 L 221.18 176.52 L 221.09 177.31 L 221 178.2 L 221 178.64 L 220.91 179.62 L 220.74 180.86 L 220.74 181.48 L 220.65 182.1 L 220.65 182.54 L 220.65 182.72 L 220.56 183.34" /><path d="M 220.56 183.34 L 220.56 183.69 L 220.47 183.87 L 220.47 184.13" /><path d="M 220.56 183.34 L 220.56 183.78 L 220.47 183.96 L 220.47 184.13" /><path d="M 220.47 184.13 L 220.47 184.31 L 220.47 184.49 L 220.47 184.66 L 220.38 184.75 L 220.38 184.93 L 220.38 185.11 L 220.29 185.28" /><path d="M 220.47 184.13 L 220.47 184.4 L 220.47 184.58 L 220.47 184.75 L 220.38 184.84 L 220.38 185.02 L 220.29 185.2 L 220.29 185.28" /><path d="M 220.29 185.28 L 220.29 185.37 L 220.21 185.55 L 220.21 185.64" /><path d="M 220.29 185.28 L 220.29 185.46 L 220.21 185.64" /><path d="M 220.21 185.64 L 220.12 185.82" /><path d="M 220.12 185.82 L 220.12 185.99 L 220.03 186.08" /><path d="M 220.12 185.82 L 220.12 185.9 L 220.03 186.08" /><path d="M 220.03 186.08 L 219.94 186.17" /><path d="M 219.94 186.17 L 219.85 186.35 L 219.85 186.44" /><path d="M 219.94 186.17 L 219.94 186.26 L 219.85 186.44" /><path d="M 219.85 186.44 L 219.76 186.52 L 219.67 186.61 L 219.59 186.7" /><path d="M 219.59 186.7 L 219.5 186.79 L 219.41 186.88 L 219.32 186.97 L 219.23 187.06 L 219.14 187.14 L 219.05 187.23" /><path d="M 219.59 186.7 L 219.59 186.79 L 219.5 186.88 L 219.41 186.97 L 219.32 187.06 L 219.23 187.14 L 219.05 187.23" /><path d="M 219.05 187.23 L 218.79 187.41" /><path d="M 219.05 187.23 L 218.97 187.32 L 218.79 187.41" /><path d="M 218.79 187.41 L 218.35 187.76 L 217.9 188.12 L 217.73 188.21" /><path d="M 217.73 188.21 L 217.11 188.74 L 215.96 189.54" /><path d="M 217.73 188.21 L 217.02 188.74 L 215.96 189.54" /><path d="M 215.96 189.54 L 214.8 190.42 L 213.12 192.37 L 212.68 192.63 L 212.06 192.99 L 211.97 193.08 L 211.62 193.17 L 210.73 193.61 L 209.84 193.96 L 209.4 194.14 L 208.52 194.49 L 208.43 194.49 L 208.16 194.67 L 208.07 194.67 L 207.72 194.76 L 207.28 194.94 L 206.75 195.2 L 206.39 195.38 L 205.95 195.56 L 205.77 195.65 L 205.59 195.73 L 205.15 195.91 L 204.8 196.09 L 204.53 196.18 L 204.35 196.18 L 203.56 196.53 L 203.38 196.62 L 202.94 196.8 L 202.67 196.89 L 202.41 196.97 L 202.05 197.15 L 201.61 197.33 L 201.17 197.51 L 200.9 197.59 L 200.37 197.86 L 199.93 198.04 L 198.95 198.39 L 198.77 198.48 L 197.98 198.83 L 197.8 198.92 L 197.18 199.1 L 196.91 199.19 L 196.65 199.28 L 196.21 199.45 L 195.68 199.63 L 195.23 199.81" /><path d="M 195.23 199.81 L 194.52 200.16 L 193.99 200.34" /><path d="M 195.23 199.81 L 194.44 200.16 L 193.99 200.34" /><path d="M 193.99 200.34 L 193.64 200.43 L 193.11 200.61 L 192.66 200.78" /><path d="M 193.99 200.34 L 193.55 200.52 L 193.11 200.69 L 192.66 200.78" /><path d="M 192.66 200.78 L 192.13 200.96 L 191.87 201.14 L 191.69 201.23 L 191.34 201.31 L 190.98 201.49 L 190.45 201.67" /><path d="M 190.45 201.67 L 190.01 201.76 L 189.92 201.85 L 189.65 202.11" /><path d="M 190.45 201.67 L 190.01 201.85 L 189.83 201.93 L 189.65 202.11" /><path d="M 163.88 212.65 L 163.44 212.83 L 163 213.09 L 162.47 213.27" /><path d="M 163.88 212.65 L 163.35 212.92 L 162.91 213.09 L 162.47 213.27" /><path d="M 162.47 213.27 L 162.2 213.36 L 161.93 213.54 L 161.67 213.62 L 161.4 213.8 L 160.87 214.07 L 160.61 214.16 L 160.34 214.33 L 160.16 214.33 L 159.81 214.51 L 159.72 214.51 L 159.19 214.77 L 158.75 214.95 L 158.3 215.04 L 157.95 215.22 L 157.68 215.31 L 157.51 215.31 L 157.42 215.31 L 157.24 215.31 L 156.97 215.31 L 156.27 215.39 L 156 215.48 L 155.82 215.48 L 155.65 215.57 L 155.03 215.84 L 154.41 216.1 L 153.43 216.55 L 152.99 216.81 L 152.37 217.17 L 152.19 217.17 L 151.84 217.34 L 151.4 217.52 L 150.6 217.87 L 149.89 218.14 L 149.62 218.32 L 149.36 218.41 L 149 218.58 L 148.47 218.76 L 147.94 219.03 L 147.32 219.29 L 146.97 219.38 L 146.7 219.56 L 145.9 219.82 L 145.46 220 L 144.93 220.27 L 144.75 220.35 L 144.31 220.53 L 143.78 220.71 L 143.69 220.8 L 143.42 220.89 L 143.25 220.97 L 143.16 221.06 L 142.89 221.06 L 142.54 221.24 L 142.36 221.33 L 142.18 221.42 L 141.83 221.59 L 141.3 221.77 L 141.03 221.95 L 140.86 222.13 L 140.68 222.21 L 140.41 222.3 L 140.06 222.48 L 139.71 222.66 L 139.62 222.75 L 139.53 222.83 L 139.35 223.01 L 139.26 223.1 L 139.17 223.28 L 139.09 223.37 L 139 223.45 L 138.82 223.54 L 138.73 223.63 L 138.55 223.63 L 138.47 223.63 L 138.29 223.72 L 137.93 223.63 L 137.67 223.63 L 137.31 223.54 L 137.05 223.45" /><path d="M 137.05 223.45 L 136.07 222.66 L 135.72 222.48" /><path d="M 137.05 223.45 L 135.99 222.66 L 135.72 222.48" /><path d="M 135.72 222.48 L 135.54 222.39 L 135.37 222.3 L 135.19 222.21 L 135.01 222.13 L 134.83 222.04 L 134.75 221.95 L 134.57 221.95 L 134.39 221.95 L 134.21 221.95 L 134.04 221.86" /><path d="M 134.04 221.86 L 133.95 221.86 L 133.68 221.95" /><path d="M 134.04 221.86 L 133.86 221.95 L 133.68 221.95" /><path d="M 133.68 221.95 L 132.8 222.39 L 132.35 222.57 L 131.91 222.75 L 131.47 222.92 L 131.2 223.1 L 130.76 223.28 L 130.49 223.37 L 130.23 223.54 L 129.43 223.72 L 129.26 223.81 L 128.99 223.99 L 128.64 224.16" /><path d="M 128.64 224.16 L 128.19 224.34 L 127.93 224.43" /><path d="M 128.64 224.16 L 128.1 224.34 L 127.93 224.43" /><path d="M 127.93 224.43 L 127.84 224.43 L 127.31 224.69 L 126.86 224.87 L 126.07 225.14 L 125.54 225.31 L 125.18 225.4 L 124.65 225.67 L 124.21 225.84 L 123.94 225.93 L 123.76 226.02 L 123.32 226.2 L 122.88 226.38 L 122.7 226.46 L 122.52 226.64 L 122.35 226.82 L 122.17 227 L 121.99 227.26 L 121.2 228.94 L 120.31 230.63 L 119.69 231.69" /><path d="M 194.26 127.63 L 193.73 127.9 L 192.4 128.43 L 191.78 128.69 L 191.51 128.78 L 190.98 129.05 L 190.27 129.31" /><path d="M 190.27 129.31 L 189.65 129.58 L 189.3 129.76" /><path d="M 190.27 129.31 L 189.56 129.58 L 189.3 129.76" /><path d="M 147.41 190.69 L 147.32 190.69 L 146.97 190.78 L 146.61 190.86 L 146.44 190.86 L 146.26 190.86 L 146.08 190.95 L 145.82 191.04 L 145.73 191.13 L 145.46 191.22 L 145.02 191.4 L 144.49 191.66 L 144.04 191.84 L 143.6 192.02 L 143.16 192.19 L 142.72 192.37 L 142.1 192.63 L 141.21 193.08 L 140.5 193.34 L 140.15 193.52 L 139.79 193.7 L 139.09 193.96 L 139 194.05 L 138.82 194.05 L 138.55 194.14" /><path d="M 147.41 190.69 L 147.59 190.6 L 147.76 190.51 L 147.85 190.42" /><path d="M 147.41 190.69 L 147.68 190.6 L 147.76 190.42 L 147.85 190.42" /><path d="M 147.85 190.42 L 147.94 190.33 L 148.12 190.16 L 148.21 190.07 L 148.38 189.98 L 148.47 189.98 L 148.65 189.8" /><path d="M 148.65 189.8 L 149.18 189.62 L 149.71 189.45" /><path d="M 148.65 189.8 L 149.27 189.62 L 149.71 189.45" /><path d="M 149.71 189.45 L 150.16 189.18 L 150.42 189.09" /><path d="M 150.42 189.09 L 150.6 189 L 151.04 188.83" /><path d="M 150.42 189.09 L 150.69 189 L 151.04 188.83" /><path d="M 151.04 188.83 L 151.22 188.74 L 151.48 188.65 L 151.93 188.47 L 152.1 188.38 L 152.46 188.21 L 152.63 188.21 L 152.9 188.03 L 153.08 188.03 L 153.43 187.85 L 153.79 187.68 L 154.41 187.41 L 154.58 187.32" /><path d="M 154.58 187.32 L 155.38 186.97 L 155.73 186.88" /><path d="M 154.58 187.32 L 155.47 186.97 L 155.73 186.88" /><path d="M 155.73 186.88 L 156.35 186.61 L 157.42 186.17 L 157.77 186.08 L 157.86 185.99 L 158.13 185.9 L 158.57 185.73 L 158.92 185.55 L 159.1 185.46" /><path d="M 159.1 185.46 L 159.19 185.46 L 159.45 185.28 L 159.9 185.11" /><path d="M 159.1 185.46 L 159.28 185.46 L 159.54 185.28 L 159.9 185.11" /><path d="M 159.9 185.11 L 160.34 185.02 L 160.69 184.84" /><path d="M 159.9 185.11 L 160.34 184.93 L 160.69 184.84" /><path d="M 160.69 184.84 L 161.05 184.66 L 161.49 184.49" /><path d="M 160.69 184.84 L 161.14 184.66 L 161.49 184.49" /><path d="M 161.49 184.49 L 161.93 184.31 L 162.38 184.13 L 162.73 183.96 L 163.17 183.78 L 164.15 183.42 L 164.59 183.25 L 165.03 183.07 L 165.48 182.89 L 165.74 182.8" /><path d="M 165.74 182.8 L 166.1 182.63 L 166.45 182.54" /><path d="M 165.74 182.8 L 166.18 182.63 L 166.45 182.54" /><path d="M 166.45 182.54 L 166.54 182.45 L 166.98 182.27 L 167.16 182.18 L 167.42 182.1 L 167.6 182.01 L 167.87 181.92 L 168.13 181.83 L 168.58 181.65 L 168.75 181.56 L 169.02 181.48 L 169.55 181.3 L 169.99 181.03 L 170.44 180.86 L 170.79 180.77" /><path d="M 170.79 180.77 L 170.88 180.68 L 171.41 180.5" /><path d="M 170.79 180.77 L 170.97 180.68 L 171.41 180.5" /><path d="M 171.41 180.5 L 171.68 180.41 L 171.85 180.33 L 172.21 180.15 L 172.65 179.97 L 172.74 179.97 L 173.27 179.71 L 173.98 179.44 L 174.33 179.35 L 174.6 179.17 L 175.13 179 L 175.66 178.82 L 176.19 178.64 L 176.72 178.38 L 177.25 178.2 L 177.79 178.02 L 178.14 177.85 L 178.32 177.76 L 178.85 177.58 L 179.29 177.4 L 179.82 177.23 L 180 177.14 L 180.35 176.96 L 180.8 176.78 L 180.89 176.78 L 181.15 176.69 L 181.42 176.61 L 181.95 176.43 L 182.39 176.16 L 182.66 176.07 L 183.72 175.63 L 183.81 175.63 L 184.43 175.37 L 185.4 175.01 L 186.29 174.66 L 187.26 174.3 L 188.24 173.86 L 189.3 173.51 L 189.74 173.33 L 190.01 173.15 L 190.18 173.06 L 190.45 172.97 L 190.8 172.89 L 190.98 172.8 L 191.16 172.71 L 191.51 172.62 L 191.87 172.44 L 192.13 172.27 L 192.22 172.18 L 192.49 172.09 L 192.75 171.91 L 193.02 171.73 L 193.2 171.65 L 193.64 171.38 L 193.9 171.2 L 194.08 171.11 L 194.26 171.03 L 195.14 170.49 L 195.68 170.14 L 195.94 169.96 L 196.56 169.61 L 197.27 169.17" /><path d="M 197.27 169.17 L 197.45 169.08 L 197.89 168.9" /><path d="M 197.27 169.17 L 197.53 168.99 L 197.89 168.9" /><path d="M 197.89 168.9 L 198.42 168.55 L 198.86 168.28 L 199.04 168.19 L 199.22 168.02 L 199.75 167.75 L 200.28 167.48 L 200.9 167.04 L 201.08 167.04 L 201.7 166.69 L 202.32 166.42 L 202.58 166.24 L 202.94 166.07 L 203.56 165.71 L 204 165.54" /><path d="M 204 165.54 L 204.09 165.45 L 204.27 165.45 L 204.89 165.09" /><path d="M 204 165.54 L 204.18 165.45 L 204.27 165.36 L 204.89 165.09" /><path d="M 204.89 165.09 L 205.06 165 L 205.24 164.92 L 205.42 164.83" /><path d="M 205.42 164.83 L 205.68 164.83 L 205.77 164.74 L 205.95 164.74 L 206.13 164.65 L 206.3 164.65 L 206.48 164.65" /><path d="M 205.42 164.83 L 205.68 164.74 L 205.86 164.74 L 205.95 164.65 L 206.21 164.65 L 206.39 164.65 L 206.48 164.65" /><path d="M 206.48 164.65 L 206.66 164.65 L 206.83 164.65" /><path d="M 206.83 164.65 L 206.92 164.65 L 207.1 164.74 L 207.28 164.74 L 207.37 164.74" /><path d="M 206.83 164.65 L 207.01 164.65 L 207.19 164.74 L 207.37 164.74" /><path d="M 207.37 164.74 L 207.54 164.83 L 207.81 164.92" /><path d="M 207.37 164.74 L 207.45 164.83 L 207.63 164.83 L 207.81 164.92" /><path d="M 207.81 164.92 L 208.52 165.09 L 209.05 165.27 L 209.14 165.27 L 209.31 165.36" /><path d="M 209.31 165.36 L 209.4 165.36 L 209.67 165.45 L 210.02 165.54" /><path d="M 209.31 165.36 L 209.49 165.36 L 209.76 165.45 L 210.02 165.54" /><path d="M 210.02 165.54 L 210.2 165.54 L 210.29 165.62 L 210.46 165.62 L 210.55 165.71 L 210.73 165.71 L 210.91 165.8 L 211 165.8 L 211.17 165.8 L 211.26 165.8 L 211.35 165.89 L 211.53 165.89 L 211.62 165.89" /><path d="M 211.62 165.89 L 211.7 165.89 L 211.88 165.8" /><path d="M 211.62 165.89 L 211.79 165.89 L 211.88 165.8" /><path d="M 211.88 165.8 L 212.06 165.8 L 212.15 165.8" /><path d="M 212.15 165.8 L 212.41 165.71 L 212.77 165.62" /><path d="M 212.15 165.8 L 212.5 165.71 L 212.77 165.62" /><path d="M 212.77 165.62 L 212.86 165.62" /><path d="M 212.86 165.62 L 213.12 165.45 L 213.74 165.27" /><path d="M 212.86 165.62 L 213.21 165.45 L 213.74 165.27" /><path d="M 213.74 165.27 L 213.92 165.09 L 215.25 164.56" /><path d="M 213.74 165.27 L 214.01 165.09 L 215.25 164.56" /><path d="M 215.25 164.56 L 216.31 164.12 L 216.93 163.85 L 217.9 163.5 L 218.44 163.23 L 218.97 162.97 L 219.76 162.61 L 220.38 162.35 L 220.65 162.35 L 221.18 162.08 L 221.71 161.82 L 222.51 161.55 L 223.22 161.28 L 223.31 161.2 L 223.75 161.02 L 224.1 160.84 L 224.37 160.75 L 224.9 160.49 L 225.7 160.13 L 226.14 159.96 L 226.41 159.78 L 226.94 159.6" /><path d="M 93.57 161.9 L 93.48 161.46 L 92.95 159.16" /><path d="M 92.95 159.16 L 92.86 158.72 L 93.65 158.27" /><path d="M 92.95 159.16 L 92.86 158.63 L 93.65 158.27" /><path d="M 93.65 158.27 L 94.45 158.01 L 94.54 157.92 L 94.81 157.83 L 96.05 157.3 L 97.37 156.68" /><path d="M 97.37 156.68 L 97.64 156.59 L 97.73 156.5 L 97.9 156.33 L 97.99 156.15" /><path d="M 97.37 156.68 L 97.64 156.5 L 97.82 156.41 L 97.99 156.24 L 97.99 156.15" /><path d="M 97.99 156.15 L 98.08 155.97 L 98.08 155.71 L 98.08 155.17" /><path d="M 98.08 155.17 L 98.08 154.91 L 98.17 154.38 L 98.17 154.2 L 98.35 153.4" /><path d="M 98.08 155.17 L 98.08 154.82 L 98.17 154.29 L 98.17 154.02 L 98.35 153.4" /><path d="M 98.35 153.4 L 98.52 152.69 L 98.52 152.52 L 98.61 152.43" /><path d="M 98.61 152.43 L 98.7 152.34 L 98.79 152.16 L 98.97 151.99" /><path d="M 98.61 152.43 L 98.7 152.25 L 98.88 152.07 L 98.97 151.99" /><path d="M 98.97 151.99 L 99.14 151.9" /><path d="M 99.14 151.9 L 99.5 151.72 L 99.68 151.63 L 99.94 151.63 L 100.12 151.63 L 100.47 151.72" /><path d="M 99.14 151.9 L 99.59 151.63 L 99.85 151.63 L 100.03 151.63 L 100.21 151.63 L 100.47 151.72" /><path d="M 100.47 151.72 L 100.56 151.81 L 100.65 151.81 L 100.92 151.81 L 101.09 151.81" /><path d="M 101.09 151.81 L 101.18 151.81 L 102.16 151.45 L 102.69 151.28" /><path d="M 101.09 151.81 L 101.27 151.72 L 102.24 151.45 L 102.69 151.28" /><path d="M 102.69 151.28 L 104.64 150.39 L 105.61 149.95 L 106.5 149.51 L 106.67 149.42 L 106.85 149.33 L 107.03 149.33 L 107.2 149.24 L 107.38 149.15" /><path d="M 107.38 149.15 L 107.47 149.06 L 107.65 148.97" /><path d="M 107.38 149.15 L 107.56 149.06 L 107.65 148.97" /><path d="M 107.65 148.97 L 107.74 148.97 L 107.91 148.8 L 108.09 148.8 L 108.18 148.71 L 108.97 148.35 L 110.39 147.74 L 110.83 147.56 L 112.96 146.67 L 114.29 146.14 L 114.91 145.96 L 115.53 145.7 L 115.62 145.61 L 115.88 145.52 L 116.06 145.43 L 116.24 145.34 L 116.5 145.26 L 116.68 145.17 L 116.95 145.08 L 117.21 144.99 L 117.65 144.9 L 117.92 144.81 L 118.54 144.46 L 118.81 144.37" /><path d="M 118.81 144.37 L 118.98 144.28 L 119.34 144.19" /><path d="M 118.81 144.37 L 119.07 144.28 L 119.34 144.19" /><path d="M 119.34 144.19 L 119.6 144.1 L 120.04 143.93 L 120.75 143.57" /><path d="M 120.75 143.57 L 121.46 143.31 L 121.64 143.22" /><path d="M 120.75 143.57 L 121.55 143.31 L 121.64 143.22" /><path d="M 121.64 143.22 L 122.44 142.86 L 123.06 142.6 L 124.12 142.16 L 124.83 141.89 L 125.54 141.54" /><path d="M 125.54 141.54 L 125.98 141.36 L 126.16 141.27" /><path d="M 125.54 141.54 L 126.07 141.36 L 126.16 141.27" /><path d="M 126.16 141.27 L 126.33 141.27 L 126.51 141.18 L 126.69 141.18" /><path d="M 126.69 141.18 L 126.95 141.09 L 127.22 141.09 L 127.31 141 L 127.48 141 L 127.66 140.92" /><path d="M 126.69 141.18 L 127.04 141.09 L 127.22 141 L 127.4 141 L 127.57 140.92 L 127.66 140.92" /><path d="M 127.66 140.92 L 128.37 140.56 L 129.96 139.94 L 130.23 139.76 L 130.58 139.59 L 131.65 139.14 L 131.82 139.14 L 132.35 138.88 L 133.68 138.26 L 134.39 137.99 L 134.83 137.82 L 135.28 137.64 L 135.63 137.46 L 135.72 137.46 L 135.9 137.37" /><path d="M 135.9 137.37 L 135.99 137.28 L 136.07 137.28" /><path d="M 135.9 137.37 L 136.07 137.28" /><path d="M 136.07 137.28 L 136.25 137.11 L 136.34 137.02" /><path d="M 136.07 137.28 L 136.16 137.2 L 136.34 137.02" /><path d="M 136.34 137.02 L 136.52 136.84" /><path d="M 136.34 137.02 L 136.43 136.93 L 136.52 136.84" /><path d="M 136.52 136.84 L 136.61 136.75 L 136.78 136.67 L 136.96 136.58 L 137.4 136.67" />
    </g>
  </g>
</svg>