<svg xmlns="http://www.w3.org/2000/svg" viewBox="0 0 360 440" width="360" height="440" fill="none">
  <g shape-rendering="geometricPrecision" text-rendering="geometricPrecision">
    
    <g
      stroke="#111111"
      stroke-opacity="0.94"
      stroke-width="1.65"
      stroke-linecap="round"
      stroke-linejoin="round"
    >
      <path d="M 183.19 217.25 L 182.75 216.81 L 182.48 216.55 L 182.13 216.19 L 181.95 216.01 L 181.77 215.93 L 181.51 215.75 L 180.97 215.48 L 180.8 215.48 L 180.71 215.39 L 180.53 215.48 L 180.44 215.48 L 180.27 215.57 L 180.18 215.75 L 180 216.01" /><path d="M 180 216.01 L 180 216.28 L 180 216.55 L 180 216.81 L 180.09 217.08 L 180.44 217.61" /><path d="M 180 216.01 L 180 216.37 L 180 216.72 L 180 216.9 L 180.18 217.17 L 180.44 217.61" /><path d="M 180.44 217.61 L 180.89 218.23" /><path d="M 180.89 218.23 L 181.51 219.11 L 181.68 219.47" /><path d="M 180.89 218.23 L 181.51 219.2" /><path d="M 181.68 219.47 L 182.39 220.53 L 182.92 221.33 L 183.01 221.51" /><path d="M 181.68 219.47 L 181.51 219.2" /><path d="M 183.01 221.51 L 183.19 221.77 L 183.45 221.95" /><path d="M 183.01 221.51 L 183.28 221.86 L 183.45 221.95" /><path d="M 183.45 221.95 L 183.54 222.04 L 183.72 222.3" /><path d="M 183.45 221.95 L 183.63 222.13 L 183.72 222.3" /><path d="M 183.72 222.3 L 183.81 222.48 L 184.16 222.92 L 184.52 223.45" /><path d="M 184.52 223.45 L 184.61 223.63 L 184.78 223.9" /><path d="M 184.52 223.45 L 184.69 223.72 L 184.78 223.9" /><path d="M 184.78 223.9 L 184.96 223.9 L 185.05 223.99 L 185.14 224.07 L 185.31 224.16 L 185.58 224.16 L 185.84 224.25 L 186.02 224.34 L 186.11 224.43 L 186.29 224.61 L 186.29 224.78 L 186.38 224.96 L 186.46 225.23 L 186.46 225.49 L 186.55 226.91 L 186.55 227.26" /><path d="M 186.55 227.26 L 186.64 227.53 L 186.73 227.7 L 186.82 227.88" /><path d="M 186.55 227.26 L 186.64 227.62 L 186.73 227.79 L 186.82 227.88" /><path d="M 186.82 227.88 L 186.91 227.88 L 187.08 227.97 L 187.35 228.06 L 187.62 228.15 L 187.7 228.24 L 187.88 228.32 L 188.06 228.41 L 188.24 228.59 L 188.41 228.68 L 188.5 228.77 L 189.74 229.21 L 190.72 229.56 L 191.78 230.01 L 192.49 230.36 L 193.02 230.63 L 193.64 230.89" /><path d="M 193.64 230.89 L 193.82 231.07 L 193.99 231.16" /><path d="M 193.64 230.89 L 193.9 231.07 L 193.99 231.16" /><path d="M 193.99 231.16 L 194.08 231.25 L 194.17 231.42 L 194.26 231.6" /><path d="M 194.26 231.6 L 194.35 231.78 L 194.44 231.96 L 194.52 232.31" /><path d="M 194.26 231.6 L 194.44 231.87 L 194.44 232.04 L 194.52 232.31" /><path d="M 194.52 232.31 L 194.61 232.58" /><path d="M 194.61 232.58 L 194.79 233.02 L 194.88 233.28" /><path d="M 194.61 232.58 L 194.88 233.11 L 194.88 233.28" /><path d="M 194.88 233.28 L 195.06 233.46 L 195.14 233.64 L 195.23 233.73 L 195.32 233.82 L 195.41 233.9 L 195.5 233.99 L 195.85 234.17 L 196.21 234.52 L 196.74 234.88 L 196.91 235.06 L 197.09 235.23 L 197.62 235.59 L 197.89 235.76 L 198.07 235.85 L 198.15 235.94 L 198.33 236.12" /><path d="M 198.33 236.12 L 198.33 236.3" /><path d="M 198.33 236.12 L 198.33 236.38 L 198.42 236.47" /><path d="M 198.33 236.3 L 198.42 236.47" /><path d="M 198.33 236.3 L 198.51 236.38" /><path d="M 198.33 236.3 L 198.07 236.12" /><path d="M 198.42 236.47 L 198.42 236.74 L 198.42 237" /><path d="M 198.42 237 L 198.42 237.8 L 198.42 238.24" /><path d="M 198.42 237 L 198.42 237.89 L 198.42 238.24" /><path d="M 198.42 238.24 L 198.42 238.51 L 198.42 238.77 L 198.42 239.04 L 198.42 239.31 L 198.42 239.66 L 198.42 240.37 L 198.42 240.63 L 198.42 241.34 L 198.42 241.79 L 198.42 242.05 L 198.42 242.41 L 198.51 242.67 L 198.51 242.85 L 198.6 243.03 L 198.6 243.29 L 198.69 243.47 L 198.77 243.65" /><path d="M 198.77 243.65 L 198.86 243.82 L 199.04 244.09" /><path d="M 198.77 243.65 L 198.95 243.91 L 199.04 244.09" /><path d="M 199.04 244.09 L 199.22 244.44 L 199.48 244.89 L 199.66 245.24 L 199.75 245.42 L 199.84 245.59 L 200.01 245.77 L 200.1 245.86 L 200.28 246.04 L 200.46 246.21 L 200.63 246.39 L 201.08 246.83 L 201.25 247.01 L 201.61 247.37 L 201.96 247.72 L 202.49 248.16 L 202.67 248.34 L 202.85 248.6 L 203.11 248.78 L 203.38 249.05 L 203.65 249.31 L 203.91 249.58 L 204.35 250.02 L 204.62 250.29 L 204.89 250.55 L 205.33 251 L 205.42 251.08 L 205.68 251.26 L 205.86 251.44 L 206.21 251.88 L 206.75 252.41 L 207.81 253.39" /><path d="M 207.81 253.39 L 207.98 253.56 L 208.16 253.74" /><path d="M 207.81 253.39 L 208.07 253.65 L 208.16 253.74" /><path d="M 208.16 253.74 L 208.34 253.83 L 208.43 254.01 L 208.6 254.18 L 208.69 254.27 L 208.87 254.45 L 209.58 255.16 L 209.84 255.34 L 210.38 255.87 L 210.91 256.31 L 211.44 256.93 L 212.06 257.46 L 212.24 257.55 L 212.32 257.73 L 212.41 257.82 L 212.59 257.99 L 212.86 258.35 L 212.94 258.44 L 213.12 258.7 L 213.3 258.88 L 213.56 259.14 L 214.18 259.85" /><path d="M 214.18 259.85 L 214.63 260.29 L 214.98 260.65" /><path d="M 214.18 259.85 L 214.72 260.38 L 214.98 260.65" /><path d="M 214.98 260.65 L 215.16 260.83 L 215.34 261 L 215.6 261.18 L 215.78 261.36 L 215.87 261.45 L 216.04 261.62 L 216.13 261.8 L 216.31 261.89 L 216.58 262.15 L 216.84 262.42 L 217.11 262.86 L 217.37 263.04 L 217.64 263.39 L 217.73 263.48 L 218.08 263.84" /><path d="M 218.08 263.84 L 218.35 264.19 L 218.79 264.63" /><path d="M 218.08 263.84 L 218.44 264.28 L 218.79 264.63" /><path d="M 218.79 264.63 L 218.88 264.72 L 219.05 264.9 L 219.23 265.17 L 219.5 265.34 L 219.76 265.61 L 219.85 265.79 L 220.03 265.96 L 220.21 266.14 L 220.47 266.32 L 220.65 266.58 L 220.74 266.76 L 220.91 266.85 L 221.09 267.03 L 221.27 267.29 L 221.45 267.38 L 221.62 267.56 L 221.89 267.91 L 222.24 268.27 L 222.33 268.44 L 222.6 268.71 L 222.95 269.15 L 223.13 269.42 L 223.31 269.59 L 223.48 269.77 L 223.75 270.04 L 223.84 270.12 L 224.01 270.39 L 224.19 270.48 L 224.28 270.66 L 224.63 270.92 L 224.72 271.1" /><path d="M 224.72 271.1 L 224.9 271.19 L 225.08 271.36" /><path d="M 224.72 271.1 L 224.99 271.28 L 225.08 271.36" /><path d="M 225.08 271.36 L 225.17 271.45 L 225.34 271.54 L 225.43 271.63 L 225.52 271.72 L 225.7 271.81 L 225.96 271.9 L 226.14 271.98 L 226.32 272.07 L 226.41 272.16 L 226.67 272.25 L 226.76 272.34 L 227.03 272.43 L 227.38 272.6 L 227.65 272.78 L 227.82 272.78 L 228 272.96 L 228.18 272.96 L 228.53 273.14 L 228.71 273.22 L 228.89 273.31 L 229.15 273.49 L 229.51 273.58 L 229.86 273.76 L 230.12 273.93 L 230.21 273.93 L 230.3 274.02 L 230.48 274.11 L 230.57 274.2 L 230.66 274.29 L 230.74 274.29 L 230.83 274.38" /><path d="M 230.83 274.38 L 231.01 274.46 L 231.19 274.73" /><path d="M 230.83 274.38 L 231.01 274.55 L 231.19 274.73" /><path d="M 231.19 274.73 L 231.28 274.82 L 231.36 275 L 231.63 275.26 L 231.9 275.53 L 232.07 275.7 L 232.25 275.88 L 232.43 276.06 L 232.6 276.24" /><path d="M 232.6 276.24 L 232.69 276.41 L 232.87 276.59" /><path d="M 232.6 276.24 L 232.78 276.5 L 232.87 276.59" /><path d="M 232.87 276.59 L 233.05 276.68 L 233.14 276.77 L 233.31 276.86 L 233.4 276.86" /><path d="M 233.4 276.86 L 233.49 276.94 L 233.58 276.94" /><path d="M 233.4 276.86 L 233.58 276.94" /><path d="M 233.58 276.94 L 233.76 276.94 L 233.93 276.94" /><path d="M 233.58 276.94 L 233.67 276.94 L 233.84 276.94 L 233.93 276.94" /><path d="M 233.93 276.94 L 234.02 276.94 L 234.29 276.94 L 234.46 276.94 L 234.82 276.94 L 235.17 276.86 L 235.44 276.86 L 235.62 276.86 L 235.79 276.86 L 236.06 276.86 L 236.15 276.86 L 236.32 276.86 L 236.5 276.86 L 236.59 276.94 L 236.77 277.03 L 236.86 277.12 L 237.03 277.3 L 237.12 277.48 L 237.12 277.56 L 237.21 277.74 L 237.3 277.92 L 237.39 278.36 L 237.56 278.72 L 237.56 278.89 L 237.74 279.42 L 238.1 280.4 L 238.27 281.02 L 238.36 281.37 L 238.45 281.73 L 238.54 281.9 L 238.63 282.17 L 238.63 282.35 L 238.63 282.52 L 238.63 282.7" /><path d="M 238.63 282.7 L 238.63 282.88 L 238.63 283.23" /><path d="M 238.63 282.7 L 238.63 283.05 L 238.63 283.23" /><path d="M 238.63 283.23 L 238.54 283.5 L 238.45 283.85 L 238.18 284.65 L 238.1 284.91" /><path d="M 238.1 284.91 L 237.92 285.36 L 237.92 285.62" /><path d="M 238.1 284.91 L 237.92 285.45 L 237.92 285.62" /><path d="M 237.92 285.62 L 237.83 285.8 L 237.83 285.98 L 237.83 286.15 L 237.83 286.42 L 237.83 287.04 L 237.92 287.31 L 237.92 287.48" /><path d="M 237.92 287.48 L 237.92 287.66 L 238.1 288.1" /><path d="M 237.92 287.48 L 238.01 287.84 L 238.1 288.1" /><path d="M 238.1 288.1 L 238.1 288.28 L 238.18 288.46 L 238.36 288.63 L 238.45 288.81" /><path d="M 238.1 288.1 L 238.18 288.28 L 238.27 288.46 L 238.36 288.72 L 238.45 288.81" /><path d="M 238.45 288.81 L 238.54 288.99" /><path d="M 238.54 288.99 L 238.63 289.08 L 238.72 289.17" /><path d="M 238.54 288.99 L 238.72 289.17" /><path d="M 238.72 289.17 L 238.89 289.34" /><path d="M 238.72 289.17 L 238.8 289.25 L 238.89 289.34" /><path d="M 238.89 289.34 L 238.98 289.43 L 239.16 289.52 L 239.34 289.61 L 239.51 289.7" /><path d="M 238.89 289.34 L 239.07 289.52 L 239.25 289.61 L 239.42 289.7 L 239.51 289.7" /><path d="M 239.51 289.7 L 239.69 289.79 L 239.87 289.79" /><path d="M 239.87 289.79 L 239.96 289.79 L 240.22 289.79" /><path d="M 239.87 289.79 L 240.04 289.79 L 240.22 289.79" /><path d="M 240.22 289.79 L 240.31 289.79 L 240.49 289.79 L 240.58 289.7 L 240.66 289.7 L 240.84 289.61 L 240.93 289.61 L 241.02 289.52 L 241.28 289.43 L 242.17 288.9 L 242.35 288.72 L 242.43 288.72 L 242.7 288.63 L 242.88 288.55 L 243.14 288.46 L 243.41 288.46 L 243.5 288.37 L 243.67 288.37 L 243.85 288.28 L 243.94 288.28" /><path d="M 243.94 288.28 L 244.03 288.19 L 244.12 288.1 L 244.29 288.01" /><path d="M 243.94 288.28 L 244.12 288.19 L 244.21 288.1 L 244.29 288.01" /><path d="M 244.29 288.01 L 244.47 287.75" /><path d="M 244.47 287.75 L 244.65 287.66 L 244.83 287.39 L 245 287.31 L 245.18 287.13" /><path d="M 244.47 287.75 L 244.74 287.57 L 244.91 287.39 L 245.09 287.22 L 245.18 287.13" /><path d="M 245.18 287.13 L 245.62 286.86 L 245.8 286.69" /><path d="M 245.18 287.13 L 245.71 286.77 L 245.8 286.69" /><path d="M 245.8 286.69 L 245.89 286.6 L 246.07 286.51" /><path d="M 246.07 286.51 L 246.15 286.42 L 246.33 286.33" /><path d="M 246.07 286.51 L 246.24 286.42 L 246.33 286.33" /><path d="M 246.33 286.33 L 246.42 286.24 L 246.6 286.24" /><path d="M 246.33 286.33 L 246.51 286.24 L 246.6 286.24" /><path d="M 246.6 286.24 L 246.69 286.15 L 246.86 286.15" /><path d="M 246.6 286.24 L 246.77 286.15 L 246.86 286.15" /><path d="M 246.86 286.15 L 246.95 286.15 L 247.13 286.24 L 247.22 286.24 L 247.39 286.24" /><path d="M 247.39 286.24 L 247.48 286.33 L 247.75 286.42" /><path d="M 247.39 286.24 L 247.57 286.33 L 247.75 286.42" /><path d="M 247.75 286.42 L 247.84 286.42 L 248.01 286.42 L 248.19 286.51" /><path d="M 248.19 286.51 L 248.37 286.51 L 248.55 286.6" /><path d="M 248.19 286.51 L 248.46 286.6 L 248.55 286.6" /><path d="M 248.55 286.6 L 248.63 286.6 L 248.81 286.69" /><path d="M 248.55 286.6 L 248.63 286.69 L 248.81 286.69" /><path d="M 248.81 286.69 L 248.9 286.77 L 248.99 286.86 L 249.08 286.95 L 249.17 287.13 L 249.25 287.31" /><path d="M 249.25 287.31 L 249.34 287.39 L 249.52 287.75" /><path d="M 249.25 287.31 L 249.43 287.57 L 249.52 287.75" /><path d="M 249.52 287.75 L 249.7 288.01 L 249.79 288.19" /><path d="M 249.52 287.75 L 249.7 288.1 L 249.79 288.19" /><path d="M 249.79 288.19 L 249.87 288.28" /><path d="M 249.87 288.28 L 249.96 288.37 L 250.05 288.46" /><path d="M 249.87 288.28 L 250.05 288.46" /><path d="M 250.05 288.46 L 250.14 288.55" /><path d="M 250.14 288.55 L 250.32 288.63" /><path d="M 250.14 288.55 L 250.23 288.63 L 250.32 288.63" /><path d="M 250.32 288.63 L 250.76 288.81 L 251.11 288.99 L 251.29 289.08" /><path d="M 251.29 289.08 L 251.38 289.08 L 251.56 289.17 L 251.73 289.17" /><path d="M 251.29 289.08 L 251.47 289.08 L 251.65 289.17 L 251.73 289.17" /><path d="M 251.73 289.17 L 251.91 289.17 L 252.18 289.25 L 252.53 289.25 L 252.71 289.34" /><path d="M 252.71 289.34 L 252.88 289.34 L 252.97 289.34" /><path d="M 252.71 289.34 L 252.97 289.34" /><path d="M 252.97 289.34 L 253.15 289.34 L 253.24 289.25 L 253.42 289.25 L 253.5 289.17 L 253.59 289.08 L 253.77 288.9" /><path d="M 252.97 289.34 L 253.06 289.34 L 253.24 289.34 L 253.33 289.25 L 253.42 289.17 L 253.59 289.17 L 253.68 288.99 L 253.77 288.9" /><path d="M 253.77 288.9 L 254.12 288.55 L 254.39 288.1 L 254.83 287.48 L 255.28 286.95 L 255.54 286.69 L 255.72 286.42 L 256.52 285.45 L 256.69 285.36 L 257.31 284.56" /><path d="M 257.31 284.56 L 257.4 284.47" /><path d="M 257.31 284.56 L 257.49 284.38" /><path d="M 257.4 284.47 L 257.49 284.38" /><path d="M 257.4 284.47 L 257.58 284.29" /><path d="M 257.49 284.38 L 257.67 284.21" /><path d="M 257.49 284.38 L 257.58 284.29" /><path d="M 257.67 284.21 L 257.76 284.12" /><path d="M 257.67 284.21 L 257.58 284.29" /><path d="M 257.67 284.21 L 257.84 284.03" /><path d="M 257.76 284.12 L 257.84 284.03" /><path d="M 257.76 284.12 L 257.58 284.29" /><path d="M 257.84 284.03 L 257.93 283.94 L 258.02 283.94 L 258.2 283.85" /><path d="M 257.84 284.03 L 257.93 283.85 L 258.11 283.76 L 259.79 280.13 L 260.15 279.42 L 260.32 279.16 L 260.5 278.98 L 260.59 278.72 L 260.68 278.54 L 260.77 278.18 L 260.94 277.3 L 260.94 277.03 L 261.12 275.97 L 261.21 275.44 L 261.3 274.82 L 261.48 273.05 L 261.56 272.16 L 261.65 271.54 L 261.65 271.28 L 261.74 270.92 L 261.83 270.57 L 261.92 270.21 L 262.01 269.95 L 262.54 268.97 L 262.8 268.35 L 263.42 267.2 L 263.78 266.41 L 264.31 265.43 L 264.49 265.08 L 264.66 264.81 L 264.75 264.63 L 264.84 264.46 L 264.93 264.28 L 264.93 264.1 L 265.02 263.84 L 265.11 263.57 L 265.11 263.39 L 265.11 263.13 L 265.11 262.86 L 265.02 262.07 L 264.93 261.45 L 264.93 260.56" /><path d="M 258.2 283.85 L 258.29 283.85 L 258.38 283.85" /><path d="M 258.2 283.85 L 258.38 283.85" /><path d="M 258.38 283.85 L 258.55 283.94 L 258.82 284.03" /><path d="M 258.38 283.85 L 258.46 283.94 L 258.64 283.94 L 258.82 284.03" /><path d="M 258.82 284.03 L 259.26 284.29 L 259.88 284.65 L 260.32 284.91 L 260.77 285.18 L 261.12 285.36 L 261.39 285.53 L 261.65 285.62 L 261.83 285.8 L 262.18 285.98 L 262.63 286.24 L 262.89 286.33 L 263.07 286.42 L 263.25 286.51 L 263.33 286.51 L 263.42 286.51 L 263.51 286.6 L 263.69 286.6" /><path d="M 263.69 286.6 L 263.78 286.6 L 263.95 286.6" /><path d="M 263.69 286.6 L 263.87 286.6 L 263.95 286.6" /><path d="M 263.95 286.6 L 264.04 286.6 L 264.22 286.6 L 264.4 286.6 L 264.49 286.6 L 264.66 286.6 L 264.75 286.6 L 264.84 286.51" /><path d="M 264.84 286.51 L 265.02 286.51 L 265.28 286.42" /><path d="M 264.84 286.51 L 265.11 286.51 L 265.28 286.42" /><path d="M 265.28 286.42 L 265.46 286.42 L 265.73 286.33 L 266.08 286.24 L 266.43 286.15 L 267.05 285.98 L 267.59 285.8 L 268.12 285.62 L 268.29 285.62 L 268.83 285.45 L 268.91 285.45 L 269.09 285.36 L 269.27 285.36 L 269.36 285.27 L 269.53 285.27" /><path d="M 269.53 285.27 L 269.71 285.09 L 269.89 285" /><path d="M 269.53 285.27 L 269.8 285.09 L 269.89 285" /><path d="M 269.89 285 L 269.98 285 L 270.07 284.91 L 270.24 284.83 L 270.42 284.74 L 270.6 284.65 L 271.04 284.38 L 271.31 284.21 L 271.57 284.03 L 272.19 283.67 L 272.28 283.59" /><path d="M 272.28 283.59 L 272.37 283.59 L 272.55 283.5" /><path d="M 272.28 283.59 L 272.46 283.5 L 272.55 283.5" /><path d="M 272.55 283.5 L 272.63 283.41" /><path d="M 272.63 283.41 L 272.81 283.41 L 272.99 283.41" /><path d="M 272.63 283.41 L 272.9 283.41 L 272.99 283.41" /><path d="M 272.99 283.41 L 273.08 283.41 L 273.25 283.41 L 273.43 283.5 L 273.52 283.5 L 273.7 283.59 L 273.79 283.67 L 273.87 283.76 L 273.96 283.85" /><path d="M 273.96 283.85 L 274.05 283.94 L 274.23 284.03 L 274.32 284.21 L 274.49 284.47 L 274.67 284.65 L 274.76 284.83 L 275.02 285.18" /><path d="M 273.96 283.85 L 274.14 284.03 L 274.23 284.12 L 274.4 284.29 L 274.58 284.56 L 274.67 284.74 L 274.85 284.91 L 275.02 285.18" /><path d="M 275.02 285.18 L 275.2 285.53 L 275.29 285.71" /><path d="M 275.29 285.71 L 275.64 286.15 L 275.82 286.42" /><path d="M 275.29 285.71 L 275.64 286.24 L 275.82 286.42" /><path d="M 275.82 286.42 L 275.91 286.69 L 276 286.86 L 276.09 286.95" /><path d="M 276.09 286.95 L 276.18 287.13 L 276.26 287.31 L 276.35 287.57" /><path d="M 276.09 286.95 L 276.26 287.22 L 276.35 287.39 L 276.35 287.57" /><path d="M 276.35 287.57 L 276.44 287.84" /><path d="M 276.44 287.84 L 276.44 288.01 L 276.53 288.37" /><path d="M 276.44 287.84 L 276.44 288.19 L 276.53 288.37" /><path d="M 276.53 288.37 L 276.53 288.46 L 276.53 288.63 L 276.53 288.99 L 276.53 289.7 L 276.53 289.87 L 276.53 290.58 L 276.53 291.03 L 276.53 291.29 L 276.53 291.47 L 276.53 292.35 L 276.53 292.53 L 276.53 292.97 L 276.44 293.24" /><path d="M 276.44 293.24 L 276.44 293.42 L 276.44 293.68 L 276.53 293.86 L 276.53 294.04 L 276.53 294.21 L 276.62 294.39 L 276.8 294.74" /><path d="M 276.44 293.24 L 276.44 293.5 L 276.53 293.77 L 276.53 293.95 L 276.53 294.12 L 276.62 294.3 L 276.71 294.48 L 276.8 294.74" /><path d="M 276.8 294.74 L 276.8 294.83 L 276.97 295.1 L 277.15 295.45" /><path d="M 277.15 295.45 L 277.24 295.63 L 277.33 295.9 L 277.42 296.16 L 277.42 296.43 L 277.5 296.69 L 277.5 297.14" /><path d="M 277.15 295.45 L 277.24 295.72 L 277.33 295.98 L 277.42 296.34 L 277.5 296.6 L 277.5 296.87 L 277.5 297.14" /><path d="M 277.5 297.14 L 277.5 297.58 L 277.5 297.84 L 277.5 298.2 L 277.5 298.46 L 277.5 298.64" /><path d="M 277.5 298.64 L 277.5 298.91 L 277.5 299.08 L 277.59 299.35 L 277.68 299.62" /><path d="M 277.5 298.64 L 277.5 299 L 277.5 299.17 L 277.59 299.53 L 277.68 299.62" /><path d="M 277.68 299.62 L 277.68 299.79 L 277.68 299.97 L 277.77 300.15 L 277.77 300.5" /><path d="M 277.68 299.62 L 277.68 299.88 L 277.77 300.06 L 277.77 300.32 L 277.77 300.5" /><path d="M 277.77 300.5 L 277.77 301.21 L 277.77 301.56" /><path d="M 277.77 301.56 L 277.77 301.92 L 277.77 302.18" /><path d="M 277.77 301.56 L 277.77 302.01 L 277.77 302.18" /><path d="M 277.77 302.18 L 277.77 302.36 L 277.77 302.63" /><path d="M 277.77 302.18 L 277.77 302.45 L 277.77 302.63" /><path d="M 277.77 302.63 L 277.86 302.8 L 277.86 302.98 L 277.95 303.07 L 278.04 303.25" /><path d="M 278.04 303.25 L 278.12 303.42 L 278.39 303.6" /><path d="M 278.04 303.25 L 278.21 303.42 L 278.39 303.6" /><path d="M 278.39 303.6 L 278.83 304.04" /><path d="M 181.51 219.2 L 182.04 218.41 L 182.39 217.79" /><path d="M 181.51 219.2 L 180.89 220.18 L 180.27 221.15 L 179.73 222.04 L 179.47 222.39 L 179.2 222.83 L 179.11 223.01 L 178.94 223.19 L 178.85 223.37 L 178.76 223.45 L 178.67 223.63 L 178.58 223.81 L 178.58 223.99 L 178.49 224.16 L 178.49 224.34 L 178.41 224.61 L 178.49 224.87 L 178.49 225.14 L 178.58 225.4" /><path d="M 252.62 244.62 L 252.18 244.53 L 251.91 244.44 L 251.82 244.35 L 251.65 244.35 L 251.38 244.27 L 251.29 244.27 L 251.2 244.27 L 251.11 244.18 L 250.94 244.18 L 250.76 244.09 L 250.67 244.09 L 250.32 244" /><path d="M 252.62 244.62 L 253.06 244.8 L 253.33 244.89" /><path d="M 252.62 244.62 L 253.15 244.8 L 253.33 244.89" /><path d="M 253.33 244.89 L 253.42 244.97 L 253.59 244.97 L 253.68 245.06 L 253.95 245.15 L 254.21 245.24 L 254.39 245.24 L 254.57 245.33 L 255.19 245.51 L 255.36 245.59 L 255.45 245.68 L 255.63 245.68 L 255.81 245.77 L 256.07 245.95" /><path d="M 256.07 245.95 L 256.16 245.95 L 256.34 246.04" /><path d="M 256.07 245.95 L 256.16 246.04 L 256.34 246.04" /><path d="M 256.34 246.04 L 256.43 246.13 L 256.52 246.13 L 256.6 246.21 L 256.78 246.21 L 256.96 246.3 L 257.14 246.3 L 257.22 246.39" /><path d="M 257.22 246.39 L 257.31 246.39 L 257.4 246.48" /><path d="M 257.22 246.39 L 257.4 246.48" /><path d="M 257.4 246.48 L 257.58 246.57 L 257.76 246.57 L 257.93 246.75 L 258.2 246.92 L 258.38 247.01 L 258.55 247.19 L 258.73 247.37" /><path d="M 257.4 246.48 L 257.49 246.48 L 257.67 246.57 L 257.84 246.66 L 258.02 246.83 L 258.29 247.01 L 258.46 247.1 L 258.64 247.28 L 258.73 247.37" /><path d="M 258.73 247.37 L 258.82 247.54 L 258.91 247.72 L 259.08 247.81 L 259.17 247.9 L 259.35 248.07 L 259.53 248.16" /><path d="M 259.53 248.16 L 259.62 248.25" /><path d="M 259.53 248.16 L 259.62 248.34 L 259.97 248.78" /><path d="M 259.62 248.25 L 259.97 248.78" /><path d="M 259.62 248.25 L 259.7 248.34 L 260.32 249.14 L 260.77 249.67 L 260.86 249.76 L 261.03 249.76 L 261.21 249.67 L 261.3 249.49 L 261.39 249.31 L 261.39 249.22 L 261.39 248.96 L 261.39 248.6 L 261.39 246.83 L 261.39 241.96 L 261.3 240.81" /><path d="M 259.97 248.78 L 261.21 250.38" /><path d="M 261.21 250.38 L 261.21 250.46 L 261.39 250.73 L 261.39 251 L 261.39 251.17" /><path d="M 261.21 250.38 L 261.3 250.55 L 261.39 250.82 L 261.39 251.08 L 261.39 251.17" /><path d="M 261.39 251.17 L 261.39 251.44 L 261.39 253.12 L 261.39 253.56 L 261.48 253.74 L 261.48 253.92" /><path d="M 261.48 253.92 L 261.48 254.1 L 261.56 254.36" /><path d="M 261.48 253.92 L 261.48 254.18 L 261.56 254.36" /><path d="M 261.56 254.36 L 261.65 254.63 L 261.83 254.8 L 262.1 255.25 L 262.36 255.6 L 262.98 256.4 L 263.6 257.28 L 264.13 258.08 L 264.4 258.44 L 264.49 258.61 L 264.57 258.88 L 264.66 258.97 L 264.75 259.23 L 264.75 259.5" /><path d="M 264.75 259.5 L 264.84 259.85 L 264.93 260.56" /><path d="M 264.75 259.5 L 264.84 260.03 L 264.93 260.56" /><path d="M 193.82 233.73 L 195.23 234.26 L 195.59 234.44 L 196.12 234.79 L 196.83 235.32 L 197.18 235.59 L 197.53 235.85 L 198.07 236.12" /><path d="M 198.07 236.12 L 198.24 236.21 L 198.51 236.38" /><path d="M 198.51 236.38 L 199.31 237.18 L 202.49 240.28 L 202.76 240.46 L 203.2 240.72 L 203.47 240.81 L 203.65 240.81 L 203.82 240.9 L 204 240.9 L 204.18 240.81 L 204.35 240.81 L 204.8 240.72 L 205.24 240.55 L 205.95 240.28 L 206.39 240.1 L 207.37 239.84 L 207.72 239.75 L 208.07 239.66 L 208.43 239.57 L 210.46 238.95" /><path d="M 210.46 238.95 L 210.73 238.86 L 211 238.69" /><path d="M 210.46 238.95 L 210.82 238.77 L 211 238.69" /><path d="M 211 238.69 L 211.62 238.24 L 211.97 238.07 L 212.24 237.8 L 212.68 237.45 L 212.86 237.27 L 213.03 237.18 L 213.12 237.18 L 213.3 237.09 L 213.39 237 L 213.65 237 L 213.92 237" /><path d="M 213.92 237 L 214.63 237 L 214.8 237" /><path d="M 213.92 237 L 214.72 237 L 214.8 237" /><path d="M 214.8 237 L 215.16 237 L 215.34 237 L 216.04 237.09 L 216.66 237.09" /><path d="M 216.66 237.09 L 216.93 237.09 L 217.11 237.09 L 217.2 237.09" /><path d="M 216.66 237.09 L 217.02 237.09 L 217.2 237.09" /><path d="M 217.2 237.09 L 217.37 237 L 217.46 236.91 L 217.55 236.74 L 217.64 236.56 L 217.73 236.38" /><path d="M 217.2 237.09 L 217.28 237 L 217.37 236.91 L 217.46 236.83 L 217.64 236.65 L 217.73 236.47 L 217.73 236.38" /><path d="M 217.73 236.38 L 217.82 236.12 L 217.82 235.76 L 217.9 235.59 L 217.99 235.41 L 217.99 235.32 L 218.17 235.06 L 218.61 234.44" /><path d="M 218.61 234.44 L 218.79 234.26 L 218.88 234.08 L 218.97 233.99" /><path d="M 218.61 234.44 L 218.79 234.17 L 218.97 233.99" /><path d="M 218.97 233.99 L 219.14 233.82" /><path d="M 218.97 233.99 L 219.05 233.9 L 219.14 233.82" /><path d="M 219.14 233.82 L 219.23 233.82 L 219.41 233.73" /><path d="M 219.14 233.82 L 219.32 233.73 L 219.41 233.73" /><path d="M 219.41 233.73 L 219.59 233.73 L 219.85 233.73" /><path d="M 219.41 233.73 L 219.67 233.73 L 219.85 233.73" /><path d="M 219.85 233.73 L 219.94 233.64 L 220.21 233.64 L 220.56 233.64 L 220.74 233.55 L 220.91 233.55 L 221.27 233.64 L 221.45 233.64 L 221.71 233.64 L 221.98 233.64 L 222.33 233.73 L 222.51 233.73 L 222.77 233.73 L 222.95 233.73 L 223.48 233.73 L 223.75 233.73" /><path d="M 223.75 233.73 L 223.93 233.82 L 224.1 233.82 L 224.28 233.9 L 224.46 233.99" /><path d="M 223.75 233.73 L 224.01 233.82 L 224.19 233.82 L 224.37 233.9 L 224.46 233.99" /><path d="M 224.46 233.99 L 224.63 233.99 L 224.72 234.08 L 224.81 234.17 L 224.99 234.26 L 225.08 234.35 L 225.25 234.44 L 225.43 234.61" /><path d="M 225.43 234.61 L 225.52 234.7 L 225.7 234.79" /><path d="M 225.43 234.61 L 225.61 234.7 L 225.7 234.79" /><path d="M 225.7 234.79 L 225.87 234.88 L 225.96 234.88 L 226.14 234.97 L 226.32 234.97 L 226.41 234.97 L 227.11 234.97 L 227.29 234.97 L 227.73 234.97 L 228.18 234.97" /><path d="M 228.18 234.97 L 228.53 234.97 L 228.71 234.97 L 228.89 234.97" /><path d="M 228.18 234.97 L 228.62 234.97 L 228.8 234.97 L 228.89 234.97" /><path d="M 228.89 234.97 L 228.97 234.97" /><path d="M 228.97 234.97 L 229.15 235.06 L 229.68 235.14" /><path d="M 228.97 234.97 L 229.24 235.06 L 229.68 235.14" /><path d="M 229.68 235.14 L 229.86 235.14 L 230.04 235.14" /><path d="M 230.04 235.14 L 230.12 235.23 L 230.3 235.23" /><path d="M 230.04 235.14 L 230.21 235.23 L 230.3 235.23" /><path d="M 230.3 235.23 L 230.39 235.32 L 230.48 235.32" /><path d="M 230.3 235.23 L 230.48 235.32" /><path d="M 230.48 235.32 L 230.66 235.41" /><path d="M 230.48 235.32 L 230.57 235.41 L 230.66 235.41" /><path d="M 230.66 235.41 L 230.74 235.5 L 231.54 236.12" /><path d="M 230.66 235.41 L 230.83 235.59 L 231.54 236.12" /><path d="M 231.54 236.12 L 232.16 236.65 L 232.25 236.74 L 232.96 237.36 L 233.14 237.53 L 233.22 237.62 L 233.4 237.8 L 233.49 237.89 L 233.84 238.15 L 234.02 238.33 L 234.29 238.51 L 234.46 238.69 L 234.82 239.04" /><path d="M 234.82 239.04 L 235 239.22 L 235.08 239.31" /><path d="M 234.82 239.04 L 235.08 239.31" /><path d="M 235.08 239.31 L 235.17 239.39" /><path d="M 235.17 239.39 L 235.35 239.57" /><path d="M 235.17 239.39 L 235.26 239.48 L 235.35 239.57" /><path d="M 235.35 239.57 L 235.44 239.57 L 235.62 239.66 L 235.79 239.66 L 236.06 239.75 L 236.32 239.84 L 236.41 239.84 L 236.68 239.93 L 236.77 239.93 L 236.86 239.93 L 236.94 240.01 L 237.3 240.01 L 237.39 240.1 L 237.56 240.1 L 237.65 240.1 L 237.74 240.19" /><path d="M 237.74 240.19 L 237.92 240.19 L 238.1 240.19" /><path d="M 237.74 240.19 L 238.01 240.19 L 238.1 240.19" /><path d="M 238.1 240.19 L 238.18 240.28 L 238.36 240.28 L 238.54 240.28 L 238.72 240.28 L 238.89 240.28" /><path d="M 238.1 240.19 L 238.27 240.28 L 238.45 240.28 L 238.63 240.28 L 238.8 240.28 L 238.89 240.28" /><path d="M 238.89 240.28 L 239.07 240.28 L 239.25 240.28" /><path d="M 238.89 240.28 L 239.16 240.28 L 239.25 240.28" /><path d="M 239.25 240.28 L 239.42 240.28" /><path d="M 239.42 240.28 L 239.51 240.28 L 239.69 240.37 L 239.87 240.37" /><path d="M 239.42 240.28 L 239.6 240.28 L 239.78 240.37 L 239.87 240.37" /><path d="M 239.87 240.37 L 239.96 240.46 L 240.13 240.55 L 240.22 240.63 L 240.4 240.72 L 240.49 240.81 L 240.58 240.9 L 241.02 241.17 L 241.28 241.34 L 241.37 241.43 L 241.46 241.52 L 241.55 241.61 L 241.81 241.79 L 241.99 241.96 L 242.35 242.14 L 242.52 242.32 L 243.14 242.85 L 243.32 242.94 L 243.5 243.11 L 243.59 243.2 L 243.76 243.2 L 243.85 243.29 L 243.94 243.38 L 244.12 243.38 L 244.29 243.47 L 244.47 243.47 L 245.09 243.65 L 245.36 243.65" /><path d="M 245.36 243.65 L 245.45 243.65 L 245.62 243.73 L 245.98 243.73" /><path d="M 245.36 243.65 L 245.53 243.73 L 245.71 243.73 L 245.98 243.73" /><path d="M 245.98 243.73 L 246.33 243.73 L 246.6 243.73 L 246.95 243.82 L 247.22 243.82 L 247.39 243.73 L 248.1 243.73 L 248.37 243.73 L 248.81 243.73 L 248.99 243.73" /><path d="M 248.99 243.73 L 249.43 243.82 L 249.61 243.82 L 249.79 243.82 L 249.96 243.82 L 250.32 244" /><path d="M 248.99 243.73 L 249.52 243.82 L 249.7 243.82 L 249.87 243.82 L 250.05 243.91 L 250.32 244" /><path d="M 261.3 240.81 L 261.39 240.55 L 261.39 240.37 L 261.39 240.19 L 261.48 239.93 L 261.48 239.75 L 261.65 239.48 L 262.01 238.86" /><path d="M 261.3 240.81 L 261.3 240.46 L 261.39 240.28 L 261.39 240.1 L 261.48 239.84 L 261.56 239.57 L 261.65 239.39 L 262.01 238.86" /><path d="M 262.01 238.86 L 262.18 238.51 L 262.36 238.07" /><path d="M 262.36 238.07 L 262.63 237.53 L 262.8 237.27" /><path d="M 262.36 238.07 L 262.72 237.45 L 262.8 237.27" /><path d="M 262.8 237.27 L 262.89 237" /><path d="M 262.89 237 L 262.98 236.56 L 263.07 236.3" /><path d="M 262.89 237 L 262.98 236.47 L 263.07 236.3" /><path d="M 263.07 236.3 L 263.25 235.94 L 263.42 235.59" /><path d="M 263.07 236.3 L 263.25 235.85 L 263.42 235.59" /><path d="M 263.42 235.59 L 263.78 234.79 L 264.04 234.44 L 264.31 233.9 L 264.57 233.55 L 265.02 232.66 L 265.28 232.31 L 265.46 232.04 L 265.73 231.6 L 266.35 230.45 L 266.79 229.65 L 266.88 229.48 L 267.14 229.03 L 267.23 228.77 L 267.41 228.5 L 267.5 228.24 L 267.59 227.79 L 267.85 227 L 267.94 226.73 L 268.03 226.29 L 268.29 225.58 L 268.56 224.69 L 268.56 224.52" /><path d="M 268.56 224.52 L 268.65 224.34 L 268.83 223.9" /><path d="M 268.56 224.52 L 268.65 224.25 L 268.83 223.9" /><path d="M 268.83 223.9 L 269 223.63 L 269.18 223.37 L 269.45 223.19 L 269.71 223.01 L 269.8 222.92 L 269.98 222.83 L 270.15 222.83 L 270.33 222.83 L 270.51 222.83 L 270.86 222.92 L 271.22 223.01 L 271.39 223.01 L 271.84 223.19 L 272.01 223.28 L 272.19 223.28 L 272.37 223.28 L 272.46 223.37 L 272.72 223.45 L 273.87 223.9 L 274.05 223.99 L 274.32 224.07 L 274.49 224.07 L 274.67 224.07 L 275.02 224.07 L 275.2 224.07 L 276 223.9 L 276.26 223.9 L 276.53 223.9 L 277.06 223.99 L 277.5 223.99 L 278.48 223.99 L 278.92 223.99 L 279.28 223.99 L 279.63 223.99 L 280.25 223.99 L 281.4 224.07 L 281.67 224.07 L 281.76 224.07 L 281.93 224.16 L 282.02 224.16 L 282.2 224.25 L 282.38 224.25" /><path d="M 282.38 224.25 L 282.46 224.25 L 282.64 224.25" /><path d="M 282.38 224.25 L 282.55 224.25 L 282.64 224.25" /><path d="M 282.64 224.25 L 282.73 224.16 L 282.91 224.16 L 283 224.16 L 283.17 224.16 L 283.35 224.16 L 283.62 224.25 L 284.06 224.43 L 284.24 224.43 L 284.59 224.61 L 284.94 224.78 L 285.21 224.87 L 285.3 224.87 L 285.39 224.96 L 285.56 224.96 L 286.09 224.96 L 286.54 224.96 L 287.69 225.05 L 288.04 225.05 L 288.49 225.05 L 288.84 225.14 L 289.55 225.14 L 290.17 225.14 L 290.61 225.14 L 290.97 225.23 L 291.59 225.23 L 291.85 225.23 L 292.12 225.23 L 292.83 225.49 L 293.09 225.67 L 293.62 226.11 L 293.89 226.29 L 294.33 226.55 L 294.51 226.64 L 294.6 226.73 L 294.69 226.82" /><path d="M 294.69 226.82 L 294.77 226.82 L 294.95 226.73 L 295.04 226.46" /><path d="M 294.69 226.82 L 294.86 226.73 L 294.95 226.64 L 295.04 226.46" /><path d="M 295.04 226.46 L 295.13 226.11 L 295.31 225.84 L 295.48 225.4 L 295.75 224.61 L 296.01 223.99 L 296.19 223.28 L 296.46 222.57 L 296.63 222.21 L 296.81 221.77 L 296.9 221.59" /><path d="M 296.9 221.59 L 296.99 221.33 L 297.08 220.97 L 297.08 220.71 L 297.08 220.35" /><path d="M 296.9 221.59 L 296.99 221.24 L 297.08 220.8 L 297.08 220.62 L 297.08 220.35" /><path d="M 297.08 220.35 L 297.08 220" /><path d="M 297.08 220 L 297.08 219.65 L 297.08 219.47 L 297.16 219.03" /><path d="M 297.08 220 L 297.08 219.56 L 297.16 219.38 L 297.16 219.03" /><path d="M 297.16 219.03 L 297.34 218.49 L 297.43 218.14 L 297.43 217.96 L 297.78 216.72" /><path d="M 178.58 225.4 L 178.58 225.58 L 178.76 225.76" /><path d="M 178.58 225.4 L 178.67 225.67 L 178.76 225.76" /><path d="M 178.76 225.76 L 178.85 225.93 L 178.94 226.11 L 179.03 226.29 L 179.11 226.38 L 179.65 227.17 L 179.91 227.53 L 180 227.7" /><path d="M 180 227.7 L 180.09 227.88 L 180.27 228.15" /><path d="M 180 227.7 L 180.18 227.97 L 180.27 228.15" /><path d="M 180.27 228.15 L 180.35 228.59 L 180.53 229.21 L 180.62 229.65 L 180.71 230.01 L 180.8 230.45" /><path d="M 180.8 230.45 L 180.89 230.89 L 181.06 231.25" /><path d="M 180.8 230.45 L 180.97 230.89 L 181.06 231.25" /><path d="M 181.06 231.25 L 181.33 231.96 L 181.42 232.13 L 181.51 232.31 L 181.59 232.58 L 181.68 232.75 L 181.77 232.93 L 181.77 233.02 L 181.86 233.46" /><path d="M 181.86 233.46 L 181.95 233.64 L 182.04 233.99" /><path d="M 181.86 233.46 L 181.95 233.82 L 182.04 233.99" /><path d="M 182.04 233.99 L 182.04 234.26 L 182.13 234.52 L 182.13 234.7 L 182.13 234.97" /><path d="M 182.04 233.99 L 182.13 234.44 L 182.13 234.61 L 182.13 234.79 L 182.13 234.97" /><path d="M 182.13 234.97 L 182.13 237.71 L 182.04 238.07 L 182.04 238.95 L 182.04 240.01 L 182.04 240.55 L 182.04 240.9 L 182.04 241.34 L 182.04 241.87 L 182.04 242.32 L 182.04 242.76 L 182.04 243.38 L 181.95 244.18 L 181.95 245.42 L 181.95 246.39 L 181.95 246.75 L 181.95 247.19 L 181.95 247.63 L 181.95 247.9 L 181.95 248.25 L 181.95 248.6 L 181.95 248.87 L 181.95 249.22 L 181.95 249.58 L 181.95 249.93 L 181.95 250.2 L 181.95 250.46 L 181.95 250.91 L 181.95 251.17 L 181.95 251.35 L 181.86 251.53" /><path d="M 181.86 251.53 L 181.86 251.7 L 181.86 251.79" /><path d="M 181.86 251.53 L 181.86 251.79" /><path d="M 181.86 251.79 L 181.77 251.97 L 181.77 252.15 L 181.68 252.24 L 181.59 252.41 L 181.51 252.5 L 181.33 252.68" /><path d="M 181.86 251.79 L 181.77 251.88 L 181.77 252.06 L 181.68 252.15 L 181.59 252.32 L 181.51 252.41 L 181.42 252.59 L 181.33 252.68" /><path d="M 181.33 252.68 L 181.24 252.77 L 181.15 252.94 L 181.06 253.12 L 180.97 253.3" /><path d="M 180.97 253.3 L 180.97 253.48 L 180.89 253.65 L 180.89 253.83 L 180.89 254.54" /><path d="M 180.97 253.3 L 180.89 253.56 L 180.89 253.74 L 180.89 254.01 L 180.89 254.54" /><path d="M 180.89 254.54 L 180.89 254.8" /><path d="M 180.89 254.8 L 180.89 255.07 L 180.89 255.25 L 180.89 255.42 L 180.97 255.69" /><path d="M 180.89 254.8 L 180.89 255.16 L 180.89 255.34 L 180.97 255.51 L 180.97 255.69" /><path d="M 180.97 255.69 L 181.51 256.66" /><path d="M 181.51 256.66 L 181.59 256.84 L 181.68 257.02" /><path d="M 181.51 256.66 L 181.59 256.93 L 181.68 257.02" /><path d="M 181.68 257.02 L 181.68 257.2 L 181.68 257.37 L 181.77 257.64 L 181.68 258.88" /><path d="M 181.68 258.88 L 181.33 280.84 L 181.33 281.46" /><path d="M 181.68 258.88 L 181.33 280.93 L 181.33 281.46" /><path d="M 181.33 281.46 L 181.33 281.81 L 181.33 282.08 L 181.24 282.26 L 181.24 282.43" /><path d="M 181.24 282.43 L 181.24 282.61 L 181.15 285" /><path d="M 181.24 282.43 L 181.24 282.7 L 181.15 285" /><path d="M 181.15 285 L 181.15 285.8 L 181.06 286.69 L 181.06 287.39 L 181.06 288.19 L 180.97 288.99 L 180.97 289.25 L 180.97 289.43" /><path d="M 180.97 289.43 L 180.89 289.7 L 180.62 290.14" /><path d="M 180.97 289.43 L 180.8 289.79 L 180.62 290.14" /><path d="M 180.62 290.14 L 180.35 290.76 L 180.09 291.11 L 179.91 291.38 L 179.65 291.56 L 179.2 291.91 L 178.94 292.09 L 178.85 292.26 L 178.67 292.44 L 178.32 292.8 L 177.52 293.77 L 177.25 293.95" /><path d="M 177.25 293.95 L 177.08 294.12" /><path d="M 177.25 293.95 L 177.17 294.12 L 176.9 294.3 L 176.81 294.48 L 176.72 294.74 L 176.72 295.01 L 176.63 295.28 L 176.63 295.45 L 176.63 295.63 L 176.63 295.9 L 176.63 296.34 L 176.63 296.52 L 176.63 296.78 L 176.63 297.05 L 176.55 297.14 L 176.55 297.31 L 176.46 297.49 L 176.37 297.67 L 176.1 298.29 L 175.84 298.82 L 175.48 299.53 L 175.39 299.79 L 174.86 301.12 L 174.6 301.65 L 174.6 301.83 L 174.51 301.92 L 174.51 302.1 L 174.42 302.36 L 174.42 302.45 L 174.42 303.07 L 174.42 303.51 L 174.42 303.69 L 174.42 303.87 L 174.42 304.31 L 174.33 304.57 L 174.33 305.28 L 174.33 306.26 L 174.33 307.05 L 174.33 307.41 L 174.33 307.67 L 174.33 307.94 L 174.33 308.29 L 174.33 308.91 L 174.33 309.53 L 174.33 309.98 L 174.33 310.24 L 174.33 310.77 L 174.33 311.13 L 174.33 311.48 L 174.42 312.72 L 174.42 313.25 L 174.42 313.61 L 174.42 314.05 L 174.42 314.58 L 174.42 316.09 L 174.42 316.62" /><path d="M 177.08 294.12 L 176.9 294.12 L 176.72 294.12" /><path d="M 177.08 294.12 L 176.81 294.12 L 176.72 294.12" /><path d="M 176.72 294.12 L 176.63 294.12 L 176.46 293.95 L 176.19 293.68 L 175.75 293.33" /><path d="M 175.75 293.33 L 175.57 293.24 L 175.31 293.15" /><path d="M 175.75 293.33 L 175.48 293.15 L 175.31 293.15" /><path d="M 175.31 293.15 L 175.13 293.06 L 174.33 292.88 L 174.07 292.8 L 172.47 292.35 L 172.21 292.26 L 171.41 292" /><path d="M 171.41 292 L 171.32 292 L 171.06 292.09" /><path d="M 171.41 292 L 171.23 292 L 171.06 292.09" /><path d="M 171.06 292.09 L 170.61 292.26 L 170.35 292.35 L 170.17 292.44 L 169.99 292.53 L 169.9 292.62 L 169.64 293.06 L 169.11 293.77 L 169.02 293.86 L 168.75 294.3 L 168.66 294.39 L 168.49 294.57 L 168.31 294.74 L 168.13 294.92 L 167.96 295.01 L 167.69 295.1 L 167.6 295.19 L 167.34 295.19 L 166.98 295.19 L 165.56 295.19 L 164.59 295.19 L 164.41 295.19 L 164.24 295.19 L 163.79 295.19 L 163.53 295.19 L 163.44 295.1 L 162.73 294.92 L 162.2 294.83 L 161.85 294.74 L 161.58 294.66" /><path d="M 161.58 294.66 L 161.14 294.74 L 160.87 294.66" /><path d="M 161.58 294.66 L 161.05 294.66 L 160.87 294.66" /><path d="M 160.87 294.66 L 159.01 294.12" />
    </g>
  </g>
</svg>