<svg xmlns="http://www.w3.org/2000/svg" viewBox="0 0 419 440" width="419" height="440" fill="none">
  <g shape-rendering="geometricPrecision" text-rendering="geometricPrecision">
    
    <g
      stroke="#111111"
      stroke-opacity="0.8"
      stroke-width="1.65"
      stroke-linecap="round"
      stroke-linejoin="round"
    >
      <path d="M 151.32 63.6 L 152.11 65.29 L 152.82 66.61 L 153.35 67.68 L 153.53 68.12 L 153.71 68.47 L 153.8 68.92 L 153.97 69.27 L 154.06 69.8 L 154.24 70.25 L 157.25 83.97 L 157.34 84.59 L 157.43 84.95 L 157.52 85.3 L 157.6 85.65 L 157.78 86.01 L 157.87 86.36 L 158.05 86.72 L 158.14 86.98 L 158.22 87.25 L 158.31 87.43 L 158.49 87.69 L 158.58 87.96 L 158.76 88.13 L 159.11 88.58 L 159.73 89.55 L 160.44 90.44 L 168.14 101.51 L 169.03 102.75 L 170.09 104.34 L 170.27 104.61 L 170.89 105.4 L 171.95 107 L 172.22 107.26 L 172.3 107.62 L 172.48 107.97 L 172.66 108.33 L 172.66 108.5 L 172.75 108.77 L 172.75 109.03 L 172.84 109.3 L 172.84 109.57 L 172.84 109.74 L 172.84 111.43 L 172.84 111.78 L 172.92 112.05 L 172.92 112.31 L 172.92 112.58 L 173.01 112.84 L 173.1 113.2 L 173.37 113.99 L 173.81 115.5 L 173.99 116.12 L 174.25 117.27 L 174.43 117.89 L 175.94 123.12 L 176.29 124.36 L 177.35 127.9" /><path d="M 177.35 127.9 L 177.26 127.9" /><path d="M 177.35 127.9 L 177.44 128.16 L 177.53 128.43 L 177.53 128.69 L 177.62 129.05 L 177.71 129.4 L 177.71 130.2 L 177.8 130.55 L 177.8 130.82 L 177.8 131 L 177.71 131.97 L 177.71 132.24 L 177.71 132.68 L 177.71 133.48 L 177.71 133.74 L 177.8 134.1 L 177.8 134.36 L 177.88 134.63 L 177.97 135.07 L 178.15 135.51 L 178.33 135.87 L 178.95 137.55 L 179.04 137.82 L 179.21 138.08 L 179.3 138.61 L 179.66 139.94 L 179.74 140.3 L 179.83 140.65 L 179.92 141 L 179.92 141.36 L 180.01 141.71 L 180.01 142.07 L 180.01 142.51 L 180.01 143.48 L 180.01 143.93 L 180.01 144.46 L 180.01 144.99 L 180.28 148.89 L 180.45 152.16 L 180.54 152.61 L 180.63 153.05 L 181.25 158.1 L 181.34 158.45 L 181.34 158.81 L 181.43 159.25 L 181.87 160.84 L 181.96 161.37 L 182.13 161.9 L 182.93 164.38 L 183.02 164.83 L 183.11 165.36 L 183.2 165.71 L 183.2 166.07 L 183.73 170.85 L 183.82 171.38 L 183.91 172 L 183.99 172.35 L 184.08 172.71 L 184.17 173.06 L 184.26 173.42 L 185.06 175.9 L 187.8 184.93 L 187.89 185.28 L 187.98 185.46" /><path d="M 187.98 185.46 L 187.8 185.55" /><path d="M 187.98 185.46 L 188.07 185.55 L 188.16 185.73 L 188.33 185.82 L 188.42 185.9 L 188.51 185.99 L 188.69 185.99 L 188.78 186.08 L 189.04 186.08 L 192.94 186.08 L 193.12 186.08 L 193.29 186.17 L 193.47 186.17 L 193.56 186.26 L 193.74 186.35 L 193.82 186.44 L 193.91 186.52 L 194.09 186.61 L 194.18 186.79 L 194.27 186.97 L 194.36 187.14 L 194.44 187.41 L 194.44 187.5 L 196.3 192.72 L 199.23 200.96 L 199.4 201.58 L 199.58 201.93 L 199.67 202.2 L 200.73 204.24 L 200.91 204.59 L 201.09 204.94 L 201.18 205.3 L 201.53 206.45 L 201.62 206.89 L 201.71 207.16 L 201.8 207.42 L 201.88 208.31 L 201.97 208.58 L 202.06 208.93 L 202.15 209.28 L 202.68 210.7" /><path d="M 202.68 210.7 L 202.42 210.88" /><path d="M 202.68 210.7 L 204.81 216.81 L 205.16 217.96 L 205.25 218.14 L 205.34 218.41 L 205.43 218.58 L 205.6 218.67 L 205.78 218.85 L 205.96 219.03 L 206.13 219.2 L 206.67 219.56 L 206.84 219.65 L 207.02 219.73 L 207.2 219.82 L 207.29 219.82 L 207.46 219.82 L 207.64 219.82 L 209.59 219.82" /><path d="M 209.59 219.82 L 210.21 219.82 L 211.09 219.82 L 212.25 219.82 L 212.42 219.82 L 212.69 219.82 L 212.87 219.82 L 213.04 219.91 L 213.13 220 L 213.31 220.09 L 213.4 220.18 L 213.57 220.35" /><path d="M 209.59 219.82 L 209.59 220.89 L 209.59 222.04 L 209.59 223.19" /><path d="M 209.59 219.82 L 209.59 219.03 L 209.59 218.85 L 209.5 218.58 L 209.41 218.41 L 209.32 218.23" /><path d="M 213.57 220.35 L 214.28 221.15 L 214.55 221.51" /><path d="M 213.57 220.35 L 214.55 221.51" /><path d="M 214.55 221.51 L 214.64 221.33" /><path d="M 214.55 221.51 L 214.9 221.95 L 215.08 222.13 L 215.26 222.21 L 215.43 222.3 L 215.61 222.3 L 216.94 222.39 L 217.12 222.39 L 217.2 222.39 L 217.38 222.3 L 217.47 222.3 L 217.56 222.21 L 217.65 222.13 L 217.74 222.04 L 217.82 221.95" /><path d="M 217.82 221.95 L 217.91 221.86 L 218.09 221.59" /><path d="M 217.82 221.95 L 218 221.77 L 218.09 221.59" /><path d="M 218.09 221.59 L 218.09 221.51 L 218.18 221.33 L 218.18 221.15 L 218.36 220.53 L 218.62 219.29 L 218.8 218.32 L 218.89 217.96 L 218.98 217.7 L 219.06 217.43 L 219.51 216.55 L 219.6 216.37 L 219.68 216.1 L 219.77 215.93 L 219.86 215.66 L 219.95 215.04 L 219.95 214.86 L 220.3 213.27 L 220.39 212.92" /><path d="M 220.39 212.92 L 220.22 212.83" /><path d="M 220.39 212.92 L 220.66 212.21 L 220.92 211.41 L 221.01 211.23 L 221.28 210.61 L 221.9 209.2 L 221.99 208.93 L 222.08 208.75 L 222.16 208.58 L 222.16 208.4 L 222.25 208.04 L 222.25 207.69 L 222.25 207.34 L 222.34 206.98" /><path d="M 222.34 206.98 L 222.43 206.63 L 222.52 206.27" /><path d="M 222.34 206.98 L 222.43 206.54 L 222.52 206.27" /><path d="M 222.52 206.27 L 222.87 205.48 L 222.96 205.12 L 223.14 204.59" /><path d="M 223.14 204.59 L 223.23 204.68" /><path d="M 223.14 204.59 L 223.49 203.09 L 223.76 202.2 L 224.02 200.87 L 224.11 200.43 L 224.2 200.07 L 224.2 199.63 L 224.2 199.19 L 224.11 197.42 L 224.02 196.8 L 223.94 195.91 L 223.94 195.47" /><path d="M 223.94 195.47 L 223.85 195.11 L 223.76 194.49" /><path d="M 223.94 195.47 L 223.85 195.03 L 223.76 194.49" /><path d="M 223.76 194.49 L 223.58 193.96 L 223.05 191.84 L 222.25 188.56 L 221.81 186.88 L 220.92 183.25 L 220.66 182.18 L 220.39 181.3 L 220.13 179.88 L 219.6 177.85 L 219.51 177.4 L 219.42 177.05 L 219.24 176.69 L 219.15 176.43 L 218.98 176.07 L 218.8 175.72 L 218.62 175.37 L 218.44 175.01 L 218.18 174.57 L 216.76 172.62 L 216.5 172.27 L 216.32 172 L 216.23 171.73 L 216.05 171.47 L 215.88 171.11 L 215.79 170.76 L 215.61 170.41 L 214.11 165.89 L 213.13 163.14 L 212.42 160.93 L 211.98 159.78 L 211.63 158.89 L 211.27 158.01 L 210.92 157.12 L 210.56 156.33 L 210.3 155.97 L 210.03 155.44 L 209.59 154.64 L 208.97 153.76 L 208.53 153.05" /><path d="M 208.53 153.05 L 208.7 152.87" /><path d="M 208.53 153.05 L 208.44 152.87 L 208.08 152.43 L 207.73 151.9 L 206.22 150.04 L 205.87 149.68 L 205.69 149.42 L 205.25 149.06 L 204.98 148.8 L 204.89 148.62 L 204.81 148.44 L 204.72 148.18 L 204.63 148 L 204.54 147.82 L 204.54 147.56 L 204.45 147.38 L 204.45 147.12 L 204.45 146.76 L 204.45 145.26 L 204.45 144.81 L 204.45 144.37 L 204.36 144.02 L 204.36 143.57 L 204.27 143.22 L 204.27 142.86 L 204.1 142.24 L 203.57 139.41 L 203.48 138.97 L 203.3 137.73 L 203.12 136.75 L 202.95 135.34 L 202.77 134.72 L 201.26 127.19 L 200.38 122.85 L 200.11 121.17" /><path d="M 200.11 121.17 L 199.94 121.17" /><path d="M 200.11 121.17 L 200.02 120.64 L 199.58 118.42 L 199.49 117.98 L 199.4 117.62 L 199.4 117.27 L 199.4 117 L 199.32 116.65 L 199.32 116.38 L 199.4 114.26 L 199.4 113.82 L 199.49 113.37 L 199.49 112.93 L 199.58 112.58 L 199.67 111.78 L 199.76 111.34 L 200.2 108.77 L 200.29 108.5 L 200.29 108.24 L 200.29 107.97 L 200.29 107.71 L 200.29 107.44 L 200.29 107.26 L 200.2 107.09 L 200.11 106.82 L 200.02 106.64 L 200.02 106.47 L 199.85 106.2 L 199.67 105.93 L 198.7 104.69" /><path d="M 287.79 218.32 L 286.81 219.47 L 286.1 220.44 L 285.84 220.71 L 285.66 220.89 L 285.57 220.97 L 285.4 221.06 L 285.22 221.06 L 285.13 221.15 L 283.71 221.24 L 280.7 221.59 L 280.44 221.68 L 280.08 221.77 L 279.82 221.86 L 279.55 221.95 L 279.11 222.21 L 278.58 222.48" /><path d="M 278.58 222.48 L 278.67 222.66" /><path d="M 278.58 222.48 L 276.63 223.72 L 275.65 224.34 L 271.93 226.82 L 271.49 227.08 L 271.23 227.26 L 270.96 227.35 L 270.61 227.44 L 270.34 227.62 L 270.08 227.7 L 269.81 227.79 L 269.46 227.88 L 269.19 227.88 L 268.75 227.97 L 268.3 227.97 L 265.91 227.97 L 264.58 227.97 L 264.23 227.97 L 264.05 227.97 L 263.61 227.97 L 263.17 227.88 L 262.9 227.79 L 262.55 227.62 L 262.19 227.53 L 261.93 227.35 L 261.66 227.17 L 260.78 226.64 L 260.6 226.46 L 260.33 226.38 L 260.16 226.29 L 259.89 226.29" /><path d="M 259.89 226.29 L 258.47 225.93 L 258.03 225.93" /><path d="M 259.89 226.29 L 258.39 225.93 L 258.03 225.93" /><path d="M 258.03 225.93 L 257.68 225.84 L 249.17 225.84 L 249 225.84 L 248.82 225.84 L 248.73 225.76 L 248.64 225.76 L 248.55 225.67 L 248.38 225.58 L 248.29 225.49" /><path d="M 248.29 225.49 L 248.11 225.67" /><path d="M 248.29 225.49 L 247.14 224.43 L 247.05 224.34 L 246.87 224.16 L 245.9 223.54 L 244.3 222.48 L 244.04 222.3 L 243.68 222.13 L 243.42 221.95 L 243.15 221.86 L 242.71 221.68 L 242.36 221.59 L 242 221.42 L 241.56 221.33 L 239.88 220.97" /><path d="M 239.88 220.97 L 239.52 220.89" /><path d="M 239.88 220.97 L 241.47 221.33 L 241.65 221.33 L 241.82 221.33 L 241.91 221.33 L 242.18 221.33 L 242.27 221.33 L 242.44 221.24 L 242.53 221.24 L 242.62 221.15 L 242.8 221.06 L 242.98 220.89 L 243.06 220.8 L 243.24 220.62 L 243.51 220.27 L 244.13 219.47" /><path d="M 239.52 220.89 L 237.22 220.44 L 237.04 220.35 L 236.87 220.35" /><path d="M 239.52 220.89 L 237.31 220.44 L 237.13 220.35 L 236.87 220.35" /><path d="M 236.87 220.35 L 236.6 220.35 L 236.33 220.44" /><path d="M 236.87 220.35 L 236.69 220.35 L 236.51 220.35 L 236.33 220.44" /><path d="M 236.33 220.44 L 236.16 220.44 L 235.98 220.53" /><path d="M 236.33 220.44 L 236.07 220.53 L 235.98 220.53" /><path d="M 235.98 220.53 L 235.8 220.62" /><path d="M 235.8 220.62 L 235.63 220.71 L 235.45 220.89" /><path d="M 235.8 220.62 L 235.63 220.8 L 235.45 220.89" /><path d="M 235.45 220.89 L 235.27 220.97" /><path d="M 235.27 220.97 L 235.09 221.15 L 234.83 221.51 L 232.79 224.34" /><path d="M 235.27 220.97 L 235.18 221.15 L 235.09 221.24 L 234.92 221.51 L 232.79 224.34" /><path d="M 232.79 224.34 L 231.73 225.67" /><path d="M 231.73 225.67 L 231.64 225.76 L 231.55 225.93 L 231.46 226.11 L 231.37 226.29 L 231.37 226.46 L 231.37 226.73" /><path d="M 231.73 225.67 L 231.55 225.84 L 231.46 226.02 L 231.46 226.2 L 231.37 226.38 L 231.37 226.55 L 231.37 226.73" /><path d="M 231.37 226.73 L 231.29 227 L 231.37 227.26 L 231.37 229.21 L 231.37 229.39 L 231.29 229.56 L 231.29 229.74 L 231.2 230.01 L 231.11 230.18 L 230.93 230.36 L 230.84 230.45 L 230.67 230.63 L 228.98 231.69 L 228.81 231.78 L 228.72 231.78 L 228.54 231.87 L 228.36 231.87 L 227.74 231.87 L 227.12 231.87 L 226.86 231.87 L 226.77 231.78 L 226.68 231.78 L 226.5 231.69 L 223.14 229.48 L 222.43 228.94 L 222.34 228.86 L 222.16 228.86 L 221.99 228.77 L 221.72 228.77 L 221.54 228.77 L 221.37 228.86 L 220.92 229.03 L 220.66 229.12 L 220.48 229.12 L 220.3 229.12 L 219.06 229.12 L 215.08 229.12 L 214.11 229.12 L 213.75 229.21 L 213.22 229.3 L 212.95 229.3 L 212.25 229.3" /><path d="M 212.25 229.3 L 211.18 229.3 L 210.92 229.3 L 210.74 229.3 L 210.47 229.12" /><path d="M 212.25 229.3 L 211.27 229.3 L 211.01 229.3 L 210.83 229.3 L 210.65 229.21 L 210.47 229.12" /><path d="M 212.25 229.3 L 212.25 230.98 L 212.25 231.51 L 212.16 231.87 L 212.16 232.31 L 212.07 233.37 L 212.07 233.55 L 212.07 233.73 L 212.07 233.9 L 212.07 234.08 L 212.16 234.26 L 212.16 234.44 L 212.25 234.61 L 212.42 234.79 L 212.51 234.88 L 212.6 235.06 L 212.78 235.14 L 212.95 235.14 L 213.04 235.23 L 213.22 235.23 L 213.31 235.23 L 214.11 235.23 L 219.77 235.23 L 220.04 235.23 L 220.22 235.23 L 220.39 235.32 L 220.57 235.41 L 220.75 235.5 L 220.92 235.68 L 221.1 235.85 L 221.19 235.94 L 221.28 236.12 L 221.37 236.3 L 221.46 236.47 L 221.54 236.65 L 221.63 236.91 L 222.78 240.99 L 222.87 241.43 L 222.96 241.7 L 222.96 241.96 L 223.58 245.15 L 223.76 246.04 L 223.85 246.39 L 224.02 247.1 L 224.02 247.37 L 224.11 247.72 L 224.11 248.07 L 224.11 248.34 L 224.11 249.49 L 224.11 249.76 L 224.11 249.93 L 224.11 250.29 L 224.38 251.79 L 224.38 252.15 L 224.47 252.41 L 224.56 252.59 L 224.64 252.86 L 224.73 253.21 L 226.68 257.28" /><path d="M 212.25 229.3 L 212.25 223.37 L 212.25 219.73 L 212.25 217.79 L 212.25 214.69 L 212.25 208.75 L 212.25 208.49 L 212.25 208.13 L 212.16 207.96 L 212.16 207.78 L 212.07 207.6 L 212.07 207.42 L 211.98 207.25 L 211.89 207.07 L 211.71 206.98 L 211.63 206.89 L 211.45 206.8 L 211.36 206.72 L 211.27 206.72 L 211.09 206.72" /><path d="M 212.25 229.3 L 212.25 230.89 L 212.25 231.16 L 212.16 231.34 L 212.16 231.42 L 212.07 231.69" /><path d="M 210.47 229.12 L 210.3 229.03 L 210.21 228.94" /><path d="M 210.21 228.94 L 210.12 228.86 L 210.03 228.77 L 209.94 228.59" /><path d="M 210.21 228.94 L 210.03 228.86 L 210.03 228.68 L 209.94 228.59" /><path d="M 209.94 228.59 L 209.77 228.41 L 209.68 228.24 L 209.68 228.06 L 209.59 227.88" /><path d="M 209.94 228.59 L 209.85 228.5 L 209.77 228.32 L 209.68 228.15 L 209.59 227.88" /><path d="M 209.59 227.88 L 209.5 227.7 L 209.5 227.44 L 209.23 226.11" /><path d="M 209.23 226.11 L 209.23 225.93 L 209.15 225.76" /><path d="M 209.23 226.11 L 209.23 225.84 L 209.15 225.76" /><path d="M 209.15 225.76 L 209.15 225.58" /><path d="M 209.15 225.58 L 209.23 225.4 L 209.23 225.31" /><path d="M 209.15 225.58 L 209.23 225.31" /><path d="M 209.23 225.31 L 209.23 225.05 L 209.5 224.34 L 209.5 224.16 L 209.59 223.99 L 209.59 223.72 L 209.59 223.19" /><path d="M 209.23 225.31 L 209.23 225.14 L 209.5 224.43 L 209.5 224.25 L 209.59 224.07 L 209.59 223.81 L 209.59 223.19" /><path d="M 209.32 218.23 L 209.23 218.05 L 209.15 217.96" /><path d="M 209.32 218.23 L 209.23 218.14 L 209.15 217.96" /><path d="M 209.15 217.96 L 208.97 217.87" /><path d="M 208.97 217.87 L 208.79 217.79" /><path d="M 208.97 217.87 L 208.88 217.79 L 208.79 217.79" /><path d="M 208.79 217.79 L 208.7 217.7" /><path d="M 208.7 217.7 L 208.44 217.7 L 207.73 217.7" /><path d="M 208.7 217.7 L 208.53 217.7 L 207.73 217.7" /><path d="M 207.73 217.7 L 207.73 217.87" /><path d="M 207.73 217.7 L 204.72 217.7 L 202.77 217.7 L 202.59 217.7 L 202.42 217.79 L 202.33 217.87 L 201.8 218.05 L 201.62 218.14 L 201.44 218.14 L 200.2 218.14" /><path d="M 200.2 218.14 L 197.9 218.14 L 197.01 218.23 L 192.76 218.49 L 192.5 218.58 L 192.41 218.58" /><path d="M 200.2 218.14 L 197.99 218.14 L 197.19 218.23 L 192.85 218.49 L 192.59 218.58 L 192.41 218.58" /><path d="M 192.41 218.58 L 192.23 218.67 L 192.14 218.76 L 191.97 218.85 L 191.88 219.03" /><path d="M 191.88 219.03 L 191.7 219.2 L 191.61 219.38 L 191.52 219.56" /><path d="M 191.88 219.03 L 191.7 219.11 L 191.61 219.29 L 191.52 219.56" /><path d="M 191.52 219.56 L 191.43 219.73" /><path d="M 191.43 219.73 L 191.35 220" /><path d="M 191.43 219.73 L 191.43 219.91 L 191.35 220" /><path d="M 191.35 220 L 191.35 220.18 L 191.35 220.35 L 191.35 220.62 L 191.35 221.06" /><path d="M 191.35 221.06 L 191.43 223.63 L 191.43 223.9 L 191.52 224.07 L 191.52 224.25 L 191.61 224.43 L 191.7 224.61 L 191.7 224.78 L 191.79 224.87 L 191.88 224.96 L 192.05 225.14 L 192.94 226.11 L 193.12 226.38 L 193.29 226.55 L 193.47 226.82 L 193.65 227.17 L 193.91 227.53 L 194.09 227.97 L 194.18 228.32 L 194.71 229.56 L 195.06 230.63 L 195.33 231.07 L 195.51 231.51 L 195.77 231.96 L 197.72 235.14 L 197.99 235.5 L 198.16 235.85 L 198.43 236.21 L 199.23 237.18 L 199.32 237.45 L 199.4 237.53 L 199.49 237.71 L 199.58 237.89 L 199.58 238.07 L 199.58 238.24 L 199.58 238.33 L 199.58 238.51 L 199.58 238.69 L 199.49 238.77 L 199.49 238.95 L 199.4 239.13 L 199.32 239.22 L 199.23 239.48 L 198.7 240.1" /><path d="M 191.35 221.06 L 191.43 222.21 L 191.35 222.66" /><path d="M 198.7 240.1 L 198.78 240.19" /><path d="M 198.7 240.1 L 196.92 242.23" /><path d="M 198.7 240.1 L 198.96 239.75 L 199.32 239.39" /><path d="M 196.92 242.23 L 196.75 242.58 L 196.66 242.76 L 196.57 242.94 L 196.48 243.11" /><path d="M 196.92 242.23 L 196.84 242.49 L 196.66 242.67 L 196.57 242.85 L 196.48 243.11" /><path d="M 196.48 243.11 L 196.39 243.38 L 196.39 243.56 L 196.3 243.73 L 196.3 244.09 L 196.22 245.15" /><path d="M 196.48 243.11 L 196.48 243.29 L 196.39 243.47 L 196.39 243.65 L 196.3 243.91 L 196.3 244.27 L 196.22 245.15" /><path d="M 196.22 245.15 L 196.13 246.39 L 196.13 246.57 L 196.13 246.75" /><path d="M 196.22 245.15 L 196.13 246.48 L 196.13 246.75" /><path d="M 196.13 246.75 L 196.13 246.92 L 196.13 247.1 L 196.13 247.28" /><path d="M 196.13 246.75 L 196.13 247.01 L 196.13 247.28" /><path d="M 196.13 247.28 L 196.22 247.45" /><path d="M 196.22 247.45 L 196.3 247.63 L 196.3 247.81 L 196.39 247.9 L 196.48 248.07 L 196.57 248.16" /><path d="M 196.22 247.45 L 196.3 247.72 L 196.48 247.98 L 196.57 248.16" /><path d="M 196.57 248.16 L 196.75 248.34 L 196.92 248.43" /><path d="M 196.92 248.43 L 197.01 248.52 L 197.19 248.6 L 197.37 248.69 L 197.54 248.69" /><path d="M 196.92 248.43 L 197.1 248.6 L 197.28 248.6 L 197.54 248.69" /><path d="M 197.54 248.69 L 197.81 248.69" /><path d="M 197.81 248.69 L 198.08 248.69 L 198.43 248.69 L 199.49 248.43" /><path d="M 197.81 248.69 L 197.99 248.69 L 198.16 248.69 L 198.34 248.69 L 199.49 248.43" /><path d="M 199.49 248.43 L 200.73 248.16 L 201 248.07" /><path d="M 201 248.07 L 201.18 248.07 L 201.35 248.16" /><path d="M 201 248.07 L 201.18 248.16 L 201.35 248.16" /><path d="M 201.35 248.16 L 201.53 248.25" /><path d="M 201.53 248.25 L 201.62 248.34 L 201.8 248.43 L 201.97 248.6 L 202.06 248.87 L 202.15 249.14 L 202.33 249.49" /><path d="M 201.53 248.25 L 201.71 248.34 L 201.88 248.6 L 201.97 248.69 L 202.15 248.96 L 202.15 249.05 L 202.24 249.22 L 202.33 249.49" /><path d="M 202.33 249.49 L 202.42 249.84 L 203.04 252.32" /><path d="M 203.04 252.32 L 203.12 252.24" /><path d="M 203.04 252.32 L 203.12 252.59 L 203.12 252.86" /><path d="M 203.12 252.86 L 203.21 253.03 L 203.21 253.21 L 203.21 253.39" /><path d="M 203.12 252.86 L 203.21 253.12 L 203.21 253.3 L 203.21 253.39" /><path d="M 203.21 253.39 L 203.12 253.56 L 203.12 253.74 L 203.04 253.92" /><path d="M 203.04 253.92 L 202.95 254.1 L 202.86 254.27 L 202.77 254.45 L 202.59 254.63" /><path d="M 203.04 253.92 L 203.04 254.1 L 202.95 254.18 L 202.86 254.36 L 202.68 254.45 L 202.59 254.63" /><path d="M 202.59 254.63 L 201 255.78 L 200.82 255.87 L 200.73 255.96" /><path d="M 202.59 254.63 L 201 255.69 L 200.91 255.87 L 200.73 255.96" /><path d="M 200.73 255.96 L 200.64 256.04" /><path d="M 200.64 256.04 L 200.56 256.22 L 200.47 256.31 L 200.47 256.49" /><path d="M 200.64 256.04 L 200.64 256.13 L 200.47 256.49" /><path d="M 200.47 256.49 L 200.38 256.58" /><path d="M 200.38 256.58 L 200.29 256.75 L 200.29 256.93 L 200.29 257.11 L 200.29 257.2" /><path d="M 200.38 256.58 L 200.38 256.75 L 200.29 256.84 L 200.29 257.02 L 200.29 257.2" /><path d="M 200.29 257.2 L 200.29 257.46 L 200.29 257.64 L 200.47 258.88 L 200.56 259.14 L 200.64 259.41 L 200.73 259.85 L 200.91 260.29" /><path d="M 200.29 257.2 L 200.29 257.37 L 200.29 257.55 L 200.29 257.82 L 200.47 258.7 L 200.56 259.05 L 200.64 259.32 L 200.73 259.76 L 200.91 260.29" /><path d="M 200.91 260.29 L 201.09 260.65 L 201.44 261.45 L 201.53 261.89 L 201.62 262.15 L 201.71 262.42 L 201.71 262.69 L 201.8 262.95" /><path d="M 201.8 262.95 L 201.8 263.31 L 201.8 263.57 L 201.8 265.61 L 201.8 266.58" /><path d="M 201.8 262.95 L 201.8 263.22 L 201.8 263.48 L 201.8 265.7 L 201.8 266.58" /><path d="M 201.8 266.58 L 201.8 266.94 L 201.8 267.2 L 201.8 267.47 L 201.88 268.62 L 201.88 268.89 L 201.88 269.06" /><path d="M 201.88 269.06 L 201.88 269.51 L 201.8 270.92 L 201.8 271.28 L 201.71 271.63 L 201.62 272.16 L 201.53 272.6" /><path d="M 201.88 269.06 L 201.88 269.42 L 201.8 270.74 L 201.8 271.1 L 201.8 271.36 L 201.8 271.54 L 201.71 271.9 L 201.62 272.34 L 201.53 272.6" /><path d="M 201.53 272.6 L 201.44 273.05" /><path d="M 201.53 272.6 L 201.44 272.78 L 201.44 273.05" /><path d="M 201.44 273.05 L 201.26 273.49 L 201.09 273.84 L 200.11 275.79" /><path d="M 201.44 273.05 L 201.26 273.31 L 201.18 273.58 L 201.09 273.76 L 200.11 275.79" /><path d="M 200.11 275.79 L 199.85 276.32" /><path d="M 199.85 276.32 L 199.23 277.83 L 198.43 279.69" /><path d="M 199.85 276.32 L 199.32 277.65 L 198.43 279.69" /><path d="M 198.43 279.69 L 198.52 279.78" /><path d="M 198.43 279.69 L 198.08 280.4 L 197.9 280.93 L 197.63 281.37 L 197.37 281.9 L 197.01 282.61 L 196.66 283.05 L 196.39 283.41 L 196.22 283.67 L 195.42 284.56" /><path d="M 195.42 284.56 L 195.51 284.65" /><path d="M 195.42 284.56 L 194.98 285 L 194.8 285.18 L 194.71 285.27" /><path d="M 195.42 284.56 L 195.06 284.91 L 194.89 285.09 L 194.71 285.27" /><path d="M 194.71 285.27 L 194.44 285.36 L 194.18 285.53 L 193.29 285.89 L 192.85 285.98 L 192.59 286.07 L 192.32 286.07 L 192.05 286.15 L 191.79 286.07 L 185.59 285.45 L 181.25 285.09 L 179.57 284.91 L 178.15 284.74 L 177.8 284.74 L 177.53 284.74 L 177.35 284.74 L 177.09 284.74 L 176.73 284.83 L 176.38 284.91 L 176.11 285.09 L 175.76 285.27 L 175.58 285.45 L 175.32 285.62 L 173.37 287.31 L 173.01 287.57 L 172.66 287.84 L 172.3 288.01 L 172.04 288.1 L 171.68 288.28 L 171.42 288.37 L 170.98 288.46 L 168.94 288.9 L 167.7 289.17 L 166.81 289.43 L 165.57 289.7 L 164.6 289.96 L 163.01 290.32 L 159.02 291.11 L 158.76 291.2 L 158.4 291.38 L 158.14 291.56 L 157.78 291.73 L 157.6 291.82 L 157.43 292 L 157.25 292.18 L 157.07 292.35 L 156.9 292.53 L 156.72 292.71 L 156.54 292.97 L 156.45 293.15 L 156.28 293.42 L 156.19 293.68 L 156.01 293.86 L 155.92 294.12 L 155.83 294.39 L 155.74 294.66 L 155.66 294.92 L 155.57 295.28 L 155.48 295.63 L 155.39 296.07 L 155.21 298.02 L 155.12 298.55 L 155.04 299.7 L 155.04 300.24 L 154.5 305.46 L 154.42 305.99 L 154.42 306.26 L 154.33 306.61 L 154.24 306.97 L 154.15 307.23 L 154.06 307.59 L 153.97 307.85 L 153.88 308.21 L 153.71 308.47 L 153.62 308.83 L 153.44 309.18 L 153.26 309.45 L 153.09 309.8 L 152.82 310.07 L 152.64 310.33 L 152.38 310.6 L 152.2 310.86 L 151.85 311.22 L 151.4 311.48 L 149.81 312.63" /><path d="M 194.71 285.27 L 194.53 285.36 L 193.74 285.71 L 193.56 285.89 L 193.38 285.98 L 193.29 286.07 L 193.2 286.15 L 193.03 286.33 L 192.85 286.6 L 191.26 288.72 L 190.11 290.23 L 190.02 290.49 L 189.84 290.67 L 189.84 290.76 L 189.75 290.94 L 189.66 291.11 L 189.66 291.38 L 189.49 293.33" /><path d="M 258.92 270.04 L 257.94 268.97 L 257.77 268.8 L 257.68 268.62 L 257.5 268.44 L 257.41 268.18 L 257.32 268 L 257.23 267.73 L 257.15 267.47 L 256.7 266.23 L 256.61 265.96 L 256.53 265.7 L 256.44 265.34 L 255.99 264.46 L 255.82 264.19 L 255.64 264.01 L 255.55 263.84 L 255.46 263.75 L 255.29 263.57 L 255.2 263.48 L 252.63 261.53 L 252.27 261.27 L 252.19 261.09 L 252.01 261 L 251.92 260.83 L 251.74 260.65 L 251.65 260.47 L 251.57 260.21 L 251.39 259.85 L 250.95 258.79 L 250.86 258.61 L 250.77 258.52 L 250.68 258.35" /><path d="M 250.68 258.35 L 250.77 258.17 L 250.59 258.26 L 249.71 256.93" /><path d="M 250.68 258.35 L 249.71 256.93" /><path d="M 249.71 256.93 L 249.62 256.75 L 249.53 256.66 L 249.35 256.49 L 249.17 256.4 L 247.4 255.42 L 246.96 255.25 L 246.61 254.98 L 246.25 254.63 L 245.81 254.27 L 244.22 252.68 L 244.13 252.59 L 244.04 252.5 L 243.86 252.41 L 243.68 252.32 L 243.6 252.32 L 243.42 252.32 L 243.24 252.32 L 243.06 252.32 L 242.36 252.5 L 241.38 252.77 L 240.05 253.03" /><path d="M 240.05 253.03 L 240.05 253.3" /><path d="M 240.05 253.03 L 239.08 253.3 L 238.72 253.39 L 238.46 253.48 L 238.19 253.65 L 237.93 253.83 L 237.57 254.1 L 237.4 254.27 L 237.31 254.45 L 237.04 254.72 L 235.98 256.13 L 235.8 256.31 L 235.63 256.49 L 235.45 256.66 L 235.27 256.84 L 234.12 257.73 L 233.94 257.9 L 233.77 258.08 L 233.59 258.26 L 233.23 258.79 L 232.61 259.59 L 231.64 260.83 L 231.2 261.45 L 231.02 261.62 L 230.93 261.71 L 230.75 261.8 L 230.58 261.89 L 230.49 261.98 L 230.31 261.98 L 230.22 262.07 L 229.96 262.07 L 229.87 262.07 L 229.69 262.07 L 229.51 261.98 L 229.43 261.98 L 229.25 261.8 L 229.07 261.71 L 228.98 261.62 L 228.36 261.09 L 228.27 261 L 228.1 260.83 L 228.01 260.56 L 227.92 260.38 L 227.3 258.7 L 227.21 258.35 L 226.68 257.28" /><path d="M 226.68 257.28 L 226.86 257.2" /><path d="M 211.09 206.72 L 209.23 206.72 L 209.06 206.72" /><path d="M 211.09 206.72 L 209.15 206.72 L 209.06 206.72" /><path d="M 209.06 206.72 L 208.88 206.63 L 208.79 206.63 L 208.7 206.54 L 208.53 206.54 L 208.44 206.45 L 208.35 206.27 L 208.26 206.18 L 208.17 206.1 L 208.17 206.01 L 208.08 205.83 L 207.99 205.65 L 207.99 205.48 L 207.99 205.3 L 207.99 205.12 L 207.99 204.24 L 207.99 203.7 L 207.64 198.48 L 207.64 198.3 L 207.64 198.13 L 207.64 197.95 L 207.73 197.77 L 207.73 197.68 L 207.82 197.51 L 207.91 197.42 L 207.99 197.24 L 208.08 197.15 L 208.17 197.06 L 208.35 196.89 L 209.32 196.35 L 209.59 196.18 L 209.68 196.09 L 209.85 196 L 209.94 195.82 L 210.03 195.73 L 210.21 195.47 L 210.65 194.32 L 211.27 192.9 L 213.57 187.85 L 214.19 186.44 L 214.37 186.17 L 214.46 185.9 L 214.73 185.55 L 214.9 185.2 L 215.08 184.84 L 215.34 184.58 L 215.52 184.31 L 216.58 183.34 L 216.76 183.07 L 217.03 182.89 L 217.29 182.72 L 217.56 182.63 L 217.91 182.45 L 218.18 182.45 L 218.44 182.36 L 219.33 182.36 L 220.84 182.18" /><path d="M 220.84 182.18 L 220.75 181.83" /><path d="M 220.84 182.18 L 220.92 182.18 L 224.73 181.56 L 225 181.56 L 225.18 181.56 L 225.44 181.56 L 225.71 181.56 L 226.95 181.74 L 230.93 182.36 L 232.26 182.54 L 232.44 182.54 L 232.7 182.54 L 232.88 182.45 L 233.06 182.36 L 233.23 182.36 L 233.32 182.27 L 233.5 182.1 L 233.59 182.01 L 233.68 181.92 L 233.85 181.74 L 233.94 181.56 L 234.03 181.48 L 234.12 181.21 L 234.21 180.95 L 234.65 179.53" /><path d="M 234.65 179.53 L 234.74 179.62" /><path d="M 234.65 179.53 L 234.92 178.73 L 234.92 178.47 L 235.01 178.2 L 235.01 177.93 L 235.01 177.67 L 235.01 177.4 L 235.01 177.23 L 234.83 176.07 L 234.83 175.72 L 234.74 175.54 L 234.74 175.28 L 234.83 175.1 L 234.83 174.92 L 234.92 174.66 L 234.92 174.39 L 235.01 174.13 L 235.18 173.86 L 235.27 173.68 L 235.45 173.51 L 235.63 173.24 L 235.8 173.15 L 235.98 172.97 L 236.25 172.8 L 236.51 172.71 L 236.78 172.71 L 237.04 172.71 L 237.66 172.71 L 240.67 172.71 L 240.94 172.71 L 241.65 172.71 L 241.91 172.71 L 242.18 172.62 L 242.44 172.62 L 242.71 172.53 L 242.98 172.44 L 243.24 172.27 L 243.51 172.09 L 243.68 171.91 L 243.95 171.65 L 244.39 171.2 L 246.7 168.64 L 246.87 168.46 L 247.14 168.28 L 247.32 168.19 L 247.49 168.19 L 247.67 168.1 L 247.85 168.1 L 248.11 168.1 L 249.44 168.37 L 249.62 168.37 L 249.88 168.37 L 249.97 168.28 L 250.15 168.28 L 250.24 168.19 L 250.41 168.1 L 250.5 168.1 L 250.68 168.02 L 250.77 167.84 L 250.86 167.75 L 251.03 167.57 L 251.12 167.31 L 251.3 167.04 L 251.39 166.78 L 251.74 165.18 L 252.01 163.85 L 252.45 161.99 L 252.81 160.58 L 253.07 159.69 L 253.34 158.72 L 253.69 157.12 L 255.91 148.27 L 256.17 147.56 L 256.35 146.85 L 256.61 146.14 L 256.88 145.43 L 257.15 144.72 L 257.5 144.1 L 257.68 143.66 L 257.94 143.22" /><path d="M 257.94 143.22 L 259.45 140.38" /><path d="M 257.94 143.22 L 259.45 140.47" /><path d="M 199.32 239.39 L 199.4 239.31 L 199.58 239.22" /><path d="M 199.32 239.39 L 199.49 239.22 L 199.58 239.22" /><path d="M 199.58 239.22 L 199.67 239.13 L 199.85 239.13 L 199.94 239.04 L 202.68 239.04 L 202.95 239.04 L 203.12 238.95 L 203.21 238.95 L 203.39 238.77 L 203.48 238.69 L 203.57 238.6 L 203.66 238.51 L 203.83 238.33 L 205.87 234.26 L 205.96 234.17 L 206.05 233.99 L 206.13 233.9 L 206.22 233.82 L 206.49 233.73 L 206.67 233.64 L 207.91 233.46 L 208.17 233.46 L 210.65 232.93 L 210.92 232.84 L 211.09 232.75 L 211.18 232.66 L 211.45 232.58 L 211.54 232.49 L 211.71 232.31 L 211.8 232.13 L 211.89 232.04" /><path d="M 211.89 232.04 L 211.98 231.96 L 212.07 231.69" /><path d="M 211.89 232.04 L 212.07 231.78 L 212.07 231.69" /><path d="M 105.8 234.35 L 106.77 234.08 L 107.21 233.9 L 107.48 233.9 L 108.01 233.82 L 118.64 232.75 L 119.17 232.75 L 119.7 232.58 L 120.23 232.4 L 120.76 232.22 L 121.12 232.04 L 123.6 230.8 L 124.66 230.18 L 126.08 229.39 L 126.52 229.12 L 129.88 226.73 L 130.24 226.46 L 130.59 226.11 L 137.59 219.47 L 137.77 219.29 L 138.21 218.94 L 138.74 218.49 L 139.01 218.41 L 139.18 218.32 L 139.45 218.23 L 139.54 218.23 L 139.8 218.14 L 141.04 218.14 L 141.66 218.05 L 141.84 218.05 L 141.93 218.05 L 142.02 218.14 L 142.19 218.14 L 142.46 218.23" /><path d="M 142.46 218.23 L 142.99 218.58 L 143.88 219.03" /><path d="M 142.46 218.23 L 142.28 218.14 L 142.11 218.05 L 141.93 217.87 L 141.84 217.79 L 141.75 217.61 L 141.66 217.52 L 141.57 217.25 L 141.49 217.17 L 141.49 216.99 L 141.4 216.72 L 141.4 216.46 L 141.31 216.28 L 141.31 216.01 L 141.4 215.75 L 141.84 212.65 L 141.84 212.47 L 141.84 212.21 L 141.84 211.94 L 141.84 211.76 L 141.84 211.59 L 141.84 211.32 L 141.84 211.06 L 141.75 210.79 L 141.66 210.44 L 141.49 210.17 L 141.4 209.82 L 140.07 207.6 L 139.89 207.25 L 139.8 206.98 L 139.63 206.63 L 137.41 201.23 L 137.32 200.87 L 137.15 200.61 L 136.97 200.25 L 136.79 199.99 L 136.62 199.72 L 136.44 199.45 L 136.17 199.28 L 135.91 199.1 L 135.73 198.92 L 135.55 198.83 L 135.38 198.83 L 135.29 198.75 L 135.11 198.75 L 134.93 198.75 L 134.76 198.83 L 134.67 198.83 L 134.49 198.92 L 134.31 199.01 L 134.14 199.1 L 133.96 199.28 L 133.87 199.54 L 133.07 200.52 L 132.9 200.69 L 132.72 200.87 L 132.36 201.14" /><path d="M 143.88 219.03 L 144.76 219.56 L 147.77 221.24 L 148.22 221.51" /><path d="M 143.88 219.03 L 144.85 219.56 L 147.86 221.33 L 148.22 221.51" /><path d="M 148.22 221.51 L 148.48 221.77 L 148.66 221.95 L 148.92 222.13 L 149.1 222.3 L 149.28 222.57 L 151.94 226.2 L 152.2 226.64" /><path d="M 152.2 226.64 L 152.56 227 L 152.91 227.35 L 153.18 227.62 L 153.53 227.88 L 153.97 228.06 L 154.95 228.59" /><path d="M 152.2 226.64 L 152.47 226.91 L 152.73 227.17 L 153.09 227.53 L 153.44 227.79 L 153.71 227.97 L 154.06 228.15 L 154.95 228.59" /><path d="M 154.95 228.59 L 156.28 229.39 L 157.34 230.01" /><path d="M 154.95 228.59 L 156.1 229.3 L 157.34 230.01" /><path d="M 157.34 230.01 L 162.39 232.75 L 162.56 232.93 L 162.83 233.02 L 163.01 233.11" /><path d="M 157.34 230.01 L 162.47 232.84 L 162.74 232.93 L 163.01 233.11" /><path d="M 163.01 233.11 L 163.18 233.11 L 163.63 233.2 L 163.8 233.2 L 163.98 233.2 L 166.55 233.11" /><path d="M 163.01 233.11 L 163.27 233.11 L 163.54 233.2 L 163.71 233.2 L 164.07 233.2 L 166.55 233.11" /><path d="M 166.55 233.11 L 166.81 233.11 L 166.99 233.11 L 167.17 233.02 L 167.43 232.93 L 167.7 232.84" /><path d="M 166.55 233.11 L 166.9 233.11 L 167.26 233.02 L 167.52 232.93 L 167.7 232.84" /><path d="M 167.7 232.84 L 167.88 232.75 L 168.14 232.66" /><path d="M 168.14 232.66 L 168.32 232.49 L 168.94 231.87 L 169.21 231.78" /><path d="M 168.14 232.66 L 168.41 232.4 L 169.03 231.87 L 169.21 231.78" /><path d="M 169.21 231.78 L 169.29 231.6 L 169.47 231.51 L 169.65 231.51 L 169.83 231.42 L 170.18 231.42" /><path d="M 169.21 231.78 L 169.29 231.69 L 169.47 231.6 L 169.56 231.51 L 169.74 231.51 L 169.91 231.42 L 170.18 231.42" /><path d="M 170.18 231.42 L 172.04 231.25 L 173.9 231.16" /><path d="M 173.9 231.16 L 173.99 231.25" /><path d="M 173.9 231.16 L 174.52 231.07 L 176.38 230.98" /><path d="M 173.9 231.16 L 174.61 231.07 L 176.38 230.98" /><path d="M 176.38 230.98 L 176.64 230.89 L 176.82 230.8 L 177.09 230.72" /><path d="M 176.38 230.98 L 176.56 230.89 L 176.73 230.89 L 176.91 230.8 L 177.09 230.72" /><path d="M 177.09 230.72 L 177.53 230.36 L 179.57 229.03 L 179.83 228.86 L 180.9 227.97 L 181.69 227.35" /><path d="M 181.69 227.35 L 181.87 227.17 L 183.2 226.38 L 183.82 226.02 L 185.15 225.05 L 185.5 224.87 L 185.5 224.61 L 185.59 224.87" /><path d="M 181.69 227.35 L 181.96 227.17 L 182.84 226.64 L 183.64 226.11 L 185.23 225.05 L 185.59 224.87" /><path d="M 185.59 224.87 L 185.77 224.78 L 186.03 224.69" /><path d="M 185.59 224.87 L 185.85 224.78 L 186.03 224.69" /><path d="M 186.03 224.69 L 186.21 224.61 L 186.47 224.52" /><path d="M 186.47 224.52 L 190.37 224.07 L 190.55 223.99 L 190.64 223.99" /><path d="M 186.47 224.52 L 190.28 224.07 L 190.46 223.99 L 190.64 223.99" /><path d="M 190.64 223.99 L 190.73 223.9 L 190.81 223.81 L 190.99 223.72" /><path d="M 190.64 223.99 L 190.81 223.9 L 190.9 223.81 L 190.99 223.72" /><path d="M 190.99 223.72 L 191.08 223.63 L 191.08 223.54" /><path d="M 190.99 223.72 L 191.08 223.54" /><path d="M 191.08 223.54 L 191.17 223.45 L 191.26 223.28" /><path d="M 191.26 223.28 L 191.26 223.19 L 191.35 223.01 L 191.35 222.83 L 191.35 222.66" /><path d="M 191.26 223.28 L 191.35 223.1 L 191.35 222.92 L 191.35 222.66" /><path d="M 244.13 219.47 L 244.22 219.65" /><path d="M 244.13 219.47 L 244.84 218.49 L 245.54 217.52 L 246.52 216.28 L 248.38 213.89 L 248.73 213.45 L 249.26 212.74 L 249.71 212.3 L 249.88 211.94 L 250.24 211.59 L 250.5 211.32 L 250.68 211.23 L 250.95 210.97 L 251.21 210.79 L 251.48 210.61 L 251.74 210.35 L 252.19 210.17 L 254.13 209.11 L 254.4 208.93 L 254.58 208.84 L 254.75 208.66 L 255.29 208.13 L 255.46 207.96 L 255.64 207.78 L 255.82 207.69 L 255.99 207.51 L 257.15 206.89" /><path d="M 257.15 206.89 L 257.15 207.07" /><path d="M 257.15 206.89 L 259.18 205.83 L 259.54 205.65 L 259.89 205.39 L 260.33 205.12 L 260.69 204.77 L 261.13 204.41 L 261.48 204.06 L 261.84 203.7 L 262.28 203.26 L 263.43 201.85 L 263.61 201.58 L 263.79 201.31 L 263.96 201.05 L 264.14 200.78 L 265.47 198.48 L 265.74 197.95 L 266.27 197.06 L 266.44 196.8 L 266.62 196.53 L 266.8 196.35 L 267.06 196 L 267.86 195.2" /><path d="M 267.86 195.2 L 267.95 195.38" /><path d="M 267.86 195.2 L 268.57 194.32 L 269.54 193.25 L 272.55 189.8 L 272.91 189.45 L 273.26 188.92 L 274.33 187.5 L 274.95 186.7 L 275.12 186.35 L 276.19 184.93" /><path d="M 132.36 201.14 L 132.45 201.31" /><path d="M 132.36 201.14 L 131.21 202.02 L 130.86 202.2 L 130.5 202.47 L 129.8 202.82 L 129.53 203 L 129.26 203.17 L 128.56 203.7 L 128.29 203.79 L 128.11 203.88 L 127.85 203.97 L 127.05 204.15" /><path d="M 127.05 204.15 L 127.05 204.41" /><path d="M 127.05 204.15 L 125.72 204.32 L 125.55 204.41 L 125.37 204.41 L 124.84 204.68 L 124.57 204.77 L 124.31 204.86 L 124.04 204.94 L 123.86 205.03 L 123.6 205.03 L 123.24 205.03 L 122.98 205.03 L 122.89 205.03 L 122.8 204.94 L 122.53 204.86 L 122.45 204.77 L 122.36 204.68 L 122.27 204.59 L 122.18 204.5 L 121.91 203.97 L 121.21 202.82 L 120.5 201.58 L 119.35 199.54 L 118.9 198.83 L 118.81 198.66" /><path d="M 118.81 198.66 L 118.9 198.57" /><path d="M 118.81 198.66 L 117.13 195.91 L 117.04 195.73 L 116.87 195.56 L 116.69 195.29 L 116.51 195.2 L 116.42 195.11 L 116.25 195.11 L 116.16 195.03 L 116.07 195.03 L 115.89 195.03 L 115.71 194.94 L 115.45 195.03 L 115.36 195.03 L 115.18 195.11 L 113.94 195.65 L 113.5 195.73 L 113.32 195.82 L 113.06 195.91 L 112.7 195.91 L 112.44 196 L 112.26 196 L 111.91 196 L 111.64 195.91 L 111.38 195.91 L 111.11 195.91 L 110.84 195.82 L 110.49 195.73 L 110.22 195.56 L 109.87 195.38 L 109.6 195.2 L 109.34 195.11 L 109.16 194.94 L 108.98 194.76 L 108.72 194.58 L 108.54 194.32 L 108.28 194.05 L 108.01 193.7 L 107.21 192.55 L 106.33 191.22 L 106.15 190.86 L 106.06 190.78 L 105.8 190.51 L 105.53 190.24 L 105.18 189.98 L 104.91 189.8 L 104.64 189.62 L 104.38 189.45 L 104.03 189.36 L 103.76 189.27 L 103.41 189.18 L 101.9 189.09 L 101.28 189 L 100.93 188.92 L 100.66 188.83 L 100.39 188.74 L 99.95 188.56 L 99.69 188.47 L 99.24 188.3 L 98.8 188.03 L 98.53 187.85 L 98.27 187.68 L 97.12 186.79 L 96.67 186.52 L 96.32 186.26 L 95.88 186.08 L 95.43 185.82 L 95.26 185.73 L 95.08 185.64 L 94.64 185.46 L 94.19 185.28 L 94.02 185.2 L 93.75 185.2 L 93.31 185.02 L 92.87 184.93 L 92.51 184.84 L 92.25 184.84 L 92.07 184.84 L 91.63 184.75 L 91.18 184.75 L 90.74 184.75 L 90.3 184.75 L 89.86 184.75 L 89.24 184.84 L 88.97 184.93 L 88.7 185.02 L 88.35 185.11 L 88.08 185.2 L 87.73 185.37 L 85.52 186.52 L 85.25 186.7 L 84.9 186.79 L 84.63 186.88 L 84.36 186.97 L 83.92 187.06 L 83.57 187.14 L 83.12 187.23 L 82.68 187.23 L 82.06 187.23 L 81.62 187.23 L 81.27 187.14 L 80.91 187.14 L 80.65 187.06 L 80.38 186.97 L 80.11 186.88 L 79.85 186.7 L 79.58 186.61 L 79.14 186.44 L 77.63 185.64 L 76.66 185.11 L 73.74 183.51 L 73.47 183.34 L 72.5 182.89 L 71.7 182.54 L 70.9 182.27 L 70.37 182.1 L 69.66 181.92 L 69.04 181.74 L 68.69 181.65 L 68.07 181.48 L 67.36 181.39 L 66.83 181.3 L 66.21 181.21 L 65.59 181.12 L 65.06 181.12 L 64.44 181.12 L 63.64 181.12 L 62.76 181.21 L 61.69 181.3 L 60.1 181.48 L 58.86 181.56 L 58.51 181.56 L 58.24 181.56 L 57.35 181.48 L 56.82 181.39 L 56.56 181.39 L 55.58 181.12 L 53.19 180.5 L 52.66 180.33 L 52.13 180.15 L 51.6 179.88 L 51.07 179.71 L 50.53 179.44 L 50.18 179.17 L 44.51 175.9 L 43.98 175.54 L 43.54 175.28 L 43.27 175.19 L 43.01 175.1 L 42.74 175.01 L 42.39 174.92 L 42.03 174.83 L 41.77 174.75 L 41.41 174.66 L 41.15 174.66 L 40.79 174.66 L 40.44 174.66 L 35.04 174.66 L 34.68 174.75 L 33.89 174.75 L 33.71 174.83 L 33.53 174.83 L 33.35 174.92 L 33.27 175.01 L 33.09 175.19 L 33 175.28 L 32.82 175.45 L 32.73 175.63 L 32.65 175.72 L 32.56 175.99 L 32.47 176.16 L 32.47 176.25 L 32.38 176.43 L 32.38 176.69 L 32.38 176.96 L 32.38 177.93 L 32.38 178.11" /><path d="M 32.38 178.11 L 32.29 178.2 L 32.2 178.47" /><path d="M 32.38 178.11 L 32.29 178.38 L 32.2 178.47" /><path d="M 32.2 178.47 L 32.11 178.73 L 32.03 178.91 L 31.94 179.09 L 31.76 179.17 L 31.58 179.26 L 31.41 179.35 L 31.23 179.35 L 30.52 179.35 L 29.9 179.35 L 29.72 179.35 L 29.63 179.35 L 29.55 179.26 L 29.46 179.26 L 29.28 179.17 L 29.19 179.09 L 29.1 178.91 L 29.01 178.82 L 28.93 178.64 L 28.84 178.47 L 28.84 178.29 L 28.75 178.2 L 28.75 177.93 L 28.75 177.76 L 28.75 175.19 L 28.75 175.01 L 28.84 174.75 L 28.93 174.57 L 28.93 174.39 L 29.01 174.3 L 29.1 174.13 L 29.63 173.59 L 29.72 173.42 L 29.72 173.33 L 29.81 173.24 L 29.9 173.06 L 29.99 172.89 L 29.99 172.71 L 29.99 172.53 L 29.99 172.27 L 30.08 167.22 L 30.08 166.69 L 29.99 166.24 L 29.99 165.98 L 29.9 165.62 L 29.81 165.36 L 29.72 165 L 26.8 156.41 L 26.62 155.97 L 26.45 155.53 L 26.36 155.26 L 26.09 155 L 25.92 154.64 L 25.74 154.47 L 25.21 153.85 L 24.68 153.23 L 24.5 153.14 L 24.32 152.96 L 24.14 152.96 L 23.97 152.87 L 22.82 152.69 L 22.55 152.69 L 21.58 152.69 L 21.31 152.61 L 21.13 152.61 L 20.78 152.52 L 20.51 152.43 L 20.25 152.25 L 19.89 152.07 L 19.63 151.9 L 19.36 151.63 L 16.7 148.97 L 15.55 147.82 L 15.38 147.65 L 15.2 147.56 L 15.11 147.47 L 14.14 146.85 L 13.43 146.5 L 13.25 146.32 L 13.07 146.14 L 12.9 145.88 L 12.01 144.55" />
    </g>
  </g>
</svg>